<?xml version="1.0" encoding="UTF-8" standalone="no"?>
<!-- Created with Inkscape (http://www.inkscape.org/) -->

<svg
   xmlns:dc="http://purl.org/dc/elements/1.1/"
   xmlns:cc="http://creativecommons.org/ns#"
   xmlns:rdf="http://www.w3.org/1999/02/22-rdf-syntax-ns#"
   xmlns:svg="http://www.w3.org/2000/svg"
   xmlns="http://www.w3.org/2000/svg"
   xmlns:sodipodi="http://sodipodi.sourceforge.net/DTD/sodipodi-0.dtd"
   xmlns:inkscape="http://www.inkscape.org/namespaces/inkscape"
   width="500"
   height="100"
   viewBox="0 0 132.29167 26.458334"
   version="1.1"
   id="svg8"
   inkscape:version="0.92.4 (5da689c313, 2019-01-14)"
   sodipodi:docname="header.svg">
  <defs
     id="defs2" />
  <sodipodi:namedview
     id="base"
     pagecolor="#ffffff"
     bordercolor="#666666"
     borderopacity="1.0"
     inkscape:pageopacity="0.0"
     inkscape:pageshadow="2"
     inkscape:zoom="1.4"
     inkscape:cx="98.71878"
     inkscape:cy="-15.866185"
     inkscape:document-units="px"
     inkscape:current-layer="layer2"
     showgrid="false"
     units="px"
     inkscape:window-width="1900"
     inkscape:window-height="1041"
     inkscape:window-x="1930"
     inkscape:window-y="29"
     inkscape:window-maximized="0" />
  <metadata
     id="metadata5">
    <rdf:RDF>
      <cc:Work
         rdf:about="">
        <dc:format>image/svg+xml</dc:format>
        <dc:type
           rdf:resource="http://purl.org/dc/dcmitype/StillImage" />
        <dc:title></dc:title>
      </cc:Work>
    </rdf:RDF>
  </metadata>
  <g
     inkscape:label="Layer 1"
     inkscape:groupmode="layer"
     id="layer1"
     transform="translate(0,-270.54166)" />
  <g
     inkscape:groupmode="layer"
     id="layer2"
     inkscape:label="Layer 2">
    <path
       inkscape:connector-curvature="0"
       id="path864"
       style="font-style:normal;font-variant:normal;font-weight:normal;font-stretch:normal;font-size:40px;line-height:1;font-family:'Patua One';-inkscape-font-specification:'Patua One';letter-spacing:0px;word-spacing:0px;fill:#515144;fill-opacity:1;stroke:none;stroke-width:0.26458335;stroke-opacity:1"
       d="m 9.1006406,5.0940167 0.248992,2.0666579 Q 8.9512426,7.633765 7.9801627,8.0072574 V 19.386325 q 0.9959799,0.398392 1.3694699,0.821683 l -0.248992,2.066657 H 3.2741633 L 3.0251678,20.208008 Q 3.3488617,19.784717 4.3946381,19.386325 V 8.0072574 Q 3.3737603,7.633765 3.0251678,7.1606746 L 3.2741633,5.0940167 Z" />
    <path
       inkscape:connector-curvature="0"
       id="path866"
       style="font-style:normal;font-variant:normal;font-weight:normal;font-stretch:normal;font-size:40px;line-height:1;font-family:'Patua One';-inkscape-font-specification:'Patua One';letter-spacing:0px;word-spacing:0px;fill:#515144;fill-opacity:1;stroke:none;stroke-width:0.26458335;stroke-opacity:1"
       d="m 13.193108,1.3839925 q 0.746985,0 1.244974,0.3983918 0.52289,0.3983919 0.52289,1.0208793 0,1.6433664 -2.589547,5.0545967 L 11.101551,7.3847701 q 0.04979,-3.8096224 0.971079,-5.3533909 0.398392,-0.6473867 1.120478,-0.6473867 z" />
    <path
       inkscape:connector-curvature="0"
       id="path868"
       style="font-style:normal;font-variant:normal;font-weight:normal;font-stretch:normal;font-size:40px;line-height:1;font-family:'Patua One';-inkscape-font-specification:'Patua One';letter-spacing:0px;word-spacing:0px;fill:#515144;fill-opacity:1;stroke:none;stroke-width:0.26458335;stroke-opacity:1"
       d="m 15.52588,9.8249203 q 1.369473,-0.2987938 2.46505,-0.2987938 1.09558,0 1.817663,0.0498 v 1.2449745 q 0.597588,-0.49799 1.493971,-0.8465824 0.896382,-0.3485925 1.618466,-0.3485925 2.838542,0 3.784725,1.4192699 0.622486,-0.597586 1.643365,-0.995978 1.020879,-0.4232919 1.892361,-0.4232919 2.738945,0 3.685123,1.2449749 0.946184,1.220074 0.946184,4.606405 v 4.033718 q 0.971078,0.373492 1.369471,0.846583 l -0.248995,1.917259 h -5.726883 l -0.248996,-1.91726 q 0.348595,-0.47309 1.369473,-0.846583 v -4.9301 q 0,-1.369473 -0.373494,-1.817663 -0.373491,-0.448191 -1.493968,-0.448191 -1.095578,0 -2.091557,0.821684 0.124493,0.846582 0.124493,2.340553 v 4.033717 q 0.971084,0.373492 1.369477,0.846582 l -0.248996,1.91726 H 22.94593 l -0.248995,-1.91726 q 0.348592,-0.47309 1.369473,-0.846582 v -4.9301 q 0,-1.369473 -0.373493,-1.817663 -0.373494,-0.448191 -1.469071,-0.448191 -1.095577,0 -2.091558,0.796783 v 6.399171 q 0.971082,0.373492 1.369473,0.846582 l -0.248995,1.91726 H 15.52588 l -0.248997,-1.91726 q 0.348592,-0.47309 1.369475,-0.846582 v -6.922059 q -0.871484,-0.298793 -1.369475,-0.846583 z" />
    <g
       id="g5310"
       style="fill:#141414;fill-opacity:1;stroke-width:0.82155234"
       transform="matrix(1.2172079,0,0,1.2172079,-35.254785,-2.5964656)">
      <path
         d="M 75.135524,6.3385903 V 9.2638322 L 73.846781,9.4274821 Q 73.58085,9.2229198 73.335376,8.5683201 h -2.45475 v 9.4916939 q 0.818249,0.3273 1.125093,0.675056 l -0.204563,1.697867 H 67.014397 L 66.809836,18.73507 q 0.265931,-0.347756 1.125092,-0.675056 V 8.5683201 h -2.454749 q -0.245474,0.6545997 -0.511405,0.859162 L 63.680031,9.2638322 V 6.3385903 Z"
         style="font-style:normal;font-variant:normal;font-weight:normal;font-stretch:normal;font-size:40px;line-height:1;font-family:'Patua One';-inkscape-font-specification:'Patua One';letter-spacing:0px;word-spacing:0px;fill:#141414;fill-opacity:1;stroke:none;stroke-width:0.21736903"
         id="path870"
         inkscape:connector-curvature="0" />
      <path
         d="m 75.793636,5.9090093 q 1.14555,-0.2659311 2.127449,-0.2659311 0.981899,0 1.656956,0.061369 v 5.1140598 q 0.49095,-0.3273 1.309199,-0.55232 0.81825,-0.225018 1.452392,-0.225018 2.025169,0 2.802505,0.981899 0.777337,0.9819 0.777337,2.986611 v 4.152616 q 0.797794,0.306844 1.125093,0.695512 l -0.204562,1.575131 h -4.704934 l -0.204563,-1.575131 q 0.286387,-0.388668 1.125094,-0.695512 V 14.11196 q 0,-1.104636 -0.368213,-1.472849 -0.347757,-0.388668 -1.288744,-0.388668 -0.940986,0 -1.820604,0.654599 v 5.257253 q 0.797792,0.306844 1.125092,0.695512 l -0.204561,1.57513 h -4.704936 l -0.204562,-1.57513 q 0.286388,-0.388668 1.125093,-0.695512 V 8.1796516 Q 75.998199,7.9341768 75.589074,7.4841395 Z"
         style="font-style:normal;font-variant:normal;font-weight:normal;font-stretch:normal;font-size:40px;line-height:1;font-family:'Patua One';-inkscape-font-specification:'Patua One';letter-spacing:0px;word-spacing:0px;fill:#141414;fill-opacity:1;stroke:none;stroke-width:0.21736903"
         id="path872"
         inkscape:connector-curvature="0" />
      <path
         d="m 88.189799,11.718581 q 0,-0.306844 0.02045,-0.6546 1.902431,-1.022812 4.091249,-1.022812 2.188817,0 3.129804,0.838706 0.961443,0.818249 0.961443,2.741136 v 4.357178 q 0.715969,0.143194 1.125092,0.347756 v 1.779693 q -1.043267,0.490949 -2.986609,0.490949 -0.204563,-0.531862 -0.347757,-1.288743 -0.879618,1.288743 -3.191172,1.288743 -1.370569,0 -2.352468,-0.797793 -0.961442,-0.797793 -0.961442,-2.168361 0,-1.370568 0.900073,-2.147905 0.920531,-0.797793 2.72068,-0.797793 h 2.22973 v -0.981899 q 0,-1.595587 -1.697868,-1.595587 -0.634144,0 -1.043268,0.122737 -0.04092,0.859162 -0.245475,1.329655 h -2.00471 Q 88.189796,12.843673 88.189796,11.71858 Z m 3.682123,6.79147 q 1.043268,0 1.656955,-0.613687 v -1.677411 h -1.431936 q -1.472849,0 -1.472849,1.125093 0,0.511406 0.306842,0.838706 0.3273,0.327299 0.940988,0.327299 z"
         style="font-style:normal;font-variant:normal;font-weight:normal;font-stretch:normal;font-size:40px;line-height:1;font-family:'Patua One';-inkscape-font-specification:'Patua One';letter-spacing:0px;word-spacing:0px;fill:#141414;fill-opacity:1;stroke:none;stroke-width:0.21736903"
         id="path874"
         inkscape:connector-curvature="0" />
      <path
         d="m 103.56714,5.9090093 q 1.166,-0.2659311 2.22973,-0.2659311 1.06372,0 1.8206,0.061369 V 17.978189 q 0.61369,0.102282 1.12509,0.347756 v 1.616043 q -1.22737,0.654599 -3.10934,0.654599 -0.20457,-0.102278 -0.40913,-0.368212 -0.18411,-0.265932 -0.20456,-0.511406 -0.45004,0.368213 -1.16601,0.634144 -0.71597,0.245474 -1.41148,0.245474 -2.20927,0 -3.211626,-1.186462 -0.981899,-1.206917 -0.981899,-3.927597 0,-3.088892 1.51376,-4.336722 1.329655,-1.104637 3.272995,-1.104637 0.85917,0 1.71833,0.204563 V 8.2205642 q -0.94099,-0.2659311 -1.39103,-0.7364247 z m -0.69552,12.6010417 q 1.16601,0 1.88198,-0.695512 v -5.482271 q -0.83871,-0.204563 -1.7797,-0.204563 -0.94098,0 -1.37056,0.838706 -0.40913,0.81825 -0.40913,2.475205 0,1.636499 0.40913,2.352467 0.40912,0.715968 1.26828,0.715968 z"
         style="font-style:normal;font-variant:normal;font-weight:normal;font-stretch:normal;font-size:40px;line-height:1;font-family:'Patua One';-inkscape-font-specification:'Patua One';letter-spacing:0px;word-spacing:0px;fill:#141414;fill-opacity:1;stroke:none;stroke-width:0.21736903"
         id="path876"
         inkscape:connector-curvature="0" />
    </g>
    <path
       inkscape:connector-curvature="0"
       id="path878"
       style="font-style:normal;font-variant:normal;font-weight:normal;font-stretch:normal;font-size:40px;line-height:1;font-family:'Patua One';-inkscape-font-specification:'Patua One';letter-spacing:0px;word-spacing:0px;fill:#515144;fill-opacity:1;stroke:none;stroke-width:0.26458335;stroke-opacity:1"
       d="m 100.486,22.523662 q -2.066655,0 -2.066655,-1.867462 0,-1.892362 2.066655,-1.892362 2.09156,0 2.09156,1.892362 0,1.867462 -2.09156,1.867462 z" />
    <g
       id="g855"
       transform="translate(105.83338)">
      <ellipse
         ry="8.3343744"
         rx="8.3343754"
         cy="13.229167"
         cx="13.229167"
         id="path818"
         style="opacity:1;fill:none;fill-opacity:1;stroke:#515144;stroke-width:1.85208344;stroke-linecap:square;stroke-miterlimit:4;stroke-dasharray:none;stroke-opacity:1" />
      <circle
         r="1.5875"
         cy="13.229167"
         cx="13.229167"
         id="path818-3"
         style="opacity:1;fill:#141414;fill-opacity:1;stroke:none;stroke-width:1.85208344;stroke-linecap:square;stroke-miterlimit:4;stroke-dasharray:none;stroke-opacity:1" />
      <path
         inkscape:transform-center-x="6.8763563"
         inkscape:connector-curvature="0"
         id="path893"
         d="M 0,13.229168 H 4.4155106"
         style="fill:none;fill-opacity:1;stroke:#515144;stroke-width:1.85208321;stroke-linecap:butt;stroke-linejoin:miter;stroke-miterlimit:4;stroke-dasharray:none;stroke-opacity:1" />
      <path
         inkscape:connector-curvature="0"
         id="path893-5"
         d="M 13.229167,-3.308122e-8 V 4.3763698"
         style="fill:none;fill-opacity:1;stroke:#515144;stroke-width:1.85208321;stroke-linecap:butt;stroke-linejoin:miter;stroke-miterlimit:4;stroke-dasharray:none;stroke-opacity:1" />
      <path
         inkscape:connector-curvature="0"
         id="path893-5-6"
         d="m 13.229167,21.837623 v 4.620711"
         style="fill:none;fill-opacity:1;stroke:#515144;stroke-width:1.85208333;stroke-linecap:butt;stroke-linejoin:miter;stroke-miterlimit:4;stroke-dasharray:none;stroke-opacity:1" />
      <path
         inkscape:transform-center-x="7.4040295"
         inkscape:connector-curvature="0"
         id="path893-3"
         d="m 21.703988,13.229167 h 4.754346"
         style="fill:none;fill-opacity:1;stroke:#515144;stroke-width:1.85208333;stroke-linecap:butt;stroke-linejoin:miter;stroke-miterlimit:4;stroke-dasharray:none;stroke-opacity:1" />
    </g>
  </g>
</svg>
