<?xml version="1.0" encoding="UTF-8" standalone="no"?>
<!-- Created with Inkscape (http://www.inkscape.org/) -->

<svg
   width="150"
   height="60"
   viewBox="0 0 39.6875 15.874999"
   version="1.1"
   id="svg5"
   inkscape:version="1.2.2 (732a01da63, 2022-12-09)"
   sodipodi:docname="fb.svg"
   xmlns:inkscape="http://www.inkscape.org/namespaces/inkscape"
   xmlns:sodipodi="http://sodipodi.sourceforge.net/DTD/sodipodi-0.dtd"
   xmlns="http://www.w3.org/2000/svg"
   xmlns:svg="http://www.w3.org/2000/svg">
  <sodipodi:namedview
     id="namedview7"
     pagecolor="#000000"
     bordercolor="#666666"
     borderopacity="1.0"
     inkscape:showpageshadow="2"
     inkscape:pageopacity="0"
     inkscape:pagecheckerboard="0"
     inkscape:deskcolor="#d1d1d1"
     inkscape:document-units="px"
     showgrid="false"
     inkscape:zoom="2.3786088"
     inkscape:cx="7.7776556"
     inkscape:cy="-72.73159"
     inkscape:window-width="2560"
     inkscape:window-height="1387"
     inkscape:window-x="-8"
     inkscape:window-y="-8"
     inkscape:window-maximized="1"
     inkscape:current-layer="layer1" />
  <defs
     id="defs2" />
  <g
     inkscape:label="Layer 1"
     inkscape:groupmode="layer"
     id="layer1"
     transform="translate(204.32951,-60.703478)">
    <g
       aria-label="-"
       id="text3751"
       style="font-size:16.9333px;line-height:1.25;font-family:Thadscript;-inkscape-font-specification:Thadscript;fill:#1a1a1a;stroke-width:0.198349"
       transform="matrix(1.3339234,0,0,1.3339234,69.085148,27.757723)">
      <path
         d="m -203.32129,30.669668 q 1.524,0 3.81,-0.101599 0.28786,0 0.42333,-0.06773 0.13547,-0.06773 0.23707,-0.06773 0.0339,0 0.1016,0 0.0677,-0.01693 0.0847,-0.01693 0.33867,0 0.5588,0.220133 0.13547,0.135466 0.1016,0.491066 l -0.0169,0.270932 -0.18627,0.08467 q -0.16933,0.06773 -0.3556,0.03387 -0.22013,-0.03387 -0.23706,-0.01693 -0.1016,0.0508 -2.1844,0.118533 -0.22013,0.01693 -0.67733,0.0508 -0.4572,0.03387 -0.74507,0.03387 -0.762,0 -0.94826,0.1524 -0.0677,0.06773 -0.22013,0 -0.13547,-0.0508 -0.16934,-0.01693 -0.0339,0.03387 -0.254,-0.220133 -0.23706,-0.253999 -0.254,-0.423332 -0.0508,-0.372533 0.1524,-0.440266 0.0677,-0.03387 0.0677,-0.0508 0,-0.03387 0.71119,-0.03387 z"
         id="path3753"
         style="fill:#1a1a1a;stroke-width:0.198349" />
    </g>
    <path
       d="m -196.80535,62.028364 c -0.16219,0.01895 -0.3243,0.03923 -0.48549,0.06531 -0.0812,0.01528 -0.16302,0.03068 -0.23879,0.06495 -0.0878,0.04377 -0.17627,0.08629 -0.26017,0.13736 -0.16934,0.09639 -0.33733,0.195224 -0.50748,0.290155 -0.10712,0.0597 -0.22346,0.100044 -0.33616,0.147711 -0.0759,0.0314 -0.15348,0.05896 -0.22563,0.09862 -0.0759,0.03623 -0.1411,0.09153 -0.20334,0.147331 -0.0846,0.07461 -0.16293,0.155775 -0.24144,0.236588 -0.0746,0.09473 -0.15006,0.189102 -0.21363,0.291796 -0.0686,0.107407 -0.13623,0.215792 -0.18953,0.331727 -0.055,0.111862 -0.11018,0.223802 -0.15437,0.340445 -0.0537,0.184295 -0.10071,0.370344 -0.14395,0.557324 -0.0252,0.109075 -0.0535,0.21751 -0.0771,0.32689 -0.0153,0.08594 -0.012,0.173843 -0.0193,0.260689 -0.015,0.254331 -0.0189,0.509144 -0.0283,0.763724 l -0.10898,3.403619 -0.008,2.641794 c -0.0334,0.434739 -0.0689,0.86933 -0.10591,1.30375 -0.0402,0.338032 -0.0752,0.676664 -0.11298,1.014983 -0.0166,0.07601 -0.0203,0.154678 -0.0107,0.231873 0.0205,0.08231 0.0537,0.161401 0.10445,0.229684 0.0498,0.06365 0.10071,0.127762 0.16586,0.176674 0.0687,0.05616 0.14993,0.09456 0.233,0.124228 0.072,0.02345 0.14752,0.03933 0.22354,0.03997 0.0809,-0.0019 0.15727,-0.031 0.23448,-0.0521 0.0825,-0.02102 0.1583,-0.05966 0.23447,-0.0964 0.0943,-0.05266 0.18517,-0.111169 0.27617,-0.169347 0.0545,-0.04609 0.0952,-0.110982 0.10004,-0.183525 0.0153,-0.188612 0.0164,-0.377967 0.024,-0.566975 0.012,-0.408811 0.0332,-0.817309 0.0481,-1.226028 0.0378,-0.956502 0.0779,-1.912912 0.11698,-2.869365 0.007,-0.02442 -0.0133,-0.07519 0.0312,-0.06773 l 0.62788,-0.099 c 0.24125,-0.0205 0.48243,-0.04294 0.72439,-0.05353 0.22397,-0.01107 0.44805,-0.01971 0.67207,-0.02984 0.22839,0.0069 0.45679,0.01394 0.6852,0.02085 0.12806,-0.0097 0.25687,-0.01476 0.38381,-0.03442 0.0753,-0.01495 0.14833,-0.04439 0.21115,-0.08875 0.0677,-0.04703 0.12885,-0.102472 0.18142,-0.166027 0.0463,-0.06287 0.0803,-0.135162 0.0983,-0.211176 0.01,-0.07867 0.006,-0.160073 -0.0106,-0.237528 -0.0283,-0.08219 -0.093,-0.146138 -0.1496,-0.210096 -0.062,-0.06231 -0.12446,-0.124628 -0.19284,-0.180113 -0.0928,-0.06118 -0.17404,-0.140058 -0.27356,-0.190645 -0.077,-0.03669 -0.16076,-0.05437 -0.24228,-0.0777 -0.08,-0.01574 -0.16137,-0.03191 -0.2431,-0.01976 -0.12326,0.01416 -0.24343,0.04578 -0.36441,0.07218 -0.11031,0.02342 -0.21967,0.05218 -0.3308,0.07183 -0.0805,0.0087 -0.16109,0.01737 -0.2415,0.0274 -0.25016,0.02727 -0.50012,0.05661 -0.75041,0.08261 l -0.56047,0.04712 c -0.077,0.0016 -0.1763,0.0013 -0.21624,-0.07816 -0.0279,-0.06421 -0.0199,-0.135133 -0.0208,-0.203215 -0.0133,-0.51759 -0.026,-1.035181 -0.0391,-1.552771 0.0166,-0.390796 0.0329,-0.781595 0.0495,-1.172393 0.0208,-0.194426 0.0362,-0.389847 0.0747,-0.581853 0.0215,-0.122161 0.0454,-0.24455 0.0878,-0.361422 0.0265,-0.08944 0.0561,-0.178129 0.0949,-0.263182 0.038,-0.08229 0.0747,-0.166402 0.12965,-0.239181 0.0747,-0.09726 0.14433,-0.198887 0.22757,-0.289134 0.0532,-0.05304 0.10458,-0.113011 0.17756,-0.138841 0.0697,-0.02994 0.14203,-0.05363 0.211,-0.08558 0.24354,-0.123802 0.48516,-0.251371 0.72898,-0.374615 0.0772,-0.03547 0.15055,-0.08181 0.23445,-0.100352 0.08,-0.01951 0.16115,-0.03532 0.24284,-0.0461 0.10684,-0.0047 0.21362,-0.01227 0.32045,-0.01824 0.0805,0.0021 0.15174,0.04364 0.22666,0.06773 0.12378,0.05005 0.24851,0.09776 0.36953,0.15426 0.12179,0.05548 0.24674,0.105086 0.36119,0.175088 0.12206,0.06616 0.11472,0.29809 0.21283,0.394332 0.0565,0.06302 0.11005,0.129124 0.16159,0.196357 0.11965,0.161806 0.15402,0.485736 0.27532,0.646346 0.0862,0.119066 0.15841,0.122347 0.2478,0.238991 0.0568,0.05707 0.32055,-0.05443 0.40389,-0.04163 0.068,0.0097 0.1437,-0.0049 0.19319,-0.05536 0.05,-0.04716 0.0478,-0.120453 0.0368,-0.18278 -0.0159,-0.113196 -0.0325,-0.226337 -0.0574,-0.337953 -0.0233,-0.119199 -0.0541,-0.236667 -0.0875,-0.35342 -0.0266,-0.08425 -0.0399,-0.173588 -0.0806,-0.252666 -0.0338,-0.07843 -0.0782,-0.151759 -0.11166,-0.230162 -0.0352,-0.09045 -0.0749,-0.179408 -0.12685,-0.261613 -0.0481,-0.08428 -0.0994,-0.166684 -0.15443,-0.246579 -0.0583,-0.08805 -0.11752,-0.175377 -0.17689,-0.262723 -0.0641,-0.05098 -0.12792,-0.103873 -0.20321,-0.138081 -0.315,-0.152609 -0.62924,-0.306845 -0.94644,-0.454858 -0.0927,-0.04378 -0.18538,-0.08756 -0.27806,-0.131337 -0.083,-0.02818 -0.16634,-0.05511 -0.25012,-0.08077 -0.17566,-0.0197 -0.35135,-0.04015 -0.52745,-0.05519 -0.0458,3.82e-4 -0.0914,-0.0076 -0.1369,-0.0021 z"
       id="path3760"
       style="font-size:16.9333px;line-height:1.25;font-family:Thadscript;-inkscape-font-specification:Thadscript;fill:#1a1a1a;stroke-width:0.264583"
       sodipodi:nodetypes="cscsccccsccscscsccsccsccscscscsscssscccscccscsccccssccccccccccccccccccccccccccccccccccccccc" />
    <g
       aria-label="acebook"
       id="text3818"
       style="font-size:11.2939px;line-height:1.25;font-family:Thadscript;-inkscape-font-specification:Thadscript;fill:#1a1a1a;stroke-width:0.264583">
      <path
         d="m -193.34498,72.000433 q -0.0339,-0.214585 -0.1694,-0.51952 -0.0113,-0.01129 -0.0226,-0.01129 -0.0904,0 -0.36141,0.553401 -0.24846,0.496932 -0.24846,0.564695 l 0.0113,0.02259 q 0.0226,0.02259 0.16941,0.02259 0.0904,0 0.16941,0.01129 0.0791,0.01129 0.11294,0.01129 0.0113,0 0.19199,-0.02259 l 0.23718,-0.03388 -0.0113,-0.124233 q 0,-0.112939 -0.0339,-0.259759 -0.0339,-0.146821 -0.0452,-0.214584 z m -0.71151,-1.377856 q 0.0678,-0.112939 0.11294,-0.135527 0.0452,-0.02259 0.16941,0 0.0339,0 0.11293,0.01129 0.0791,0 0.10165,0 0.0791,0 0.0904,0.04518 0.0113,0.04518 0.11294,0.101645 0.10165,0.05647 0.11294,0.07906 0,0.01129 0.0226,0.07906 0.0226,0.05647 0.0452,0.09035 0.12424,0.237172 0.1807,0.406581 0.0113,0.02259 0.0904,0.259759 0.079,0.237172 0.15811,0.508226 0.0339,0.124233 0.0565,0.214584 0.0226,0.09035 0.0452,0.169409 0.0226,0.07906 0.0339,0.112939 0.0226,0.07906 0.0226,0.135526 0,0.01129 0.0452,0.180703 0.0452,0.169408 0.0452,0.191996 0,0.25976 0.29364,0.847042 0.12423,0.248466 0.12423,0.372699 0,0.112939 -0.0565,0.248466 -0.0452,0.135527 -0.0904,0.135527 -0.0339,0 -0.11294,0.05647 -0.0791,0.06776 -0.20329,0.04518 -0.14682,-0.02259 -0.1807,-0.06776 -0.0339,-0.04518 -0.0339,-0.191996 0,-0.158114 -0.0339,-0.293641 -0.0226,-0.135527 -0.079,-0.304936 -0.0565,-0.180702 -0.0791,-0.248465 -0.0339,-0.124233 -0.10164,-0.361405 l -0.0452,-0.124233 -0.20329,-0.02259 q -0.11294,-0.01129 -0.29364,-0.01129 -0.20329,0 -0.36141,-0.01129 -0.0452,0 -0.12423,0 -0.0791,-0.01129 -0.10164,-0.01129 -0.22588,0 -0.25976,0.07906 -0.0226,0.101645 -0.18071,0.417874 -0.15811,0.304935 -0.24846,0.429168 -0.0226,0.02259 -0.11294,0.20329 -0.0904,0.180703 -0.14682,0.237172 -0.0339,0.03388 -0.0678,0.101645 -0.0339,0.05647 -0.079,0.09035 -0.0339,0.03388 -0.0904,0.03388 -0.0452,0 -0.0678,-0.01129 -0.0113,0 -0.0452,0 -0.0339,-0.01129 -0.0791,-0.02259 -0.0339,-0.01129 -0.0565,-0.01129 -0.11294,-0.01129 -0.1807,-0.101645 -0.0678,-0.09035 -0.0678,-0.203291 0,-0.09035 0.0452,-0.169408 0.0452,-0.112939 0.192,-0.417874 0.15811,-0.31623 0.21458,-0.46305 0.0113,-0.03388 0.12423,-0.271054 0.0339,-0.04518 0.0904,-0.169408 0.0678,-0.135527 0.0904,-0.180703 l 0.14682,-0.271053 q 0.19199,-0.304936 0.25976,-0.451756 0.1807,-0.372699 0.32752,-0.643753 0.24846,-0.417874 0.24846,-0.542107 0,-0.05647 0.0678,-0.169408 z"
         id="path846" />
      <path
         d="m -190.54409,73.81875 q 0,-0.01129 -0.079,-0.135526 -0.0791,-0.124233 -0.0791,-0.135527 0,-0.02259 -0.0339,-0.09035 -0.0339,-0.06776 -0.0791,-0.417875 -0.0339,-0.237172 -0.0339,-0.46305 0,-0.417874 0.11294,-0.677634 0.0339,-0.06776 0.0339,-0.135526 0,-0.04518 0.0339,-0.07906 0.0339,-0.03388 0.10165,-0.191996 0.12423,-0.316229 0.32752,-0.40658 0.0452,-0.01129 0.16941,-0.112939 0.079,-0.06776 0.32752,-0.214584 0.25976,-0.158115 0.28235,-0.158115 0.0226,0 0.11294,-0.05647 0.12423,-0.06776 0.41787,-0.124233 h 0.0565 q 0.14682,0 0.35011,0.101645 0.21459,0.09035 0.29364,0.14682 0.0339,0.03388 0.12424,0.09035 0.0904,0.05647 0.12423,0.124232 0.0452,0.06776 0.0452,0.214585 0,0.112939 -0.0226,0.158114 -0.0226,0.03388 -0.11294,0.05647 h -0.0339 q -0.25976,0 -0.47435,-0.191997 -0.0791,-0.07906 -0.14682,-0.07906 -0.0113,0 -0.0791,0.01129 -0.0678,0.01129 -0.12423,0.01129 -0.10164,0 -0.31623,0.124233 -0.13552,0.06776 -0.32752,0.20329 -0.1807,0.135527 -0.192,0.169408 -0.0226,0.03388 -0.0565,0.05647 -0.0339,0.01129 -0.15811,0.25976 -0.12423,0.248465 -0.12423,0.304935 0,0.03388 -0.0226,0.05647 -0.0904,0.09035 -0.0904,0.564695 0,0.271054 0.0565,0.361405 0.0226,0.02259 0.0565,0.135527 0.0339,0.112939 0.0565,0.135527 0.0452,0.04518 0.0452,0.06776 0,0.124233 0.22588,0.225878 0.32752,0.146821 0.47434,0.146821 0.0452,0 0.40658,-0.04518 0.15812,-0.02259 0.23717,-0.124233 0.0904,-0.09035 0.30494,-0.169408 l 0.13553,0.135527 q 0.12423,0.124233 0.12423,0.248465 0,0.101646 -0.0678,0.214585 -0.10165,0.191996 -0.21459,0.259759 -0.10164,0.05647 -0.32752,0.05647 -0.15812,0 -0.25976,-0.01129 -0.0678,0 -0.192,-0.01129 -0.12423,-0.01129 -0.21458,-0.01129 -0.0904,-0.01129 -0.13553,-0.01129 -0.19199,0 -0.25976,-0.05647 -0.079,-0.05647 -0.10164,-0.05647 -0.0226,0 -0.10165,-0.06776 -0.0678,-0.06776 -0.10164,-0.06776 -0.0565,0 -0.22588,-0.135526 -0.16941,-0.135527 -0.192,-0.146821 -0.0565,-0.02259 -0.0565,-0.05647 z"
         id="path848" />
      <path
         d="m -186.46699,70.54352 q 0.0339,0 0.0339,-0.02259 0,-0.02259 0.1807,-0.02259 0.1807,0 0.1807,0.02259 0,0.02259 0.0904,0 0.0339,-0.01129 0.1807,-0.01129 0.24846,0 0.33882,0.02259 h 0.0452 q 0.0339,0 0.15812,0 0.12423,-0.01129 0.1694,-0.01129 h 0.0339 q 0.0452,0.02259 0.27105,0.02259 0.0791,0 0.20329,0.01129 0.12423,0 0.13553,0 0.0678,0 0.13552,-0.01129 0.0791,-0.01129 0.10165,-0.01129 0.0791,0 0.19199,0.101645 0.20329,0.20329 0.20329,0.338817 0,0.101645 -0.0904,0.191996 -0.0904,0.09035 -0.27105,0.09035 -0.0678,0 -0.27105,-0.04518 -0.40658,-0.101646 -0.66634,-0.101646 h -0.0339 -0.0565 q -0.0565,0 -0.13553,0.01129 -0.0791,0 -0.15812,0 -0.1807,0 -0.25976,0.01129 -0.079,0 -0.1694,0.04518 -0.0791,0.04518 -0.0904,0.135527 0,0.01129 -0.0113,0.06776 0,0.04518 0,0.07906 0,0.700222 0.0678,0.767986 0.0113,0.01129 0.0791,0.01129 0.24847,0 0.39529,-0.06776 0.0791,-0.03388 0.12423,-0.03388 0.0904,0 0.25976,0.169409 0.11294,0.112939 0.11294,0.225878 0,0.124233 -0.0678,0.180702 -0.0339,0.03388 -0.0791,0.03388 -0.0339,0 -0.0678,0.01129 -0.0678,0.03388 -0.28235,0.03388 -0.54211,0.02259 -0.54211,0.06776 l 0.0113,0.06776 q 0,0.06776 0,0.180703 0,0.112939 0,0.214584 0.0113,0.440462 0.0678,0.485637 0.0339,0.02259 0.11294,0.02259 0.0226,0 0.24846,-0.02259 0.20329,-0.01129 0.39529,-0.06776 0.192,-0.05647 0.32752,-0.06776 0.13553,-0.01129 0.24847,-0.04518 h 0.0452 q 0.13553,0 0.28235,0.124233 0.14682,0.112939 0.14682,0.25976 0,0.07906 -0.0678,0.169408 -0.0565,0.07906 -0.24847,0.09035 -0.0452,0 -0.079,0 -0.192,0 -0.49694,0.05647 -0.49693,0.09035 -0.82445,0.135527 -0.0452,0.01129 -0.192,0.05647 -0.14682,0.04518 -0.22588,0.04518 -0.0113,0 -0.0452,0 -0.0226,-0.01129 -0.0339,-0.01129 -0.33882,-0.07906 -0.384,-0.25976 -0.0339,-0.112939 -0.0339,-0.237172 0,-0.169408 0.0452,-0.259759 0.0904,-0.214585 0.0904,-1.276211 0,-0.146821 0,-0.316229 0,-0.169409 -0.0113,-0.304936 0,-0.14682 0,-0.282347 0,-0.146821 -0.0113,-0.248466 0,-0.112939 -0.0113,-0.191996 0,-0.09035 0,-0.135527 v -0.04518 l -0.0226,-0.271053 0.0904,-0.09035 q 0.11294,-0.09035 0.13553,-0.09035 z"
         id="path850" />
      <path
         d="m -181.12499,73.084647 q -0.0565,-0.03388 -0.13552,-0.03388 -0.0904,0 -0.24847,0.03388 -0.13553,0.02259 -0.15811,0.02259 -0.0791,0 -0.192,-0.03388 v 0.519519 l -0.0113,0.508226 q 0.13552,0.06776 0.20329,0.06776 0.0452,0 0.13552,-0.02259 0.0678,-0.03388 0.23718,-0.03388 0.19199,0 0.28234,-0.04518 0.0678,-0.03388 0.11294,-0.03388 0.0452,0 0.0452,-0.02259 0,-0.01129 0.10164,-0.06776 0.18071,-0.101645 0.23717,-0.383992 0.0113,-0.101645 -0.0678,-0.180703 -0.25976,-0.248466 -0.39529,-0.248466 -0.0565,0 -0.14682,-0.04518 z m 0.28235,-2.078078 q -0.28235,-0.112939 -0.49693,-0.112939 h -0.0113 q -0.0226,0.02259 -0.35011,0.05647 -0.15812,0.02259 -0.192,0.05647 -0.0339,0.03388 -0.0339,0.406581 0,0.158114 0.0226,0.496931 0.0226,0.361405 0.0678,0.372699 0.0113,0.01129 0.0339,0.01129 0.0113,0 0.0452,0 0.0452,-0.01129 0.079,-0.01129 0.10165,-0.01129 0.24847,-0.01129 0.0565,0 0.28235,-0.06776 0.28234,-0.09035 0.48563,-0.361405 0.0791,-0.09035 0.0791,-0.350111 0,-0.124233 -0.0226,-0.169408 -0.10164,-0.25976 -0.23717,-0.31623 z m -1.32138,-0.587282 q 0.19199,0 0.39528,-0.05647 0.21459,-0.06776 0.36141,-0.06776 h 0.0226 q 0.12424,0 0.46305,0.135527 0.48564,0.237171 0.64376,0.361404 0.0678,0.05647 0.0904,0.07906 0.0226,0.02259 0.0226,0.04518 0.0113,0.01129 0.0226,0.05647 0.0226,0.03388 0.0565,0.07906 0.16941,0.25976 0.16941,0.609871 0,0.169408 -0.0452,0.293641 -0.0791,0.20329 -0.12424,0.271054 -0.0452,0.06776 -0.20329,0.225878 -0.21458,0.214584 -0.21458,0.237171 0,0.06776 0.29364,0.203291 0.192,0.09035 0.33882,0.316229 0.14682,0.214584 0.14682,0.40658 0,0.146821 -0.22588,0.440462 -0.0904,0.112939 -0.0904,0.146821 0,0.02259 -0.0452,0.04518 -0.0113,0 -0.12423,0.09035 -0.11294,0.135527 -0.40658,0.259759 -0.0904,0.06776 -0.44046,0.09035 -0.20329,0 -0.29364,0.04517 -0.0678,0.02259 -0.10165,0.02259 -0.0452,0 -0.13553,-0.01129 -0.0904,-0.02259 -0.13552,-0.02259 -0.0904,0 -0.192,-0.02259 -0.10164,-0.03388 -0.20329,-0.04518 -0.28235,-0.01129 -0.41787,-0.191996 -0.0452,-0.04518 -0.0452,-0.124233 0,-0.02259 0,-0.05647 0.0113,-0.04518 0.0113,-0.101645 0.0113,-0.06776 0.0113,-0.124233 0.0678,-0.813161 0.0678,-1.377855 0,-0.350111 -0.0113,-0.51952 -0.0339,-0.700222 -0.0339,-0.801867 0,-0.09035 0.0113,-0.101645 0.0226,-0.02259 0,-0.158114 -0.0226,-0.135527 -0.0565,-0.180703 -0.0565,-0.07906 -0.0565,-0.282347 0,-0.06776 0.0113,-0.09035 0.0339,-0.124233 0.3614,-0.124233 z"
         id="path852" />
      <path
         d="m -176.18955,71.266329 q -0.0904,-0.07906 -0.23717,-0.07906 -0.0339,0 -0.25976,0.02259 -0.14682,0.02259 -0.20329,0 h -0.0339 q -0.15812,0 -0.41788,0.225878 -0.24846,0.214584 -0.3614,0.463049 -0.14682,0.327524 -0.14682,0.700222 0,0.598577 0.35011,0.86963 0.20329,0.169409 0.59857,0.191997 0.0452,0 0.11294,0.01129 0.0678,0 0.0904,0 0.33882,0 0.46305,-0.101645 0.0791,-0.05647 0.22588,-0.282348 0.14682,-0.225878 0.21459,-0.395286 0.079,-0.180703 0.079,-0.553401 -0.0113,-0.350111 -0.079,-0.496932 -0.0565,-0.135527 -0.0565,-0.158115 0,-0.02259 -0.13553,-0.191996 -0.13553,-0.169408 -0.20329,-0.225878 z m -0.63246,-0.835748 h 0.0565 q 0.0678,0 0.11294,0 0.0565,-0.01129 0.0678,0 0,0.02259 0.0452,0.02259 0.0226,0 0.0565,0.03388 0.0339,0.03388 0.22588,0.101645 0.19199,0.05647 0.22587,0.07906 0.0904,0.05647 0.36141,0.31623 0.27105,0.248465 0.30493,0.327523 0.0113,0.02259 0.0339,0.06776 l 0.0226,0.03388 q 0.18071,0.316229 0.18071,0.429168 0,0.06776 0.0226,0.158115 0.0791,0.237171 0.0791,0.587282 0,0.25976 -0.0452,0.395287 -0.12424,0.40658 -0.27106,0.598576 -0.10164,0.146821 -0.10164,0.169409 0,0.03388 -0.0226,0.03388 -0.0226,0 -0.0226,0.03388 0,0.05647 -0.11294,0.158115 -0.10164,0.101645 -0.19199,0.135527 -0.10165,0.03388 -0.25976,0.124233 -0.13553,0.06776 -0.28235,0.06776 -0.13553,0 -0.30494,-0.04518 -0.24846,-0.05647 -0.31623,-0.05647 -0.30493,-0.02259 -0.5534,-0.101645 -0.10164,-0.02259 -0.31623,-0.169409 -0.20329,-0.158114 -0.30493,-0.271053 -0.29364,-0.316229 -0.35011,-0.745398 -0.0226,-0.124232 -0.0226,-0.451756 0,-0.587282 0.0791,-0.756691 0.0339,-0.05647 0.0565,-0.169408 0.10164,-0.293642 0.35011,-0.51952 0.41787,-0.383992 0.50822,-0.383992 0.0226,0 0.0565,-0.03388 0.0226,-0.03388 0.16941,-0.06776 0.15812,-0.04518 0.1807,-0.07906 0.0452,-0.04518 0.15812,-0.04518 0.12423,0 0.12423,0.02259 z"
         id="path854" />
      <path
         d="m -171.48,71.266329 q -0.0904,-0.07906 -0.23717,-0.07906 -0.0339,0 -0.25976,0.02259 -0.14682,0.02259 -0.20329,0 h -0.0339 q -0.15811,0 -0.41787,0.225878 -0.24847,0.214584 -0.36141,0.463049 -0.14682,0.327524 -0.14682,0.700222 0,0.598577 0.35011,0.86963 0.20329,0.169409 0.59858,0.191997 0.0452,0 0.11294,0.01129 0.0678,0 0.0904,0 0.33882,0 0.46305,-0.101645 0.0791,-0.05647 0.22588,-0.282348 0.14682,-0.225878 0.21458,-0.395286 0.0791,-0.180703 0.0791,-0.553401 -0.0113,-0.350111 -0.0791,-0.496932 -0.0565,-0.135527 -0.0565,-0.158115 0,-0.02259 -0.13553,-0.191996 -0.13552,-0.169408 -0.20329,-0.225878 z m -0.63245,-0.835748 h 0.0565 q 0.0678,0 0.11293,0 0.0565,-0.01129 0.0678,0 0,0.02259 0.0452,0.02259 0.0226,0 0.0565,0.03388 0.0339,0.03388 0.22588,0.101645 0.192,0.05647 0.22588,0.07906 0.0904,0.05647 0.3614,0.31623 0.27106,0.248465 0.30494,0.327523 0.0113,0.02259 0.0339,0.06776 l 0.0226,0.03388 q 0.1807,0.316229 0.1807,0.429168 0,0.06776 0.0226,0.158115 0.0791,0.237171 0.0791,0.587282 0,0.25976 -0.0452,0.395287 -0.12423,0.40658 -0.27105,0.598576 -0.10165,0.146821 -0.10165,0.169409 0,0.03388 -0.0226,0.03388 -0.0226,0 -0.0226,0.03388 0,0.05647 -0.11294,0.158115 -0.10165,0.101645 -0.192,0.135527 -0.10164,0.03388 -0.25976,0.124233 -0.13553,0.06776 -0.28235,0.06776 -0.13552,0 -0.30493,-0.04518 -0.24847,-0.05647 -0.31623,-0.05647 -0.30494,-0.02259 -0.5534,-0.101645 -0.10165,-0.02259 -0.31623,-0.169409 -0.20329,-0.158114 -0.30494,-0.271053 -0.29364,-0.316229 -0.35011,-0.745398 -0.0226,-0.124232 -0.0226,-0.451756 0,-0.587282 0.0791,-0.756691 0.0339,-0.05647 0.0565,-0.169408 0.10165,-0.293642 0.35011,-0.51952 0.41788,-0.383992 0.50823,-0.383992 0.0226,0 0.0565,-0.03388 0.0226,-0.03388 0.16941,-0.06776 0.15811,-0.04518 0.1807,-0.07906 0.0452,-0.04518 0.15811,-0.04518 0.12424,0 0.12424,0.02259 z"
         id="path856" />
      <path
         d="m -165.64105,68.02498 q -0.0565,0.05647 -0.0565,-0.02259 0,-0.05647 0.0339,-0.05647 0.0226,0 0.0339,0.03388 0.0113,0.02259 -0.0113,0.04518 z m -3.44464,4.506266 q 0.0113,-0.214584 0.0113,-0.485638 0,-0.158114 -0.0113,-0.395286 -0.0113,-0.237172 -0.0113,-0.474344 0,-0.406581 -0.0226,-0.429168 -0.0226,-0.04518 -0.0226,-0.06776 0,-0.09035 0.10164,-0.180702 0.10165,-0.101645 0.21459,-0.101645 0.0904,0 0.14682,0.05647 l 0.1807,0.09035 q 0,0.05647 0.0904,0.124232 l 0.10165,0.07906 -0.0113,0.508225 q 0,0.146821 -0.0113,0.417874 0,0.271054 0,0.327524 0,0.248465 0.0226,0.248465 0.0339,0 0.0339,-0.02259 0,-0.01129 0.11294,-0.101646 l 0.22588,-0.20329 q 0.23717,-0.214584 0.31622,-0.248466 0.0678,-0.01129 0.23718,-0.135526 0.1807,-0.135527 0.20329,-0.146821 0.0226,-0.01129 0.0565,-0.04518 0.0452,-0.03388 0.0678,-0.05647 0.0339,-0.02259 0.0565,-0.02259 0.0339,0 0.13553,-0.07906 0.10164,-0.07906 0.21458,-0.169409 0.12423,-0.101645 0.1807,-0.135527 0.0678,-0.03388 0.14682,-0.112939 0.0791,-0.07906 0.0791,-0.112939 0,-0.02259 0.15811,-0.04518 0.15812,-0.02259 0.15812,-0.03388 0,-0.06776 0.1807,0.04518 0.0226,0.01129 0.0339,0.02259 0.20329,0.14682 0.20329,0.338817 0,0.07906 -0.0678,0.225878 -0.0678,0.14682 -0.10165,0.14682 -0.0113,0 -0.0904,0.04518 -0.0678,0.04518 -0.0904,0.04518 -0.0113,0 -0.12423,0.06776 -0.10165,0.06776 -0.12423,0.06776 -0.0339,0 -0.0904,0.05647 -0.0226,0.03388 -0.15812,0.101645 -0.13553,0.05647 -0.15811,0.101645 -0.0452,0.04518 -0.0678,0.04518 -0.0113,0 -0.0565,0.04518 -0.0113,0.01129 -0.12423,0.07906 -0.10164,0.05647 -0.192,0.124233 -0.079,0.06776 -0.079,0.101645 -0.0113,0.09035 0.12423,0.293642 0.0565,0.05647 0.0565,0.135527 0,0.06776 0.0678,0.124233 0.0452,0.04518 0.11294,0.180702 0.0678,0.124233 0.0678,0.169408 0,0.02259 0.0904,0.135527 0.0904,0.112939 0.0904,0.124233 0,0.03388 0.0452,0.07906 0.0452,0.04518 0.0565,0.06776 0.0339,0.06776 0.0678,0.06776 0.0226,0 0.0678,0.06776 0.0113,0.01129 0.0904,0.101645 0.0903,0.07906 0.0903,0.124233 0,0.03388 0.0339,0.06776 0.0565,0.04518 0.0904,0.158115 0.0452,0.112939 0.0339,0.158114 -0.0452,0.146821 -0.13553,0.237172 -0.0452,0.04518 -0.15811,0.04518 -0.29365,0 -0.47435,-0.214584 l -0.0904,-0.112939 q 0,-0.01129 -0.10165,-0.158115 -0.1807,-0.225878 -0.25975,-0.40658 -0.0339,-0.06776 -0.0678,-0.101646 -0.0339,-0.03388 -0.0339,-0.05647 0,-0.02259 -0.15811,-0.248466 l -0.14683,-0.237172 q 0,-0.02259 -0.11293,-0.158114 -0.11294,-0.135527 -0.13553,-0.135527 -0.0452,0 -0.15812,0.06776 -0.11293,0.05647 -0.14682,0.101645 -0.079,0.07906 -0.12423,0.101645 -0.10164,0.04518 -0.13553,0.07906 -0.0226,0.03388 -0.0226,0.14682 0,0.158115 0.0113,0.293642 0.0113,0.158114 0.0339,0.429168 0.0339,0.271054 0.0339,0.395287 0,0.20329 -0.0565,0.40658 -0.0565,0.180702 -0.079,0.180702 -0.0339,0 -0.0678,0.03388 -0.0339,0.03388 -0.21458,0.02259 -0.33882,-0.05647 -0.41787,-0.361405 -0.0678,-0.20329 -0.0678,-0.282347 0,-0.124233 0.0113,-0.214585 0.0339,-0.474343 0.0339,-1.151977 z"
         id="path858" />
    </g>
  </g>
</svg>
