<?xml version="1.0" encoding="UTF-8" standalone="no"?>
<!-- Created with Inkscape (http://www.inkscape.org/) -->

<svg
   width="166.26913mm"
   height="33.253819mm"
   viewBox="0 0 166.26914 33.253817"
   version="1.1"
   id="svg1"
   xml:space="preserve"
   inkscape:version="1.3 (0e150ed6c4, 2023-07-21)"
   sodipodi:docname="testimony.svg"
   inkscape:export-filename="schumacher.png"
   inkscape:export-xdpi="192"
   inkscape:export-ydpi="192"
   xmlns:inkscape="http://www.inkscape.org/namespaces/inkscape"
   xmlns:sodipodi="http://sodipodi.sourceforge.net/DTD/sodipodi-0.dtd"
   xmlns="http://www.w3.org/2000/svg"
   xmlns:svg="http://www.w3.org/2000/svg"><sodipodi:namedview
     id="namedview1"
     pagecolor="#ffffff"
     bordercolor="#000000"
     borderopacity="0.25"
     inkscape:showpageshadow="2"
     inkscape:pageopacity="0.0"
     inkscape:pagecheckerboard="0"
     inkscape:deskcolor="#d1d1d1"
     inkscape:document-units="mm"
     inkscape:zoom="1.0343421"
     inkscape:cx="219.94657"
     inkscape:cy="140.66913"
     inkscape:window-width="1920"
     inkscape:window-height="1017"
     inkscape:window-x="-8"
     inkscape:window-y="-8"
     inkscape:window-maximized="1"
     inkscape:current-layer="layer1" /><defs
     id="defs1"><rect
       x="209.7952"
       y="207.8616"
       width="359.6489"
       height="106.34779"
       id="rect9" /><rect
       x="170.15646"
       y="383.81888"
       width="267.75369"
       height="82.568329"
       id="rect1" /></defs><g
     inkscape:label="Layer 1"
     inkscape:groupmode="layer"
     id="layer1"
     transform="translate(56.535303,-119.89521)"><path
       style="font-weight:bold;font-size:32px;font-family:Kalam;-inkscape-font-specification:'Kalam Bold';text-align:end;text-anchor:end;white-space:pre"
       d="m 415.13926,216.56533 q -3.456,0.192 -3.776,0.192 -0.768,0 -1.536,-0.928 -0.768,-0.96 -0.768,-1.984 0,-1.568 9.12,-1.568 4.672,0 6.88,0.96 2.208,0.96 2.208,2.336 0,0.416 -0.48,0.8 -0.48,0.352 -1.216,0.352 -0.736,0 -2.688,-0.096 -1.952,-0.096 -3.552,-0.128 0.128,0.384 0.128,0.896 0,0.512 -0.384,2.016 -0.352,1.504 -1.024,4.192 -0.672,2.656 -1.472,6.464 -0.8,3.776 -1.12,4.512 -0.288,0.704 -0.576,0.704 -0.672,0 -1.696,-1.216 -0.992,-1.248 -0.992,-2.016 0,-0.768 1.312,-6.336 1.312,-5.6 1.632,-9.152 z m 17.50402,5.44 q 1.696,0 3.648,-0.16 1.952,-0.192 2.4,-0.192 0.48,0 0.736,0.224 0.288,0.224 0.288,0.544 0,1.408 -2.656,2.24 -2.656,0.832 -5.664,0.96 -1.248,3.872 -1.248,4.896 0,0.544 0.544,0.544 3.648,0 7.52,-0.96 1.312,-0.352 1.504,-0.352 0.608,0 0.608,0.864 0,1.152 -1.696,2.24 -1.696,1.088 -4.256,1.728 -2.56,0.64 -5.024,0.64 -1.472,0 -2.656,-1.088 -1.184,-1.12 -1.184,-2.592 0,-1.504 1.632,-7.488 1.664,-5.984 1.76,-9.024 -0.032,-0.096 -0.032,-0.384 0,-0.448 0.128,-0.704 0.352,-0.896 1.952,-1.12 1.6,-0.256 5.76,-0.256 6.912,0 6.912,1.536 0,0.992 -1.696,1.376 -1.152,0.256 -3.168,0.48 -3.104,0.352 -5.536,1.024 0,2.176 -0.768,5.024 z m 25.66401,6.816 q 0,2.72 -2.592,4.672 -2.592,1.952 -5.92,1.952 -3.328,0 -5.376,-1.632 -2.016,-1.664 -2.016,-3.424 0,-1.76 0.992,-1.76 0.768,0 1.6,0.768 0.832,0.768 1.856,1.536 1.056,0.768 2.368,0.768 1.312,0 2.976,-1.088 1.664,-1.088 1.664,-1.824 0,-0.736 -1.824,-2.464 -1.792,-1.728 -3.616,-3.552 -1.792,-1.856 -1.792,-2.848 0,-1.024 0.352,-2.208 0.384,-1.184 0.928,-1.632 1.728,-1.696 4.448,-2.912 2.752,-1.248 4.832,-1.248 1.216,0 2.016,1.056 0.8,1.024 0.8,2.144 0,0.448 -0.736,0.736 -0.704,0.256 -2.08,0.544 -1.344,0.288 -2.752,0.832 -3.264,1.216 -3.264,2.048 0,0.384 1.12,1.408 1.12,0.992 2.432,2.112 1.344,1.088 2.464,2.784 1.12,1.664 1.12,3.232 z m 9.53601,-12.256 q -3.456,0.192 -3.776,0.192 -0.768,0 -1.536,-0.928 -0.768,-0.96 -0.768,-1.984 0,-1.568 9.12,-1.568 4.672,0 6.88,0.96 2.208,0.96 2.208,2.336 0,0.416 -0.48,0.8 -0.48,0.352 -1.216,0.352 -0.736,0 -2.688,-0.096 -1.952,-0.096 -3.552,-0.128 0.128,0.384 0.128,0.896 0,0.512 -0.384,2.016 -0.352,1.504 -1.024,4.192 -0.672,2.656 -1.472,6.464 -0.8,3.776 -1.12,4.512 -0.288,0.704 -0.576,0.704 -0.672,0 -1.696,-1.216 -0.992,-1.248 -0.992,-2.016 0,-0.768 1.312,-6.336 1.312,-5.6 1.632,-9.152 z m 13.98402,18.88 q -0.64,0 -1.728,-1.312 -1.088,-1.344 -1.088,-1.952 0,-0.608 1.568,-8.896 1.6,-8.32 1.664,-10.208 0.064,-1.056 0.992,-1.056 0.768,0 2.048,1.536 1.28,1.536 1.28,2.88 0,0.576 -0.896,4.352 -0.864,3.744 -1.184,5.248 -0.288,1.472 -0.512,2.656 -0.224,1.152 -0.352,1.824 -0.896,4.096 -1.408,4.704 -0.192,0.224 -0.384,0.224 z m 11.2,-23.424 q 0.608,0 2.368,1.312 1.792,1.28 1.792,1.92 0,1.12 0.736,3.68 0.736,2.56 1.696,4.64 0.96,-1.12 3.232,-4.128 2.304,-3.04 3.872,-4.8 1.568,-1.76 2.336,-1.76 0.768,0 1.6,0.864 0.832,0.864 0.832,1.728 0,0.864 -0.256,2.24 -0.256,1.344 -0.576,2.528 -0.288,1.152 -0.864,3.168 -0.544,2.016 -0.864,3.2 -0.288,1.152 -0.608,2.496 -0.32,1.312 -0.512,2.08 -0.16,0.736 -0.384,1.568 -0.192,0.8 -0.352,1.248 -0.16,0.416 -0.352,0.768 -0.352,0.672 -0.992,0.672 -0.64,0 -1.28,-1.248 -0.608,-1.28 -0.608,-2.656 0,-3.392 1.952,-8.992 -0.544,0.704 -1.568,2.08 -1.024,1.344 -1.536,1.984 -0.48,0.608 -1.216,1.44 -1.312,1.44 -2.56,1.44 -1.664,0 -2.368,-1.312 -0.352,-0.672 -0.96,-3.008 -0.576,-2.368 -0.832,-3.264 -0.416,3.296 -1.12,5.984 -0.704,2.688 -0.928,3.52 -0.224,0.832 -0.608,2.016 -0.64,2.016 -1.152,2.016 -0.576,0 -1.6,-1.504 -0.992,-1.536 -0.992,-2.4 0,-0.864 1.856,-8.64 1.888,-7.776 1.888,-9.824 0,-1.056 0.928,-1.056 z m 28.73601,17.92 q 1.856,-1.664 3.232,-4.16 1.376,-2.528 1.376,-4.832 0,-2.304 -0.576,-3.552 -0.576,-1.248 -1.6,-1.248 -1.024,0 -2.688,1.856 -1.632,1.824 -2.976,4.8 -1.312,2.976 -1.312,5.696 0,1.376 0.384,2.24 0.384,0.832 0.96,0.832 1.344,0 3.2,-1.632 z m -3.168,5.504 q -2.368,0 -4.224,-2.304 -1.856,-2.336 -1.856,-4.64 0,-2.944 1.12,-6.016 1.12,-3.104 2.784,-5.344 1.696,-2.272 3.712,-3.712 2.016,-1.472 3.712,-1.472 3.104,0 5.088,2.656 1.984,2.624 1.984,5.92 0,3.296 -1.664,6.688 -1.664,3.36 -4.608,5.792 -2.912,2.432 -6.048,2.432 z m 29.47199,-23.584 q 0.928,0 2.048,0.96 1.152,0.96 1.152,1.568 0,2.016 -0.96,7.008 -0.928,4.96 -2.4,9.504 -1.472,4.544 -2.656,4.544 -0.48,0 -1.248,-0.512 -0.768,-0.544 -1.024,-1.248 -0.256,-0.736 -0.992,-3.008 -1.696,-5.216 -3.2,-8.64 -0.224,0.96 -0.608,2.72 -0.352,1.76 -0.576,2.784 -0.224,0.992 -0.544,2.432 -0.32,1.408 -0.576,2.24 -0.224,0.832 -0.512,1.664 -0.512,1.568 -0.96,1.568 -0.64,0 -1.664,-1.152 -1.024,-1.184 -1.024,-2.016 0,-0.864 1.824,-8.928 1.856,-8.064 2.016,-10.112 0.096,-1.216 0.736,-1.216 0.544,0 1.376,0.64 0.864,0.64 1.472,1.568 0.64,0.896 2.272,5.92 1.632,5.024 2.592,7.2 1.248,-3.712 2.304,-11.2 0.416,-2.976 0.544,-3.616 0.128,-0.672 0.608,-0.672 z m 13.08801,11.072 q 0.576,0 2.016,-2.752 1.472,-2.752 2.976,-5.472 1.504,-2.752 2.24,-2.752 1.088,0 1.792,0.992 0.736,0.992 0.736,2.368 0,0.96 -1.664,3.712 -1.664,2.72 -4.224,6.752 -2.56,4.032 -3.936,6.848 -0.416,0.896 -1.344,1.856 -0.928,0.96 -1.792,0.96 -1.28,0 -1.28,-2.048 0,-1.216 2.432,-5.664 0.384,-0.704 0.544,-1.056 -1.408,-0.544 -2.56,-1.792 -1.152,-1.248 -1.824,-2.816 -1.408,-3.296 -1.408,-6.4 0,-1.92 0.416,-2.816 0.448,-0.896 1.792,-0.896 0.704,0 1.056,0.992 0.352,0.96 0.64,2.784 0.288,1.824 0.8,3.232 0.544,1.376 1.312,2.688 0.8,1.28 1.28,1.28 z"
       id="text9"
       transform="matrix(0.96312375,0,0,0.96312375,-446.16141,-79.293297)"
       aria-label="TESTIMONY" /></g></svg>
