<?xml version="1.0" encoding="UTF-8" standalone="no"?>
<!-- Created with Inkscape (http://www.inkscape.org/) -->

<svg
   width="1500"
   height="200"
   viewBox="0 0 396.87503 52.916661"
   version="1.1"
   id="svg965"
   inkscape:version="1.2.2 (b0a8486541, 2022-12-01)"
   sodipodi:docname="wordmark_wide.svg"
   xml:space="preserve"
   inkscape:export-filename="banner.png"
   inkscape:export-xdpi="96"
   inkscape:export-ydpi="96"
   xmlns:inkscape="http://www.inkscape.org/namespaces/inkscape"
   xmlns:sodipodi="http://sodipodi.sourceforge.net/DTD/sodipodi-0.dtd"
   xmlns="http://www.w3.org/2000/svg"
   xmlns:svg="http://www.w3.org/2000/svg"><sodipodi:namedview
     id="namedview967"
     pagecolor="#37642c"
     bordercolor="#666666"
     borderopacity="1.0"
     inkscape:pageshadow="2"
     inkscape:pageopacity="0"
     inkscape:pagecheckerboard="true"
     inkscape:document-units="mm"
     showgrid="false"
     fit-margin-top="0"
     fit-margin-left="0"
     fit-margin-right="0"
     fit-margin-bottom="0"
     inkscape:zoom="1.1313833"
     inkscape:cx="653.18271"
     inkscape:cy="247.92659"
     inkscape:window-width="2540"
     inkscape:window-height="1400"
     inkscape:window-x="10"
     inkscape:window-y="30"
     inkscape:window-maximized="1"
     inkscape:current-layer="layer1"
     inkscape:snap-global="false"
     inkscape:showpageshadow="2"
     inkscape:deskcolor="#d1d1d1" /><defs
     id="defs962"><inkscape:path-effect
       effect="fill_between_many"
       method="originald"
       linkedpaths="#path4007,0,1"
       id="path-effect7063"
       is_visible="true"
       lpeversion="0"
       join="true"
       close="true"
       autoreverse="true"
       applied="false" /><filter
       inkscape:collect="always"
       style="color-interpolation-filters:sRGB"
       id="filter7229"
       x="-0.023263263"
       y="-0.16858572"
       width="1.0465265"
       height="1.3371714"><feGaussianBlur
         inkscape:collect="always"
         stdDeviation="0.81963214"
         id="feGaussianBlur7231" /></filter></defs><g
     inkscape:label="Layer 1"
     inkscape:groupmode="layer"
     id="layer1"
     transform="translate(-206.26672,-72.85519)"><path
       inkscape:original-d="M 0,0"
       inkscape:path-effect="#path-effect7063"
       d="m 83.888292,56.717054 0.460759,8.678693 8.42371,0.69646 28.257549,0.98993 36.07562,1.303266 0.88958,-3.365415 9.99944,-0.426449 0.45229,-4.234004 L 150.518,59.70115 121.24481,58.833565 Z"
       id="path7065"
       style="fill:#040403;fill-opacity:1;stroke:none;stroke-width:1;stroke-miterlimit:4;stroke-dasharray:none;filter:url(#filter7229)"
       class="UnoptimicedTransforms"
       transform="matrix(4.3941198,-0.20596661,0.20596661,4.3941198,-162.57553,-149.55772)" /><path
       style="fill:#edede8;fill-opacity:1;stroke:none;stroke-width:0.274606px;stroke-linecap:butt;stroke-linejoin:miter;stroke-opacity:1"
       d="m 82.483651,54.648906 0.460759,8.678693 8.42371,0.69646 28.25755,0.98993 36.07562,1.303266 0.88958,-3.365415 9.99944,-0.426449 0.45229,-4.234004 -17.92924,-0.658385 -29.27319,-0.867585 z"
       id="path4007"
       sodipodi:nodetypes="ccccccccccc"
       class="UnoptimicedTransforms"
       transform="matrix(4.3941198,-0.20596661,0.20596661,4.3941198,-155.9774,-140.75934)" /><g
       aria-label=" Engineer,
Etc."
       transform="matrix(0.99890329,-0.04682183,-0.10687533,1.0061075,0,0)"
       id="text712"
       style="font-size:19.5058px;line-height:0.8;font-family:Thadscript;-inkscape-font-specification:Thadscript;stroke-width:1.72031"><path
         d="m 530.06308,120.96654 q 1.17034,-0.0975 2.51624,-0.0975 1.30689,0 1.3264,-0.0195 h 0.0585 q 0.3511,0 0.66319,0.15604 0.15605,0.0585 0.27308,0.25358 l 0.13654,0.15605 -0.0975,0.19505 q -0.17556,0.37061 -0.58518,0.40963 -0.039,0 -0.0975,0.0195 -0.039,0 -0.0585,0 -0.078,0 -0.23407,-0.039 -0.13654,-0.039 -0.27309,-0.039 h -1.697 q -1.52145,0 -1.61898,0.0975 -0.078,0.039 -0.27308,0.039 h -0.35111 q -0.66319,0 -1.98959,0.11703 -0.21456,0.0195 -0.48764,0.0195 -0.23407,0 -0.27308,-0.039 -0.0585,-0.0585 -0.13655,-0.0585 -0.078,0 -0.19505,-0.078 -0.0975,-0.078 -0.0975,-0.11704 0,-0.0195 -0.11704,-0.21456 -0.11703,-0.17555 -0.13654,-0.79974 -0.0195,-0.6827 -0.0195,-1.59947 0,-1.22887 0.15604,-2.24317 0.039,-0.19506 0.039,-1.59948 0,-1.73601 -0.039,-2.55526 -0.0195,-0.64369 -0.0195,-1.28738 v -0.64369 -0.52666 q -0.039,-0.0585 0.0195,-0.23407 0.078,-0.17555 0.15605,-0.21456 0.078,-0.0585 0.50715,-0.039 h 0.23407 q 0.40962,0 0.54616,-0.0195 l 0.87776,-0.0585 q 2.08712,-0.11703 2.10663,-0.13654 0.078,0 0.15605,0.0195 0.23407,0.0585 0.81924,0.0585 0.27308,0 0.29259,-0.0195 0.0975,-0.039 0.15604,-0.0195 0.40962,0.17556 1.44343,0.17556 0.64369,0.0195 0.6632,0.19506 0,0.0585 0.0585,0.15604 0.0585,0.0975 0.078,0.13654 0.0195,0.11704 -0.078,0.29259 -0.0975,0.17555 -0.21457,0.17555 -0.0975,0 -0.15604,0.0585 -0.039,0.039 -0.74122,0.039 -1.15085,-0.0195 -1.69701,-0.078 -0.54616,-0.0585 -1.05331,-0.0585 -0.74122,0 -1.38491,0.0195 -0.91678,0.0195 -1.03381,0.078 -0.25358,0.0975 -0.40962,0.11703 -0.078,0 -0.078,0.68271 0,0.13654 -0.0195,0.40962 0,0.27308 0,0.3511 0,0.3121 0.039,0.79974 0.0585,0.48765 0.0585,0.97529 0,0.85826 0.039,1.24837 l 0.0195,0.35111 h 0.40963 q 0.21456,0 0.6827,-0.0195 0.46814,-0.039 0.70221,-0.039 0.37061,0 0.6632,0.0585 0.13654,0.039 0.31209,0.27308 0.19506,0.21456 0.19506,0.40962 0,0.13654 -0.0975,0.21456 -0.27308,0.27308 -0.62419,0.27308 -0.21456,0 -0.44863,-0.078 -0.23407,-0.078 -0.40962,-0.078 -0.19506,0 -0.35111,0.0195 -1.05331,0.078 -1.13133,0.17556 -0.039,0.039 -0.078,0.27308 -0.0195,0.21456 -0.039,0.50715 -0.0195,0.29258 -0.0195,0.31209 -0.0195,0.13654 -0.0195,0.3316 0,0.0195 0,0.17555 0,0.13654 0,0.39012 0.0195,0.23407 0.0195,0.44863 0,0.78023 0.0585,1.18985 l 0.039,0.27309 h 0.89727 q 0.17555,0 0.72172,-0.039 0.54616,-0.039 0.74122,-0.039 z"
         id="path1672" /><path
         d="m 541.63002,114.47111 q 0.039,0 0.11703,0 l 0.0585,-0.0195 q 0.42913,0 0.62418,0.60468 0.0195,0.039 0.0195,0.17555 0,0.21456 -0.078,0.93628 -0.0585,0.72171 -0.0585,0.89726 v 0.21457 q 0,1.6775 -0.0975,2.00909 -0.0195,0.078 -0.0195,0.50715 v 0.29259 0.35111 q 0,0.62418 -0.29258,0.74122 -0.23407,0.078 -0.29259,0.078 -0.13654,0 -0.39012,-0.15605 -0.3511,-0.21456 -0.64369,-0.74122 -0.29258,-0.54616 -0.40962,-0.70221 -0.0975,-0.0975 -0.0975,-0.15604 0,-0.039 -0.078,-0.0975 -0.0585,-0.0195 -0.21457,-0.23407 -0.13654,-0.21456 -0.15604,-0.23407 -0.0195,-0.0195 -0.27308,-0.44863 -0.039,-0.078 -0.3316,-0.50715 l -0.078,-0.11704 q -0.0975,-0.13654 -0.17556,-0.27308 l -0.078,-0.11704 q -0.039,0 -0.039,-0.078 0,-0.0585 -0.0975,-0.19506 -0.078,-0.13654 -0.11704,-0.13654 -0.039,0 -0.039,1.97009 0,1.97008 -0.0975,2.08712 -0.13654,0.17555 -0.39011,0.17555 -0.21457,0 -0.44864,-0.11703 -0.21456,-0.13654 -0.31209,-0.29259 -0.0585,-0.078 -0.0585,-0.40962 0,-0.13654 0.039,-0.3316 0.0975,-0.39012 0.0975,-1.81404 0,-0.64369 -0.0195,-1.42392 -0.0195,-0.79974 -0.039,-1.3459 -0.0195,-0.54617 -0.0195,-0.56567 v -0.0585 q 0.0195,-0.0585 0.0195,-0.0975 0,-0.17555 0.23407,-0.27308 h 0.078 q 0.48765,0 0.6632,0.13654 l 0.17555,0.11704 q 0.0975,0.0195 0.25357,0.25357 0.17556,0.23407 0.23407,0.42913 0.0585,0.17555 0.27309,0.60468 0.23407,0.42913 0.33159,0.54616 0.0585,0.0585 0.21457,0.35111 0.17555,0.27308 0.17555,0.31209 0,0.078 0.42913,0.64369 0.0195,0.0195 0.078,0.11703 0.078,0.078 0.17555,0.21457 0.11704,0.13654 0.19506,0.23407 l 0.35111,0.42913 q 0.11703,-0.29259 0.13654,-2.98439 0.0195,-0.89727 0.0195,-1.0143 0.0195,-0.13654 0.15605,-0.29259 0.15604,-0.15605 0.29259,-0.19506 z"
         id="path1674" /><path
         d="m 548.16446,120.20582 q 0.0585,0 0.11704,0.11703 0.0585,0.11704 0.0975,0.11704 0.0585,0 0.19505,0.0975 0.15605,0.0975 0.19506,0.11703 0.078,0.0195 0.37061,0.19506 0.29259,0.17555 0.44864,0.21456 0.11703,0.039 0.27308,0.039 0.25357,0 0.56567,-0.039 0.44863,-0.039 0.58517,-0.11703 0.25357,-0.15605 0.39012,-0.72172 0.0585,-0.27308 0.0585,-0.44863 0,-0.25358 -0.0195,-0.44863 -0.039,-0.46814 -0.0975,-0.56567 -0.0585,-0.11704 -0.29259,-0.11704 h -0.15605 q -0.21456,0 -0.40962,0.039 -0.17555,0.039 -0.23407,0.039 -0.15604,0 -0.48764,-0.15605 -0.46814,-0.23407 -0.46814,-0.40962 0,-0.13654 0.11703,-0.27308 0.15605,-0.21457 0.37061,-0.21457 0.078,0 0.19506,0.039 0.13654,0.0585 0.3316,0 0.11704,-0.0195 0.50715,-0.0195 0.15605,0 0.37061,-0.0585 0.23407,-0.0585 0.37061,-0.0585 0.11704,0 0.19506,0.0195 0.27308,0.039 0.37061,0.11703 0.0975,0.0585 0.3316,0.35111 0.25357,0.31209 0.25357,1.46293 0,1.09233 -0.25357,1.658 -0.0975,0.23407 -0.29259,0.42912 -0.19506,0.17556 -0.3511,0.19506 -0.078,0 -0.62419,0.11704 -0.52666,0.11703 -1.0143,0.11703 -0.50715,0 -0.79974,-0.11703 -0.25357,-0.0975 -0.39011,-0.0975 -0.0975,0 -0.23407,-0.0975 -0.11704,-0.078 -0.52666,-0.27308 -0.39012,-0.21457 -0.58517,-0.40962 -0.21457,-0.21457 -0.25358,-0.21457 -0.039,0 -0.13654,-0.11703 -0.0975,-0.13654 -0.11704,-0.15605 -0.0975,-0.0585 -0.0975,-0.13654 0,-0.039 -0.17556,-0.25358 -0.46814,-0.54616 -0.46814,-1.26787 0,-0.19506 0.0195,-0.31209 0.039,-0.29259 0.39012,-1.05332 0.48764,-1.13133 1.95058,-2.43822 0.0975,-0.078 0.74122,-0.40962 0.078,-0.039 0.15604,-0.039 0.078,0 0.11704,-0.039 0.0195,-0.0195 0.39011,-0.0585 0.37061,-0.0585 0.42913,-0.0585 0.0195,0 0.13654,0.0195 0.11704,0.0195 0.17555,0.0195 0.27309,0 0.52666,0.19506 0.13654,0.0975 0.17555,0.0975 0.039,0 0.3121,0.19505 0.27308,0.19506 0.31209,0.25358 0.078,0.078 0.17555,0.27308 0.11704,0.21456 0.039,0.40962 -0.15604,0.31209 -0.39011,0.31209 -0.19506,0 -0.50715,-0.21456 -0.62419,-0.42913 -1.09233,-0.42913 -0.0195,0 -0.078,0.0195 -0.039,0 -0.0585,0 -0.15605,0.039 -0.48764,0.21456 -0.27309,0.17556 -0.3316,0.17556 -0.0585,0 -0.42913,0.37061 -0.37061,0.37061 -0.42913,0.50715 -0.0585,0.078 -0.17555,0.23407 -0.11704,0.13654 -0.17555,0.23407 -0.0585,0.0975 -0.17556,0.25357 -0.0975,0.15605 -0.15604,0.27308 -0.29259,0.58518 -0.3316,0.79974 -0.0195,0.11703 -0.0195,0.3316 0,0.29259 0.0975,0.52666 0.0975,0.19505 0.0975,0.25357 0,0.0585 0.15605,0.23407 0.17555,0.15605 0.21456,0.15605 z"
         id="path1676" /><path
         d="m 555.75222,114.52963 q 0.11704,0 1.97009,-0.13654 0.15605,-0.0195 0.42913,-0.0195 0.37061,0 0.89726,0.078 0.19506,0.0195 0.37061,-0.0195 0.039,-0.0195 0.11704,-0.0195 0.25357,0 0.46814,0.17556 0.0975,0.0975 0.15604,0.0975 0.078,0 0.21457,0.44863 0.0195,0.039 0.0195,0.11703 0,0.21457 -0.23407,0.37061 -0.21456,0.13654 -0.46814,0.13654 -0.15604,0 -0.25357,-0.0585 -0.31209,-0.17556 -0.87776,-0.17556 h -0.0585 q -0.13654,0.0195 -0.17555,0.0585 -0.039,0.039 -0.078,0.23407 -0.039,0.15605 -0.039,0.60468 0,0.44863 0.039,0.6827 0.039,0.23407 0.0585,0.87777 0.039,0.64369 0.0585,0.78023 0,0.0975 0.039,0.50715 0.039,0.39011 0.0585,0.76072 0.0195,0.35111 0.0195,0.48765 0.0195,0.078 0.58517,0.078 0.29259,0 0.40962,-0.0195 0.078,-0.0195 0.21456,-0.0195 0.39012,0 0.6632,0.3316 0.15605,0.21456 0.15605,0.37061 0,0.31209 -0.40962,0.44863 -0.19506,0.078 -1.13134,0.0975 -0.48764,0.0195 -1.07282,0.0195 -0.52666,0 -0.6827,-0.078 -0.15605,-0.078 -0.25358,-0.039 -0.0585,0.0195 -0.21456,0 -0.15605,-0.0195 -0.19506,0.0195 -0.039,0.039 -0.23407,0.039 -0.0975,0 -0.29259,0.078 -0.15604,0.0585 -0.40962,0.0585 -0.21456,0 -0.25357,-0.039 -0.0585,-0.0585 -0.17555,-0.078 -0.19506,-0.039 -0.3316,-0.19506 -0.11704,-0.17555 -0.11704,-0.35111 0,-0.0975 0.0195,-0.13654 0.13654,-0.31209 0.29258,-0.31209 h 0.0585 q 0.0585,0 0.13654,0 0.0975,0 0.19506,0 0.11704,-0.0195 0.27308,-0.0195 0.15605,0 0.29259,0 0.91677,-0.0195 0.97529,-0.078 0.17555,-0.17555 0.17555,-0.78023 0,-0.039 -0.0195,-0.0975 0,-0.078 0,-0.11703 v -0.17556 q 0,-0.0975 0,-0.17555 0.0195,-0.078 0.0195,-0.0975 0,-0.0195 -0.039,-0.21456 -0.0585,-0.19506 0,-0.25358 0.039,-0.078 0.039,-0.40962 0,-0.56567 -0.078,-0.87776 -0.0585,-0.21456 -0.0585,-1.03381 v -0.74122 -0.13654 q 0,-0.0195 -0.078,-0.0195 -0.37061,0 -0.56567,0.15604 -0.25358,0.17555 -0.50715,0.17555 -0.0195,0 -0.0585,-0.0195 h -0.039 q -0.15605,-0.039 -0.48765,-0.3316 -0.31209,-0.31209 -0.31209,-0.56567 0,-0.13654 0.078,-0.21456 0.17556,-0.23407 0.62419,-0.23407 z"
         id="path1678" /><path
         d="m 567.90433,114.47111 q 0.039,0 0.11704,0 l 0.0585,-0.0195 q 0.42913,0 0.62419,0.60468 0.0195,0.039 0.0195,0.17555 0,0.21456 -0.078,0.93628 -0.0585,0.72171 -0.0585,0.89726 v 0.21457 q 0,1.6775 -0.0975,2.00909 -0.0195,0.078 -0.0195,0.50715 v 0.29259 0.35111 q 0,0.62418 -0.29259,0.74122 -0.23407,0.078 -0.29258,0.078 -0.13654,0 -0.39012,-0.15605 -0.3511,-0.21456 -0.64369,-0.74122 -0.29259,-0.54616 -0.40962,-0.70221 -0.0975,-0.0975 -0.0975,-0.15604 0,-0.039 -0.078,-0.0975 -0.0585,-0.0195 -0.21457,-0.23407 -0.13654,-0.21456 -0.15605,-0.23407 -0.0195,-0.0195 -0.27308,-0.44863 -0.039,-0.078 -0.33159,-0.50715 l -0.078,-0.11704 q -0.0975,-0.13654 -0.17555,-0.27308 l -0.078,-0.11704 q -0.039,0 -0.039,-0.078 0,-0.0585 -0.0975,-0.19506 -0.078,-0.13654 -0.11704,-0.13654 -0.039,0 -0.039,1.97009 0,1.97008 -0.0975,2.08712 -0.13654,0.17555 -0.39012,0.17555 -0.21456,0 -0.44863,-0.11703 -0.21456,-0.13654 -0.31209,-0.29259 -0.0585,-0.078 -0.0585,-0.40962 0,-0.13654 0.039,-0.3316 0.0975,-0.39012 0.0975,-1.81404 0,-0.64369 -0.0195,-1.42392 -0.0195,-0.79974 -0.039,-1.3459 -0.0195,-0.54617 -0.0195,-0.56567 v -0.0585 q 0.0195,-0.0585 0.0195,-0.0975 0,-0.17555 0.23407,-0.27308 h 0.078 q 0.48764,0 0.66319,0.13654 l 0.17556,0.11704 q 0.0975,0.0195 0.25357,0.25357 0.17555,0.23407 0.23407,0.42913 0.0585,0.17555 0.27308,0.60468 0.23407,0.42913 0.3316,0.54616 0.0585,0.0585 0.21456,0.35111 0.17556,0.27308 0.17556,0.31209 0,0.078 0.42912,0.64369 0.0195,0.0195 0.078,0.11703 0.078,0.078 0.17555,0.21457 0.11703,0.13654 0.19506,0.23407 l 0.3511,0.42913 q 0.11704,-0.29259 0.13654,-2.98439 0.0195,-0.89727 0.0195,-1.0143 0.0195,-0.13654 0.15605,-0.29259 0.15604,-0.15605 0.29258,-0.19506 z"
         id="path1680" /><path
         d="m 573.09287,114.86123 q 0.0585,0 0.0585,-0.039 0,-0.039 0.3121,-0.039 0.31209,0 0.31209,0.039 0,0.039 0.15604,0 0.0585,-0.0195 0.3121,-0.0195 0.42912,0 0.58517,0.039 h 0.078 q 0.0585,0 0.27309,0 0.21456,-0.0195 0.29258,-0.0195 h 0.0585 q 0.078,0.039 0.46814,0.039 0.13654,0 0.3511,0.0195 0.21457,0 0.23407,0 0.11704,0 0.23407,-0.0195 0.13654,-0.0195 0.17556,-0.0195 0.13654,0 0.33159,0.17555 0.35111,0.35111 0.35111,0.58518 0,0.17555 -0.15605,0.3316 -0.15604,0.15604 -0.46814,0.15604 -0.11703,0 -0.46814,-0.078 -0.70221,-0.17555 -1.15084,-0.17555 h -0.0585 -0.0975 q -0.0975,0 -0.23406,0.0195 -0.13655,0 -0.27309,0 -0.31209,0 -0.44863,0.0195 -0.13654,0 -0.29259,0.078 -0.13654,0.078 -0.15604,0.23407 0,0.0195 -0.0195,0.11704 0,0.078 0,0.13654 0,1.20936 0.11704,1.32639 0.0195,0.0195 0.13654,0.0195 0.42912,0 0.6827,-0.11704 0.13654,-0.0585 0.21456,-0.0585 0.15605,0 0.44864,0.29258 0.19505,0.19506 0.19505,0.39012 0,0.21456 -0.11703,0.31209 -0.0585,0.0585 -0.13654,0.0585 -0.0585,0 -0.11704,0.0195 -0.11703,0.0585 -0.48764,0.0585 -0.93628,0.039 -0.93628,0.11704 l 0.0195,0.11703 q 0,0.11704 0,0.31209 0,0.19506 0,0.37061 0.0195,0.76073 0.11703,0.83875 0.0585,0.039 0.19506,0.039 0.039,0 0.42913,-0.039 0.3511,-0.0195 0.6827,-0.11703 0.3316,-0.0975 0.56567,-0.11704 0.23407,-0.0195 0.42913,-0.078 h 0.078 q 0.23407,0 0.48764,0.21456 0.25358,0.19506 0.25358,0.44864 0,0.13654 -0.11703,0.29258 -0.0975,0.13655 -0.42913,0.15605 -0.078,0 -0.13654,0 -0.3316,0 -0.85826,0.0975 -0.85825,0.15605 -1.42392,0.23407 -0.078,0.0195 -0.3316,0.0975 -0.25358,0.078 -0.39012,0.078 -0.0195,0 -0.078,0 -0.039,-0.0195 -0.0585,-0.0195 -0.58517,-0.13654 -0.66319,-0.44864 -0.0585,-0.19506 -0.0585,-0.40962 0,-0.29259 0.078,-0.44863 0.15605,-0.37061 0.15605,-2.20416 0,-0.25357 0,-0.54616 0,-0.29259 -0.0195,-0.52666 0,-0.25357 0,-0.48764 0,-0.25358 -0.0195,-0.42913 0,-0.19506 -0.0195,-0.3316 0,-0.15604 0,-0.23407 v -0.078 l -0.039,-0.46814 0.15605,-0.15605 q 0.19505,-0.15604 0.23406,-0.15604 z"
         id="path1682" /><path
         d="m 580.23199,114.86123 q 0.0585,0 0.0585,-0.039 0,-0.039 0.3121,-0.039 0.31209,0 0.31209,0.039 0,0.039 0.15604,0 0.0585,-0.0195 0.3121,-0.0195 0.42913,0 0.58517,0.039 h 0.078 q 0.0585,0 0.27309,0 0.21456,-0.0195 0.29258,-0.0195 h 0.0585 q 0.078,0.039 0.46814,0.039 0.13654,0 0.3511,0.0195 0.21457,0 0.23407,0 0.11704,0 0.23407,-0.0195 0.13654,-0.0195 0.17556,-0.0195 0.13654,0 0.33159,0.17555 0.35111,0.35111 0.35111,0.58518 0,0.17555 -0.15605,0.3316 -0.15604,0.15604 -0.46814,0.15604 -0.11703,0 -0.46814,-0.078 -0.70221,-0.17555 -1.15084,-0.17555 h -0.0585 -0.0975 q -0.0975,0 -0.23407,0.0195 -0.13655,0 -0.27309,0 -0.31209,0 -0.44863,0.0195 -0.13654,0 -0.29259,0.078 -0.13654,0.078 -0.15604,0.23407 0,0.0195 -0.0195,0.11704 0,0.078 0,0.13654 0,1.20936 0.11704,1.32639 0.0195,0.0195 0.13654,0.0195 0.42912,0 0.6827,-0.11704 0.13654,-0.0585 0.21456,-0.0585 0.15605,0 0.44864,0.29258 0.19506,0.19506 0.19506,0.39012 0,0.21456 -0.11704,0.31209 -0.0585,0.0585 -0.13654,0.0585 -0.0585,0 -0.11703,0.0195 -0.11704,0.0585 -0.48765,0.0585 -0.93628,0.039 -0.93628,0.11704 l 0.0195,0.11703 q 0,0.11704 0,0.31209 0,0.19506 0,0.37061 0.0195,0.76073 0.11703,0.83875 0.0585,0.039 0.19506,0.039 0.039,0 0.42913,-0.039 0.3511,-0.0195 0.6827,-0.11703 0.3316,-0.0975 0.56567,-0.11704 0.23407,-0.0195 0.42913,-0.078 h 0.078 q 0.23407,0 0.48765,0.21456 0.25357,0.19506 0.25357,0.44864 0,0.13654 -0.11703,0.29258 -0.0975,0.13655 -0.42913,0.15605 -0.078,0 -0.13654,0 -0.3316,0 -0.85826,0.0975 -0.85825,0.15605 -1.42392,0.23407 -0.078,0.0195 -0.3316,0.0975 -0.25358,0.078 -0.39012,0.078 -0.0195,0 -0.078,0 -0.039,-0.0195 -0.0585,-0.0195 -0.58517,-0.13654 -0.66319,-0.44864 -0.0585,-0.19506 -0.0585,-0.40962 0,-0.29259 0.078,-0.44863 0.15605,-0.37061 0.15605,-2.20416 0,-0.25357 0,-0.54616 0,-0.29259 -0.0195,-0.52666 0,-0.25357 0,-0.48764 0,-0.25358 -0.0195,-0.42913 0,-0.19506 -0.0195,-0.3316 0,-0.15604 0,-0.23407 v -0.078 l -0.039,-0.46814 0.15605,-0.15605 q 0.19505,-0.15604 0.23407,-0.15604 z"
         id="path1684" /><path
         d="m 590.27746,115.62195 q -0.21457,-0.0975 -0.72172,-0.0975 -0.46814,0.0195 -0.6632,0.078 -0.17555,0.0585 -0.39011,0.29258 -0.0975,0.0975 -0.15605,0.0975 -0.078,0 -0.078,0.29259 0,0.25358 0.0585,0.89727 l 0.039,0.31209 0.25357,0.039 h 0.0975 q 0.0585,0 0.17555,0 0.13655,-0.0195 0.17556,-0.0195 0.13654,0 0.19505,0.0585 0.039,0.039 0.078,0.039 0.078,0 0.25357,-0.078 0.19506,-0.0975 0.25358,-0.0975 0.0585,0 0.11703,-0.0585 0.039,-0.039 0.21457,-0.039 0.39011,0 0.64369,-0.3511 0.0975,-0.11704 0.0975,-0.40962 0,-0.42913 -0.19506,-0.54616 -0.078,-0.039 -0.13654,-0.15605 -0.0585,-0.13654 -0.31209,-0.25358 z m -1.93108,4.0377 v 0.17556 q 0,0.25357 -0.0975,0.6827 -0.078,0.40962 -0.078,0.64369 0,0.31209 -0.0585,0.42913 -0.039,0.0975 -0.23407,0.25357 -0.15604,0.13654 -0.27308,0.0975 -0.13654,-0.039 -0.15604,-0.0195 -0.039,0.039 -0.21457,-0.0585 -0.17555,-0.0975 -0.25357,-0.19506 -0.13654,-0.13654 -0.13654,-0.40962 0,-0.0585 0.039,-0.37061 0.0585,-0.40962 0.039,-0.46814 -0.039,-0.078 0,-0.29259 0.0975,-0.52665 0.15605,-1.57997 0.039,-1.0143 0.039,-1.26787 0,-0.95579 -0.17556,-1.71651 -0.0585,-0.27309 -0.0585,-0.37061 0,-0.0975 0.0585,-0.27309 0.078,-0.25357 0.13655,-0.29258 0.0585,-0.039 0.39011,-0.039 h 0.078 q 0.23407,0 0.40963,-0.0195 0.17555,-0.039 0.37061,-0.078 0.19505,-0.039 0.3316,-0.0585 0.31209,-0.039 0.52665,-0.039 1.42393,0 2.0091,0.31209 0.11703,0.0585 0.17555,0.13654 0.078,0.0585 0.15605,0.17555 0.078,0.11704 0.15604,0.19506 0.23407,0.23407 0.23407,0.25358 0,0.078 0.0975,0.17555 0.0975,0.11703 0.23407,0.62418 0.0975,0.3121 0.0975,0.58518 0,0.23407 -0.17555,0.58517 -0.37061,0.50715 -0.70221,0.64369 -0.17555,0.078 -0.17555,0.44864 0,0.3511 0.13654,0.62418 0.078,0.13654 0.078,0.25358 0,0.0585 0.11704,0.21456 0.0195,0.0195 0.078,0.15605 0.0585,0.11703 0.0975,0.23407 0.0585,0.0975 0.0975,0.0975 0.039,0 0.11703,0.11703 0.11704,0.23407 0.3316,0.48765 0.17555,0.17555 0.17555,0.52665 0,0.21457 -0.0975,0.3121 -0.11703,0.11703 -0.52665,0.11703 -0.42913,0 -0.56567,-0.13654 -0.11704,-0.11703 -0.21456,-0.3511 -0.17556,-0.40963 -0.37061,-0.64369 -0.13654,-0.17556 -0.19506,-0.3316 -0.0195,-0.0585 -0.25358,-0.56567 -0.11703,-0.25358 -0.25357,-0.6632 -0.039,-0.13654 -0.0975,-0.23407 -0.0585,-0.0975 -0.11704,-0.11703 -0.039,-0.039 -0.078,0 -0.039,0.039 -0.42913,0.11703 -0.17555,0.039 -0.46814,0.039 -0.31209,0 -0.52665,-0.039 v 0.39012 q 0,0.11703 0,0.31209 0.0195,0.19506 0.0195,0.21456 z"
         id="path1686" /><path
         d="m 595.11487,120.1473 q 0,-0.078 0.15605,-0.17555 0.15605,-0.0975 0.29259,-0.0975 0.078,0 0.11703,0.0585 0.039,0.039 0.15605,0.039 0.11703,0 0.11703,0.0585 0,0.039 0.13654,0.078 0.3316,0.078 0.40963,0.56567 0.039,0.31209 0.039,0.48764 0,0.72172 -0.23407,1.15084 -0.27308,0.62419 -0.48765,0.87776 -0.19505,0.23407 -0.50715,0.23407 -0.0195,0 -0.078,0 -0.0585,-0.0195 -0.0975,-0.0195 -0.52666,-0.0975 -0.52666,-0.37061 0,-0.11704 0.13654,-0.23407 0.39012,-0.37061 0.44864,-0.56567 l 0.0975,-0.29259 q 0.0975,-0.21456 0.0975,-0.39011 0,-0.11704 -0.15605,-0.19506 -0.21456,-0.0975 -0.21456,-0.62419 v -0.15604 q 0.039,-0.3121 0.0585,-0.3316 0.039,-0.039 0.039,-0.0975 z"
         id="path1688" /><path
         d="m 525.18663,136.57118 q 1.17034,-0.0975 2.51624,-0.0975 1.30689,0 1.3264,-0.0195 h 0.0585 q 0.3511,0 0.66319,0.15604 0.15605,0.0585 0.27308,0.25358 l 0.13654,0.15605 -0.0975,0.19505 q -0.17556,0.37061 -0.58518,0.40963 -0.039,0 -0.0975,0.0195 -0.039,0 -0.0585,0 -0.078,0 -0.23407,-0.039 -0.13654,-0.039 -0.27309,-0.039 h -1.697 q -1.52145,0 -1.61898,0.0975 -0.078,0.039 -0.27308,0.039 h -0.35111 q -0.66319,0 -1.98959,0.11703 -0.21456,0.0195 -0.48764,0.0195 -0.23407,0 -0.27308,-0.039 -0.0585,-0.0585 -0.13655,-0.0585 -0.078,0 -0.19505,-0.078 -0.0975,-0.078 -0.0975,-0.11704 0,-0.0195 -0.11704,-0.21456 -0.11703,-0.17555 -0.13654,-0.79974 -0.0195,-0.6827 -0.0195,-1.59947 0,-1.22887 0.15604,-2.24317 0.039,-0.19506 0.039,-1.59948 0,-1.73601 -0.039,-2.55526 -0.0195,-0.64369 -0.0195,-1.28738 v -0.64369 -0.52666 q -0.039,-0.0585 0.0195,-0.23407 0.078,-0.17555 0.15605,-0.21456 0.078,-0.0585 0.50715,-0.039 h 0.23407 q 0.40962,0 0.54616,-0.0195 l 0.87776,-0.0585 q 2.08712,-0.11703 2.10663,-0.13654 0.078,0 0.15605,0.0195 0.23407,0.0585 0.81924,0.0585 0.27308,0 0.29259,-0.0195 0.0975,-0.039 0.15604,-0.0195 0.40962,0.17555 1.44343,0.17555 0.64369,0.0195 0.6632,0.19506 0,0.0585 0.0585,0.15604 0.0585,0.0975 0.078,0.13654 0.0195,0.11704 -0.078,0.29259 -0.0975,0.17555 -0.21457,0.17555 -0.0975,0 -0.15604,0.0585 -0.039,0.039 -0.74122,0.039 -1.15085,-0.0195 -1.69701,-0.078 -0.54616,-0.0585 -1.05331,-0.0585 -0.74122,0 -1.38491,0.0195 -0.91678,0.0195 -1.03381,0.078 -0.25358,0.0975 -0.40962,0.11703 -0.078,0 -0.078,0.68271 0,0.13654 -0.0195,0.40962 0,0.27308 0,0.3511 0,0.3121 0.039,0.79974 0.0585,0.48765 0.0585,0.97529 0,0.85826 0.039,1.24837 l 0.0195,0.35111 h 0.40963 q 0.21456,0 0.6827,-0.0195 0.46814,-0.039 0.70221,-0.039 0.37061,0 0.6632,0.0585 0.13654,0.039 0.31209,0.27308 0.19506,0.21456 0.19506,0.40962 0,0.13654 -0.0975,0.21456 -0.27308,0.27308 -0.62419,0.27308 -0.21456,0 -0.44863,-0.078 -0.23407,-0.078 -0.40962,-0.078 -0.19506,0 -0.35111,0.0195 -1.05331,0.078 -1.13133,0.17556 -0.039,0.039 -0.078,0.27308 -0.0195,0.21456 -0.039,0.50715 -0.0195,0.29259 -0.0195,0.31209 -0.0195,0.13654 -0.0195,0.3316 0,0.0195 0,0.17555 0,0.13654 0,0.39012 0.0195,0.23407 0.0195,0.44863 0,0.78023 0.0585,1.18986 l 0.039,0.27308 h 0.89727 q 0.17555,0 0.72172,-0.039 0.54616,-0.039 0.74122,-0.039 z"
         id="path1690" /><path
         d="m 534.68595,131.38264 q -0.27308,0.0585 -0.76073,0.0585 -0.78023,0.0585 -0.79973,0.0585 -0.21457,0 -0.25358,0.0195 -0.0195,0.0195 -0.0975,-0.039 -0.0585,-0.0585 -0.15604,-0.0975 -0.35111,-0.15605 -0.35111,-0.54616 0,-0.0195 0,-0.0585 0.0195,-0.0585 0.0195,-0.078 0.039,-0.23407 0.0975,-0.29259 0.21456,-0.13654 0.54616,-0.078 0.19506,0.039 0.87776,0.039 0.70221,0 0.76073,-0.0585 0.15604,-0.15605 0.66319,-0.15605 0.0585,0 1.30689,0.039 0.15605,0 0.52666,-0.039 0.37061,-0.0585 0.54616,-0.0585 0.31209,0 0.42913,0.0975 0.11703,0.078 0.19506,0.078 0.0585,0 0.19505,0.13654 0.15605,0.11704 0.21457,0.23407 0.039,0.11703 0.039,0.25358 0,0.39011 -0.19506,0.39011 -0.078,0 -0.11703,0.039 -0.039,0.039 -1.22887,0.039 -1.18985,0 -1.22886,0.039 -0.0585,0.0585 -0.0585,1.46293 0,1.24837 -0.078,2.10663 -0.039,0.25357 -0.039,0.54616 0,0.17555 0.0195,0.21456 0.0585,0.15605 0.0585,0.25358 0,0.0975 -0.0585,0.31209 -0.0585,0.19506 -0.0585,0.31209 -0.039,0.56567 -0.40962,0.78024 -0.11703,0.0585 -0.27308,0.0585 -0.13654,0 -0.3316,-0.0585 -0.21456,-0.0585 -0.27308,-0.13654 -0.0585,-0.078 -0.0585,-0.29259 v -0.15605 q 0.039,-0.83875 0.13654,-1.50194 0.11704,-0.68271 0.13654,-1.95058 0,-0.25358 0,-0.62419 0.0195,-0.37061 0.0195,-0.60468 0.0195,-0.25357 0.0195,-0.3511 z"
         id="path1692" /><path
         d="m 541.35693,136.12255 q 0,-0.0195 -0.13654,-0.23407 -0.13654,-0.21456 -0.13654,-0.23407 0,-0.039 -0.0585,-0.15605 -0.0585,-0.11703 -0.13654,-0.72171 -0.0585,-0.40962 -0.0585,-0.79974 0,-0.72171 0.19506,-1.17035 0.0585,-0.11703 0.0585,-0.23407 0,-0.078 0.0585,-0.13654 0.0585,-0.0585 0.17555,-0.3316 0.21456,-0.54616 0.56567,-0.7022 0.078,-0.0195 0.29258,-0.19506 0.13654,-0.11704 0.56567,-0.37061 0.44863,-0.27308 0.48765,-0.27308 0.039,0 0.19505,-0.0975 0.21457,-0.11704 0.72172,-0.21457 h 0.0975 q 0.25357,0 0.60468,0.17556 0.37061,0.15604 0.50715,0.25357 0.0585,0.0585 0.21456,0.15605 0.15605,0.0975 0.21457,0.21456 0.078,0.11704 0.078,0.37061 0,0.19506 -0.039,0.27308 -0.039,0.0585 -0.19506,0.0975 h -0.0585 q -0.44863,0 -0.81924,-0.3316 -0.13654,-0.13654 -0.25358,-0.13654 -0.0195,0 -0.13654,0.0195 -0.11703,0.0195 -0.21456,0.0195 -0.17555,0 -0.54616,0.21457 -0.23407,0.11703 -0.56567,0.3511 -0.31209,0.23407 -0.3316,0.29259 -0.039,0.0585 -0.0975,0.0975 -0.0585,0.0195 -0.27308,0.44863 -0.21456,0.42913 -0.21456,0.52666 0,0.0585 -0.039,0.0975 -0.15604,0.15604 -0.15604,0.97529 0,0.46814 0.0975,0.62418 0.039,0.039 0.0975,0.23407 0.0585,0.19506 0.0975,0.23407 0.078,0.078 0.078,0.11704 0,0.21456 0.39011,0.39011 0.56567,0.25358 0.81925,0.25358 0.078,0 0.70221,-0.078 0.27308,-0.039 0.40962,-0.21457 0.15604,-0.15604 0.52665,-0.29259 l 0.23407,0.23407 q 0.21457,0.21457 0.21457,0.42913 0,0.17555 -0.11704,0.37061 -0.17555,0.3316 -0.37061,0.44864 -0.17555,0.0975 -0.56567,0.0975 -0.27308,0 -0.44863,-0.0195 -0.11703,0 -0.3316,-0.0195 -0.21456,-0.0195 -0.37061,-0.0195 -0.15604,-0.0195 -0.23407,-0.0195 -0.3316,0 -0.44863,-0.0975 -0.13654,-0.0975 -0.17555,-0.0975 -0.039,0 -0.17555,-0.11703 -0.11704,-0.11704 -0.17556,-0.11704 -0.0975,0 -0.39011,-0.23407 -0.29259,-0.23407 -0.3316,-0.25357 -0.0975,-0.039 -0.0975,-0.0975 z"
         id="path1694" /><path
         d="m 548.37901,136.12255 q 0.17556,-0.11704 0.23407,-0.0585 0.0195,0.0195 0.21457,0.11704 0.42913,0.17555 0.42913,0.42912 0,0.13655 -0.0975,0.35111 -0.0975,0.21456 -0.15605,0.21456 -0.0975,0 -0.17555,0.078 -0.0975,0.078 -0.25358,0.078 -0.21456,0 -0.42913,-0.11704 -0.21456,-0.13654 -0.21456,-0.27308 0,-0.52665 0.44863,-0.81924 z"
         id="path1696" /></g><path
       d="m 247.82843,87.06998 q 0.69828,-0.0082 1.12282,0.45216 0.42394,0.413984 0.4323,1.112246 -0.0754,1.490774 -1.84429,1.5119 -0.23277,0.0029 -0.97871,-0.08144 -0.56029,-0.132991 -1.02582,-0.127409 -0.0465,5.77e-4 -5.35459,-0.02918 l -1.44366,-0.02928 0.0239,2.001737 q 0.064,5.353486 -0.20526,6.194762 -0.0444,0.186754 -0.0386,0.65229 0.002,0.139649 0.009,0.744829 0.0532,0.558065 0.1209,2.326485 0.0671,1.72187 0.13702,3.6765 0.11537,1.86097 0.1276,2.88511 0.0127,1.0707 0.10814,1.2558 0.0471,0.046 0.0559,0.79083 0.0129,1.0707 -0.0765,1.39767 -0.13578,0.32755 -0.17453,0.97982 -0.0837,0.79249 -0.40673,1.02915 -0.55362,0.42564 -1.48465,0.43675 -0.419,0.005 -0.84295,-0.40898 -0.42399,-0.41398 -0.57362,-1.25022 -0.10205,-0.74373 -0.10315,-0.83683 -0.002,-0.18619 0.13078,-0.7465 0.17896,-0.60741 0.14956,-3.07467 -0.0289,-2.4207 -0.076,-2.46669 -0.18897,-0.23056 -0.24623,-5.0254 -0.0423,-3.537958 0.0858,-4.517217 0.17063,-1.305675 0.14035,-3.8195 -0.0178,-1.489661 -0.11315,-1.674758 -0.14242,-0.231128 -0.74817,-0.27041 -0.74594,-0.08423 -2.28216,-0.06602 -1.44311,0.01723 -2.55925,0.123691 -0.46496,0.05208 -1.396,0.0632 -1.76898,0.02112 -2.19128,-0.253181 -0.75095,-0.503172 -0.76151,-1.387666 -0.007,-0.605167 0.36133,-0.935485 0.27599,-0.282633 1.06736,-0.29211 0.32586,-0.004 0.46608,0.04092 0.23387,0.09034 1.35111,0.0771 0.23277,-0.0029 1.53621,-0.01833 1.34946,-0.06267 2.51325,-0.07657 4.93397,-0.105445 6.74672,-0.359922 0.83683,-0.103141 1.90752,-0.115896 0.97759,-0.01169 1.1649,0.0794 0.18729,0.09092 1.02415,-0.01222 0.55751,-0.09978 0.74373,-0.102035 0.23276,-0.0029 0.69883,0.03805 0.51264,0.04034 0.79195,0.03685 l 0.51208,-0.0063 q 0.51151,-0.05266 0.8385,0.03628 0.32639,0.04264 0.55919,0.03977 z"
       id="path814"
       style="font-size:10.5833px;line-height:0.75;font-family:Thadscript;-inkscape-font-specification:Thadscript;fill:#000000;stroke:#000000;stroke-width:0.879789;stroke-dasharray:none;stroke-opacity:1" /><path
       d="m 264.30223,113.69104 q -0.004,-0.32586 -0.0993,-0.51095 -0.0953,-0.18507 -0.0993,-0.51097 -0.003,-0.23277 -0.0987,-0.4644 -0.0499,-0.27878 -0.008,-0.65172 0.21886,-1.1666 0.2022,-2.56316 -0.006,-0.51207 -0.0537,-0.60461 -0.19177,-0.46331 -0.47164,-0.50652 -0.46664,-0.0875 -0.51374,-0.13352 -0.0471,-0.046 -0.46608,-0.0409 -0.97759,0.0117 -2.88178,0.4069 -1.85819,0.34809 -2.08817,0.58364 -0.092,0.0942 -0.0788,1.21147 0.009,0.74482 0.0581,0.97703 0.1973,0.92882 0.2229,3.07022 0.009,0.79138 -0.0831,0.83904 -0.18396,0.18844 -0.18285,0.28153 0.003,0.23276 -1.02248,0.1519 -0.7454,-0.0374 -0.97981,-0.17453 -0.23446,-0.13689 -0.47219,-0.55307 -0.42731,-0.69328 -0.52557,-5.02206 -0.066,-1.62877 -0.0832,-3.07189 0.14496,-3.44707 0.12061,-5.49536 -0.0129,-1.070694 -0.0621,-1.302895 -0.14964,-0.836269 0.0348,-1.024687 0.27542,-0.329177 1.06681,-0.338654 0.74483,-0.0088 1.07403,0.266513 0.14132,0.137995 0.32918,0.275413 0.23445,0.136889 0.23613,0.276523 0.0477,0.09256 0.0987,0.464409 0.0505,0.325282 0.0593,1.070138 0.0167,1.39656 -0.0632,2.51492 l 0.009,0.74483 q 0.0133,1.11724 0.15633,1.39489 0.0482,0.1391 0.88616,0.1291 l 0.88448,-0.0105 q 0.0921,-0.0943 0.69718,-0.10146 1.62821,-0.11258 2.41792,-0.26168 0.74372,-0.10204 0.97648,-0.10479 l 0.18618,-0.002 q 0.46554,-0.006 0.45216,-1.1228 l -0.009,-0.79138 q -0.0777,-2.60636 -0.22789,-3.489183 -0.0998,-0.557515 -0.10147,-0.697167 -0.005,-0.372451 0.26988,-0.794724 0.27489,-0.375766 0.60073,-0.379663 0.419,-0.0052 1.0746,0.313057 1.12279,0.452159 1.13392,1.383217 0.004,0.325861 -0.0397,0.559186 7.5e-4,0.09312 -0.0432,0.279887 0.002,0.13969 0.002,0.18619 0.003,0.18619 0.0521,0.46497 0.0499,0.27873 0.0521,0.46496 0.004,0.32586 -0.0403,0.51263 -0.0443,0.18675 -0.0348,1.02469 0.0178,1.48966 0.16913,2.46558 3.7e-4,0.0465 0.007,0.60517 0.006,0.51209 0.0167,1.39656 0.0565,0.83738 0.066,1.62877 0.0849,3.21154 0.32878,4.13981 0.19456,0.69605 0.20009,1.16158 0.004,0.32586 -0.31306,1.07459 l -0.97648,0.10477 q -0.88393,0.0571 -1.25912,-0.1712 -0.75151,-0.54973 -0.76318,-1.52732 z"
       id="path816"
       style="font-size:10.5833px;line-height:0.75;font-family:Thadscript;-inkscape-font-specification:Thadscript;fill:#000000;stroke:#000000;stroke-width:0.879789;stroke-dasharray:none;stroke-opacity:1" /><path
       d="m 282.81403,104.34447 q -0.15022,-0.88282 -0.72385,-2.13305 -0.0471,-0.046 -0.0937,-0.0455 -0.37245,0.005 -1.46243,2.29884 -0.99968,2.06052 -0.99634,2.33982 l 0.0476,0.0925 q 0.0942,0.092 0.6994,0.0847 0.37245,-0.005 0.69884,0.038 0.32638,0.0426 0.46607,0.0409 0.0465,-3.7e-4 0.79027,-0.10256 l 0.97594,-0.15133 -0.0527,-0.51152 q -0.006,-0.46552 -0.15242,-1.06903 -0.1469,-0.6035 -0.19677,-0.88226 z m -3.0006,-5.644325 q 0.27378,-0.468854 0.45885,-0.564181 0.18506,-0.09535 0.69828,-0.0082 0.13967,-0.0017 0.46607,0.04092 0.32586,-0.004 0.419,-0.0052 0.32586,-0.004 0.37466,0.18175 0.0488,0.185646 0.47052,0.413409 0.42173,0.227762 0.46941,0.320276 3.8e-4,0.04654 0.097,0.324749 0.0959,0.23166 0.19065,0.370186 0.52374,0.971476 0.76484,1.666976 0.0476,0.0926 0.38519,1.06625 0.33756,0.9737 0.67675,2.08706 0.14579,0.5104 0.24335,0.88171 0.0976,0.37133 0.19455,0.69605 0.0969,0.32475 0.14535,0.46387 0.0969,0.32475 0.0998,0.55751 3.8e-4,0.0465 0.19503,0.7426 0.19446,0.69606 0.19561,0.78916 0.0128,1.0707 1.25205,3.47695 0.52431,1.01804 0.53042,1.53011 0.006,0.46553 -0.22072,1.02692 -0.17936,0.56085 -0.36562,0.56307 -0.13961,0.002 -0.46275,0.23835 -0.32241,0.28322 -0.83567,0.1962 -0.60633,-0.0859 -0.74817,-0.27041 -0.14189,-0.18455 -0.14894,-0.78972 -0.008,-0.65174 -0.15411,-1.20868 -0.0998,-0.55751 -0.34087,-1.25302 -0.24167,-0.74205 -0.33808,-1.02026 -0.14579,-0.5104 -0.43676,-1.48466 l -0.19234,-0.50985 -0.83904,-0.0831 q -0.46608,-0.0409 -1.2109,-0.0322 -0.83794,0.01 -1.49023,-0.0287 -0.18619,0.003 -0.51208,0.006 -0.32638,-0.0426 -0.41952,-0.0415 -0.93104,0.011 -1.0668,0.33865 -0.0881,0.42011 -0.72427,1.73133 -0.63671,1.26468 -1.00302,1.7812 -0.092,0.0942 -0.45552,0.84351 -0.36354,0.74927 -0.5935,0.98482 -0.13799,0.14131 -0.27431,0.42231 -0.13688,0.23444 -0.32142,0.37629 -0.138,0.14132 -0.37077,0.14411 -0.18619,0.003 -0.27988,-0.0432 -0.0465,3.8e-4 -0.18619,0.003 -0.14021,-0.0449 -0.32697,-0.0893 -0.14021,-0.0449 -0.23334,-0.0438 -0.46608,-0.0409 -0.74983,-0.4101 -0.28379,-0.36907 -0.28933,-0.83459 -0.005,-0.37246 0.17786,-0.70051 0.18064,-0.46774 0.77082,-1.73188 0.63615,-1.31124 0.86168,-1.9192 0.0449,-0.14021 0.49874,-1.12336 0.13742,-0.18787 0.36407,-0.70273 0.27262,-0.56196 0.36355,-0.74929 l 0.59183,-1.12447 q 0.77638,-1.26635 1.04846,-1.87487 0.72648,-1.54511 1.31833,-2.66958 1.00356,-1.734658 0.99745,-2.246728 -0.003,-0.23277 0.27099,-0.701617 z"
       id="path818"
       style="font-size:10.5833px;line-height:0.75;font-family:Thadscript;-inkscape-font-specification:Thadscript;fill:#000000;stroke:#000000;stroke-width:0.879789;stroke-dasharray:none;stroke-opacity:1" /><path
       d="m 296.69131,112.37308 q 0.18628,-0.003 1.29789,-0.48109 1.15773,-0.52597 1.29736,-0.52764 0.1396,-0.002 0.23063,-0.18897 0.0473,-0.0936 0.41647,-0.19119 0.69605,-0.19455 2.3519,-1.89043 1.5179,-1.55456 1.48119,-4.627 -0.0122,-1.02414 -0.30005,-1.7191 -0.23941,-0.55584 -0.89843,-1.15323 -0.61238,-0.59795 -0.89169,-0.59462 l -0.0466,5.8e-4 q -0.27918,0.004 -0.69994,-0.13131 -0.37426,-0.13521 -0.70052,-0.17785 -1.72688,-0.35186 -2.42518,-0.34353 l -0.51203,0.006 q -0.55865,0.007 -1.02252,0.1519 l -0.50928,0.23888 0.0279,2.3276 q 0.0378,3.16554 0.29504,5.21104 0.0508,0.37187 0.0648,1.53566 l 0.005,0.60511 0.007,0.55863 q 0.008,0.79132 0.0584,0.97704 0.0507,0.32529 0.0975,0.37129 0.094,0.0455 0.37311,0.0421 z m 4.48068,0.92422 q -0.5542,0.37908 -0.69383,0.38077 -0.14005,0.002 -0.74148,0.28822 -0.55588,0.23945 -0.69551,0.24109 -0.18584,0.003 -0.37081,0.14411 -0.46168,0.33138 -1.7651,0.34698 -0.83798,0.01 -1.02637,-0.17396 -0.14133,-0.138 -0.46555,0.006 -0.13843,0.0947 -0.55751,0.0998 -0.7925,-0.0836 -1.49691,-0.58739 -0.32816,-0.18229 -0.3398,-1.15992 -0.005,-0.6051 0.17691,-0.7936 0.13614,-0.281 0.11693,-1.91029 -0.0879,-7.35523 -0.35952,-10.611089 -0.0589,-1.023595 0.21784,-1.25968 0.32183,-0.329758 0.83404,-0.335865 0.23294,-0.0029 1.07291,0.173424 0.37426,0.13521 1.39657,-0.01669 1.02256,-0.151898 1.76735,-0.160756 0.74484,-0.0088 1.02584,0.127409 0.74928,0.363543 2.14974,0.672703 0.327,0.08923 0.84072,0.222759 0.55972,0.08644 0.65286,0.08534 0.65339,0.131884 1.45253,0.774148 0.8452,0.595177 0.99041,1.059027 0.0962,0.23167 0.37958,0.60072 0.23596,0.27652 0.4309,0.97259 0.19389,0.64951 0.24114,0.6955 0.0945,0.092 0.11146,1.5351 0.014,1.1638 -0.0312,1.39708 -0.30256,1.95908 -0.80237,2.98933 -0.45322,1.02971 -1.46578,2.01953 -0.82961,0.70828 -0.96813,0.80306 l -0.55362,0.42563 q -0.45898,0.56418 -0.92434,0.56975 -0.0466,3.7e-4 -0.60078,0.37966 z"
       id="path820"
       style="font-size:10.5833px;line-height:0.75;font-family:Thadscript;-inkscape-font-specification:Thadscript;fill:#000000;stroke:#000000;stroke-width:0.879789;stroke-dasharray:none;stroke-opacity:1" /><path
       d="m 315.40527,112.14959 q 0.18628,-0.003 1.29789,-0.48109 1.15768,-0.52596 1.29735,-0.52763 0.14005,-0.002 0.23064,-0.18897 0.0473,-0.0936 0.41647,-0.19119 0.69604,-0.19455 2.35194,-1.89043 1.51785,-1.55456 1.48119,-4.627 -0.0123,-1.02414 -0.30005,-1.7191 -0.23941,-0.55585 -0.89838,-1.15323 -0.61243,-0.59795 -0.89174,-0.59462 l -0.0466,5.8e-4 q -0.27918,0.004 -0.69994,-0.13131 -0.37426,-0.13521 -0.70052,-0.17785 -1.72683,-0.35185 -2.42514,-0.34353 l -0.51208,0.006 q -0.55862,0.007 -1.02247,0.1519 l -0.5093,0.23888 0.0279,2.3276 q 0.0378,3.16554 0.29498,5.21106 0.0509,0.37186 0.0648,1.53564 l 0.005,0.60511 0.007,0.55864 q 0.008,0.79132 0.0583,0.97704 0.0507,0.32528 0.0975,0.37128 0.094,0.0455 0.37311,0.0421 z m 4.48068,0.92423 q -0.55416,0.37909 -0.69383,0.38076 -0.14005,0.002 -0.74153,0.28822 -0.55583,0.23945 -0.69551,0.24114 -0.18584,0.003 -0.37081,0.1441 -0.46159,0.33139 -1.7651,0.34698 -0.83793,0.01 -1.02632,-0.17395 -0.14177,-0.13801 -0.46555,0.006 -0.13844,0.0947 -0.55752,0.0998 -0.79249,-0.0836 -1.49691,-0.58739 -0.32816,-0.18228 -0.3398,-1.15991 -0.005,-0.6051 0.17648,-0.7936 0.13658,-0.28099 0.11733,-1.9103 -0.0879,-7.35522 -0.35943,-10.611086 -0.0589,-1.02359 0.21784,-1.259675 0.32184,-0.329758 0.83409,-0.335863 0.2325,-0.0029 1.07291,0.173423 0.37426,0.135211 1.39656,-0.01669 1.02248,-0.151901 1.76727,-0.16076 0.74484,-0.0088 1.02584,0.127409 0.74928,0.363543 2.14973,0.672703 0.32701,0.08923 0.84073,0.222759 0.55977,0.08644 0.65282,0.08534 0.65343,0.131884 1.45257,0.774154 0.84516,0.595166 0.99037,1.059026 0.0962,0.23167 0.38002,0.60073 0.23595,0.27652 0.43041,0.9726 0.19389,0.6495 0.24114,0.6955 0.0945,0.092 0.11147,1.5351 0.0139,1.1638 -0.0312,1.39707 -0.30256,1.95909 -0.80237,2.98933 -0.45322,1.02971 -1.46577,2.01953 -0.82957,0.70829 -0.96814,0.80306 l -0.55358,0.42564 q -0.45897,0.56418 -0.92438,0.56974 -0.0466,3.7e-4 -0.60073,0.37967 z"
       id="path822"
       style="font-size:10.5833px;line-height:0.75;font-family:Thadscript;-inkscape-font-specification:Thadscript;fill:#000000;stroke:#000000;stroke-width:0.879789;stroke-dasharray:none;stroke-opacity:1" /><path
       d="m 331.52894,97.756643 q 0.14003,-0.0017 0.13888,-0.0948 -7.5e-4,-0.09312 0.74369,-0.102035 0.7448,-0.0088 0.74596,0.08423 7.5e-4,0.09312 0.37254,-0.0046 0.13944,-0.04821 0.74426,-0.05545 1.0242,-0.01222 1.39766,0.07652 l 0.18627,-0.0023 q 0.14003,-0.0017 0.65175,-0.0076 0.51151,-0.05266 0.69773,-0.05487 l 0.14003,-0.0017 q 0.18742,0.09092 1.11835,0.07998 0.32585,-0.004 0.83851,0.03628 0.51209,-0.0063 0.55862,-0.0065 0.27919,-0.0035 0.55809,-0.05323 0.32528,-0.05044 0.41864,-0.05155 0.32586,-0.004 0.79634,0.40951 0.84795,0.82793 0.85464,1.386553 0.003,0.418876 -0.36319,0.795829 -0.36794,0.37688 -1.11278,0.38578 -0.27918,0.004 -1.1195,-0.17285 -1.68087,-0.39897 -2.75157,-0.38617 l -0.14004,0.002 -0.2325,0.003 q -0.23251,0.003 -0.55809,0.0532 -0.32586,0.004 -0.65171,0.008 -0.74484,0.009 -1.07013,0.0593 -0.32586,0.004 -0.69604,0.19455 -0.32355,0.19008 -0.36606,0.56306 3.8e-4,0.0465 -0.045,0.27983 0.003,0.18619 0.002,0.32578 0.0344,2.88623 0.31701,3.16221 0.0472,0.046 0.32643,0.0426 1.02411,-0.0122 1.62595,-0.29876 0.32414,-0.14353 0.51045,-0.14578 0.37254,-0.005 1.07902,0.68549 0.47108,0.45996 0.47665,0.92548 0.004,0.51201 -0.27041,0.74817 -0.13829,0.14131 -0.32413,0.14354 -0.14003,0.002 -0.27859,0.0499 -0.27746,0.143 -1.1622,0.15353 -2.23335,0.1198 -2.23113,0.30598 l 0.0501,0.27874 q 0.003,0.27932 0.009,0.74484 0.006,0.46553 0.009,0.88443 0.0682,1.81497 0.30305,1.9984 0.14074,0.0915 0.4666,0.0875 0.0934,-7.5e-4 1.0231,-0.10536 0.83731,-0.0565 1.62595,-0.29875 0.7886,-0.24225 1.34669,-0.29544 0.55804,-0.0533 1.0219,-0.1984 l 0.18583,-0.003 q 0.55862,-0.006 1.1699,0.49817 0.6108,0.45828 0.61801,1.06347 0.002,0.32579 -0.27098,0.70162 -0.22892,0.32865 -1.01968,0.38467 -0.18584,0.003 -0.32586,0.004 -0.79135,0.009 -2.04548,0.25726 -2.04384,0.39689 -3.3916,0.59921 -0.18569,0.0488 -0.78865,0.24225 -0.60295,0.1934 -0.92885,0.19729 -0.0466,3.7e-4 -0.18584,0.003 -0.094,-0.0455 -0.14015,-0.0449 -1.40046,-0.30916 -1.59554,-1.05179 -0.14535,-0.46386 -0.15168,-0.97594 -0.006,-0.69821 0.17347,-1.07291 0.36203,-0.88893 0.30969,-5.26482 -0.005,-0.60511 -0.0156,-1.30346 -0.006,-0.69821 -0.0618,-1.25636 -0.005,-0.60511 -0.014,-1.1638 -0.005,-0.60511 -0.0589,-1.02359 -0.006,-0.46553 -0.056,-0.79082 -0.005,-0.37245 -0.007,-0.55864 l -0.002,-0.186188 -0.10672,-1.116135 0.36836,-0.37686 q 0.46106,-0.377981 0.55415,-0.379088 z"
       id="path824"
       style="font-size:10.5833px;line-height:0.75;font-family:Thadscript;-inkscape-font-specification:Thadscript;fill:#000000;stroke:#000000;stroke-width:0.879789;stroke-dasharray:none;stroke-opacity:1" /><path
       d="m 358.29133,97.018019 q 0.13946,-0.04821 0.51151,-0.05266 0.83793,-0.0099 0.98035,0.221118 0.14132,0.137995 0.23423,0.136881 0.32586,-0.004 0.80472,1.107799 0.14363,0.324176 -0.12489,1.258576 -0.58355,1.822747 -0.55197,4.476217 0.004,0.512 -0.12981,0.79305 -0.0899,0.28041 -0.26049,1.58611 -0.17059,1.30567 -0.25991,1.63266 -0.13139,0.69996 0.0133,1.11724 0.24114,0.69551 0.25867,2.18517 0.006,0.69821 -0.0355,0.93159 -0.0871,0.51319 -0.68661,0.98593 -0.60021,0.4262 -1.20538,0.43343 -0.32586,0.004 -0.65729,-0.45775 l -0.42435,-0.46051 -0.64728,0.3802 q -1.10892,0.7116 -1.80664,0.76651 -0.23251,0.003 -0.79081,0.0559 -0.5581,0.0533 -0.83741,0.0565 -0.41877,0.005 -0.60575,-0.0392 -1.35439,-0.35632 -1.45143,-0.68105 8.7e-4,-0.13954 -0.60906,-0.31863 -1.63712,-0.63228 -2.03511,-2.76921 -0.0526,-0.51153 -0.24474,-1.02136 -0.19043,-0.37023 -0.2189,-2.74436 -0.006,-0.69822 0.0367,-0.79196 0.13658,-0.28099 0.10753,-2.70169 -0.0338,-2.83967 0.007,-3.352307 0.0703,-1.956281 0.90769,-1.9663 0.2325,-0.0029 0.51539,0.273199 0.0472,0.04598 0.28263,0.275989 0.28149,0.182856 0.42281,0.32085 l 0.37771,0.414526 0.0665,1.675313 0.0384,3.21209 0.0174,1.44312 0.002,0.32578 -0.0473,0.0936 q 7.5e-4,0.0931 8.8e-4,0.2327 -8.7e-4,0.13959 0.003,0.27932 -8.7e-4,0.13954 0.007,0.55863 0.0518,0.41842 0.0543,0.65117 0.0618,1.25635 0.20726,1.76676 0.19216,0.50985 0.71441,1.34167 0.66395,1.01636 1.40874,1.00747 1.58282,-0.0189 2.40517,-1.33237 0.41217,-0.61018 0.95481,-1.9203 0.5425,-1.35669 0.53418,-2.05497 -0.003,-0.18619 0.1321,-0.60685 0.18051,-0.46774 0.1314,-0.69995 -0.0484,-0.13911 0.0334,-1.07127 0.083,-0.83905 0.0614,-2.51499 -0.003,-0.41891 -0.0623,-1.3029 -0.0115,-0.931059 -0.0168,-1.396569 -0.0168,-1.396566 1.46911,-1.740217 z"
       id="path826"
       style="font-size:10.5833px;line-height:0.75;font-family:Thadscript;-inkscape-font-specification:Thadscript;fill:#000000;stroke:#000000;stroke-width:0.879789;stroke-dasharray:none;stroke-opacity:1" /><path
       d="m 368.71452,96.521074 q -0.003,-0.279316 2.41739,-0.30823 0.88448,-0.0105 1.86816,0.489846 1.02974,0.453268 1.50191,1.006358 0.0478,0.09256 0.37772,0.414527 0.51929,0.599064 0.52704,1.250793 0.005,0.37245 -0.17936,0.560844 -0.13887,0.0948 -0.46331,0.191758 -0.27803,0.0965 -0.5104,0.14579 -0.23251,0.003 -0.28033,-0.0898 l -0.1406,-0.045 q -0.14004,0.002 -0.37254,0.005 -0.18685,-0.0444 -0.28033,-0.0898 -0.42107,-0.181215 -0.70552,-0.596839 -0.19101,-0.416768 -0.79746,-0.502621 -0.65344,-0.131885 -0.74543,-0.03747 -0.13829,0.141306 -0.32413,0.143533 -0.46549,0.0058 -1.14766,1.363907 -0.22604,0.5614 -0.41187,0.56364 -0.14003,0.002 -0.0348,1.02468 l 0.0583,0.97704 0.42395,0.41399 q 0.47107,0.45996 0.75037,0.45663 0.18584,-0.002 0.28034,0.0898 0.0472,0.046 0.5603,0.13299 3.21764,0.42714 3.82671,0.7458 2.24897,1.18367 2.28621,4.30265 0.0134,1.11725 -0.12488,1.25857 -0.0923,0.0942 -0.0888,0.37355 8.8e-4,0.2327 -0.68661,0.98593 -0.68993,0.70662 -1.10666,0.89783 -1.66643,0.8114 -2.69059,0.82362 -0.79134,0.009 -1.81993,-0.35074 -0.65455,-0.22497 -1.68035,-0.35242 -1.53898,-0.21444 -2.29166,-0.85725 -0.4228,-0.32086 -0.51815,-0.50595 -0.0957,-0.18509 -0.1956,-0.78918 -0.10155,-0.69716 0.0811,-1.02524 0.27444,-0.42232 0.50708,-0.4251 0.27918,-0.003 0.98425,0.54695 0.75264,0.64284 1.59168,0.72594 1.25803,0.0782 1.6803,0.35242 0.094,0.0455 0.32643,0.0426 0.2786,-0.0499 0.32644,0.0426 0.14189,0.18454 1.20869,-0.15411 0.69552,-0.24114 1.15493,-0.75873 0.45899,-0.56419 0.45207,-1.12281 -0.002,-0.18619 -0.0501,-0.27874 -0.0964,-0.27821 -0.24287,-0.83517 -0.19389,-0.64951 -0.52208,-0.83182 l -1.02633,-0.17395 q -7.5e-4,-0.0931 -0.37368,-0.0887 -0.37254,0.005 -0.46443,0.0987 -0.1383,0.1413 -0.41922,0.005 -0.28032,-0.0898 -1.166,-0.17227 -1.3506,-0.0304 -2.19632,-0.67216 -1.26804,-0.91603 -1.27078,-1.14879 -7.5e-4,-0.0931 -0.23654,-0.32306 -0.32988,-0.32196 -0.38418,-0.97314 -0.10442,-0.92993 -0.10974,-1.39544 -0.0285,-2.37416 0.84555,-3.269207 0.18396,-0.188393 0.68829,-0.846274 0.96202,-1.315128 1.24134,-1.318468 0.0934,-0.0011 0.0922,-0.09423 z"
       id="path828"
       style="font-size:10.5833px;line-height:0.75;font-family:Thadscript;-inkscape-font-specification:Thadscript;fill:#000000;stroke:#000000;stroke-width:0.879789;stroke-dasharray:none;stroke-opacity:1" /><path
       d="m 403.5128,87.037668 q 0.4622,-0.284898 0.69495,-0.287638 1.02414,-0.01228 1.72965,0.584604 0.42342,0.367437 0.47775,1.018589 0.10203,0.743713 0.11426,1.767863 0.0133,1.117245 0.10757,1.209239 0.0471,0.04597 0.16577,2.186275 0.16523,2.139728 0.16581,2.186276 0.0482,0.139106 0.0621,1.3029 0.0122,1.024148 -0.062,2.608023 0.0104,0.884491 -0.0322,1.210911 0.003,0.27931 -0.0847,0.69939 -0.042,0.37298 -0.08,1.11835 -0.0403,0.51264 -0.12353,1.35168 -0.0831,0.83906 -0.0765,1.39767 3.8e-4,0.0465 -0.038,0.69885 0.008,0.65172 0.0129,1.0707 l 0.009,0.74482 q 0.0217,1.81553 0.31823,3.25531 0.0998,0.55751 0.10147,0.69717 0.004,0.32585 -0.1291,0.88615 -0.0865,0.55973 -0.0815,0.9787 0.0211,1.76898 -1.18923,1.78344 -0.88449,0.0105 -1.44923,-0.49484 l -0.42399,-0.41398 -0.0106,-0.88449 q -0.0117,-0.97759 -0.0599,-1.1167 -0.0482,-0.1391 -0.0893,-3.58395 -0.0401,-3.35174 0.005,-3.4454 0.13632,-0.28099 0.10983,-2.51547 -0.003,-0.27932 -2.7499,-0.24649 -3.44485,0.0411 -5.76968,0.3017 -1.11558,0.15301 -2.46558,0.16913 -0.419,0.005 -0.55863,0.007 -0.0931,7.6e-4 -0.32474,0.097 -0.23224,0.0493 -0.27764,0.143 3.8e-4,0.0465 -0.0903,0.23387 -0.0443,0.18676 -0.0415,0.41953 0.003,0.18619 0.007,0.60517 l 0.004,0.32587 q 0.009,0.79138 -0.0692,2.00284 -0.0794,1.16492 -0.0714,1.81665 0.002,0.13965 0.006,0.46552 0.0499,0.27874 0.0521,0.46497 0.12537,2.6989 0.12869,2.97822 0.0167,1.39656 -0.21053,1.86486 -0.36466,0.65617 -1.38879,0.6684 -0.79138,0.009 -1.16824,-0.35854 l -0.46996,-0.36686 -0.10868,-1.30234 q -0.10646,-1.11614 -0.11147,-1.53511 -0.002,-0.18619 0.0367,-0.79195 0.0859,-0.60629 0.0808,-1.02527 0.0788,-1.21145 0.0765,-1.39767 -0.025,-2.09484 0.2592,-5.59013 0.15282,-2.79534 0.11279,-6.147087 -0.0233,-1.955183 -0.13649,-3.629952 -0.10589,-1.069586 -0.27001,-3.116208 -0.006,-0.558614 -0.061,-1.209784 -0.0543,-0.651182 -0.0559,-0.790833 -0.006,-0.558614 1.06347,-0.617962 0.79027,-0.10257 0.93158,0.03553 0.14133,0.137995 0.3741,0.135205 0.27931,-0.0035 0.46996,0.36687 0.28485,0.46218 0.30655,2.277713 0.0211,1.768973 0.12201,2.41959 0.0493,0.232242 0.21341,2.278823 0.16413,2.046623 0.26111,2.371384 0.006,0.512073 -0.087,0.513175 -0.13853,0.09472 -0.11856,1.770642 0.0123,1.024154 0.10647,1.116134 0.047,0.046 0.65229,0.0386 1.58277,-0.0189 1.90641,-0.20898 0.5093,-0.23889 3.30131,-0.36533 1.442,-0.11036 1.53454,-0.15801 0.50929,-0.238882 1.16435,0.0326 0.28042,0.0897 0.51319,0.0871 0.37246,-0.005 1.16213,-0.15353 0.83627,-0.149645 1.11558,-0.153012 l 0.79139,-0.0093 -0.006,-0.465525 q 0.0363,-0.838505 0.0171,-2.467815 -0.025,-2.094839 -0.24344,-4.792632 -0.17134,-2.651803 -0.4601,-3.439847 -0.14468,-0.417312 -0.14801,-0.696619 -0.007,-0.605162 0.54695,-0.984265 z"
       id="path830"
       style="font-size:10.5833px;line-height:0.75;font-family:Thadscript;-inkscape-font-specification:Thadscript;fill:#000000;stroke:#000000;stroke-width:0.879789;stroke-dasharray:none;stroke-opacity:1" /><path
       d="m 422.72755,97.563256 q 0.13911,-0.04818 0.51152,-0.05268 0.83794,-0.01 0.98037,0.22111 0.14133,0.137995 0.23445,0.136893 0.32587,-0.004 0.80473,1.107792 0.14353,0.324175 -0.12469,1.258579 -0.58349,1.82276 -0.5518,4.47622 0.006,0.51208 -0.1302,0.79305 -0.0897,0.28042 -0.2604,1.58611 -0.17063,1.30569 -0.25987,1.63266 -0.1313,0.69995 0.0133,1.11725 0.24109,0.69549 0.25888,2.18516 0.008,0.69828 -0.0355,0.93159 -0.0871,0.51319 -0.6866,0.98593 -0.60018,0.4262 -1.20536,0.43343 -0.32586,0.004 -0.65729,-0.45774 l -0.42452,-0.46051 -0.64728,0.3802 q -1.10891,0.71162 -1.80663,0.7665 -0.23277,0.003 -0.79083,0.0559 -0.55807,0.0532 -0.83738,0.0565 -0.41899,0.005 -0.60574,-0.0392 -1.35446,-0.35633 -1.45145,-0.68105 -0.002,-0.13969 -0.60907,-0.31863 -1.6371,-0.63228 -2.03508,-2.76922 -0.0527,-0.51152 -0.245,-1.02136 -0.19065,-0.37019 -0.21899,-2.74436 -0.008,-0.69827 0.0367,-0.79195 0.13632,-0.281 0.10753,-2.70169 -0.0339,-2.83967 0.007,-3.35229 0.0693,-1.956323 0.9077,-1.966307 0.23277,-0.0029 0.51541,0.273199 0.0471,0.04597 0.28263,0.27599 0.28153,0.182854 0.42284,0.320848 l 0.37745,0.414522 0.0666,1.675308 0.0384,3.21209 0.0173,1.44312 0.004,0.32586 -0.0455,0.0937 q 7.5e-4,0.0931 0.003,0.23277 0.002,0.1397 0.003,0.27932 0.002,0.13969 0.007,0.55862 0.0515,0.41841 0.0543,0.65117 0.0616,1.25636 0.20731,1.76676 0.19229,0.50984 0.7144,1.34167 0.66396,1.01636 1.4088,1.00746 1.58276,-0.0189 2.40513,-1.33236 0.41173,-0.61018 0.9548,-1.92031 0.54251,-1.35668 0.53416,-2.05497 -0.002,-0.18619 0.13242,-0.60684 0.18065,-0.46774 0.13131,-0.69994 -0.0482,-0.13911 0.0334,-1.07127 0.0831,-0.83905 0.0632,-2.51492 -0.005,-0.41899 -0.0621,-1.30291 -0.011,-0.931027 -0.0167,-1.396558 -0.0167,-1.396552 1.4691,-1.740212 z"
       id="path832"
       style="font-size:10.5833px;line-height:0.75;font-family:Thadscript;-inkscape-font-specification:Thadscript;fill:#000000;stroke:#000000;stroke-width:0.879789;stroke-dasharray:none;stroke-opacity:1" /><path
       d="m 434.75567,110.59572 q 0.13969,-0.002 0.28263,0.27598 0.143,0.27763 0.23614,0.27652 0.13969,-0.002 0.46829,0.22724 0.37524,0.22834 0.46886,0.27377 0.18675,0.0444 0.89005,0.45496 0.70328,0.41061 1.0768,0.49928 0.28042,0.0897 0.65285,0.0853 0.60517,-0.007 1.34889,-0.10925 1.06959,-0.1059 1.39323,-0.29601 0.60073,-0.37966 0.91047,-1.73355 0.13189,-0.65339 0.12689,-1.07237 -0.007,-0.60516 -0.0594,-1.07013 -0.10646,-1.11614 -0.24888,-1.34724 -0.143,-0.27762 -0.70162,-0.27098 l -0.37244,0.005 q -0.51209,0.006 -0.97648,0.10477 -0.41784,0.0981 -0.55751,0.0998 -0.37245,0.005 -1.16826,-0.35854 -1.12391,-0.54528 -1.12891,-0.96424 -0.004,-0.32586 0.27151,-0.65507 0.36633,-0.51652 0.87837,-0.52263 0.18619,-0.002 0.46664,0.0875 0.32753,0.13578 0.79138,-0.009 0.27873,-0.0499 1.20979,-0.061 0.37245,-0.005 0.88282,-0.15022 0.55696,-0.14631 0.88283,-0.15022 0.27931,-0.004 0.46607,0.0409 0.65285,0.0853 0.88783,0.26872 0.23445,0.1369 0.80139,0.82849 0.61407,0.7376 0.64687,3.48418 0.0311,2.60691 -0.55792,3.96414 -0.22611,0.56141 -0.68604,1.03249 -0.46052,0.42452 -0.83238,0.47552 -0.18619,0.003 -1.48633,0.29712 -1.25357,0.29432 -2.41738,0.30823 -1.21033,0.0144 -1.91196,-0.2565 -0.60795,-0.22555 -0.93383,-0.22166 -0.23276,0.003 -0.5614,-0.22613 -0.28153,-0.18285 -1.26468,-0.63671 -0.93715,-0.50095 -1.40823,-0.96091 -0.5182,-0.50596 -0.61129,-0.50484 -0.0931,7.5e-4 -0.32918,-0.27542 -0.23666,-0.32307 -0.28375,-0.36908 -0.23444,-0.13688 -0.23666,-0.32306 -7.5e-4,-0.0931 -0.42619,-0.60018 -1.13282,-1.29011 -1.15338,-3.01253 -0.006,-0.46553 0.0374,-0.7454 0.0848,-0.69939 0.90102,-2.52493 1.13155,-2.71391 4.58571,-5.874601 0.23055,-0.188961 1.75731,-0.998715 0.18506,-0.09534 0.37134,-0.09755 0.18618,-0.0025 0.2782,-0.09646 0.046,-0.04712 0.92937,-0.150786 0.88282,-0.150219 1.02248,-0.151907 0.0465,-3.77e-4 0.32639,0.04261 0.27988,0.04319 0.41952,0.04146 0.65173,-0.0076 1.26247,0.450522 0.32864,0.228866 0.42174,0.227764 0.0931,-7.53e-4 0.75039,0.456629 0.65728,0.457741 0.75206,0.596283 0.18843,0.183956 0.42675,0.646723 0.28543,0.508738 0.10479,0.976478 -0.36355,0.74928 -0.92215,0.75595 -0.46553,0.006 -1.21648,-0.49762 -1.50188,-1.006342 -2.61914,-0.993005 -0.0465,3.76e-4 -0.18564,0.04875 -0.0931,7.52e-4 -0.13965,0.0021 -0.37134,0.09756 -1.15769,0.525975 -0.64672,0.42675 -0.78637,0.42842 -0.1397,0.002 -1.01359,0.89671 -0.87392,0.89505 -1.00969,1.22258 -0.13741,0.18786 -0.41229,0.56364 -0.27542,0.32917 -0.41231,0.56362 -0.13688,0.23445 -0.41173,0.61019 -0.22833,0.37523 -0.36465,0.65617 -0.6816,1.40491 -0.76859,1.91808 -0.0432,0.27989 -0.0367,0.79196 0.008,0.69827 0.24778,1.25413 0.23835,0.46273 0.23999,0.60239 0.002,0.1397 0.37909,0.55418 0.42342,0.36744 0.51651,0.36633 z"
       id="path834"
       style="font-size:10.5833px;line-height:0.75;font-family:Thadscript;-inkscape-font-specification:Thadscript;fill:#000000;stroke:#000000;stroke-width:0.879789;stroke-dasharray:none;stroke-opacity:1" /><path
       d="m 459.96869,112.66911 q -0.006,-0.32594 -0.0992,-0.51096 -0.0952,-0.18507 -0.0993,-0.51096 -8.8e-4,-0.2327 -0.0987,-0.46441 -0.0497,-0.27878 -0.008,-0.65174 0.219,-1.16657 0.20216,-2.56314 -0.004,-0.51201 -0.0537,-0.60462 -0.19158,-0.46329 -0.47164,-0.50651 -0.46664,-0.0875 -0.51371,-0.13352 -0.0472,-0.046 -0.46612,-0.0409 -0.97758,0.0117 -2.88177,0.40689 -1.85816,0.34809 -2.08818,0.58365 -0.0922,0.0942 -0.0775,1.2115 0.009,0.74484 0.0583,0.97704 0.19733,0.92883 0.22294,3.07021 0.008,0.79133 -0.083,0.83906 -0.18397,0.18843 -0.18281,0.28153 8.8e-4,0.23269 -1.02248,0.1519 -0.74538,-0.0374 -0.97978,-0.17453 -0.23423,-0.13688 -0.47222,-0.55307 -0.4273,-0.69328 -0.52555,-5.02206 -0.066,-1.62877 -0.0832,-3.07188 0.14495,-3.44708 0.1206,-5.495365 -0.0128,-1.070697 -0.0621,-1.30289 -0.14964,-0.83628 0.0348,-1.024691 0.27541,-0.329181 1.06678,-0.338655 0.74484,-0.0087 1.07407,0.266516 0.14132,0.137995 0.32931,0.275418 0.23423,0.136876 0.23596,0.276511 0.0478,0.09252 0.0987,0.464415 0.0503,0.325273 0.0595,1.070138 0.0169,1.396573 -0.0614,2.514993 l 0.009,0.74483 q 0.0134,1.11726 0.15642,1.39491 0.0484,0.1391 0.88615,0.12909 l 0.88449,-0.0105 q 0.0922,-0.0942 0.69714,-0.10145 1.62822,-0.11258 2.41792,-0.26169 0.74375,-0.10203 0.97652,-0.10478 l 0.18627,-0.003 q 0.4655,-0.006 0.45208,-1.12283 l -0.008,-0.79131 q -0.0776,-2.606355 -0.22767,-3.489169 -0.0998,-0.557522 -0.10155,-0.697178 -0.005,-0.372447 0.26984,-0.794719 0.27501,-0.375763 0.60069,-0.379663 0.41921,-0.0052 1.0746,0.313054 1.12283,0.452161 1.13394,1.383216 0.002,0.325782 -0.0415,0.559131 7.5e-4,0.09308 -0.045,0.279821 -8.7e-4,0.139544 0.002,0.18619 0.003,0.186181 0.052,0.464958 0.0497,0.278729 0.052,0.464959 0.002,0.32578 -0.0399,0.51265 -0.0461,0.18669 -0.0348,1.02468 0.0179,1.48967 0.16921,2.46559 3.8e-4,0.0465 0.005,0.60511 0.004,0.512 0.0169,1.39657 0.0566,0.83739 0.0659,1.62877 0.0851,3.21154 0.32877,4.13979 0.19446,0.69606 0.19978,1.16158 0.002,0.32578 -0.31306,1.07458 l -0.97646,0.10479 q -0.88394,0.0571 -1.25913,-0.17117 -0.75154,-0.54973 -0.76319,-1.52733 z"
       id="path836"
       style="font-size:10.5833px;line-height:0.75;font-family:Thadscript;-inkscape-font-specification:Thadscript;fill:#000000;stroke:#000000;stroke-width:0.879789;stroke-dasharray:none;stroke-opacity:1" /><path
       d="m 469.09841,97.428519 q 0.14004,-0.0021 0.13888,-0.09481 -7.5e-4,-0.09308 0.74369,-0.102045 0.74489,-0.0088 0.746,0.08428 7.5e-4,0.09308 0.37253,-0.0046 0.13946,-0.04816 0.74432,-0.05546 1.02411,-0.01228 1.39762,0.07651 l 0.18627,-0.0025 q 0.13961,-0.0021 0.6517,-0.0076 0.51155,-0.05268 0.69773,-0.05489 l 0.14005,-0.0021 q 0.18698,0.09088 1.11834,0.07997 0.32586,-0.004 0.83848,0.03628 0.51213,-0.0063 0.55866,-0.0064 0.27918,-0.0035 0.55805,-0.05316 0.32528,-0.05048 0.41819,-0.05154 0.32586,-0.004 0.79639,0.409506 0.84795,0.827939 0.85463,1.386563 0.003,0.418869 -0.36319,0.795822 -0.36792,0.376875 -1.11282,0.385775 -0.27918,0.004 -1.11946,-0.17285 -1.68091,-0.39897 -2.75157,-0.386168 l -0.14005,0.0021 -0.23294,0.0029 q -0.23251,0.0029 -0.55805,0.05326 -0.32586,0.004 -0.65175,0.0076 -0.7448,0.0088 -1.07012,0.0593 -0.32587,0.004 -0.69605,0.194538 -0.32355,0.19009 -0.36606,0.56308 3.8e-4,0.0465 -0.045,0.27982 0.003,0.18619 0.002,0.32578 0.0344,2.88622 0.317,3.16219 0.0472,0.046 0.32643,0.0426 1.02416,-0.0122 1.626,-0.29875 0.32413,-0.14353 0.5104,-0.14579 0.37254,-0.005 1.07907,0.6855 0.47103,0.45996 0.47661,0.92548 0.004,0.512 -0.27041,0.74816 -0.1383,0.14131 -0.32413,0.14354 -0.14004,0.002 -0.2786,0.0499 -0.27746,0.14301 -1.16211,0.15354 -2.23339,0.1198 -2.23117,0.30602 l 0.0501,0.27874 q 0.003,0.27932 0.009,0.74484 0.006,0.46552 0.009,0.88442 0.0682,1.81497 0.30305,1.99839 0.14117,0.0915 0.46668,0.0875 0.0934,-7.4e-4 1.02301,-0.10535 0.8374,-0.0565 1.62596,-0.29876 0.78864,-0.24225 1.34669,-0.29543 0.55808,-0.0532 1.02189,-0.1984 l 0.18628,-0.003 q 0.55862,-0.007 1.16994,0.49818 0.61071,0.45827 0.61792,1.06346 0.002,0.3258 -0.27098,0.70162 -0.22892,0.32865 -1.01968,0.38467 -0.18628,0.002 -0.32586,0.004 -0.79139,0.009 -2.04548,0.25722 -2.04388,0.39689 -3.39164,0.59921 -0.18569,0.0487 -0.78865,0.24224 -0.6029,0.1934 -0.92876,0.1973 -0.0466,3.7e-4 -0.18584,0.003 -0.094,-0.0455 -0.1406,-0.0449 -1.40046,-0.30916 -1.59554,-1.05179 -0.14534,-0.46386 -0.15167,-0.97593 -0.006,-0.69821 0.17346,-1.07292 0.36204,-0.88893 0.30969,-5.26483 -0.005,-0.6051 -0.0156,-1.30345 -0.006,-0.69822 -0.0618,-1.25635 -0.005,-0.60511 -0.0139,-1.1638 -0.005,-0.60512 -0.0589,-1.02359 -0.006,-0.46553 -0.056,-0.79083 -0.005,-0.372455 -0.007,-0.558629 l -0.003,-0.186191 -0.10673,-1.116143 0.36793,-0.376872 q 0.46106,-0.377984 0.5542,-0.379085 z"
       id="path838"
       style="font-size:10.5833px;line-height:0.75;font-family:Thadscript;-inkscape-font-specification:Thadscript;fill:#000000;stroke:#000000;stroke-width:0.879789;stroke-dasharray:none;stroke-opacity:1" /><path
       d="m 487.89589,96.412541 q -0.003,-0.279321 2.41743,-0.308233 0.88448,-0.01055 1.86816,0.489849 1.02969,0.453302 1.50187,1.006354 0.0478,0.09252 0.37772,0.414531 0.51934,0.599054 0.52709,1.250782 0.005,0.372447 -0.17936,0.560843 -0.13888,0.09481 -0.46332,0.191763 -0.27803,0.0965 -0.5104,0.14579 -0.2325,0.003 -0.28033,-0.0897 l -0.1406,-0.0449 q -0.14004,0.002 -0.37254,0.005 -0.1864,-0.04433 -0.28033,-0.08974 -0.42108,-0.181212 -0.70552,-0.596849 -0.191,-0.416718 -0.79751,-0.502611 -0.65338,-0.131888 -0.74537,-0.03743 -0.13831,0.141301 -0.32414,0.143578 -0.46553,0.0058 -1.14772,1.363903 -0.22603,0.56141 -0.41185,0.56364 -0.14005,0.002 -0.0348,1.02469 l 0.0584,0.97703 0.42396,0.41398 q 0.4711,0.45996 0.75042,0.45664 0.18583,-0.002 0.28033,0.0897 0.0472,0.046 0.5603,0.13299 3.2176,0.42715 3.82671,0.7458 2.24893,1.18367 2.28617,4.30265 0.0134,1.11725 -0.12489,1.25858 -0.0922,0.0942 -0.0888,0.37354 8.9e-4,0.23271 -0.6866,0.98594 -0.68994,0.70662 -1.10671,0.89783 -1.66644,0.81139 -2.69055,0.82363 -0.79138,0.009 -1.81998,-0.35075 -0.65454,-0.22497 -1.68033,-0.35243 -1.53899,-0.21443 -2.29163,-0.85724 -0.42279,-0.32085 -0.51818,-0.50596 -0.0957,-0.18508 -0.19562,-0.78917 -0.10154,-0.69716 0.0811,-1.02525 0.27444,-0.4223 0.50703,-0.42508 0.27918,-0.003 0.98426,0.54694 0.75264,0.64283 1.59168,0.72594 1.25803,0.0782 1.6803,0.35242 0.094,0.0455 0.32643,0.0426 0.2786,-0.0499 0.32643,0.0426 0.1419,0.18453 1.20865,-0.15412 0.69552,-0.24109 1.15498,-0.75873 0.45898,-0.56418 0.45207,-1.12281 -0.002,-0.18619 -0.0501,-0.27875 -0.0964,-0.2782 -0.24287,-0.83516 -0.19389,-0.64951 -0.52209,-0.83182 l -1.02637,-0.17395 q -7.6e-4,-0.0931 -0.37369,-0.0887 -0.37253,0.005 -0.46442,0.0987 -0.1383,0.14131 -0.41922,0.005 -0.28033,-0.0897 -1.166,-0.17228 -1.35059,-0.0304 -2.19631,-0.67215 -1.268,-0.91603 -1.27079,-1.1488 -7.6e-4,-0.0931 -0.23654,-0.32306 -0.32988,-0.32196 -0.38418,-0.97313 -0.10443,-0.92993 -0.10974,-1.39545 -0.0285,-2.37415 0.84555,-3.2692 0.18397,-0.188396 0.6883,-0.846271 0.96202,-1.315135 1.24133,-1.318472 0.0933,-7.46e-4 0.0922,-0.09424 z"
       id="path840"
       style="font-size:10.5833px;line-height:0.75;font-family:Thadscript;-inkscape-font-specification:Thadscript;fill:#000000;stroke:#000000;stroke-width:0.879789;stroke-dasharray:none;stroke-opacity:1" /><text
       xml:space="preserve"
       style="font-style:normal;font-variant:normal;font-weight:normal;font-stretch:normal;font-size:10.5833px;line-height:1.25;font-family:Thadscript;-inkscape-font-specification:Thadscript;stroke-width:0.264583"
       x="422.2851"
       y="107.51487"
       id="text1508"><tspan
         sodipodi:role="line"
         id="tspan1506"
         style="font-style:normal;font-variant:normal;font-weight:normal;font-stretch:normal;font-family:Thadscript;-inkscape-font-specification:Thadscript;stroke-width:0.264583"
         x="422.2851"
         y="107.51487" /></text></g></svg>
