<?xml version="1.0" encoding="UTF-8" standalone="no"?>
<!-- Created with Inkscape (http://www.inkscape.org/) -->

<svg
   width="150"
   height="60"
   viewBox="0 0 39.6875 15.874999"
   version="1.1"
   id="svg5"
   inkscape:version="1.2.2 (b0a8486541, 2022-12-01)"
   sodipodi:docname="fb.svg"
   xmlns:inkscape="http://www.inkscape.org/namespaces/inkscape"
   xmlns:sodipodi="http://sodipodi.sourceforge.net/DTD/sodipodi-0.dtd"
   xmlns="http://www.w3.org/2000/svg"
   xmlns:svg="http://www.w3.org/2000/svg">
  <sodipodi:namedview
     id="namedview7"
     pagecolor="#000000"
     bordercolor="#666666"
     borderopacity="1.0"
     inkscape:showpageshadow="2"
     inkscape:pageopacity="0"
     inkscape:pagecheckerboard="0"
     inkscape:deskcolor="#d1d1d1"
     inkscape:document-units="px"
     showgrid="false"
     inkscape:zoom="2.3786088"
     inkscape:cx="29.008553"
     inkscape:cy="-72.941797"
     inkscape:window-width="1900"
     inkscape:window-height="1040"
     inkscape:window-x="10"
     inkscape:window-y="30"
     inkscape:window-maximized="1"
     inkscape:current-layer="layer1" />
  <defs
     id="defs2" />
  <g
     inkscape:label="Layer 1"
     inkscape:groupmode="layer"
     id="layer1"
     transform="translate(204.32951,-60.703478)">
    <g
       aria-label="-"
       id="text3751"
       style="font-size:16.9333px;line-height:1.25;font-family:Thadscript;-inkscape-font-specification:Thadscript;fill:#1a1a1a;stroke-width:0.198349"
       transform="matrix(1.3339234,0,0,1.3339234,69.085148,27.757723)">
      <path
         d="m -203.32129,30.669668 q 1.524,0 3.81,-0.101599 0.28786,0 0.42333,-0.06773 0.13547,-0.06773 0.23707,-0.06773 0.0339,0 0.1016,0 0.0677,-0.01693 0.0847,-0.01693 0.33867,0 0.5588,0.220133 0.13547,0.135466 0.1016,0.491066 l -0.0169,0.270932 -0.18627,0.08467 q -0.16933,0.06773 -0.3556,0.03387 -0.22013,-0.03387 -0.23706,-0.01693 -0.1016,0.0508 -2.1844,0.118533 -0.22013,0.01693 -0.67733,0.0508 -0.4572,0.03387 -0.74507,0.03387 -0.762,0 -0.94826,0.1524 -0.0677,0.06773 -0.22013,0 -0.13547,-0.0508 -0.16934,-0.01693 -0.0339,0.03387 -0.254,-0.220133 -0.23706,-0.253999 -0.254,-0.423332 -0.0508,-0.372533 0.1524,-0.440266 0.0677,-0.03387 0.0677,-0.0508 0,-0.03387 0.71119,-0.03387 z"
         id="path3753"
         style="fill:#1a1a1a;stroke-width:0.198349" />
    </g>
    <path
       d="m -196.80535,62.028364 c -0.16219,0.01895 -0.3243,0.03923 -0.48549,0.06531 -0.0812,0.01528 -0.16302,0.03068 -0.23879,0.06495 -0.0878,0.04377 -0.17627,0.08629 -0.26017,0.13736 -0.16934,0.09639 -0.33733,0.195224 -0.50748,0.290155 -0.10712,0.0597 -0.22346,0.100044 -0.33616,0.147711 -0.0759,0.0314 -0.15348,0.05896 -0.22563,0.09862 -0.0759,0.03623 -0.1411,0.09153 -0.20334,0.147331 -0.0846,0.07461 -0.16293,0.155775 -0.24144,0.236588 -0.0746,0.09473 -0.15006,0.189102 -0.21363,0.291796 -0.0686,0.107407 -0.13623,0.215792 -0.18953,0.331727 -0.055,0.111862 -0.11018,0.223802 -0.15437,0.340445 -0.0537,0.184295 -0.10071,0.370344 -0.14395,0.557324 -0.0252,0.109075 -0.0535,0.21751 -0.0771,0.32689 -0.0153,0.08594 -0.012,0.173843 -0.0193,0.260689 -0.015,0.254331 -0.0189,0.509144 -0.0283,0.763724 l -0.10898,3.403619 -0.008,2.641794 c -0.0334,0.434739 -0.0689,0.86933 -0.10591,1.30375 -0.0402,0.338032 -0.0752,0.676664 -0.11298,1.014983 -0.0166,0.07601 -0.0203,0.154678 -0.0107,0.231873 0.0205,0.08231 0.0537,0.161401 0.10445,0.229684 0.0498,0.06365 0.10071,0.127762 0.16586,0.176674 0.0687,0.05616 0.14993,0.09456 0.233,0.124228 0.072,0.02345 0.14752,0.03933 0.22354,0.03997 0.0809,-0.0019 0.15727,-0.031 0.23448,-0.0521 0.0825,-0.02102 0.1583,-0.05966 0.23447,-0.0964 0.0943,-0.05266 0.18517,-0.111169 0.27617,-0.169347 0.0545,-0.04609 0.0952,-0.110982 0.10004,-0.183525 0.0153,-0.188612 0.0164,-0.377967 0.024,-0.566975 0.012,-0.408811 0.0332,-0.817309 0.0481,-1.226028 0.0378,-0.956502 0.0779,-1.912912 0.11698,-2.869365 0.007,-0.02442 -0.0133,-0.07519 0.0312,-0.06773 l 0.62788,-0.099 c 0.24125,-0.0205 0.48243,-0.04294 0.72439,-0.05353 0.22397,-0.01107 0.44805,-0.01971 0.67207,-0.02984 0.22839,0.0069 0.45679,0.01394 0.6852,0.02085 0.12806,-0.0097 0.25687,-0.01476 0.38381,-0.03442 0.0753,-0.01495 0.14833,-0.04439 0.21115,-0.08875 0.0677,-0.04703 0.12885,-0.102472 0.18142,-0.166027 0.0463,-0.06287 0.0803,-0.135162 0.0983,-0.211176 0.01,-0.07867 0.006,-0.160073 -0.0106,-0.237528 -0.0283,-0.08219 -0.093,-0.146138 -0.1496,-0.210096 -0.062,-0.06231 -0.12446,-0.124628 -0.19284,-0.180113 -0.0928,-0.06118 -0.17404,-0.140058 -0.27356,-0.190645 -0.077,-0.03669 -0.16076,-0.05437 -0.24228,-0.0777 -0.08,-0.01574 -0.16137,-0.03191 -0.2431,-0.01976 -0.12326,0.01416 -0.24343,0.04578 -0.36441,0.07218 -0.11031,0.02342 -0.21967,0.05218 -0.3308,0.07183 -0.0805,0.0087 -0.16109,0.01737 -0.2415,0.0274 -0.25016,0.02727 -0.50012,0.05661 -0.75041,0.08261 l -0.56047,0.04712 c -0.077,0.0016 -0.1763,0.0013 -0.21624,-0.07816 -0.0279,-0.06421 -0.0199,-0.135133 -0.0208,-0.203215 -0.0133,-0.51759 -0.026,-1.035181 -0.0391,-1.552771 0.0166,-0.390796 0.0329,-0.781595 0.0495,-1.172393 0.0208,-0.194426 0.0362,-0.389847 0.0747,-0.581853 0.0215,-0.122161 0.0454,-0.24455 0.0878,-0.361422 0.0265,-0.08944 0.0561,-0.178129 0.0949,-0.263182 0.038,-0.08229 0.0747,-0.166402 0.12965,-0.239181 0.0747,-0.09726 0.14433,-0.198887 0.22757,-0.289134 0.0532,-0.05304 0.10458,-0.113011 0.17756,-0.138841 0.0697,-0.02994 0.14203,-0.05363 0.211,-0.08558 0.24354,-0.123802 0.48516,-0.251371 0.72898,-0.374615 0.0772,-0.03547 0.15055,-0.08181 0.23445,-0.100352 0.08,-0.01951 0.16115,-0.03532 0.24284,-0.0461 0.10684,-0.0047 0.21362,-0.01227 0.32045,-0.01824 0.0805,0.0021 0.15174,0.04364 0.22666,0.06773 0.12378,0.05005 0.24851,0.09776 0.36953,0.15426 0.12179,0.05548 0.24674,0.105086 0.36119,0.175088 0.12206,0.06616 0.11472,0.29809 0.21283,0.394332 0.0565,0.06302 0.11005,0.129124 0.16159,0.196357 0.11965,0.161806 0.15402,0.485736 0.27532,0.646346 0.0862,0.119066 0.15841,0.122347 0.2478,0.238991 0.0568,0.05707 0.32055,-0.05443 0.40389,-0.04163 0.068,0.0097 0.1437,-0.0049 0.19319,-0.05536 0.05,-0.04716 0.0478,-0.120453 0.0368,-0.18278 -0.0159,-0.113196 -0.0325,-0.226337 -0.0574,-0.337953 -0.0233,-0.119199 -0.0541,-0.236667 -0.0875,-0.35342 -0.0266,-0.08425 -0.0399,-0.173588 -0.0806,-0.252666 -0.0338,-0.07843 -0.0782,-0.151759 -0.11166,-0.230162 -0.0352,-0.09045 -0.0749,-0.179408 -0.12685,-0.261613 -0.0481,-0.08428 -0.0994,-0.166684 -0.15443,-0.246579 -0.0583,-0.08805 -0.11752,-0.175377 -0.17689,-0.262723 -0.0641,-0.05098 -0.12792,-0.103873 -0.20321,-0.138081 -0.315,-0.152609 -0.62924,-0.306845 -0.94644,-0.454858 -0.0927,-0.04378 -0.18538,-0.08756 -0.27806,-0.131337 -0.083,-0.02818 -0.16634,-0.05511 -0.25012,-0.08077 -0.17566,-0.0197 -0.35135,-0.04015 -0.52745,-0.05519 -0.0458,3.82e-4 -0.0914,-0.0076 -0.1369,-0.0021 z"
       id="path3760"
       style="font-size:16.9333px;line-height:1.25;font-family:Thadscript;-inkscape-font-specification:Thadscript;fill:#1a1a1a;stroke-width:0.264583"
       sodipodi:nodetypes="cscsccccsccscscsccsccsccscscscsscssscccscccscsccccssccccccccccccccccccccccccccccccccccccccc" />
    <text
       xml:space="preserve"
       style="font-size:11.2939px;line-height:1.25;font-family:Thadscript;-inkscape-font-specification:Thadscript;fill:#1a1a1a;stroke-width:0.264583"
       x="-196.48468"
       y="75.716125"
       id="text3818"><tspan
         sodipodi:role="line"
         id="tspan3816"
         style="font-size:11.2939px;fill:#1a1a1a;stroke-width:0.264583"
         x="-196.48468"
         y="75.716125">acebook</tspan></text>
  </g>
</svg>
