<?xml version="1.0" encoding="UTF-8" standalone="no"?>
<!-- Created with Inkscape (http://www.inkscape.org/) -->

<svg
   width="150"
   height="60"
   viewBox="0 0 39.6875 15.874999"
   version="1.1"
   id="svg5"
   inkscape:version="1.2.2 (b0a8486541, 2022-12-01)"
   sodipodi:docname="instagram.svg"
   xmlns:inkscape="http://www.inkscape.org/namespaces/inkscape"
   xmlns:sodipodi="http://sodipodi.sourceforge.net/DTD/sodipodi-0.dtd"
   xmlns="http://www.w3.org/2000/svg"
   xmlns:svg="http://www.w3.org/2000/svg">
  <sodipodi:namedview
     id="namedview7"
     pagecolor="#000000"
     bordercolor="#666666"
     borderopacity="1.0"
     inkscape:showpageshadow="2"
     inkscape:pageopacity="0"
     inkscape:pagecheckerboard="0"
     inkscape:deskcolor="#d1d1d1"
     inkscape:document-units="px"
     showgrid="false"
     inkscape:zoom="3.3638608"
     inkscape:cx="88.88596"
     inkscape:cy="17.688009"
     inkscape:window-width="1900"
     inkscape:window-height="1040"
     inkscape:window-x="10"
     inkscape:window-y="30"
     inkscape:window-maximized="1"
     inkscape:current-layer="layer1" />
  <defs
     id="defs2" />
  <g
     inkscape:label="Layer 1"
     inkscape:groupmode="layer"
     id="layer1"
     transform="translate(204.32951,-60.703478)">
    <path
       id="path603"
       style="font-size:16.9333px;line-height:1.25;font-family:Thadscript;-inkscape-font-specification:Thadscript;fill:#e6e6e6;stroke-width:0.264584"
       d="m -193.52077,62.545968 c -0.3448,9.5e-4 -0.70846,0.0247 -1.14755,0.0834 -2.1699,0.088 -3.59197,-0.0506 -5.73591,0.0971 -0.89587,0.0676 -1.81781,0.21453 -1.8143,1.27001 -0.0191,0.13868 -0.03,0.39636 -0.03,0.77289 -0.0397,0.67377 -0.0599,1.22865 -0.0599,1.66461 0,0.49544 0.0105,0.77326 0.03,0.83277 0,0.0198 0.0295,0.48543 0.0888,1.39702 0.0397,0.91161 0.07,1.37718 0.0899,1.39701 0.0397,0.0397 0.059,0.29729 0.059,0.77289 0,0.43598 0.0202,0.81233 0.0599,1.1294 0.009,0.11621 0.0311,0.22211 0.0671,0.3175 -0.005,0.22639 -0.0123,0.44998 -0.02,0.66948 -0.0283,0.78781 0.10655,1.73815 1.23192,1.65828 1.1612,0.10866 1.79911,0.20103 2.97001,0.0444 2.16989,-0.088 3.59106,0.0514 5.735,-0.0962 0.89587,-0.0676 1.81873,-0.21545 1.81521,-1.27093 0.0191,-0.13868 0.029,-0.39636 0.029,-0.77288 0.0397,-0.67378 0.0599,-1.22866 0.0599,-1.66462 0,-0.49544 -0.0105,-0.77236 -0.03,-0.83187 0,-0.0198 -0.0293,-0.48633 -0.0888,-1.39791 -0.0397,-0.91162 -0.069,-1.37718 -0.0888,-1.39702 -0.0397,-0.0397 -0.0599,-0.29728 -0.0599,-0.77288 0,-0.43598 -0.0202,-0.81233 -0.0599,-1.1294 -0.009,-0.11674 -0.0307,-0.22272 -0.0671,-0.31842 0.005,-0.22607 0.0123,-0.44934 0.02,-0.66856 0.0283,-0.78781 -0.10655,-1.73815 -1.2319,-1.65828 -0.72575,-0.0679 -1.2469,-0.12955 -1.82155,-0.12797 z m 0.63591,1.56937 c 0.25764,0 0.39654,0.0105 0.41637,0.03 -0.15202,1.16849 -0.0195,2.54718 0.059,3.68574 0.0595,0.87191 0.099,1.3577 0.11885,1.45688 0.0397,0.27745 0.0599,0.79274 0.0599,1.54579 0,0.49187 0.0244,0.86668 0.0725,1.12577 -0.004,0.15044 -0.009,0.28933 -0.0158,0.40459 v 0.29755 h -0.50529 c -0.11884,0 -0.35721,0.0293 -0.71392,0.0888 -2.00224,0.2941 -3.96453,-0.11498 -6.12326,0.41639 -0.25765,0 -0.39654,-0.0105 -0.41638,-0.03 0.1529,-1.16886 0.0195,-2.54667 -0.059,-3.68575 -0.0595,-0.87191 -0.099,-1.35769 -0.11884,-1.45687 -0.0397,-0.27745 -0.0599,-0.79274 -0.0599,-1.54579 0,-0.49188 -0.0244,-0.86668 -0.0725,-1.12577 0.004,-0.15027 0.009,-0.28949 0.0158,-0.40459 v -0.29755 h 0.50526 c 0.11885,0 0.35724,-0.0293 0.71394,-0.0888 2.00224,-0.29411 3.96453,0.11498 6.12327,-0.41639 z"
       sodipodi:nodetypes="sccccscccsccccccccscccsccccsccccscccscccccscccscc" />
    <path
       id="path607"
       style="font-size:16.9333px;line-height:1.25;font-family:Thadscript;-inkscape-font-specification:Thadscript;fill:#e6e6e6;stroke-width:0.264583"
       d="m -196.42106,66.271028 c -0.82513,0.1832 -1.64697,0.7907 -1.8542,1.65579 -0.18034,0.88212 -0.13969,1.98657 0.67459,2.55416 0.51621,0.45369 1.25326,0.42274 1.89012,0.52995 0.57396,-0.0689 1.11276,-0.43679 1.32439,-0.96549 0.55215,-0.86562 0.42117,-2.0834 -0.20825,-2.86915 -0.3201,-0.33247 -0.66144,-0.656 -1.11749,-0.77364 -0.1877,-0.16862 -0.47339,-0.10422 -0.70916,-0.13158 z m 0.58694,1.52981 c 0.54151,0.4585 0.44048,1.39003 -0.0793,1.81458 -0.43435,0.0919 -1.05951,-0.0502 -1.03153,-0.60442 -0.0515,-0.46146 0.17842,-1.05133 0.64874,-1.18061 0.15246,0.0116 0.30859,-0.0269 0.46204,-0.0295 z" />
    <g
       aria-label="."
       id="text634"
       style="font-size:16.9333px;line-height:1.25;font-family:Thadscript;-inkscape-font-specification:Thadscript;fill:#e6e6e6;stroke-width:0.264583"
       transform="translate(-27.420619,-36.40981)">
      <path
         d="m -166.675,101.75371 q 0.1524,-0.1016 0.2032,-0.0508 0.0169,0.0169 0.18626,0.1016 0.37254,0.1524 0.37254,0.37253 0,0.11853 -0.0847,0.3048 -0.0847,0.18627 -0.13547,0.18627 -0.0847,0 -0.1524,0.0677 -0.0847,0.0677 -0.22013,0.0677 -0.18627,0 -0.37253,-0.1016 -0.18627,-0.11853 -0.18627,-0.23706 0,-0.4572 0.38947,-0.7112 z"
         id="path636"
         style="fill:#e6e6e6" />
    </g>
    <path
       d="m -187.74993,62.929148 q 0.0794,0 1.33615,-0.0926 0.10584,-0.0132 0.29105,-0.0132 0.25135,0 0.60854,0.0529 0.13229,0.0132 0.25135,-0.0132 0.0265,-0.0132 0.0794,-0.0132 0.17198,0 0.3175,0.11906 0.0661,0.0661 0.10583,0.0661 0.0529,0 0.14553,0.30427 0.0132,0.0265 0.0132,0.0794 0,0.14552 -0.15875,0.25135 -0.14552,0.0926 -0.3175,0.0926 -0.10583,0 -0.17198,-0.0397 -0.21166,-0.11906 -0.59531,-0.11906 h -0.0397 q -0.0926,0.0132 -0.11906,0.0397 -0.0265,0.0265 -0.0529,0.15875 -0.0265,0.10584 -0.0265,0.41011 0,0.30427 0.0265,0.46302 0.0265,0.15875 0.0397,0.59532 0.0265,0.43656 0.0397,0.52916 0,0.0662 0.0265,0.34396 0.0265,0.26459 0.0397,0.51594 0.0132,0.23813 0.0132,0.33073 0.0132,0.0529 0.39688,0.0529 0.19844,0 0.27781,-0.0132 0.0529,-0.0132 0.14552,-0.0132 0.26459,0 0.4498,0.2249 0.10583,0.14552 0.10583,0.25135 0,0.21167 -0.27781,0.30427 -0.1323,0.0529 -0.7673,0.0661 -0.33073,0.0132 -0.7276,0.0132 -0.35719,0 -0.46303,-0.0529 -0.10583,-0.0529 -0.17197,-0.0265 -0.0397,0.0132 -0.14553,0 -0.10583,-0.0132 -0.13229,0.0132 -0.0265,0.0265 -0.15875,0.0265 -0.0661,0 -0.19844,0.0529 -0.10583,0.0397 -0.27781,0.0397 -0.14552,0 -0.17198,-0.0265 -0.0397,-0.0397 -0.11906,-0.0529 -0.13229,-0.0265 -0.2249,-0.13229 -0.0794,-0.11906 -0.0794,-0.23813 0,-0.0661 0.0132,-0.0926 0.0926,-0.21167 0.19843,-0.21167 h 0.0397 q 0.0397,0 0.0926,0 0.0661,0 0.13229,0 0.0794,-0.0132 0.18521,-0.0132 0.10583,0 0.19843,0 0.62178,-0.0132 0.66146,-0.0529 0.11907,-0.11906 0.11907,-0.52916 0,-0.0265 -0.0132,-0.0661 0,-0.0529 0,-0.0794 v -0.11907 q 0,-0.0661 0,-0.11906 0.0132,-0.0529 0.0132,-0.0662 0,-0.0132 -0.0265,-0.14552 -0.0397,-0.13229 0,-0.17198 0.0265,-0.0529 0.0265,-0.27781 0,-0.38365 -0.0529,-0.59531 -0.0397,-0.14553 -0.0397,-0.70115 v -0.50271 -0.0926 q 0,-0.0132 -0.0529,-0.0132 -0.25136,0 -0.38365,0.10584 -0.17198,0.11906 -0.34396,0.11906 -0.0132,0 -0.0397,-0.0132 h -0.0265 q -0.10583,-0.0265 -0.33073,-0.22489 -0.21166,-0.21167 -0.21166,-0.38365 0,-0.0926 0.0529,-0.14552 0.11907,-0.15875 0.42334,-0.15875 z"
       id="path645"
       style="font-size:13.2292px;line-height:0.5;font-family:Thadscript;-inkscape-font-specification:Thadscript;fill:#e6e6e6;stroke-width:0.264583" />
    <path
       d="m -180.49519,62.889458 q 0.0265,0 0.0794,0 l 0.0397,-0.0132 q 0.29104,0 0.42333,0.41011 0.0132,0.0264 0.0132,0.11906 0,0.14552 -0.0529,0.635 -0.0397,0.48948 -0.0397,0.60854 v 0.14552 q 0,1.13772 -0.0661,1.36261 -0.0132,0.0529 -0.0132,0.34396 v 0.19844 0.23813 q 0,0.42333 -0.19844,0.5027 -0.15875,0.0529 -0.19844,0.0529 -0.0926,0 -0.26458,-0.10583 -0.23813,-0.14552 -0.43656,-0.50271 -0.19844,-0.37042 -0.27782,-0.47625 -0.0661,-0.0662 -0.0661,-0.10584 0,-0.0265 -0.0529,-0.0661 -0.0397,-0.0132 -0.14552,-0.15875 -0.0926,-0.14552 -0.10584,-0.15875 -0.0132,-0.0132 -0.1852,-0.30428 -0.0265,-0.0529 -0.2249,-0.34395 l -0.0529,-0.0794 q -0.0661,-0.0926 -0.11906,-0.18521 l -0.0529,-0.0794 q -0.0265,0 -0.0265,-0.0529 0,-0.0397 -0.0661,-0.13229 -0.0529,-0.0926 -0.0794,-0.0926 -0.0265,0 -0.0265,1.33615 0,1.33615 -0.0661,1.41553 -0.0926,0.11906 -0.26458,0.11906 -0.14553,0 -0.30428,-0.0794 -0.14552,-0.0926 -0.21166,-0.19843 -0.0397,-0.0529 -0.0397,-0.27782 0,-0.0926 0.0265,-0.22489 0.0661,-0.26459 0.0661,-1.23032 0,-0.43656 -0.0132,-0.96573 -0.0132,-0.5424 -0.0265,-0.91282 -0.0132,-0.37041 -0.0132,-0.38364 v -0.0397 q 0.0132,-0.0397 0.0132,-0.0662 0,-0.11906 0.15875,-0.1852 h 0.0529 q 0.33073,0 0.4498,0.0926 l 0.11906,0.0794 q 0.0661,0.0132 0.17198,0.17197 0.11906,0.15876 0.15875,0.29105 0.0397,0.11906 0.18521,0.4101 0.15875,0.29104 0.22489,0.37042 0.0397,0.0397 0.14552,0.23813 0.11907,0.1852 0.11907,0.21166 0,0.0529 0.29104,0.43657 0.0132,0.0132 0.0529,0.0794 0.0529,0.0529 0.11906,0.14552 0.0794,0.0926 0.13229,0.15875 l 0.23813,0.29105 q 0.0794,-0.19844 0.0926,-2.02407 0.0132,-0.60855 0.0132,-0.68792 0.0132,-0.0926 0.10583,-0.19844 0.10584,-0.10583 0.19844,-0.13229 z"
       id="path647"
       style="font-size:13.2292px;line-height:0.5;font-family:Thadscript;-inkscape-font-specification:Thadscript;fill:#e6e6e6;stroke-width:0.264583" />
    <path
       d="m -178.16161,62.929148 q 0,-0.0794 0.68792,-0.0794 0.25135,0 0.52917,0.14552 0.29104,0.1323 0.42333,0.29105 0.0132,0.0264 0.10584,0.11906 0.14552,0.17198 0.14552,0.35719 0,0.10583 -0.0529,0.15875 -0.0397,0.0265 -0.13229,0.0529 -0.0794,0.0265 -0.14552,0.0397 -0.0661,0 -0.0794,-0.0265 l -0.0397,-0.0132 q -0.0397,0 -0.10583,0 -0.0529,-0.0132 -0.0794,-0.0265 -0.11906,-0.0529 -0.19843,-0.17198 -0.0529,-0.11907 -0.2249,-0.14553 -0.18521,-0.0397 -0.21167,-0.0132 -0.0397,0.0397 -0.0926,0.0397 -0.13229,0 -0.33073,0.38365 -0.0662,0.15875 -0.11906,0.15875 -0.0397,0 -0.0132,0.29104 l 0.0132,0.27782 0.11906,0.11906 q 0.13229,0.13229 0.21167,0.13229 0.0529,0 0.0794,0.0265 0.0132,0.0132 0.15875,0.0397 0.91282,0.13229 1.0848,0.22489 0.635,0.34396 0.635,1.23032 0,0.3175 -0.0397,0.35719 -0.0265,0.0265 -0.0265,0.10583 0,0.0661 -0.19844,0.27781 -0.19843,0.19844 -0.3175,0.25136 -0.47625,0.2249 -0.76729,0.2249 -0.2249,0 -0.51594,-0.10584 -0.18521,-0.0661 -0.47625,-0.10583 -0.43656,-0.0662 -0.64823,-0.25136 -0.11906,-0.0926 -0.14552,-0.14552 -0.0265,-0.0529 -0.0529,-0.22489 -0.0265,-0.19844 0.0265,-0.29105 0.0794,-0.11906 0.14552,-0.11906 0.0794,0 0.27781,0.15875 0.21167,0.18521 0.4498,0.21167 0.35718,0.0265 0.47625,0.10583 0.0265,0.0132 0.0926,0.0132 0.0794,-0.0132 0.0926,0.0132 0.0397,0.0529 0.34396,-0.0397 0.19843,-0.0661 0.33073,-0.21166 0.13229,-0.15876 0.13229,-0.31751 0,-0.0529 -0.0132,-0.0794 -0.0265,-0.0794 -0.0662,-0.23813 -0.0529,-0.18521 -0.14552,-0.23812 l -0.29104,-0.0529 q 0,-0.0265 -0.10584,-0.0265 -0.10583,0 -0.13229,0.0265 -0.0397,0.0397 -0.11906,0 -0.0794,-0.0265 -0.33073,-0.0529 -0.38365,-0.0132 -0.62177,-0.19843 -0.35719,-0.26459 -0.35719,-0.33073 0,-0.0265 -0.0661,-0.0926 -0.0926,-0.0926 -0.10583,-0.27781 -0.0265,-0.26459 -0.0265,-0.39688 0,-0.67469 0.25136,-0.92604 0.0529,-0.0529 0.19843,-0.23813 0.27782,-0.37041 0.35719,-0.37041 0.0265,0 0.0265,-0.0265 z"
       id="path649"
       style="font-size:13.2292px;line-height:0.5;font-family:Thadscript;-inkscape-font-specification:Thadscript;fill:#e6e6e6;stroke-width:0.264583" />
    <path
       d="m -173.56124,63.683128 q -0.18521,0.0397 -0.51594,0.0397 -0.52917,0.0397 -0.5424,0.0397 -0.14552,0 -0.17198,0.0132 -0.0132,0.0132 -0.0661,-0.0265 -0.0397,-0.0397 -0.10584,-0.0661 -0.23812,-0.10584 -0.23812,-0.37042 0,-0.0132 0,-0.0397 0.0132,-0.0397 0.0132,-0.0529 0.0265,-0.15875 0.0661,-0.19843 0.14552,-0.0926 0.37042,-0.0529 0.13229,0.0265 0.59531,0.0265 0.47625,0 0.51594,-0.0397 0.10584,-0.10583 0.44979,-0.10583 0.0397,0 0.88636,0.0265 0.10583,0 0.35719,-0.0265 0.25135,-0.0397 0.37042,-0.0397 0.21166,0 0.29104,0.0661 0.0794,0.0529 0.13229,0.0529 0.0397,0 0.13229,0.0926 0.10584,0.0794 0.14552,0.15875 0.0265,0.0794 0.0265,0.17198 0,0.26458 -0.13229,0.26458 -0.0529,0 -0.0794,0.0265 -0.0265,0.0265 -0.83344,0.0265 -0.80698,0 -0.83344,0.0265 -0.0397,0.0397 -0.0397,0.99219 0,0.84666 -0.0529,1.42875 -0.0265,0.17198 -0.0265,0.37042 0,0.11906 0.0132,0.14552 0.0397,0.10583 0.0397,0.17198 0,0.0661 -0.0397,0.21166 -0.0397,0.1323 -0.0397,0.21167 -0.0265,0.38365 -0.27782,0.52917 -0.0794,0.0397 -0.18521,0.0397 -0.0926,0 -0.22489,-0.0397 -0.14552,-0.0397 -0.18521,-0.0926 -0.0397,-0.0529 -0.0397,-0.19844 v -0.10584 q 0.0265,-0.56885 0.0926,-1.01864 0.0794,-0.46303 0.0926,-1.32292 0,-0.17198 0,-0.42334 0.0132,-0.25135 0.0132,-0.4101 0.0132,-0.17198 0.0132,-0.23813 z"
       id="path651"
       style="font-size:13.2292px;line-height:0.5;font-family:Thadscript;-inkscape-font-specification:Thadscript;fill:#e6e6e6;stroke-width:0.264583" />
    <path
       d="m -168.19833,64.767918 q -0.0397,-0.25135 -0.19843,-0.60854 -0.0132,-0.0132 -0.0265,-0.0132 -0.10584,0 -0.42334,0.64823 -0.29104,0.58208 -0.29104,0.66146 l 0.0132,0.0265 q 0.0265,0.0265 0.19844,0.0265 0.10583,0 0.19844,0.0132 0.0926,0.0132 0.13229,0.0132 0.0132,0 0.22489,-0.0265 l 0.27782,-0.0397 -0.0132,-0.14552 q 0,-0.1323 -0.0397,-0.30427 -0.0397,-0.17198 -0.0529,-0.25136 z m -0.83344,-1.61396 q 0.0794,-0.13229 0.1323,-0.15875 0.0529,-0.0265 0.19843,0 0.0397,0 0.1323,0.0132 0.0926,0 0.11906,0 0.0926,0 0.10583,0.0529 0.0132,0.0529 0.13229,0.11907 0.11907,0.0661 0.1323,0.0926 0,0.0132 0.0265,0.0926 0.0265,0.0661 0.0529,0.10583 0.14552,0.27781 0.21167,0.47625 0.0132,0.0265 0.10583,0.30427 0.0926,0.27781 0.18521,0.59532 0.0397,0.14552 0.0662,0.25135 0.0265,0.10583 0.0529,0.19844 0.0265,0.0926 0.0397,0.13229 0.0265,0.0926 0.0265,0.15875 0,0.0132 0.0529,0.21167 0.0529,0.19844 0.0529,0.22489 0,0.30428 0.34396,0.99219 0.14552,0.29105 0.14552,0.43657 0,0.13229 -0.0661,0.29104 -0.0529,0.15875 -0.10584,0.15875 -0.0397,0 -0.13229,0.0662 -0.0926,0.0794 -0.23812,0.0529 -0.17198,-0.0264 -0.21167,-0.0794 -0.0397,-0.0529 -0.0397,-0.2249 0,-0.18521 -0.0397,-0.34396 -0.0264,-0.15875 -0.0926,-0.35719 -0.0662,-0.21166 -0.0926,-0.29104 -0.0397,-0.14552 -0.11907,-0.42333 l -0.0529,-0.14552 -0.23813,-0.0265 q -0.13229,-0.0132 -0.34396,-0.0132 -0.23812,0 -0.42333,-0.0132 -0.0529,0 -0.14552,0 -0.0926,-0.0132 -0.11907,-0.0132 -0.26458,0 -0.30427,0.0926 -0.0265,0.11907 -0.21167,0.48949 -0.18521,0.35718 -0.29104,0.50271 -0.0265,0.0264 -0.13229,0.23812 -0.10583,0.21167 -0.17198,0.27781 -0.0397,0.0397 -0.0794,0.11907 -0.0397,0.0661 -0.0926,0.10583 -0.0397,0.0397 -0.10583,0.0397 -0.0529,0 -0.0794,-0.0132 -0.0132,0 -0.0529,0 -0.0397,-0.0132 -0.0926,-0.0265 -0.0397,-0.0132 -0.0662,-0.0132 -0.13229,-0.0132 -0.21166,-0.11906 -0.0794,-0.10584 -0.0794,-0.23813 0,-0.10583 0.0529,-0.19844 0.0529,-0.13229 0.22489,-0.48948 0.18521,-0.37041 0.25136,-0.54239 0.0132,-0.0397 0.14552,-0.3175 0.0397,-0.0529 0.10583,-0.19844 0.0794,-0.15875 0.10584,-0.21167 l 0.17198,-0.3175 q 0.22489,-0.35719 0.30427,-0.52917 0.21167,-0.43656 0.38365,-0.75406 0.29104,-0.48948 0.29104,-0.635 0,-0.0662 0.0794,-0.19844 z"
       id="path653"
       style="font-size:13.2292px;line-height:0.5;font-family:Thadscript;-inkscape-font-specification:Thadscript;fill:#e6e6e6;stroke-width:0.264583" />
    <path
       d="m -187.17391,71.548008 q 0.48462,0 1.21156,-0.0794 0.0915,0 0.13462,-0.0529 0.0431,-0.0529 0.0754,-0.0529 0.0108,0 0.0323,0 0.0215,-0.0132 0.0269,-0.0132 0.10769,0 0.17769,0.17198 0.0431,0.10584 0.0323,0.38365 l -0.005,0.21167 -0.0592,0.0661 q -0.0539,0.0529 -0.11308,0.0265 -0.07,-0.0265 -0.0754,-0.0132 -0.0323,0.0397 -0.69462,0.0926 -0.07,0.0132 -0.21539,0.0397 -0.14539,0.0265 -0.23693,0.0265 -0.24231,0 -0.30154,0.11907 -0.0215,0.0529 -0.07,0 -0.0431,-0.0397 -0.0539,-0.0132 -0.0108,0.0264 -0.0808,-0.17198 -0.0754,-0.19844 -0.0808,-0.33073 -0.0162,-0.29105 0.0485,-0.34396 0.0215,-0.0265 0.0215,-0.0397 0,-0.0265 0.22616,-0.0265 z"
       id="path655"
       style="font-size:13.2292px;line-height:0.5;font-family:Thadscript;-inkscape-font-specification:Thadscript;fill:#e6e6e6;stroke-width:0.264583" />
    <path
       d="m -183.65552,73.241308 q 0.0397,0 0.0794,0.0794 0.0397,0.0794 0.0662,0.0794 0.0397,0 0.13229,0.0661 0.10584,0.0662 0.13229,0.0794 0.0529,0.0132 0.25136,0.13229 0.19844,0.11906 0.30427,0.14552 0.0794,0.0265 0.18521,0.0265 0.17198,0 0.38365,-0.0265 0.30427,-0.0265 0.39687,-0.0794 0.17198,-0.10583 0.26459,-0.48948 0.0397,-0.1852 0.0397,-0.30427 0,-0.17198 -0.0132,-0.30427 -0.0265,-0.3175 -0.0661,-0.38365 -0.0397,-0.0794 -0.19844,-0.0794 h -0.10583 q -0.14552,0 -0.27782,0.0265 -0.11906,0.0265 -0.15875,0.0265 -0.10583,0 -0.33073,-0.10584 -0.3175,-0.15875 -0.3175,-0.27781 0,-0.0926 0.0794,-0.18521 0.10583,-0.14552 0.25135,-0.14552 0.0529,0 0.13229,0.0265 0.0926,0.0397 0.2249,0 0.0794,-0.0132 0.34396,-0.0132 0.10583,0 0.25136,-0.0397 0.15875,-0.0397 0.25135,-0.0397 0.0794,0 0.13229,0.0132 0.18521,0.0265 0.25136,0.0794 0.0661,0.0397 0.22489,0.23812 0.17198,0.21167 0.17198,0.99219 0,0.74084 -0.17198,1.12448 -0.0661,0.15876 -0.19843,0.29105 -0.1323,0.11906 -0.23813,0.13229 -0.0529,0 -0.42333,0.0794 -0.35719,0.0794 -0.68792,0.0794 -0.34396,0 -0.5424,-0.0794 -0.17198,-0.0661 -0.26458,-0.0661 -0.0661,0 -0.15875,-0.0661 -0.0794,-0.0529 -0.35719,-0.18521 -0.26459,-0.14552 -0.39688,-0.27781 -0.14552,-0.14552 -0.17198,-0.14552 -0.0265,0 -0.0926,-0.0794 -0.0662,-0.0926 -0.0794,-0.10583 -0.0661,-0.0397 -0.0661,-0.0926 0,-0.0265 -0.11907,-0.17198 -0.3175,-0.37042 -0.3175,-0.8599 0,-0.13229 0.0132,-0.21167 0.0265,-0.19844 0.26459,-0.71438 0.33073,-0.76729 1.32292,-1.65365 0.0661,-0.0529 0.5027,-0.27781 0.0529,-0.0265 0.10584,-0.0265 0.0529,0 0.0794,-0.0265 0.0132,-0.0132 0.26459,-0.0397 0.25135,-0.0397 0.29104,-0.0397 0.0132,0 0.0926,0.0132 0.0794,0.0132 0.11907,0.0132 0.18521,0 0.35719,0.13229 0.0926,0.0662 0.11906,0.0662 0.0265,0 0.21167,0.13229 0.1852,0.13229 0.21166,0.17198 0.0529,0.0529 0.11907,0.18521 0.0794,0.14552 0.0265,0.27781 -0.10583,0.21167 -0.26458,0.21167 -0.13229,0 -0.34396,-0.14552 -0.42333,-0.29105 -0.74083,-0.29105 -0.0132,0 -0.0529,0.0132 -0.0265,0 -0.0397,0 -0.10583,0.0265 -0.33073,0.14552 -0.18521,0.11907 -0.2249,0.11907 -0.0397,0 -0.29104,0.25135 -0.25135,0.25136 -0.29104,0.34396 -0.0397,0.0529 -0.11906,0.15875 -0.0794,0.0926 -0.11907,0.15875 -0.0397,0.0662 -0.11906,0.17198 -0.0661,0.10583 -0.10583,0.18521 -0.19844,0.39688 -0.2249,0.5424 -0.0132,0.0794 -0.0132,0.22489 0,0.19844 0.0662,0.35719 0.0661,0.13229 0.0661,0.17198 0,0.0397 0.10584,0.15875 0.11906,0.10583 0.14552,0.10583 z"
       id="path657"
       style="font-size:13.2292px;line-height:0.5;font-family:Thadscript;-inkscape-font-specification:Thadscript;fill:#e6e6e6;stroke-width:0.264583" />
    <path
       d="m -177.76834,70.132448 q -0.14552,-0.0661 -0.48948,-0.0661 -0.3175,0.0132 -0.44979,0.0529 -0.11906,0.0397 -0.26458,0.19844 -0.0661,0.0662 -0.10584,0.0662 -0.0529,0 -0.0529,0.19844 0,0.17198 0.0397,0.60854 l 0.0265,0.21167 0.17198,0.0264 h 0.0661 q 0.0397,0 0.11906,0 0.0926,-0.0132 0.11906,-0.0132 0.0926,0 0.1323,0.0397 0.0265,0.0265 0.0529,0.0265 0.0529,0 0.17198,-0.0529 0.13229,-0.0661 0.17198,-0.0661 0.0397,0 0.0794,-0.0397 0.0265,-0.0265 0.14552,-0.0265 0.26458,0 0.43656,-0.23812 0.0661,-0.0794 0.0661,-0.27782 0,-0.29104 -0.13229,-0.37041 -0.0529,-0.0265 -0.0926,-0.10584 -0.0397,-0.0926 -0.21167,-0.17198 z m -1.30969,2.73845 v 0.11906 q 0,0.17198 -0.0661,0.46302 -0.0529,0.27782 -0.0529,0.43657 0,0.21166 -0.0397,0.29104 -0.0265,0.0661 -0.15875,0.17198 -0.10583,0.0926 -0.18521,0.0661 -0.0926,-0.0264 -0.10583,-0.0132 -0.0265,0.0265 -0.14552,-0.0397 -0.11906,-0.0662 -0.17198,-0.1323 -0.0926,-0.0926 -0.0926,-0.27781 0,-0.0397 0.0265,-0.25135 0.0397,-0.27782 0.0265,-0.3175 -0.0265,-0.0529 0,-0.19844 0.0662,-0.35719 0.10584,-1.07157 0.0265,-0.68792 0.0265,-0.8599 0,-0.64823 -0.11906,-1.16416 -0.0397,-0.18521 -0.0397,-0.25136 0,-0.0662 0.0397,-0.18521 0.0529,-0.17198 0.0926,-0.19844 0.0397,-0.0264 0.26458,-0.0264 h 0.0529 q 0.15875,0 0.27781,-0.0132 0.11906,-0.0265 0.25135,-0.0529 0.1323,-0.0265 0.2249,-0.0397 0.21167,-0.0265 0.35719,-0.0265 0.96573,0 1.36261,0.21167 0.0794,0.0397 0.11906,0.0926 0.0529,0.0397 0.10583,0.11907 0.0529,0.0794 0.10584,0.13229 0.15875,0.15875 0.15875,0.17198 0,0.0529 0.0661,0.11906 0.0661,0.0794 0.15875,0.42334 0.0662,0.21166 0.0662,0.39687 0,0.15875 -0.11906,0.39688 -0.25136,0.34396 -0.47625,0.43656 -0.11907,0.0529 -0.11907,0.30427 0,0.23813 0.0926,0.42334 0.0529,0.0926 0.0529,0.17198 0,0.0397 0.0794,0.14552 0.0132,0.0132 0.0529,0.10583 0.0397,0.0794 0.0661,0.15875 0.0397,0.0662 0.0662,0.0662 0.0265,0 0.0794,0.0794 0.0794,0.15875 0.2249,0.33073 0.11906,0.11907 0.11906,0.35719 0,0.14552 -0.0661,0.21167 -0.0794,0.0794 -0.35719,0.0794 -0.29104,0 -0.38365,-0.0926 -0.0794,-0.0794 -0.14552,-0.23813 -0.11906,-0.27781 -0.25135,-0.43656 -0.0926,-0.11906 -0.1323,-0.2249 -0.0132,-0.0397 -0.17198,-0.38364 -0.0794,-0.17198 -0.17198,-0.44979 -0.0264,-0.0926 -0.0661,-0.15876 -0.0397,-0.0661 -0.0794,-0.0794 -0.0265,-0.0265 -0.0529,0 -0.0265,0.0265 -0.29105,0.0794 -0.11906,0.0265 -0.3175,0.0265 -0.21166,0 -0.35719,-0.0265 v 0.26459 q 0,0.0794 0,0.21167 0.0132,0.13229 0.0132,0.14552 z"
       id="path659"
       style="font-size:13.2292px;line-height:0.5;font-family:Thadscript;-inkscape-font-specification:Thadscript;fill:#e6e6e6;stroke-width:0.264583" />
    <path
       d="m -172.82039,71.323078 q -0.0397,-0.25135 -0.19844,-0.60854 -0.0132,-0.0132 -0.0265,-0.0132 -0.10583,0 -0.42333,0.64823 -0.29105,0.58208 -0.29105,0.66146 l 0.0132,0.0265 q 0.0265,0.0265 0.19844,0.0265 0.10584,0 0.19844,0.0132 0.0926,0.0132 0.13229,0.0132 0.0132,0 0.2249,-0.0264 l 0.27781,-0.0397 -0.0132,-0.14552 q 0,-0.13229 -0.0397,-0.30427 -0.0397,-0.17198 -0.0529,-0.25136 z m -0.83344,-1.61396 q 0.0794,-0.13229 0.13229,-0.15875 0.0529,-0.0265 0.19844,0 0.0397,0 0.13229,0.0132 0.0926,0 0.11906,0 0.0926,0 0.10584,0.0529 0.0132,0.0529 0.13229,0.11907 0.11906,0.0661 0.13229,0.0926 0,0.0132 0.0265,0.0926 0.0265,0.0661 0.0529,0.10583 0.14552,0.27781 0.21166,0.47625 0.0132,0.0265 0.10584,0.30427 0.0926,0.27782 0.18521,0.59532 0.0397,0.14552 0.0661,0.25135 0.0265,0.10583 0.0529,0.19844 0.0265,0.0926 0.0397,0.13229 0.0265,0.0926 0.0265,0.15875 0,0.0132 0.0529,0.21167 0.0529,0.19844 0.0529,0.22489 0,0.30428 0.34396,0.99219 0.14552,0.29105 0.14552,0.43657 0,0.13229 -0.0661,0.29104 -0.0529,0.15875 -0.10583,0.15875 -0.0397,0 -0.13229,0.0661 -0.0926,0.0794 -0.23813,0.0529 -0.17198,-0.0264 -0.21167,-0.0794 -0.0397,-0.0529 -0.0397,-0.2249 0,-0.18521 -0.0397,-0.34396 -0.0265,-0.15875 -0.0926,-0.35719 -0.0661,-0.21166 -0.0926,-0.29104 -0.0397,-0.14552 -0.11906,-0.42333 l -0.0529,-0.14552 -0.23813,-0.0265 q -0.13229,-0.0132 -0.34395,-0.0132 -0.23813,0 -0.42334,-0.0132 -0.0529,0 -0.14552,0 -0.0926,-0.0132 -0.11906,-0.0132 -0.26459,0 -0.30427,0.0926 -0.0265,0.11906 -0.21167,0.48948 -0.18521,0.35718 -0.29104,0.50271 -0.0265,0.0265 -0.1323,0.23812 -0.10583,0.21167 -0.17198,0.27781 -0.0397,0.0397 -0.0794,0.11907 -0.0397,0.0661 -0.0926,0.10583 -0.0397,0.0397 -0.10583,0.0397 -0.0529,0 -0.0794,-0.0132 -0.0132,0 -0.0529,0 -0.0397,-0.0132 -0.0926,-0.0265 -0.0397,-0.0132 -0.0661,-0.0132 -0.13229,-0.0132 -0.21167,-0.11906 -0.0794,-0.10584 -0.0794,-0.23813 0,-0.10583 0.0529,-0.19844 0.0529,-0.13229 0.2249,-0.48948 0.18521,-0.37041 0.25135,-0.54239 0.0132,-0.0397 0.14553,-0.3175 0.0397,-0.0529 0.10583,-0.19844 0.0794,-0.15875 0.10583,-0.21167 l 0.17198,-0.3175 q 0.2249,-0.35719 0.30427,-0.52917 0.21167,-0.43656 0.38365,-0.75406 0.29104,-0.48948 0.29104,-0.635 0,-0.0661 0.0794,-0.19844 z"
       id="path661"
       style="font-size:13.2292px;line-height:0.5;font-family:Thadscript;-inkscape-font-specification:Thadscript;fill:#e6e6e6;stroke-width:0.264583" />
    <path
       d="m -170.79624,73.109018 q 0,-0.15875 0.0529,-1.34938 0,-0.52916 0.0397,-0.82021 0.0397,-0.30427 0.0529,-0.67469 0.0132,-0.62177 0.0794,-0.71437 0.0794,-0.10584 0.11906,-0.10584 h 0.0265 q 0.25135,0 0.46302,0.0926 l 0.10584,0.0397 q 0.0926,0.0397 0.17197,0.0794 0.0794,0.0397 0.0794,0.0529 0,0.0397 0.0794,0.11906 0.10583,0.10583 0.13229,0.2249 0.0265,0.11906 0.0661,0.15875 0.0529,0.0529 0.0529,0.0661 0,0.0265 0.0397,0.0926 0.0397,0.0661 0.0926,0.14552 0.0529,0.0661 0.0661,0.0794 0.0926,0.18521 0.3175,0.37042 l 0.17198,-0.17198 q 0.14552,-0.14552 0.3175,-0.37041 0.13229,-0.17198 0.23812,-0.41011 0.29105,-0.58208 0.38365,-0.59531 0.0397,-0.0132 0.15875,0 0.13229,0.0132 0.18521,0.0264 0.0397,0 0.0794,0.0794 0.0397,0.0794 0.0794,0.0794 0.0529,0 0.0926,0.0794 0.0397,0.0661 0.0661,0.19844 0.0397,0.11906 0.0529,0.14552 0.0926,0.11906 0.11906,1.78594 0.0265,0.93927 0.0529,1.33615 0.0529,0.51594 0.0529,0.66146 0,0.0926 -0.0397,0.14552 -0.0794,0.11906 -0.38365,0.11906 -0.44979,0 -0.44979,-0.23812 0,-0.0529 -0.0397,-0.13229 -0.0265,-0.0794 -0.0132,-0.19844 0.0265,-0.3175 0.0265,-1.46844 0,-0.70115 -0.0132,-0.82021 0,-0.23813 -0.0397,-0.23813 -0.0397,0 -0.25135,0.26459 -0.19844,0.25135 -0.23813,0.37041 -0.0529,0.30427 -0.4101,0.30427 -0.14552,0 -0.34396,-0.0661 -0.0926,-0.0397 -0.17198,-0.11906 -0.0794,-0.0794 -0.0794,-0.11907 0,-0.0132 -0.0794,-0.11906 -0.37042,-0.37042 -0.51594,-0.635 -0.0529,-0.0926 -0.0926,-0.11906 -0.0132,0 -0.0264,0.0132 0,0.0264 0.0132,0.0661 0.0132,0.0529 -0.0132,0.0794 -0.0662,0.0397 -0.0662,1.12448 v 0.43656 q 0,1.44198 -0.10583,1.44198 -0.0529,0 -0.10584,0.0529 -0.10583,0.0662 -0.23812,0.0662 -0.18521,0 -0.33073,-0.0926 -0.14552,-0.0794 -0.14552,-0.30427 0,-0.0529 0.0265,-0.23812 0.0397,-0.17198 0.0397,-0.27782 z"
       id="path663"
       style="font-size:13.2292px;line-height:0.5;font-family:Thadscript;-inkscape-font-specification:Thadscript;fill:#e6e6e6;stroke-width:0.264583" />
  </g>
</svg>
