<?xml version="1.0" encoding="UTF-8" standalone="no"?>
<!-- Created with Inkscape (http://www.inkscape.org/) -->

<svg
   width="54.22694mm"
   height="20.589146mm"
   viewBox="0 0 54.226941 20.589145"
   version="1.1"
   id="svg965"
   inkscape:version="1.1.1 (3bf5ae0d25, 2021-09-20)"
   sodipodi:docname="wordmark.svg"
   xmlns:inkscape="http://www.inkscape.org/namespaces/inkscape"
   xmlns:sodipodi="http://sodipodi.sourceforge.net/DTD/sodipodi-0.dtd"
   xmlns="http://www.w3.org/2000/svg"
   xmlns:svg="http://www.w3.org/2000/svg">
  <sodipodi:namedview
     id="namedview967"
     pagecolor="#37642c"
     bordercolor="#666666"
     borderopacity="1.0"
     inkscape:pageshadow="2"
     inkscape:pageopacity="0"
     inkscape:pagecheckerboard="true"
     inkscape:document-units="mm"
     showgrid="false"
     fit-margin-top="0"
     fit-margin-left="0"
     fit-margin-right="0"
     fit-margin-bottom="0"
     inkscape:zoom="9.0510662"
     inkscape:cx="120.98022"
     inkscape:cy="56.346953"
     inkscape:window-width="2540"
     inkscape:window-height="1400"
     inkscape:window-x="10"
     inkscape:window-y="30"
     inkscape:window-maximized="1"
     inkscape:current-layer="layer1"
     inkscape:snap-global="false" />
  <defs
     id="defs962">
    <inkscape:path-effect
       effect="fill_between_many"
       method="originald"
       linkedpaths="#path4007,0,1"
       id="path-effect7063"
       is_visible="true"
       lpeversion="0"
       join="true"
       close="true"
       autoreverse="true"
       applied="false" />
    <filter
       inkscape:collect="always"
       style="color-interpolation-filters:sRGB"
       id="filter7229"
       x="-0.039113366"
       y="-0.11811034"
       width="1.0782267"
       height="1.2362207">
      <feGaussianBlur
         inkscape:collect="always"
         stdDeviation="0.81963214"
         id="feGaussianBlur7231" />
    </filter>
  </defs>
  <g
     inkscape:label="Layer 1"
     inkscape:groupmode="layer"
     id="layer1"
     transform="translate(-77.668735,-54.126808)">
    <path
       inkscape:original-d="M 0,0"
       inkscape:path-effect="#path-effect7063"
       d="m 80.638341,56.172389 -1.002489,8.507089 1.136689,0.286361 -1.014067,7.385237 23.421266,0.260598 18.62305,0.137161 -0.11319,-2.336197 5.3852,-0.159394 0.13843,-2.20239 2.35058,-0.06526 0.36475,-3.892286 -2.89835,-0.179828 0.98949,-7.819555 -23.86665,0.329078 z"
       id="path7065"
       style="fill:#040403;fill-opacity:1;stroke:none;stroke-width:1;stroke-miterlimit:4;stroke-dasharray:none;filter:url(#filter7229)" />
    <path
       style="fill:#edede8;fill-opacity:1;stroke:none;stroke-width:0.274606px;stroke-linecap:butt;stroke-linejoin:miter;stroke-opacity:1"
       d="m 80.638341,56.172389 -1.002489,8.507089 1.136689,0.286361 -1.014067,7.385237 23.421266,0.260598 18.62305,0.137161 -0.11319,-2.336197 5.3852,-0.159394 0.13843,-2.20239 2.35058,-0.06526 0.36475,-3.892286 -2.89835,-0.179828 0.98949,-7.819555 -23.86665,0.329078 z"
       id="path4007"
       sodipodi:nodetypes="ccccccccccccccc" />
    <g
       id="g3044"
       transform="matrix(0.28595022,0,-0.05274936,0.26458333,81.617749,-36.060741)"
       style="fill:#1a1a1a;fill-opacity:1">
      <path
         id="path19165-0-8"
         style="fill:#1a1a1a;fill-opacity:1;stroke-width:2.02794"
         d="m 113.26869,353.08793 c -0.78592,0.69492 -1.77029,1.1869 -2.36928,2.07721 -0.18145,0.29952 -0.24795,0.65918 -0.38267,0.98314 -1.9367,5.4378 -4.26558,10.7257 -6.21852,16.16347 -0.62134,1.70331 -1.15042,3.43766 -1.69904,5.16526 1.20857,-1.14476 2.41651,-2.29019 3.62418,-3.4359 0.73833,-1.75643 1.40981,-3.53991 2.0492,-5.33448 2.45436,0.0536 4.90988,0.088 7.36458,0.036 0.94524,2.66159 1.86261,5.33464 2.63778,8.0515 0.0371,0.21147 0.22592,-0.14284 0.3328,-0.1916 0.86222,-0.81703 1.72381,-1.63472 2.58656,-2.4512 -2.27546,-6.58326 -4.27953,-13.25812 -6.65048,-19.80837 -0.22091,-0.5999 -0.44182,-1.19981 -0.66281,-1.79968 -0.2041,0.18154 -0.4082,0.36309 -0.6123,0.54463 z m -0.93865,6.11378 c 0.71667,2.20956 1.4834,4.40235 2.26203,6.59074 -1.76378,0.008 -3.52757,-0.009 -5.29136,-0.005 0.87604,-2.52216 1.74439,-5.04832 2.72972,-7.53048 0.0999,0.31507 0.19974,0.63013 0.29961,0.9452 z" />
      <path
         id="path19177-5-3"
         style="fill:#1a1a1a;fill-opacity:1;stroke-width:2.32303"
         d="m 131.3076,353.26298 c -1.50665,0.0585 -3.01877,0.1147 -4.53117,0.0104 -0.86168,0.70191 -1.72382,1.40326 -2.58619,2.10432 -0.18671,4.33641 -0.0272,8.67644 0.0502,13.0134 0.0432,2.69347 0.0264,5.37949 -0.11776,8.06342 -0.0334,0.19531 -0.0358,0.36045 0.20973,0.28484 1.64959,-0.0437 3.30439,0.0255 4.94816,-0.15332 3.8897,-0.15653 6.98055,-2.51101 8.68931,-4.15022 0.75504,-0.73539 1.55727,-1.44294 2.12323,-2.34318 0.79752,-1.22911 1.30081,-2.62611 1.60811,-4.05303 0.2934,-1.29079 0.32864,-2.62945 0.23455,-3.94564 -0.13569,-1.49946 -0.47072,-2.9937 -1.0867,-4.37137 -0.50436,-1.07377 -1.23306,-2.06448 -2.19747,-2.76687 -1.19461,-0.81775 -2.61325,-1.21887 -4.02817,-1.44605 -1.09382,-0.19002 -2.20667,-0.25516 -3.31583,-0.24667 z m -2.19982,3.27927 c 0.34366,-0.003 0.74233,0.005 1.05107,0.018 0.29051,0.0145 0.51951,0.0266 0.81417,0.0541 1.28203,0.12971 2.57557,0.34404 3.76861,0.84924 0.62442,0.28223 1.23563,0.6281 1.69238,1.14986 1.00417,1.03521 1.5368,2.42337 1.85289,3.80757 0.38859,1.64179 0.4543,3.36056 0.19756,5.02759 -0.26672,1.44476 -0.71705,2.87488 -1.50915,4.12249 -0.11243,0.19306 -0.35309,0.2604 -0.53467,0.37632 -1.61262,0.80504 -3.40045,1.20723 -5.18652,1.37976 -0.11088,0.007 -0.33112,0.0279 -0.48411,0.0389 -1.12577,0.0895 -2.25551,0.0621 -3.38345,0.0877 0.0638,-5.62341 0.18254,-11.24656 0.16317,-16.8706 0.51915,-0.0209 1.02784,-0.0347 1.55805,-0.0409 z"
         sodipodi:nodetypes="scccccccccccccsssccccccccccccss" />
      <path
         id="path19177-5-3-7"
         style="fill:#1a1a1a;fill-opacity:1;stroke-width:2.32303"
         d="m 152.09549,353.26298 c -1.50665,0.0585 -3.01877,0.1147 -4.53116,0.0104 -0.86169,0.70191 -1.72382,1.40326 -2.5862,2.10432 -0.18671,4.33641 -0.0272,8.67644 0.0502,13.0134 0.0432,2.69347 0.0264,5.37949 -0.11777,8.06342 -0.0334,0.19531 -0.0358,0.36045 0.20974,0.28484 1.64959,-0.0437 3.30438,0.0255 4.94815,-0.15332 3.8897,-0.15653 6.98055,-2.51101 8.68931,-4.15022 0.75504,-0.73539 1.55727,-1.44294 2.12322,-2.34318 0.79752,-1.22911 1.30083,-2.62611 1.60812,-4.05303 0.29341,-1.29079 0.32865,-2.62945 0.23454,-3.94564 -0.13568,-1.49946 -0.4707,-2.9937 -1.08669,-4.37137 -0.50436,-1.07377 -1.23306,-2.06448 -2.19747,-2.76687 -1.19461,-0.81775 -2.61325,-1.21887 -4.02817,-1.44605 -1.09382,-0.19002 -2.20668,-0.25516 -3.31583,-0.24667 z m -2.19983,3.27927 c 0.34366,-0.003 0.74234,0.005 1.05107,0.018 0.29051,0.0145 0.51952,0.0266 0.81418,0.0541 1.28202,0.12971 2.57556,0.34404 3.7686,0.84924 0.62443,0.28223 1.23563,0.6281 1.69239,1.14986 1.00417,1.03521 1.53679,2.42337 1.85288,3.80757 0.38859,1.64179 0.45431,3.36056 0.19756,5.02759 -0.26672,1.44476 -0.71705,2.87488 -1.50915,4.12249 -0.11243,0.19306 -0.35308,0.2604 -0.53466,0.37632 -1.61262,0.80504 -3.40046,1.20723 -5.18653,1.37976 -0.11088,0.007 -0.33112,0.0279 -0.4841,0.0389 -1.12577,0.0895 -2.25551,0.0621 -3.38346,0.0877 0.0638,-5.62341 0.18254,-11.24656 0.16317,-16.8706 0.51915,-0.0209 1.02785,-0.0347 1.55805,-0.0409 z"
         sodipodi:nodetypes="scccccccccccccsssccccccccccccss" />
      <path
         id="path19183-5"
         style="fill:#1a1a1a;fill-opacity:1;stroke-width:2.56653"
         d="m 175.70709,353.28009 c -2.44293,0.0134 -4.88572,0.0426 -7.32857,0.0655 -0.83731,0.82552 -1.67516,1.65049 -2.51252,2.47596 -0.19517,4.2776 -0.19572,8.5607 -0.16811,12.8418 0.0152,2.64958 0.0169,5.29932 -0.0191,7.94875 4.95474,0.14725 9.92607,0.26949 14.86887,-0.19046 1.16335,-1.07232 2.32701,-2.14431 3.49046,-3.21651 -3.18471,-0.12778 -6.37218,-0.18166 -9.55948,-0.16175 -1.77302,0.006 -3.5459,0.0326 -5.31866,0.0624 0.0874,-2.24973 0.0713,-4.50179 0.0846,-6.75283 2.307,-0.0465 4.61898,0.01 6.92091,-0.17681 1.2248,-1.11559 2.44868,-2.23219 3.67274,-3.34858 -1.6711,-0.0274 -3.34261,-0.0264 -5.01303,0.0344 -1.84466,0.0573 -3.67898,0.13977 -5.52495,0.15828 0.0247,-1.98002 -0.054,-3.96051 0.007,-5.94023 0.0438,-0.097 -0.0746,-0.41231 0.099,-0.40566 3.4197,-0.20337 6.85627,-0.17606 10.28858,-0.0713 0.26645,-0.005 0.54959,0.0413 0.8059,0.006 1.35403,-1.07826 2.70813,-2.15644 4.06181,-3.23513 -2.95108,-0.0808 -5.90281,-0.11222 -8.85496,-0.0939 z" />
      <path
         id="path19199-8-8"
         style="fill:#1a1a1a;fill-opacity:1;stroke-width:2.09559"
         d="m 86.046329,353.76599 c -0.81602,0.74804 -1.63223,1.49586 -2.44813,2.24403 0.13499,7.02747 0.0694,14.05646 0.0873,21.0847 1.12223,-0.95102 2.24465,-1.9018 3.36714,-2.85251 0.14505,-2.7681 0.093,-5.54179 0.0503,-8.31201 -0.017,-0.18103 0.29475,-0.0408 0.41735,-0.0853 2.95538,-0.0125 5.91106,-0.0197 8.86588,-0.0838 -0.0779,3.24364 -0.0238,6.4887 -0.0792,9.73252 -0.0129,0.43347 -0.025,0.86696 -0.0376,1.30044 0.75963,-0.5033 1.53266,-0.99418 2.20321,-1.61629 0.36622,-0.31947 0.71452,-0.65858 1.0586,-1.00157 0.15653,-6.31866 0.25088,-12.64326 0.0245,-18.96135 -0.0311,-0.74835 -0.0622,-1.4967 -0.0932,-2.24504 -1.05921,0.91742 -2.11864,1.83459 -3.17777,2.7521 0.0275,2.26594 0.0634,4.53176 0.0999,6.79757 -3.10428,0.007 -6.20855,0.0135 -9.31283,0.0202 -0.007,-3.20495 -0.056,-6.40959 -0.1086,-9.61406 -0.3056,0.28013 -0.61121,0.56028 -0.91682,0.84041 z" />
      <path
         id="path19257-1-6"
         style="fill:#1a1a1a;fill-opacity:1;stroke-width:2.26018"
         d="m 215.82034,353.27393 c -2.0361,-0.0209 -3.88399,1.73973 -5.79999,3.7273 -0.32716,0.36676 -0.55653,0.81583 -0.70835,1.27809 -0.11397,0.53527 -0.13826,1.08739 -0.0459,1.62816 0.18531,1.44124 1.05304,2.69773 2.09801,3.666 0.37042,0.37796 0.82536,0.65989 1.24518,0.97931 1.64886,1.16976 3.43976,2.13622 5.01692,3.4066 0.65925,0.55513 1.29092,1.15757 1.79967,1.85594 0.31481,0.43451 0.52479,0.95542 0.68509,1.43838 0.17111,0.61873 0.21389,1.28102 0.10769,1.91476 -1.06138,0.45186 -2.49032,0.41118 -3.4366,0.22093 -0.76146,-0.17969 -1.52842,-0.43203 -2.19328,-0.82038 -0.71658,-0.41954 -1.39868,-0.90879 -1.95457,-1.53071 -0.43429,-0.47522 -0.88585,-0.96576 -1.14036,-1.56504 -0.10604,-0.33549 -0.2125,-0.67087 -0.3187,-1.0063 -0.97138,1.00216 -1.94253,2.00453 -2.91419,3.00639 0.13398,0.52026 0.36424,1.01228 0.69712,1.43542 0.54322,0.7298 1.17186,1.40402 1.89113,1.96298 0.79868,0.58596 1.65608,1.11321 2.60901,1.40547 0.96638,0.34538 1.9952,0.50965 3.02123,0.46092 0.83131,-0.0271 1.65334,-0.22012 2.43309,-0.50219 1.33543,-0.86715 2.53567,-1.83858 3.91418,-3.5782 0.45019,-0.56813 0.59134,-1.34233 0.59551,-2.07402 0.0196,-0.78775 -0.0972,-1.58273 -0.41082,-2.30943 -0.30724,-0.79303 -0.80231,-1.49991 -1.39754,-2.10341 -0.88395,-0.95665 -1.93113,-1.74099 -3.01726,-2.45198 -1.44531,-0.96956 -2.96758,-1.83585 -4.31853,-2.93805 -0.79541,-0.73692 -1.52149,-1.62076 -1.79168,-2.69253 -0.0971,-0.43535 -0.16949,-0.88911 -0.10467,-1.33433 1.02944,-0.3985 2.18607,-0.31383 3.21947,0.0235 0.82631,0.30495 1.61193,0.74754 2.24058,1.37127 0.69504,0.6229 1.13662,1.462 1.60771,2.2536 0.32694,0.61323 0.62113,1.24313 0.93206,1.86452 0.95218,-0.98242 1.90467,-1.96452 2.85688,-2.94693 -0.42205,-0.8659 -0.84167,-1.73529 -1.37113,-2.54232 -0.39769,-0.65919 -0.8818,-1.26752 -1.47555,-1.76088 -0.72954,-0.66313 -1.62609,-1.1205 -2.55056,-1.44548 -0.69894,-0.15592 -1.41117,-0.29104 -2.02082,-0.29733 z"
         sodipodi:nodetypes="sccccccccccccccccccccscccccccccccccccs" />
      <path
         id="path19259-9-2"
         style="fill:#1a1a1a;fill-opacity:1;stroke-width:2.17925"
         d="m 82.628859,352.89605 c -4.90948,0.14183 -9.82168,0.18525 -14.72972,0.37435 -0.16231,0.0387 -0.32561,0.0762 -0.42216,0.22552 -0.96715,0.98951 -1.93447,1.97882 -2.90131,2.96864 2.57593,0.0632 5.15319,0.0683 7.72913,0.003 0.021,6.896 -0.0541,13.79195 -0.018,20.68795 1.04986,-1.0519 2.10022,-2.10333 3.14993,-3.1554 0.003,-5.87218 -0.0287,-11.74444 0.005,-17.61659 1.92317,-0.0588 3.84634,-0.11834 5.76997,-0.16044 0.8649,-1.1195 1.72991,-2.2389 2.59547,-3.35787 -0.39273,0.0106 -0.78548,0.021 -1.17822,0.0317 z" />
      <path
         id="path19265-7-6"
         style="fill:#1a1a1a;fill-opacity:1;stroke-width:2.25872"
         d="m 189.98838,353.52315 c -0.831,0.89076 -1.66162,1.78189 -2.49288,2.67243 -0.0341,3.38989 -0.0565,6.78259 0.0988,10.16993 0.11912,2.08883 0.24294,4.22491 0.98369,6.20703 0.52176,1.43573 1.44923,2.78797 2.8132,3.53364 0.75815,0.41574 1.61401,0.6695 2.47805,0.70708 2.40677,-0.0962 4.90628,-0.0363 7.23234,-0.80999 0.32858,-0.11366 0.65275,-0.24149 0.9643,-0.3962 -0.0123,0.65851 -0.0247,1.31703 -0.0371,1.97552 1.09032,-1.03617 2.18053,-2.07251 3.27109,-3.10846 0.0807,-7.32084 0.0619,-14.64247 -0.0142,-21.96329 -1.03146,1.09306 -2.0632,2.18584 -3.09427,3.27926 -0.087,5.31498 -0.0382,10.63079 -0.0731,15.94613 -1.58939,0.7189 -3.17105,1.55138 -4.91586,1.81394 -1.27019,0.20087 -2.63741,-0.0806 -3.64824,-0.89819 -0.93538,-0.71267 -1.57107,-1.76041 -1.88481,-2.88479 -0.27381,-0.96744 -0.43324,-1.96514 -0.54581,-2.96283 -0.10213,-0.99404 -0.17057,-2.03153 -0.21943,-3.00407 -0.16199,-3.41956 -0.0399,-6.88765 0.0653,-10.32615 0.0104,-0.3455 0.0208,-0.69096 0.0313,-1.03643 -0.33744,0.36181 -0.67488,0.72362 -1.01232,1.08544 z" />
    </g>
    <g
       id="g3034"
       transform="matrix(0.28595022,0,-0.05274936,0.26458333,78.104878,-37.343042)"
       style="fill:#1a1a1a;fill-opacity:1">
      <path
         id="path19183-5-7"
         style="fill:#1a1a1a;fill-opacity:1;stroke-width:2.56653"
         d="m 175.61265,387.42655 c -2.44293,0.0134 -4.88574,0.0426 -7.32859,0.0655 -0.83731,0.82552 -1.67516,1.65049 -2.51253,2.47596 -0.19514,4.2776 -0.1957,8.5607 -0.16809,12.8418 0.0151,2.64958 0.017,5.29932 -0.019,7.94875 4.95476,0.14725 9.92608,0.26949 14.86888,-0.19046 1.16334,-1.07232 2.327,-2.14431 3.49045,-3.21651 -3.18471,-0.12778 -6.37216,-0.18166 -9.55947,-0.16175 -1.77304,0.006 -3.54591,0.0326 -5.31867,0.0624 0.0874,-2.24973 0.0713,-4.50179 0.0846,-6.75283 2.307,-0.0465 4.61899,0.01 6.92093,-0.17681 1.22477,-1.11559 2.44865,-2.23219 3.67273,-3.34858 -1.67111,-0.0274 -3.34261,-0.0264 -5.01304,0.0344 -1.84466,0.0573 -3.67897,0.13977 -5.52496,0.15828 0.0246,-1.98002 -0.054,-3.96051 0.006,-5.94023 0.0438,-0.097 -0.0746,-0.41231 0.099,-0.40566 3.4197,-0.20337 6.85627,-0.17606 10.28857,-0.0713 0.26645,-0.005 0.54961,0.0413 0.80591,0.006 1.35403,-1.07826 2.70812,-2.15644 4.06181,-3.23513 -2.95109,-0.0808 -5.9028,-0.11222 -8.85496,-0.0939 z" />
      <path
         id="path19197-7-0"
         style="fill:#1a1a1a;fill-opacity:1;stroke-width:2.24583"
         d="m 136.79788,387.42155 c -1.5071,0.0578 -2.99301,0.47153 -4.33251,1.15912 -1.02156,0.58978 -1.9159,1.37534 -2.70323,2.24949 -0.67269,0.7247 -1.38222,1.41581 -2.02828,2.15966 -0.57889,0.71001 -1.7033,2.11978 -1.72023,5.39296 0.003,1.66815 0.23798,3.32792 0.5553,4.9625 0.28702,1.28384 0.71251,2.55175 1.38287,3.68844 0.5092,0.81931 1.14132,1.56098 1.88774,2.17369 0.78872,0.67748 1.74336,1.157 2.74394,1.43068 0.78355,0.20778 1.59812,0.30395 2.40755,0.22749 1.39589,-0.10259 2.69974,-0.751 3.78022,-1.61593 0.67431,-0.54338 1.28111,-1.16332 1.85602,-1.80941 0.38244,-0.3999 0.79555,-0.77618 1.15093,-1.19876 0.15041,-0.29797 0.40163,-0.53818 0.57199,-0.82767 0.47206,-0.67299 0.77824,-1.44655 0.95329,-2.24695 0.35427,-1.41214 0.15298,-2.87637 -0.0303,-4.29711 -0.0254,-0.20697 -0.0508,-0.41399 -0.0761,-0.62098 -1.13824,-0.0443 -2.28006,-0.0185 -3.41486,0.0767 -0.24356,0.0364 -0.5059,0.0517 -0.73396,0.12578 -1.09267,1.14419 -2.18506,2.28867 -3.27742,3.43316 1.01175,-0.14388 2.01534,-0.37897 3.04162,-0.38725 0.46919,-0.0185 0.93816,-0.0437 1.40768,-0.0526 0.16583,1.10701 0.21582,2.24584 0.0246,3.35295 -0.1477,0.64767 -0.30995,1.32727 -0.70781,1.86857 -0.83806,0.56299 -1.81858,0.95411 -2.8367,0.97958 -0.0992,2.5e-4 -0.31506,0.0136 -0.46022,0.006 -1.18881,-0.055 -2.36033,-0.45793 -3.32741,-1.15265 -0.72803,-0.55529 -1.37604,-1.2184 -1.87046,-1.99175 -0.51365,-0.78705 -0.84623,-1.67895 -1.11746,-2.57462 -0.35826,-1.22921 -0.52317,-2.50456 -0.66997,-3.7733 -0.15689,-1.58028 -0.19475,-3.22629 0.36041,-4.73947 0.15639,-0.42853 0.33868,-0.86066 0.59839,-1.23393 0.5545,-0.42893 1.18365,-0.74835 1.84627,-0.97345 0.96954,-0.35904 2.00414,-0.56656 3.03984,-0.5514 0.42065,0.0117 0.89177,0.085 1.31623,0.20425 0.58676,0.19882 1.13678,0.50742 1.64098,0.86493 0.69241,0.54872 1.30209,1.20297 1.76259,1.95929 0.50671,0.78431 0.93276,1.61651 1.35688,2.44736 0.94629,-0.99141 1.89316,-1.98227 2.83886,-2.97422 -0.60949,-1.1801 -1.23501,-2.37399 -2.11521,-3.37883 -0.59478,-0.63501 -1.25288,-1.22837 -2.03663,-1.62075 -0.61502,-0.35366 -1.29326,-0.5941 -1.99995,-0.67349 -0.35142,-0.066 -0.70901,-0.0684 -1.06543,-0.0685 z"
         sodipodi:nodetypes="scccccccccccccccccccccccccccccccccccccccccss" />
      <path
         id="path19199-8-1"
         style="fill:#1a1a1a;fill-opacity:1;stroke-width:2.09559"
         d="m 89.011099,387.91245 c -0.81603,0.74804 -1.63225,1.49586 -2.44813,2.24403 0.13498,7.02747 0.0694,14.05646 0.0873,21.0847 1.12223,-0.95102 2.24465,-1.9018 3.36714,-2.85251 0.14504,-2.7681 0.093,-5.54179 0.0503,-8.31201 -0.0171,-0.18103 0.29475,-0.0408 0.41736,-0.0853 2.95537,-0.0125 5.91104,-0.0197 8.86588,-0.0838 -0.0779,3.24364 -0.0238,6.4887 -0.0792,9.73252 -0.0129,0.43347 -0.0251,0.86696 -0.0376,1.30044 0.75963,-0.5033 1.532661,-0.99418 2.203221,-1.61629 0.36619,-0.31947 0.71451,-0.65858 1.05858,-1.00157 0.15655,-6.31866 0.25088,-12.64326 0.0246,-18.96135 -0.0311,-0.74835 -0.0622,-1.4967 -0.0932,-2.24504 -1.05923,0.91742 -2.11865,1.83459 -3.177791,2.7521 0.0277,2.26594 0.0635,4.53176 0.0999,6.79757 -3.10429,0.007 -6.20856,0.0135 -9.31283,0.0202 -0.007,-3.20495 -0.056,-6.40959 -0.10861,-9.61406 -0.30559,0.28013 -0.61121,0.56028 -0.9168,0.84041 z" />
      <path
         id="path19199-8-1-7"
         style="fill:#1a1a1a;fill-opacity:1;stroke-width:2.09559"
         d="m 149.20181,387.91245 c -0.81602,0.74804 -1.63224,1.49586 -2.44812,2.24403 0.13498,7.02747 0.0694,14.05646 0.0873,21.0847 1.12223,-0.95102 2.24466,-1.9018 3.36714,-2.85251 0.14505,-2.7681 0.093,-5.54179 0.0503,-8.31201 -0.0171,-0.18103 0.29475,-0.0408 0.41735,-0.0853 2.95537,-0.0125 5.91105,-0.0197 8.86589,-0.0838 -0.0779,3.24364 -0.0237,6.4887 -0.0792,9.73252 -0.0129,0.43347 -0.0251,0.86696 -0.0376,1.30044 0.75964,-0.5033 1.53266,-0.99418 2.20322,-1.61629 0.3662,-0.31947 0.71452,-0.65858 1.05859,-1.00157 0.15655,-6.31866 0.25088,-12.64326 0.0246,-18.96135 -0.0311,-0.74835 -0.0622,-1.4967 -0.0932,-2.24504 -1.05922,0.91742 -2.11864,1.83459 -3.17778,2.7521 0.0277,2.26594 0.0635,4.53176 0.0999,6.79757 -3.10429,0.007 -6.20856,0.0135 -9.31283,0.0202 -0.007,-3.20495 -0.056,-6.40959 -0.10861,-9.61406 -0.30559,0.28013 -0.61121,0.56028 -0.91681,0.84041 z" />
      <path
         id="path19257-1-7"
         style="fill:#1a1a1a;fill-opacity:1;stroke-width:2.26018"
         d="m 192.76548,387.42039 c -2.03608,-0.0209 -3.88397,1.73973 -5.79998,3.7273 -0.32714,0.36676 -0.55653,0.81583 -0.70834,1.27809 -0.11397,0.53527 -0.13825,1.08739 -0.0459,1.62816 0.1853,1.44124 1.05304,2.69773 2.09802,3.666 0.37041,0.37796 0.82535,0.65989 1.24517,0.97931 1.64887,1.16976 3.43976,2.13622 5.01693,3.4066 0.65924,0.55513 1.29091,1.15757 1.79966,1.85594 0.31482,0.43451 0.52479,0.95542 0.68509,1.43838 0.17111,0.61873 0.21389,1.28102 0.10769,1.91476 -1.06138,0.45186 -2.49032,0.41118 -3.4366,0.22093 -0.76146,-0.17969 -1.52841,-0.43203 -2.19328,-0.82038 -0.71658,-0.41954 -1.39868,-0.90879 -1.95457,-1.53071 -0.43429,-0.47522 -0.88585,-0.96576 -1.14036,-1.56504 -0.10604,-0.33549 -0.21249,-0.67087 -0.31873,-1.0063 -0.97135,1.00216 -1.9425,2.00453 -2.91415,3.00639 0.13397,0.52026 0.36424,1.01228 0.6971,1.43542 0.54323,0.7298 1.17188,1.40402 1.89115,1.96298 0.79867,0.58596 1.65604,1.11321 2.60901,1.40547 0.96637,0.34538 1.99519,0.50965 3.02122,0.46092 0.83131,-0.0271 1.65331,-0.22012 2.4331,-0.50219 1.33542,-0.86715 2.53566,-1.83858 3.91414,-3.5782 0.45022,-0.56813 0.59135,-1.34233 0.59554,-2.07402 0.0196,-0.78775 -0.0972,-1.58273 -0.41082,-2.30943 -0.30724,-0.79303 -0.80233,-1.49991 -1.39754,-2.10341 -0.88394,-0.95665 -1.93115,-1.74099 -3.01725,-2.45198 -1.44532,-0.96956 -2.96758,-1.83585 -4.31854,-2.93805 -0.79543,-0.73692 -1.52148,-1.62076 -1.7917,-2.69253 -0.0971,-0.43535 -0.16947,-0.88911 -0.10464,-1.33433 1.02943,-0.3985 2.18606,-0.31383 3.21947,0.0235 0.82627,0.30495 1.61192,0.74754 2.24057,1.37127 0.69504,0.6229 1.13662,1.462 1.60771,2.2536 0.32694,0.61323 0.62114,1.24313 0.93207,1.86452 0.95218,-0.98242 1.90466,-1.96452 2.85687,-2.94693 -0.42205,-0.8659 -0.84167,-1.73529 -1.37113,-2.54232 -0.39769,-0.65919 -0.88182,-1.26752 -1.47555,-1.76088 -0.72957,-0.66313 -1.62609,-1.1205 -2.55055,-1.44548 -0.69895,-0.15592 -1.41117,-0.29104 -2.02085,-0.29733 z"
         sodipodi:nodetypes="sccccccccccccccccccccscccccccccccccccs" />
      <path
         id="path19265-7-0"
         style="fill:#1a1a1a;fill-opacity:1;stroke-width:2.25872"
         d="m 107.91134,387.66961 c -0.831,0.89076 -1.66161,1.78189 -2.49286,2.67243 -0.0341,3.38989 -0.0565,6.78259 0.0988,10.16993 0.11911,2.08883 0.24295,4.22491 0.9837,6.20703 0.52174,1.43573 1.44922,2.78797 2.8132,3.53364 0.75813,0.41574 1.614,0.6695 2.47802,0.70708 2.40678,-0.0962 4.90628,-0.0363 7.23236,-0.80999 0.32856,-0.11366 0.65274,-0.24149 0.96428,-0.3962 -0.0123,0.65851 -0.0246,1.31703 -0.0371,1.97552 1.09032,-1.03617 2.18053,-2.07251 3.2711,-3.10846 0.0807,-7.32084 0.0618,-14.64247 -0.0143,-21.96329 -1.03148,1.09306 -2.06321,2.18584 -3.09429,3.27926 -0.087,5.31498 -0.0382,10.63079 -0.0731,15.94613 -1.58938,0.7189 -3.17105,1.55138 -4.91584,1.81394 -1.27021,0.20087 -2.63743,-0.0806 -3.64826,-0.89819 -0.93536,-0.71267 -1.57105,-1.76041 -1.8848,-2.88479 -0.2738,-0.96744 -0.43323,-1.96514 -0.5458,-2.96283 -0.10213,-0.99404 -0.17058,-2.03153 -0.21943,-3.00407 -0.162,-3.41956 -0.0399,-6.88765 0.0653,-10.32615 0.0103,-0.3455 0.021,-0.69096 0.0313,-1.03643 -0.33745,0.36181 -0.67489,0.72362 -1.01234,1.08544 z" />
    </g>
    <g
       id="g7887"
       transform="translate(1.3927702,0.16536277)"
       style="fill:#1a1a1a">
      <path
         id="path19183-5-3"
         style="fill:#1a1a1a;stroke-width:0.190026"
         d="m 116.55011,64.708489 c -0.18088,9.85e-4 -0.36174,0.0032 -0.54261,0.0049 -0.062,0.06113 -0.12403,0.122205 -0.18603,0.183323 -0.0145,0.316717 -0.0145,0.633843 -0.0125,0.950819 6.6e-4,0.196178 0.001,0.392367 -0.001,0.588532 0.36685,0.01089 0.73493,0.01994 1.1009,-0.01411 0.0861,-0.0794 0.17228,-0.158769 0.25842,-0.238157 -0.23579,-0.0095 -0.47179,-0.01345 -0.70778,-0.01198 -0.13128,3.49e-4 -0.26254,0.0025 -0.39379,0.0047 0.007,-0.166571 0.005,-0.333313 0.007,-0.499983 0.17081,-0.0035 0.34199,7.23e-4 0.51243,-0.0131 0.0907,-0.0826 0.18129,-0.165273 0.27192,-0.24793 -0.12373,-0.0021 -0.24749,-0.0021 -0.37116,0.0025 -0.13658,0.0043 -0.27239,0.01035 -0.40907,0.01174 10e-4,-0.146603 -0.004,-0.293239 4.6e-4,-0.439822 0.004,-0.0072 -0.006,-0.03052 0.007,-0.03003 0.25319,-0.01506 0.50764,-0.01303 0.76176,-0.0053 0.0197,-3.35e-4 0.0407,0.0032 0.0596,3.5e-4 0.10026,-0.07984 0.20051,-0.159664 0.30074,-0.239534 -0.2185,-0.006 -0.43704,-0.0083 -0.65562,-0.007 z" />
      <path
         id="path19183-5-3-7"
         style="fill:#1a1a1a;stroke-width:0.190026"
         d="m 123.49029,64.708489 c -0.18088,9.85e-4 -0.36174,0.0032 -0.54262,0.0049 -0.062,0.06113 -0.12402,0.122205 -0.18602,0.183323 -0.0145,0.316717 -0.0145,0.633843 -0.0125,0.950819 6.6e-4,0.196178 0.001,0.392367 -0.001,0.588532 0.36685,0.01089 0.73492,0.01994 1.10089,-0.01411 0.0861,-0.0794 0.17229,-0.158769 0.25843,-0.238157 -0.23579,-0.0095 -0.47179,-0.01345 -0.70777,-0.01198 -0.13128,3.49e-4 -0.26254,0.0025 -0.3938,0.0047 0.007,-0.166571 0.005,-0.333313 0.007,-0.499983 0.17081,-0.0035 0.34199,7.23e-4 0.51243,-0.0131 0.0907,-0.0826 0.1813,-0.165273 0.27192,-0.24793 -0.12372,-0.0021 -0.24748,-0.0021 -0.37116,0.0025 -0.13658,0.0043 -0.27239,0.01035 -0.40907,0.01174 0.001,-0.146603 -0.004,-0.293239 4.6e-4,-0.439822 0.004,-0.0072 -0.006,-0.03052 0.007,-0.03003 0.25319,-0.01506 0.50763,-0.01303 0.76176,-0.0053 0.0198,-3.35e-4 0.0407,0.0032 0.0596,3.5e-4 0.10026,-0.07984 0.20051,-0.159664 0.30074,-0.239534 -0.2185,-0.006 -0.43705,-0.0083 -0.65563,-0.007 z" />
      <path
         id="path19183-5-3-5"
         style="fill:#1a1a1a;stroke-width:0.190026"
         d="m 125.03916,64.708489 c -0.18088,9.85e-4 -0.36173,0.0032 -0.54261,0.0049 -0.062,0.06113 -0.12403,0.122205 -0.18603,0.183323 -0.0144,0.316717 -0.0145,0.633843 -0.0125,0.950819 6.6e-4,0.196178 0.001,0.392367 -10e-4,0.588532 0.36685,0.01089 0.73493,0.01994 1.1009,-0.01411 0.0861,-0.0794 0.17228,-0.158769 0.25842,-0.238157 -0.23579,-0.0095 -0.47179,-0.01345 -0.70777,-0.01198 -0.13128,3.49e-4 -0.26254,0.0025 -0.3938,0.0047 0.007,-0.166571 0.005,-0.333313 0.007,-0.499983 0.17081,-0.0035 0.34199,7.23e-4 0.51243,-0.0131 0.0907,-0.0826 0.18129,-0.165273 0.27192,-0.24793 -0.12372,-0.0021 -0.24749,-0.0021 -0.37116,0.0025 -0.13657,0.0043 -0.27239,0.01035 -0.40906,0.01174 0.001,-0.146603 -0.004,-0.293239 4.6e-4,-0.439822 0.004,-0.0072 -0.006,-0.03052 0.007,-0.03003 0.25319,-0.01506 0.50764,-0.01303 0.76176,-0.0053 0.0198,-3.35e-4 0.0407,0.0032 0.0596,3.5e-4 0.10025,-0.07984 0.20051,-0.159664 0.30074,-0.239534 -0.2185,-0.006 -0.43705,-0.0083 -0.65562,-0.007 z" />
      <path
         id="path19197-7"
         style="fill:#1a1a1a;stroke-width:0.16628"
         d="m 119.5584,64.708125 c -0.11159,0.0043 -0.2216,0.03493 -0.32078,0.08582 -0.0756,0.04367 -0.14186,0.101832 -0.20015,0.166555 -0.0498,0.05366 -0.10233,0.104828 -0.15017,0.159904 -0.0428,0.05257 -0.12611,0.156953 -0.12736,0.399304 1.5e-4,0.12351 0.0177,0.246403 0.041,0.367426 0.0213,0.09506 0.0528,0.188936 0.10239,0.273098 0.0378,0.06066 0.0845,0.115579 0.13976,0.160945 0.0584,0.05016 0.12908,0.08566 0.20316,0.105929 0.058,0.01536 0.11833,0.02249 0.17825,0.01684 0.10335,-0.0076 0.19989,-0.05561 0.2799,-0.119648 0.0499,-0.04023 0.0949,-0.08613 0.13741,-0.133971 0.0283,-0.02962 0.0589,-0.05747 0.0852,-0.08876 0.0111,-0.02207 0.0297,-0.03984 0.0424,-0.06128 0.035,-0.04984 0.0576,-0.107106 0.0706,-0.166369 0.0262,-0.104556 0.0113,-0.212971 -0.002,-0.318163 -0.002,-0.01533 -0.004,-0.03066 -0.006,-0.04598 -0.0843,-0.0032 -0.16881,-0.0014 -0.25284,0.0056 -0.018,0.0028 -0.0374,0.0037 -0.0544,0.0093 -0.0809,0.08472 -0.16178,0.169456 -0.24265,0.254194 0.0749,-0.01065 0.14921,-0.02805 0.2252,-0.02868 0.0348,-0.0014 0.0695,-0.0032 0.10423,-0.0039 0.0123,0.08196 0.016,0.166282 0.001,0.248254 -0.011,0.04795 -0.0229,0.09827 -0.0524,0.138351 -0.0621,0.04169 -0.13464,0.07065 -0.21002,0.07254 -0.007,1.7e-5 -0.0233,9.85e-4 -0.0341,3.49e-4 -0.088,-0.0041 -0.17477,-0.03391 -0.24636,-0.08534 -0.0539,-0.04111 -0.10189,-0.09021 -0.1385,-0.147474 -0.038,-0.05828 -0.0626,-0.12431 -0.0827,-0.190625 -0.0265,-0.09101 -0.0388,-0.185442 -0.0496,-0.279381 -0.0116,-0.117007 -0.0144,-0.238879 0.0267,-0.350916 0.0116,-0.03171 0.025,-0.06372 0.0443,-0.09136 0.041,-0.03175 0.0876,-0.05541 0.13669,-0.07208 0.0718,-0.02658 0.14839,-0.04195 0.22507,-0.04082 0.0311,7.22e-4 0.0661,0.0063 0.0975,0.01513 0.0435,0.01474 0.0842,0.03757 0.1215,0.06404 0.0512,0.04063 0.0964,0.08907 0.1305,0.145067 0.0375,0.05807 0.069,0.11969 0.10046,0.181206 0.07,-0.0734 0.14017,-0.146769 0.21019,-0.220216 -0.0451,-0.08737 -0.0914,-0.17577 -0.15661,-0.250171 -0.0441,-0.04702 -0.0928,-0.09095 -0.15079,-0.120003 -0.0455,-0.0262 -0.0958,-0.04399 -0.14807,-0.04987 -0.0261,-0.0049 -0.0525,-0.0051 -0.0789,-0.0051 z"
         sodipodi:nodetypes="scccccccccccccccccccccccccccccccccccccccccss" />
      <path
         id="path19205-2"
         style="fill:#1a1a1a;stroke-width:0.165206"
         d="m 121.08342,64.710054 c -0.17724,0.0044 -0.35452,7.22e-4 -0.53178,-9.85e-4 -0.079,0.07148 -0.15796,0.142926 -0.23697,0.214357 0.0452,0.0067 0.0899,0.01994 0.13603,0.0175 0.0457,3.5e-4 0.0915,2.2e-4 0.13724,-1.85e-4 -0.007,0.423316 0.007,0.84663 0.003,1.269956 -0.0202,9.85e-4 -0.0416,-0.0018 -0.0609,0.0014 -0.0957,0.0771 -0.19135,0.154173 -0.28705,0.231227 0.2081,7.23e-4 0.41622,-9.85e-4 0.6243,0.0025 0.0965,-0.07774 0.19296,-0.155472 0.28943,-0.233214 -0.10786,2.89e-4 -0.21572,9.85e-4 -0.32357,-3.5e-4 0.006,-0.424311 0.0131,-0.848672 0.008,-1.27303 0.0322,-4.1e-5 0.0644,3.5e-4 0.0967,7.23e-4 0.0854,-0.07726 0.17084,-0.154518 0.25629,-0.231762 -0.0368,7.22e-4 -0.0736,0.0014 -0.11039,0.0021 z" />
      <path
         id="path19237-7"
         style="fill:#1a1a1a;stroke-width:0.155158"
         d="m 118.54019,64.76382 c -0.0648,0.05221 -0.12958,0.104401 -0.19435,0.15663 -0.0113,0.316606 -5.6e-4,0.633393 0.007,0.949946 -0.24975,-0.382686 -0.5132,-0.757371 -0.79037,-1.122751 -0.0632,0.0421 -0.12327,0.08846 -0.17787,0.140307 -0.009,0.0096 -0.0222,0.01767 -0.0286,0.02829 0.007,0.420937 0.0132,0.84198 0.007,1.262966 -0.001,0.08888 -0.005,0.177718 -0.007,0.266574 0.0772,-0.07302 0.15432,-0.146052 0.23149,-0.219077 0.014,-0.318277 -0.004,-0.636692 -0.005,-0.955033 0.21668,0.327061 0.44651,0.646092 0.67872,0.963378 0.0292,0.03968 0.0583,0.07934 0.0877,0.118918 0.0386,-0.0021 0.0756,-0.01366 0.10944,-0.03101 0.0506,-0.02476 0.0975,-0.05565 0.14341,-0.08736 0.004,-0.509179 -0.002,-1.018401 0.006,-1.527555 -0.0231,0.01862 -0.0462,0.0372 -0.0692,0.05579 z" />
      <path
         id="path19237-7-6"
         style="fill:#1a1a1a;stroke-width:0.155158"
         d="m 122.52797,64.76382 c -0.0648,0.05221 -0.12959,0.104401 -0.19435,0.15663 -0.0113,0.316606 -5.6e-4,0.633393 0.007,0.949946 -0.24974,-0.382686 -0.5132,-0.757371 -0.79037,-1.122751 -0.0632,0.0421 -0.12326,0.08846 -0.17786,0.140307 -0.009,0.0096 -0.0222,0.01767 -0.0286,0.02829 0.007,0.420937 0.0132,0.84198 0.007,1.262966 -0.001,0.08888 -0.005,0.177718 -0.007,0.266574 0.0772,-0.07302 0.15431,-0.146052 0.23148,-0.219077 0.0141,-0.318277 -0.004,-0.636692 -0.005,-0.955033 0.21668,0.327061 0.44652,0.646092 0.67872,0.963378 0.0292,0.03968 0.0583,0.07934 0.0877,0.118918 0.0386,-0.0021 0.0756,-0.01366 0.10945,-0.03101 0.0506,-0.02476 0.0975,-0.05565 0.14341,-0.08736 0.004,-0.509179 -0.002,-1.018401 0.006,-1.527555 -0.0231,0.01862 -0.0462,0.0372 -0.0692,0.05579 z" />
      <path
         id="path19249-3"
         style="fill:#1a1a1a;stroke-width:0.165164"
         d="m 126.02496,64.767396 c -0.0588,0.05084 -0.11764,0.101664 -0.17645,0.152524 0.009,0.464634 0.002,0.929359 0.005,1.394029 -0.003,0.04391 -0.005,0.0879 -0.007,0.13184 0.0835,-0.07211 0.16691,-0.144243 0.25039,-0.216334 0.004,-0.189435 0.005,-0.378901 0.004,-0.568359 0.0793,-0.0045 0.15878,-0.006 0.23779,-0.0138 0.0198,0.03098 0.0388,0.06101 0.0572,0.09142 0.0434,0.06901 0.0746,0.143929 0.11137,0.216118 0.0443,0.09265 0.0939,0.182945 0.13855,0.275431 0.0278,0.05817 0.061,0.113787 0.0926,0.170141 0.075,-0.06695 0.15004,-0.133884 0.22506,-0.200831 -0.0366,-0.06297 -0.071,-0.127105 -0.10232,-0.192596 -0.0408,-0.0825 -0.0848,-0.163504 -0.12413,-0.246643 -0.0373,-0.07564 -0.0727,-0.152168 -0.11574,-0.225122 0.0587,-0.04061 0.10793,-0.09141 0.16307,-0.135896 0.0289,-0.0234 0.0535,-0.05026 0.0791,-0.07681 0.0651,-0.06965 0.10928,-0.161437 0.1032,-0.255547 -0.007,-0.05519 -0.0315,-0.108896 -0.0713,-0.150337 -0.0325,-0.03685 -0.0748,-0.06542 -0.12212,-0.08293 -0.0922,-0.03931 -0.19392,-0.05141 -0.29357,-0.06202 -0.1114,-0.01167 -0.22434,-0.0061 -0.33478,0.01079 -0.0169,0.0041 -0.033,0.01058 -0.049,0.01708 -2.6e-4,-0.03049 -4.5e-4,-0.06101 -6.6e-4,-0.09152 -0.0229,0.01981 -0.0458,0.03958 -0.0687,0.05936 z m 0.17666,0.216603 c 0.0964,0.0018 0.19276,0.0132 0.28676,0.03332 0.0478,0.01184 0.0953,0.02804 0.13718,0.05302 0.0434,0.03063 0.0785,0.07354 0.0904,0.124017 0.011,0.04104 -4.9e-4,0.08446 -0.016,0.123148 -0.0102,0.0206 -0.0202,0.0423 -0.0353,0.05984 -0.073,0.04536 -0.1627,0.05288 -0.24772,0.05748 -0.1061,0.0057 -0.21241,0.0085 -0.31825,0.01778 -0.001,-0.154742 -0.003,-0.309481 -0.005,-0.464219 0.0356,-0.0028 0.0714,-0.0046 0.1072,-0.0044 z" />
      <path
         id="path19297-4"
         style="fill:#1a1a1a;stroke-width:0.173124"
         d="m 127.28138,66.074432 c -0.0637,0.06369 -0.12741,0.12737 -0.19112,0.191066 0.0307,0.0415 0.0627,0.08604 0.0665,0.139396 0.006,0.05949 -0.016,0.117701 -0.0449,0.168664 -0.004,0.0071 -0.013,0.02235 -0.0198,0.03211 -0.0136,0.02281 -0.0324,0.04255 -0.0457,0.06513 -0.012,0.03523 -0.024,0.07045 -0.0361,0.105681 0.0357,-0.01681 0.0725,-0.03192 0.10749,-0.04978 0.0973,-0.09259 0.19835,-0.187613 0.25736,-0.310424 0.0401,-0.08154 0.0502,-0.18004 0.0147,-0.265069 -0.0162,-0.04248 -0.0439,-0.07894 -0.0681,-0.116992 -0.0134,0.01341 -0.0269,0.02681 -0.0402,0.04021 z" />
    </g>
    <g
       id="g7897"
       transform="translate(0.65739095)"
       style="fill:#1a1a1a">
      <path
         id="path19165-0"
         style="fill:#1a1a1a;stroke-width:0.150161"
         d="m 116.71138,67.613198 c -0.0583,0.04842 -0.13109,0.08273 -0.17543,0.144784 -0.0135,0.02091 -0.0184,0.04595 -0.0283,0.06853 -0.14342,0.379021 -0.31586,0.747593 -0.46047,1.126608 -0.046,0.118724 -0.0852,0.239608 -0.1258,0.360022 0.0895,-0.07979 0.17893,-0.159625 0.26835,-0.239484 0.0547,-0.122426 0.1044,-0.246733 0.15174,-0.371816 0.18174,0.0037 0.36355,0.0062 0.54531,0.0025 0.07,0.185513 0.13792,0.371828 0.19532,0.561197 0.003,0.01474 0.0168,-0.0099 0.0246,-0.01332 0.0639,-0.05693 0.12764,-0.113944 0.19153,-0.170852 -0.16849,-0.458861 -0.31688,-0.924106 -0.49245,-1.38066 -0.0164,-0.04182 -0.0327,-0.08363 -0.0491,-0.125442 -0.0151,0.01264 -0.0302,0.02529 -0.0453,0.03793 z m -0.0695,0.426139 c 0.0531,0.154006 0.10983,0.306846 0.16748,0.459379 -0.13059,5.61e-4 -0.2612,-6.11e-4 -0.39179,-3.82e-4 0.0648,-0.175799 0.12915,-0.351875 0.20212,-0.52488 0.007,0.02196 0.0148,0.04392 0.0222,0.06588 z" />
      <path
         id="path19165-0-2"
         style="fill:#1a1a1a;stroke-width:0.150161"
         d="m 122.89057,67.613198 c -0.0583,0.04842 -0.13109,0.08273 -0.17544,0.144784 -0.0135,0.02091 -0.0184,0.04595 -0.0283,0.06853 -0.14341,0.379021 -0.31585,0.747593 -0.46046,1.126608 -0.046,0.118724 -0.0852,0.239608 -0.1258,0.360022 0.0895,-0.07979 0.17892,-0.159625 0.26835,-0.239484 0.0546,-0.122426 0.10439,-0.246733 0.15173,-0.371816 0.18174,0.0037 0.36356,0.0062 0.54532,0.0025 0.07,0.185513 0.13792,0.371828 0.19532,0.561197 0.003,0.01474 0.0168,-0.0099 0.0246,-0.01332 0.0639,-0.05693 0.12764,-0.113944 0.19153,-0.170852 -0.16849,-0.458861 -0.31688,-0.924106 -0.49245,-1.38066 -0.0164,-0.04182 -0.0327,-0.08363 -0.0491,-0.125442 -0.0151,0.01264 -0.0302,0.02529 -0.0453,0.03793 z m -0.0695,0.426139 c 0.0531,0.154006 0.10984,0.306846 0.16749,0.459379 -0.1306,5.61e-4 -0.2612,-6.11e-4 -0.3918,-3.82e-4 0.0648,-0.175799 0.12916,-0.351875 0.20213,-0.52488 0.007,0.02196 0.0148,0.04392 0.0222,0.06588 z" />
      <path
         id="path19205-2-3"
         style="fill:#1a1a1a;stroke-width:0.16522"
         d="m 120.75772,67.577649 c -0.17726,0.0043 -0.35456,6.17e-4 -0.53182,-0.0012 -0.079,0.07149 -0.15799,0.142941 -0.237,0.21438 0.0453,0.0067 0.0899,0.01992 0.13605,0.01752 0.0458,4.99e-4 0.0915,2.15e-4 0.13724,-1.91e-4 -0.007,0.42335 0.007,0.846701 0.003,1.270065 -0.0202,0.0012 -0.0416,-0.0018 -0.061,0.0012 -0.0957,0.07711 -0.19137,0.154185 -0.28707,0.23125 0.20811,6.17e-4 0.41625,-0.0012 0.62435,0.0025 0.0965,-0.07774 0.19297,-0.15548 0.28945,-0.23323 -0.10787,2.84e-4 -0.21573,0.0012 -0.32359,-4.07e-4 0.005,-0.424344 0.0131,-0.848744 0.008,-1.273138 0.0323,-3.6e-5 0.0644,4.69e-4 0.0967,6.17e-4 0.0854,-0.07727 0.17086,-0.154536 0.2563,-0.23178 -0.0369,6.17e-4 -0.0736,0.0012 -0.11039,0.0018 z" />
      <path
         id="path19237-7-5"
         style="fill:#1a1a1a;stroke-width:0.15517"
         d="m 124.71615,67.631031 c -0.0648,0.05218 -0.12959,0.104408 -0.19436,0.15664 -0.0113,0.31663 -5.5e-4,0.633444 0.007,0.950025 -0.24977,-0.382722 -0.51324,-0.757437 -0.79044,-1.122845 -0.0632,0.04213 -0.12327,0.08846 -0.17788,0.14032 -0.009,0.0096 -0.0222,0.01764 -0.0287,0.02831 0.007,0.42097 0.0132,0.842051 0.007,1.26307 -0.001,0.08888 -0.005,0.177729 -0.007,0.266594 0.0772,-0.07303 0.15434,-0.146062 0.23151,-0.219093 0.014,-0.318307 -0.004,-0.636744 -0.005,-0.955114 0.21669,0.327092 0.44655,0.646146 0.67877,0.96346 0.0292,0.03966 0.0583,0.07934 0.0877,0.118928 0.0386,-0.0018 0.0756,-0.0137 0.10945,-0.03102 0.0506,-0.0248 0.0975,-0.05564 0.14342,-0.08737 0.004,-0.509218 -0.003,-1.018485 0.006,-1.527678 -0.023,0.01863 -0.0462,0.03719 -0.0692,0.05582 z" />
      <path
         id="path19249-3-6"
         style="fill:#1a1a1a;stroke-width:0.165178"
         d="m 117.53261,67.634623 c -0.0589,0.05083 -0.11766,0.10167 -0.17646,0.152532 0.009,0.464678 0.003,0.929442 0.005,1.394144 -0.003,0.04392 -0.005,0.08791 -0.007,0.131857 0.0835,-0.07211 0.16691,-0.144254 0.25041,-0.216354 0.003,-0.189449 0.005,-0.378934 0.004,-0.568408 0.0793,-0.0043 0.15879,-0.0062 0.2378,-0.01381 0.0198,0.03097 0.0389,0.061 0.0572,0.09143 0.0434,0.06902 0.0746,0.14394 0.11137,0.216132 0.0443,0.09266 0.0939,0.182966 0.13856,0.275457 0.0278,0.05817 0.0611,0.113796 0.0927,0.170155 0.075,-0.06696 0.15005,-0.133892 0.22508,-0.200848 -0.0367,-0.06297 -0.071,-0.127113 -0.10233,-0.192606 -0.0408,-0.0825 -0.0848,-0.163524 -0.12416,-0.24667 -0.0372,-0.07564 -0.0727,-0.152182 -0.11574,-0.225138 0.0587,-0.04059 0.10793,-0.09142 0.16309,-0.135909 0.0289,-0.02338 0.0536,-0.05027 0.0791,-0.07681 0.0652,-0.06966 0.10929,-0.161452 0.10321,-0.255565 -0.007,-0.0552 -0.0315,-0.108911 -0.0713,-0.150349 -0.0325,-0.03689 -0.0748,-0.06543 -0.12213,-0.08294 -0.0922,-0.03929 -0.19395,-0.05138 -0.29359,-0.06203 -0.11143,-0.01166 -0.22437,-0.0062 -0.33482,0.01079 -0.0169,0.0043 -0.033,0.01061 -0.0491,0.01708 -2.5e-4,-0.03053 -4.5e-4,-0.061 -6.2e-4,-0.09152 -0.0229,0.0198 -0.0458,0.0396 -0.0687,0.05934 z m 0.17667,0.216619 c 0.0964,0.0018 0.19277,0.0132 0.28679,0.03331 0.0478,0.01184 0.0953,0.02807 0.13718,0.05305 0.0433,0.03065 0.0785,0.07354 0.0904,0.124022 0.011,0.04102 -5e-4,0.08447 -0.016,0.12316 -0.0102,0.0206 -0.0202,0.04232 -0.0354,0.05983 -0.073,0.04534 -0.16272,0.05286 -0.24774,0.05749 -0.1061,0.0056 -0.21243,0.0085 -0.31828,0.01776 -10e-4,-0.154753 -0.003,-0.309505 -0.005,-0.464258 0.0357,-0.0025 0.0714,-0.0043 0.10721,-0.0043 z" />
      <path
         id="path19257-1"
         style="fill:#1a1a1a;stroke-width:0.167357"
         d="m 121.48243,67.57528 c -0.15077,-0.0018 -0.2876,0.12881 -0.42946,0.27597 -0.0242,0.02714 -0.0412,0.06039 -0.0524,0.09463 -0.008,0.03966 -0.0102,0.08051 -0.003,0.120551 0.0137,0.106709 0.078,0.199737 0.15536,0.271423 0.0275,0.028 0.0611,0.04885 0.0922,0.07251 0.12209,0.08661 0.25469,0.158164 0.37148,0.252222 0.0488,0.04108 0.0956,0.08571 0.13326,0.137414 0.0233,0.0322 0.0389,0.07074 0.0507,0.106499 0.0126,0.04583 0.0158,0.09484 0.008,0.141763 -0.0786,0.03343 -0.1844,0.03047 -0.25447,0.01634 -0.0564,-0.01332 -0.11317,-0.03202 -0.1624,-0.06076 -0.053,-0.03109 -0.10357,-0.06728 -0.14473,-0.113327 -0.0321,-0.03516 -0.0656,-0.0715 -0.0844,-0.115875 -0.008,-0.02486 -0.0157,-0.04965 -0.0236,-0.07451 -0.0719,0.0742 -0.14384,0.148412 -0.21578,0.222589 0.01,0.03849 0.0269,0.07495 0.0516,0.106278 0.0402,0.05403 0.0868,0.103952 0.14003,0.14534 0.0592,0.04336 0.12263,0.08242 0.19319,0.104057 0.0716,0.0256 0.14774,0.03775 0.22371,0.03411 0.0615,-0.0018 0.12242,-0.01628 0.18016,-0.03719 0.0989,-0.06421 0.18776,-0.136131 0.28983,-0.264928 0.0333,-0.04206 0.0438,-0.09939 0.0441,-0.153562 10e-4,-0.05829 -0.007,-0.117183 -0.0304,-0.170988 -0.0228,-0.05872 -0.0594,-0.111051 -0.10349,-0.155733 -0.0654,-0.07083 -0.14298,-0.128903 -0.22341,-0.181541 -0.10702,-0.07179 -0.21974,-0.135922 -0.31977,-0.217533 -0.0589,-0.05459 -0.11266,-0.119995 -0.13267,-0.199348 -0.007,-0.03226 -0.0125,-0.06583 -0.008,-0.09879 0.0762,-0.02949 0.16187,-0.02325 0.23839,0.0018 0.0612,0.02258 0.11935,0.05533 0.1659,0.101528 0.0514,0.04614 0.0842,0.108245 0.11905,0.166854 0.0242,0.0454 0.046,0.09204 0.069,0.138044 0.0705,-0.07274 0.14104,-0.145452 0.21154,-0.218186 -0.0313,-0.06411 -0.0623,-0.128477 -0.10152,-0.188234 -0.0294,-0.04879 -0.0653,-0.09384 -0.10926,-0.13037 -0.0541,-0.0491 -0.1204,-0.08296 -0.18886,-0.107024 -0.0518,-0.01153 -0.10449,-0.02152 -0.14963,-0.02202 z"
         sodipodi:nodetypes="sccccccccccccccccccccscccccccccccccccs" />
      <path
         id="path19259-9"
         style="fill:#1a1a1a;stroke-width:0.161365"
         d="m 119.86515,67.577422 c -0.36352,0.01018 -0.72725,0.01326 -1.09066,0.02677 -0.012,0.0025 -0.0241,0.0056 -0.0313,0.01616 -0.0716,0.0708 -0.14325,0.141578 -0.21483,0.212401 0.19074,0.0043 0.38157,0.0049 0.57231,2.33e-4 0.001,0.493391 -0.005,0.986776 -10e-4,1.480166 0.0777,-0.07526 0.15551,-0.150485 0.23324,-0.225761 2.3e-4,-0.420137 -0.002,-0.840281 3.9e-4,-1.260418 0.14239,-0.0043 0.2848,-0.0085 0.42723,-0.01148 0.064,-0.08009 0.1281,-0.160187 0.19219,-0.240244 -0.0291,6.17e-4 -0.0581,0.0012 -0.0872,0.0025 z" />
      <path
         id="path19297-4-9"
         style="fill:#1a1a1a;stroke-width:0.173124"
         d="m 125.06509,68.958319 c -0.0637,0.06369 -0.12741,0.127371 -0.19111,0.191066 0.0307,0.0415 0.0627,0.08604 0.0665,0.139397 0.006,0.05949 -0.016,0.117701 -0.0449,0.168664 -0.004,0.0071 -0.013,0.02235 -0.0198,0.03211 -0.0136,0.02281 -0.0324,0.04255 -0.0457,0.06513 -0.012,0.03523 -0.024,0.07045 -0.0361,0.105681 0.0357,-0.01681 0.0725,-0.03192 0.10749,-0.04978 0.0973,-0.09259 0.19834,-0.187613 0.25736,-0.310425 0.0401,-0.08154 0.0502,-0.180039 0.0147,-0.265068 -0.0162,-0.04248 -0.0439,-0.07894 -0.0681,-0.116991 -0.0134,0.01341 -0.0269,0.02681 -0.0402,0.04021 z" />
    </g>
    <g
       id="g7903"
       transform="translate(-9.6648059,2.6469019)"
       style="fill:#1a1a1a">
      <path
         id="path19175-8"
         style="fill:#1a1a1a;stroke-width:0.164092"
         d="m 129.41185,67.575432 c -0.10455,0.0037 -0.20748,0.03615 -0.29751,0.08887 -0.0539,0.03205 -0.10222,0.07266 -0.14571,0.11774 -0.0453,0.04631 -0.0923,0.09083 -0.13771,0.13696 -0.0437,0.04888 -0.083,0.102186 -0.11034,0.162065 -0.0553,0.111012 -0.0919,0.232126 -0.0991,0.356306 -0.007,0.102892 -0.001,0.206471 0.0122,0.308614 0.0227,0.128693 0.0663,0.257596 0.15127,0.359072 0.0714,0.08825 0.16376,0.165348 0.27549,0.194448 0.0893,0.0219 0.18257,0.01375 0.27266,0.0014 0.0711,-0.01173 0.14,-0.03747 0.20231,-0.07353 0.0547,-0.03255 0.10088,-0.07683 0.14531,-0.12196 0.16952,-0.150227 0.24849,-0.350969 0.30333,-0.546898 -0.0914,0.09219 -0.18281,0.184402 -0.27426,0.276558 -0.0151,0.05541 -0.0374,0.108823 -0.0634,0.159964 -0.007,0.0158 -0.0266,0.01908 -0.0404,0.02723 -0.0464,0.02112 -0.0987,0.03807 -0.14742,0.0435 -0.0808,0.0092 -0.16547,0.01741 -0.24419,-0.0085 -0.0994,-0.03431 -0.17696,-0.111588 -0.2373,-0.195166 -0.0556,-0.07939 -0.0854,-0.173568 -0.1042,-0.267811 -0.004,-0.01979 -0.007,-0.0454 -0.009,-0.06761 -0.0141,-0.15149 -0.0146,-0.308838 0.0385,-0.453507 0.0108,-0.0327 0.0265,-0.06828 0.0399,-0.09694 0.0123,-0.02433 0.0232,-0.05018 0.0394,-0.07193 0.0758,-0.0504 0.1648,-0.08094 0.25535,-0.0893 0.0691,-0.0057 0.1408,0.0033 0.20231,0.03697 0.0661,0.0327 0.11614,0.09044 0.15146,0.154139 0.0398,0.0632 0.0721,0.13063 0.10695,0.196613 0.0719,-0.07251 0.14372,-0.145006 0.21562,-0.217481 -0.0413,-0.08026 -0.083,-0.160627 -0.13411,-0.235117 -0.0531,-0.07357 -0.12996,-0.129175 -0.21663,-0.156075 -0.0485,-0.01591 -0.10002,-0.01988 -0.15074,-0.01871 z"
         sodipodi:nodetypes="sccccccccccccccccccccccccccccccss" />
      <path
         id="path19183-5-1"
         style="fill:#1a1a1a;stroke-width:0.190046"
         d="m 126.69199,67.575585 c -0.1809,9.85e-4 -0.36178,0.0032 -0.54267,0.0049 -0.062,0.06113 -0.12404,0.122216 -0.18605,0.183342 -0.0144,0.316749 -0.0145,0.633906 -0.0124,0.950915 0.001,0.196198 0.001,0.392407 -10e-4,0.588592 0.36689,0.0109 0.735,0.01996 1.101,-0.0141 0.0862,-0.0794 0.17232,-0.158783 0.25847,-0.238179 -0.23582,-0.0095 -0.47185,-0.01345 -0.70786,-0.01197 -0.13129,4.77e-4 -0.26256,0.0024 -0.39383,0.0046 0.007,-0.166589 0.005,-0.333351 0.007,-0.500036 0.17083,-0.0034 0.34203,7.23e-4 0.51248,-0.01309 0.0907,-0.08261 0.18132,-0.16529 0.27196,-0.247957 -0.12374,-0.002 -0.24751,-0.002 -0.37121,0.0026 -0.13659,0.0043 -0.27242,0.01035 -0.4091,0.01172 0.002,-0.146617 -0.004,-0.293269 4.7e-4,-0.439865 0.003,-0.0072 -0.005,-0.03053 0.007,-0.03004 0.25323,-0.01506 0.50769,-0.01304 0.76185,-0.0053 0.0197,-3.36e-4 0.0407,0.003 0.0596,4.46e-4 0.10026,-0.07984 0.20053,-0.159681 0.30077,-0.239556 -0.21853,-0.006 -0.43709,-0.0083 -0.65569,-0.007 z" />
      <path
         id="path19259-9-27"
         style="fill:#1a1a1a;stroke-width:0.161368"
         d="m 128.70916,67.577411 c -0.36354,0.01015 -0.72728,0.01326 -1.0907,0.02679 -0.012,0.0028 -0.0241,0.0055 -0.0313,0.01614 -0.0716,0.0708 -0.14324,0.141582 -0.21483,0.212403 0.19074,0.0045 0.38158,0.0049 0.57232,2.35e-4 0.001,0.493401 -0.004,0.986795 -10e-4,1.480196 0.0777,-0.07526 0.15551,-0.150491 0.23324,-0.225764 2.3e-4,-0.420147 -0.002,-0.8403 3.9e-4,-1.260444 0.14241,-0.0042 0.28481,-0.0085 0.42725,-0.01148 0.064,-0.0801 0.1281,-0.16019 0.19219,-0.240252 -0.0291,7.89e-4 -0.0581,0.0015 -0.0872,0.0023 z" />
      <path
         id="path19299-9"
         style="fill:#1a1a1a;stroke-width:0.136886"
         d="m 130.13398,69.133727 c -0.0493,0.04935 -0.0987,0.09869 -0.14807,0.148042 0.038,0.08114 0.0924,0.153682 0.15458,0.217794 0.008,0.0075 0.0161,-0.0126 0.0241,-0.01689 0.0533,-0.05335 0.10673,-0.106692 0.16008,-0.160046 -0.0556,-0.05959 -0.10865,-0.123546 -0.14173,-0.198802 -0.005,-0.0059 -0.008,-0.02752 -0.0154,-0.02366 -0.0112,0.01119 -0.0224,0.02238 -0.0336,0.03356 z" />
    </g>
  </g>
</svg>
