<?xml version="1.0" encoding="UTF-8" standalone="no"?>
<!-- Created with Inkscape (http://www.inkscape.org/) -->

<svg
   width="1080"
   height="280"
   viewBox="0 0 1080 280"
   version="1.1"
   id="svg2119"
   inkscape:version="1.2.2 (b0a8486541, 2022-12-01)"
   sodipodi:docname="wordmark.svg"
   xmlns:inkscape="http://www.inkscape.org/namespaces/inkscape"
   xmlns:sodipodi="http://sodipodi.sourceforge.net/DTD/sodipodi-0.dtd"
   xmlns="http://www.w3.org/2000/svg"
   xmlns:svg="http://www.w3.org/2000/svg">
  <sodipodi:namedview
     id="namedview2121"
     pagecolor="#232323"
     bordercolor="#666666"
     borderopacity="1.0"
     inkscape:showpageshadow="2"
     inkscape:pageopacity="0"
     inkscape:pagecheckerboard="0"
     inkscape:deskcolor="#d1d1d1"
     inkscape:document-units="mm"
     showgrid="false"
     inkscape:zoom="0.84096521"
     inkscape:cx="393.59536"
     inkscape:cy="139.72041"
     inkscape:window-width="1900"
     inkscape:window-height="1040"
     inkscape:window-x="10"
     inkscape:window-y="30"
     inkscape:window-maximized="1"
     inkscape:current-layer="layer1" />
  <defs
     id="defs2116" />
  <g
     inkscape:label="Layer 1"
     inkscape:groupmode="layer"
     id="layer1"
     transform="translate(99.637806,9.2568175)">
    <g
       id="g384"
       transform="translate(-125.89538,10)">
      <path
         d="m 278.96589,27.830667 q 2.42428,0 3.87884,1.623545 1.45456,1.461191 1.45456,3.896509 -0.32323,5.195344 -6.46473,5.195344 -0.80809,0 -3.39398,-0.324709 -1.93942,-0.487063 -3.55561,-0.487063 -0.16161,0 -18.5861,-0.324709 l -5.01017,-0.162355 v 6.981245 q 0,18.67077 -0.96971,21.593152 -0.16161,0.649418 -0.16161,2.272964 0,0.487063 0,2.597672 0.16161,1.948255 0.32323,8.117726 0.16162,6.007118 0.32324,12.826011 0.32324,6.49417 0.32324,10.065981 0,3.73415 0.32323,4.38357 0.16162,0.16235 0.16162,2.76003 0,3.73415 -0.32324,4.87063 -0.48485,1.13648 -0.64647,3.40944 -0.32324,2.76004 -1.45456,3.57181 -1.93942,1.46119 -5.17179,1.46119 -1.45456,0 -2.90913,-1.46119 -1.45456,-1.4612 -1.93942,-4.38358 -0.32324,-2.59767 -0.32324,-2.92237 0,-0.64943 0.48486,-2.59768 0.64647,-2.11061 0.64647,-10.71539 0,-8.442441 -0.16162,-8.604801 -0.64647,-0.81177 -0.64647,-17.534286 0,-12.338945 0.48486,-15.74839 0.64647,-4.545926 0.64647,-13.313071 0,-5.195345 -0.32324,-5.844763 -0.48485,-0.811773 -2.58589,-0.974127 -2.58589,-0.324709 -7.9193,-0.324709 -5.01016,0 -8.889,0.324709 -1.61618,0.162354 -4.84855,0.162354 -6.1415,0 -7.59606,-0.974127 -2.58589,-1.7859 -2.58589,-4.870635 0,-2.110609 1.29294,-3.247091 0.96971,-0.974127 3.71722,-0.974127 1.13133,0 1.61619,0.162355 0.80809,0.324709 4.68693,0.324709 0.80809,0 5.3334,0 4.68693,-0.162355 8.72739,-0.162355 17.13154,-0.162354 23.43465,-0.974127 2.90913,-0.324709 6.62635,-0.324709 3.39399,0 4.04046,0.324709 0.64647,0.324709 3.5556,0 1.93942,-0.324709 2.58589,-0.324709 0.80809,0 2.42428,0.162354 1.7778,0.162355 2.74751,0.162355 h 1.7778 q 1.7778,-0.162355 2.90913,0.162355 1.13133,0.162354 1.93942,0.162354 z"
         style="font-weight:bold;font-size:161.986px;line-height:1.25;font-family:Thadscript;-inkscape-font-specification:'Thadscript Bold';fill:#ececec;stroke:#e6e6e6;stroke-width:4"
         id="path3050" />
      <path
         d="m 317.04752,117.34687 q 0,-1.13647 -0.32323,-1.7859 -0.32324,-0.64941 -0.32324,-1.78589 0,-0.81178 -0.32324,-1.62355 -0.16161,-0.97413 0,-2.27297 0.8081,-4.05886 0.8081,-8.92949 0,-1.785901 -0.16162,-2.110611 -0.64648,-1.62354 -1.61618,-1.7859 -1.61619,-0.32471 -1.77781,-0.48707 -0.16161,-0.16235 -1.61618,-0.16235 -3.39398,0 -10.02033,1.29884 -6.46473,1.13648 -7.27283,1.94825 -0.32323,0.32471 -0.32323,4.221221 0,2.59767 0.16161,3.40945 0.64648,3.24709 0.64648,10.71539 0,2.76003 -0.32324,2.92238 -0.64647,0.64943 -0.64647,0.97413 0,0.81178 -3.5556,0.48707 -2.5859,-0.16236 -3.39399,-0.64942 -0.80809,-0.48707 -1.61618,-1.94826 -1.45457,-2.43532 -1.61618,-17.53429 -0.16162,-5.682411 -0.16162,-10.715391 0.64647,-12.01424 0.64647,-19.157838 0,-3.734154 -0.16162,-4.545927 -0.48485,-2.922382 0.16162,-3.5718 0.96971,-1.136482 3.71722,-1.136482 2.58589,0 3.71722,0.974128 0.48486,0.487063 1.13133,0.974127 0.80809,0.487063 0.80809,0.974127 0.16162,0.324709 0.32324,1.623545 0.16162,1.136482 0.16162,3.734155 0,4.870635 -0.32324,8.767143 v 2.597673 q 0,3.896509 0.48485,4.870636 0.16162,0.487064 3.07075,0.487064 h 3.07075 q 0.32324,-0.324709 2.42427,-0.324709 5.65665,-0.324709 8.40416,-0.811773 2.58589,-0.324709 3.39398,-0.324709 h 0.64647 q 1.61619,0 1.61619,-3.896509 v -2.760027 q -0.16162,-9.091853 -0.64648,-12.176589 -0.32323,-1.948255 -0.32323,-2.435318 0,-1.298836 0.96971,-2.760027 0.96971,-1.298836 2.10103,-1.298836 1.45457,0 3.71723,1.136481 3.87883,1.623546 3.87883,4.870636 0,1.136482 -0.16161,1.948255 0,0.324709 -0.16162,0.974127 0,0.487064 0,0.649418 0,0.649418 0.16162,1.623544 0.16161,0.974128 0.16161,1.623546 0,1.136481 -0.16161,1.7859 -0.16162,0.649418 -0.16162,3.571799 0,5.195345 0.48486,8.604791 0,0.162354 0,2.110609 0,1.7859 0,4.87064 0.16161,2.92238 0.16161,5.682401 0.16162,11.20246 0.96971,14.44955 0.64647,2.43532 0.64647,4.05887 0,1.13648 -1.13133,3.73415 l -3.39397,0.32471 q -3.07076,0.16236 -4.3637,-0.64941 -2.5859,-1.94826 -2.5859,-5.35771 z"
         style="font-weight:bold;font-size:161.986px;line-height:1.25;font-family:Thadscript;-inkscape-font-specification:'Thadscript Bold';fill:#ececec;stroke:#e6e6e6;stroke-width:4"
         id="path3052" />
      <path
         d="m 381.6947,85.525387 q -0.48486,-3.084736 -2.42428,-7.468308 -0.16161,-0.162355 -0.32323,-0.162355 -1.29295,0 -5.17178,7.955372 -3.5556,7.143593 -3.5556,8.117733 l 0.16161,0.3247 q 0.32323,0.32471 2.42427,0.32471 1.29295,0 2.42428,0.16236 1.13132,0.16235 1.61618,0.16235 0.16162,0 2.74751,-0.32471 l 3.39399,-0.48707 -0.16163,-1.78589 q 0,-1.62354 -0.48484,-3.734156 -0.48486,-2.110609 -0.64648,-3.084736 z M 371.51274,65.718135 q 0.96972,-1.623545 1.61619,-1.948254 0.64648,-0.32471 2.42427,0 0.48486,0 1.61618,0.162354 1.13134,0 1.45457,0 1.13133,0 1.29295,0.649418 0.16162,0.649418 1.61619,1.461191 1.45456,0.811773 1.61618,1.136482 0,0.162354 0.32323,1.136481 0.32324,0.811773 0.64647,1.298837 1.77781,3.409444 2.5859,5.844762 0.16161,0.324709 1.29295,3.734154 1.13132,3.409446 2.26265,7.305954 0.48486,1.7859 0.80809,3.084736 0.32324,1.298829 0.64647,2.435319 0.32325,1.13648 0.48486,1.62355 0.32323,1.13648 0.32323,1.94825 0,0.16235 0.64648,2.59767 0.64647,2.435321 0.64647,2.760031 0,3.73415 4.20208,12.17658 1.7778,3.57181 1.7778,5.3577 0,1.62355 -0.8081,3.5718 -0.64646,1.94826 -1.29293,1.94826 -0.48486,0 -1.61619,0.81178 -1.13133,0.97412 -2.90913,0.64941 -2.10104,-0.32471 -2.58589,-0.97413 -0.48486,-0.64941 -0.48486,-2.76002 0,-2.27296 -0.48485,-4.22122 -0.32324,-1.94826 -1.13133,-4.38358 -0.8081,-2.59766 -1.13133,-3.57179 -0.48486,-1.7859 -1.45456,-5.19535 l -0.64648,-1.78589 -2.90912,-0.32472 q -1.61619,-0.16235 -4.20208,-0.16235 -2.90913,0 -5.17179,-0.16236 -0.64648,0 -1.7778,0 -1.13133,-0.16234 -1.45456,-0.16234 -3.23237,0 -3.71722,1.13648 -0.32324,1.46118 -2.58589,6.00711 -2.26266,4.38357 -3.55561,6.16948 -0.32324,0.3247 -1.61619,2.92237 -1.29293,2.59768 -2.10103,3.40945 -0.48485,0.48706 -0.96971,1.46119 -0.48486,0.81177 -1.13133,1.29883 -0.48485,0.48707 -1.29294,0.48707 -0.64647,0 -0.96972,-0.16236 -0.16161,0 -0.64647,0 -0.48485,-0.16235 -1.13132,-0.32471 -0.48486,-0.16235 -0.80809,-0.16235 -1.61619,-0.16235 -2.5859,-1.46119 -0.96971,-1.29884 -0.96971,-2.92239 0,-1.29882 0.64647,-2.43531 0.64647,-1.62355 2.74751,-6.00712 2.26267,-4.54593 3.07076,-6.65653 0.16161,-0.48706 1.77779,-3.89651 0.48486,-0.649421 1.29295,-2.435321 0.96971,-1.94825 1.29295,-2.59767 l 2.10104,-3.89651 q 2.74751,-4.383572 3.71721,-6.494181 2.5859,-5.3577 4.68694,-9.254208 3.5556,-6.007117 3.5556,-7.793017 0,-0.811773 0.9697,-2.435318 z"
         style="font-weight:bold;font-size:161.986px;line-height:1.25;font-family:Thadscript;-inkscape-font-specification:'Thadscript Bold';fill:#ececec;stroke:#e6e6e6;stroke-width:4"
         id="path3054" />
      <path
         d="m 429.53376,114.09978 q 0.64648,0 4.52531,-1.62354 4.04046,-1.78591 4.52532,-1.78591 0.48486,0 0.80809,-0.64941 0.16162,-0.32471 1.45456,-0.64941 2.42428,-0.64943 8.24254,-6.49418 5.3334,-5.357711 5.3334,-16.073107 0,-3.571799 -0.96971,-6.007117 -0.80809,-1.948255 -3.07074,-4.058864 -2.10104,-2.110609 -3.07076,-2.110609 h -0.16161 q -0.96971,0 -2.42427,-0.487063 -1.29295,-0.487064 -2.42428,-0.649418 -5.97987,-1.298836 -8.40415,-1.298836 h -1.7778 q -1.93942,0 -3.5556,0.487063 l -1.77781,0.811773 v 8.117726 q 0,11.040111 0.80809,18.183701 0.16162,1.298841 0.16162,5.357701 v 2.11062 1.94825 q 0,2.76002 0.16162,3.40945 0.16162,1.13648 0.32324,1.29883 0.32324,0.16235 1.29294,0.16235 z m 15.51536,3.40945 q -1.93942,1.29883 -2.42427,1.29883 -0.48486,0 -2.5859,0.97413 -1.93942,0.81178 -2.42427,0.81178 -0.64647,0 -1.29294,0.48706 -1.61619,1.13648 -6.1415,1.13648 -2.90913,0 -3.5556,-0.64941 -0.48486,-0.48707 -1.61618,0 -0.48486,0.3247 -1.93942,0.3247 -2.74752,-0.3247 -5.1718,-2.11061 -1.13132,-0.64941 -1.13132,-4.05886 0,-2.11061 0.64648,-2.76003 0.48484,-0.97413 0.48484,-6.65654 0,-25.652009 -0.80809,-37.016825 -0.16161,-3.5718 0.80809,-4.383573 1.13134,-1.136481 2.90914,-1.136481 0.80809,0 3.71722,0.649418 1.29295,0.487063 4.84855,0 3.5556,-0.487064 6.1415,-0.487064 2.58588,0 3.5556,0.487064 2.58588,1.298836 7.43443,2.435318 1.13134,0.324709 2.90913,0.811772 1.93942,0.324709 2.26267,0.324709 2.26265,0.487064 5.01016,2.760028 2.90913,2.110607 3.39399,3.734153 0.32323,0.811772 1.29294,2.110609 0.8081,0.974127 1.45456,3.409445 0.64647,2.272963 0.8081,2.435318 0.32323,0.324709 0.32323,5.3577 0,4.058858 -0.16161,4.870638 -1.13134,6.81889 -2.90913,10.390681 -1.61619,3.5718 -5.17179,6.98125 -2.90913,2.43532 -3.39399,2.76003 l -1.93941,1.46119 q -1.61619,1.94826 -3.23237,1.94826 -0.16162,0 -2.10104,1.29883 z"
         style="font-weight:bold;font-size:161.986px;line-height:1.25;font-family:Thadscript;-inkscape-font-specification:'Thadscript Bold';fill:#ececec;stroke:#e6e6e6;stroke-width:4"
         id="path3056" />
      <path
         d="m 589.50582,25.616567 q 1.61619,-0.974127 2.42428,-0.974127 3.5556,0 5.97987,2.110609 1.45456,1.298836 1.61619,3.571798 0.32323,2.597673 0.32323,6.169473 0,3.896509 0.32323,4.221218 0.16163,0.162354 0.48486,7.630663 0.48486,7.468307 0.48486,7.630662 0.16161,0.487063 0.16161,4.545927 0,3.5718 -0.32323,9.091854 0,3.084735 -0.16162,4.221217 0,0.974127 -0.32324,2.435318 -0.16161,1.298836 -0.32324,3.896508 -0.16161,1.7859 -0.48485,4.708282 -0.32324,2.922382 -0.32324,4.870636 0,0.162355 -0.16161,2.435314 0,2.27297 0,3.73416 v 2.59767 q 0,6.331831 0.9697,11.364811 0.32324,1.94826 0.32324,2.43532 0,1.13649 -0.48485,3.08474 -0.32324,1.94825 -0.32324,3.40944 0,6.16948 -4.20207,6.16948 -3.07076,0 -5.01017,-1.7859 l -1.45456,-1.46119 v -3.08474 q 0,-3.40945 -0.16163,-3.89651 -0.16161,-0.48706 -0.16161,-12.5013 0,-11.689521 0.16161,-12.014231 0.48486,-0.974128 0.48486,-8.767145 0,-0.974127 -9.53548,-0.974127 -11.95976,0 -20.04067,0.811772 -3.87884,0.487064 -8.56576,0.487064 -1.45457,0 -1.93943,0 -0.32324,0 -1.13133,0.324709 -0.80809,0.162354 -0.9697,0.487064 0,0.162354 -0.32325,0.811772 -0.16161,0.649418 -0.16161,1.461191 0,0.649418 0,2.110609 v 1.136482 q 0,2.760019 -0.32323,6.981249 -0.32325,4.05886 -0.32325,6.331821 0,0.48706 0,1.62354 0.16163,0.97414 0.16163,1.62355 0.32323,9.41656 0.32323,10.3907 0,4.87063 -0.80809,6.49418 -1.29295,2.27296 -4.84855,2.27296 -2.74751,0 -4.04046,-1.29884 l -1.61618,-1.29884 -0.32324,-4.54592 q -0.32323,-3.89651 -0.32323,-5.3577 0,-0.64943 0.16161,-2.76003 0.32325,-2.11061 0.32325,-3.5718 0.32323,-4.22122 0.32323,-4.87063 0,-7.305951 1.13133,-19.482549 0.64647,-9.741271 0.64647,-21.430797 0,-6.818891 -0.32324,-12.663653 -0.32323,-3.734154 -0.80809,-10.877754 0,-1.948254 -0.16161,-4.221218 -0.16162,-2.272962 -0.16162,-2.760026 0,-1.948254 3.71722,-2.110609 2.74751,-0.324709 3.23236,0.162355 0.48486,0.487063 1.29295,0.487063 0.96971,0 1.61619,1.298837 0.9697,1.623544 0.9697,7.955371 0,6.169472 0.32323,8.442436 0.16163,0.811772 0.64648,7.955371 0.48486,7.143599 0.8081,8.280081 0,1.7859 -0.32324,1.7859 -0.48486,0.324709 -0.48486,6.169472 0,3.571799 0.32324,3.896508 0.16162,0.162355 2.26265,0.162355 5.49503,0 6.62636,-0.649419 1.7778,-0.811771 11.4749,-1.13648 5.01016,-0.324709 5.33339,-0.487064 1.77781,-0.811773 4.04046,0.162355 0.96972,0.324709 1.77781,0.324709 1.29295,0 4.04046,-0.487064 2.90913,-0.487064 3.87883,-0.487064 h 2.74751 v -1.623545 q 0.16162,-2.922382 0.16162,-8.60479 0,-7.305954 -0.64647,-16.722516 -0.48485,-9.254209 -1.45457,-12.014236 -0.48485,-1.461191 -0.48485,-2.435317 0,-2.110609 1.93942,-3.409445 z"
         style="font-weight:bold;font-size:161.986px;line-height:1.25;font-family:Thadscript;-inkscape-font-specification:'Thadscript Bold';fill:#ececec;stroke:#e6e6e6;stroke-width:4"
         id="path3066" />
      <path
         d="m 655.76927,63.120462 q 0.48484,-0.162354 1.77779,-0.162354 2.90913,0 3.39399,0.811773 0.48486,0.487063 0.80809,0.487063 1.13133,0 2.74751,3.896509 0.48486,1.136482 -0.48486,4.383571 -2.10104,6.331827 -2.10104,15.586036 0,1.7859 -0.48484,2.760019 -0.32325,0.97413 -0.96972,5.52006 -0.64647,4.545931 -0.96971,5.682411 -0.48485,2.43532 0,3.89651 0.80809,2.43532 0.80809,7.63066 0,2.43532 -0.16161,3.24709 -0.32324,1.7859 -2.42428,3.40945 -2.10104,1.46119 -4.20207,1.46119 -1.13133,0 -2.26266,-1.62355 l -1.45457,-1.62355 -2.26265,1.29884 q -3.87884,2.43532 -6.30311,2.59768 -0.80809,0 -2.74752,0.16235 -1.93942,0.16236 -2.90912,0.16236 -1.45457,0 -2.10104,-0.16236 -4.68694,-1.29884 -5.01017,-2.43532 0,-0.48707 -2.10104,-1.13648 -5.65663,-2.27296 -6.94958,-9.74127 -0.16162,-1.78591 -0.80809,-3.5718 -0.64648,-1.29884 -0.64648,-9.578911 0,-2.43532 0.16162,-2.76004 0.48486,-0.97412 0.48486,-9.416557 0,-9.903627 0.16161,-11.689526 0.32324,-6.81889 3.23237,-6.81889 0.80809,0 1.7778,0.974127 0.16161,0.162355 0.96971,0.974127 0.96971,0.649418 1.45457,1.136482 l 1.29294,1.461191 0.16162,5.844762 v 11.202463 5.032991 1.13648 l -0.16162,0.32471 q 0,0.32471 0,0.81177 0,0.48707 0,0.97413 0,0.48706 0,1.94826 0.16162,1.46118 0.16162,2.27296 0.16162,4.383571 0.64648,6.169471 0.64646,1.78589 2.42427,4.70828 2.26265,3.5718 4.84855,3.5718 5.49502,0 8.40415,-4.54592 1.45456,-2.11061 3.39398,-6.65654 1.93943,-4.708281 1.93943,-7.143601 0,-0.64942 0.48484,-2.11061 0.64648,-1.62355 0.48486,-2.43532 -0.16161,-0.48706 0.16162,-3.734152 0.32324,-2.922382 0.32324,-8.767145 0,-1.461191 -0.16163,-4.545927 0,-3.247089 0,-4.870635 0,-4.870636 5.1718,-6.007118 z"
         style="font-weight:bold;font-size:161.986px;line-height:1.25;font-family:Thadscript;-inkscape-font-specification:'Thadscript Bold';fill:#ececec;stroke:#e6e6e6;stroke-width:4"
         id="path3068" />
      <path
         d="m 696.98201,109.06679 q 0.48486,0 0.96972,0.97413 0.48486,0.97413 0.80809,0.97413 0.48486,0 1.61618,0.81177 1.29295,0.81178 1.61619,0.97413 0.64646,0.16235 3.07074,1.62354 2.42427,1.4612 3.71722,1.78591 0.96972,0.3247 2.26266,0.3247 2.10103,0 4.68693,-0.3247 3.71722,-0.32471 4.84855,-0.97414 2.10104,-1.29883 3.23237,-6.00711 0.48485,-2.27296 0.48485,-3.73416 0,-2.1106 -0.16162,-3.73414 -0.32323,-3.896521 -0.80809,-4.708291 -0.48486,-0.97412 -2.42427,-0.97412 h -1.29295 q -1.7778,0 -3.39398,0.3247 -1.45457,0.32471 -1.93942,0.32471 -1.29295,0 -4.04046,-1.29884 -3.87884,-1.94825 -3.87884,-3.40944 0,-1.13649 0.96971,-2.272964 1.29295,-1.7859 3.07075,-1.7859 0.64647,0 1.61618,0.324709 1.13132,0.487064 2.74751,0 0.96971,-0.162354 4.20208,-0.162354 1.29295,0 3.07074,-0.487064 1.93943,-0.487064 3.07076,-0.487064 0.9697,0 1.61618,0.162355 2.26265,0.324709 3.07074,0.974127 0.80809,0.487064 2.74751,2.922385 2.10104,2.59767 2.10104,12.176591 0,9.09185 -2.10104,13.80013 -0.80809,1.94826 -2.42427,3.5718 -1.61619,1.46119 -2.90912,1.62355 -0.64648,0 -5.1718,0.97412 -4.36369,0.97413 -8.40415,0.97413 -4.20207,0 -6.62634,-0.97413 -2.10104,-0.81177 -3.23237,-0.81177 -0.80809,0 -1.93943,-0.81177 -0.9697,-0.64942 -4.36369,-2.27296 -3.23236,-1.78591 -4.84855,-3.40945 -1.77779,-1.7859 -2.10104,-1.7859 -0.32323,0 -1.13132,-0.97413 -0.8081,-1.13648 -0.96971,-1.29884 -0.80809,-0.48706 -0.80809,-1.13648 0,-0.3247 -1.45457,-2.11061 -3.87884,-4.54592 -3.87884,-10.553041 0,-1.62355 0.16163,-2.59767 0.32323,-2.43532 3.23236,-8.767146 4.04045,-9.416563 16.16182,-20.294315 0.80809,-0.649419 6.1415,-3.409446 0.64648,-0.324709 1.29295,-0.324709 0.64647,0 0.96971,-0.324709 0.16162,-0.162354 3.23237,-0.487063 3.07074,-0.487064 3.5556,-0.487064 0.16161,0 1.13133,0.162355 0.96971,0.162354 1.45456,0.162354 2.26266,0 4.3637,1.623545 1.13133,0.811773 1.45456,0.811773 0.32323,0 2.5859,1.623545 2.26265,1.623546 2.58588,2.110609 0.64647,0.649419 1.45456,2.272964 0.96972,1.7859 0.32325,3.409444 -1.29295,2.597673 -3.23237,2.597673 -1.61618,0 -4.20208,-1.7859 -5.17178,-3.571799 -9.05062,-3.571799 -0.16162,0 -0.64648,0.162355 -0.32323,0 -0.48485,0 -1.29294,0.324709 -4.04046,1.785898 -2.26265,1.461191 -2.74751,1.461191 -0.48486,0 -3.5556,3.084736 -3.07074,3.084737 -3.5556,4.221218 -0.48486,0.649418 -1.45457,1.948255 -0.9697,1.136481 -1.45456,1.948254 -0.48486,0.811773 -1.45456,2.110609 -0.80809,1.298836 -1.29295,2.272964 -2.42428,4.870639 -2.74751,6.656529 -0.16162,0.97413 -0.16162,2.76004 0,2.435321 0.80809,4.383571 0.80809,1.62354 0.80809,2.1106 0,0.48706 1.29295,1.94826 1.45456,1.29883 1.77779,1.29883 z"
         style="font-weight:bold;font-size:161.986px;line-height:1.25;font-family:Thadscript;-inkscape-font-specification:'Thadscript Bold';fill:#ececec;stroke:#e6e6e6;stroke-width:4"
         id="path3070" />
      <path
         d="m 784.41759,117.34687 q 0,-1.13647 -0.32323,-1.7859 -0.32324,-0.64941 -0.32324,-1.78589 0,-0.81178 -0.32323,-1.62355 -0.16163,-0.97413 0,-2.27297 0.80809,-4.05886 0.80809,-8.92949 0,-1.785901 -0.16162,-2.110611 -0.64647,-1.62354 -1.61619,-1.7859 -1.61618,-0.32471 -1.7778,-0.48707 -0.16162,-0.16235 -1.61619,-0.16235 -3.39397,0 -10.02033,1.29884 -6.46473,1.13648 -7.27282,1.94825 -0.32324,0.32471 -0.32324,4.221221 0,2.59767 0.16163,3.40945 0.64646,3.24709 0.64646,10.71539 0,2.76003 -0.32323,2.92238 -0.64647,0.64943 -0.64647,0.97413 0,0.81178 -3.55561,0.48707 -2.58589,-0.16236 -3.39398,-0.64942 -0.80809,-0.48707 -1.61618,-1.94826 -1.45457,-2.43532 -1.61618,-17.53429 -0.16163,-5.682411 -0.16163,-10.715391 0.64648,-12.01424 0.64648,-19.157838 0,-3.734154 -0.16162,-4.545927 -0.48486,-2.922382 0.16162,-3.5718 0.96971,-1.136482 3.71722,-1.136482 2.58589,0 3.71722,0.974128 0.48486,0.487063 1.13132,0.974127 0.8081,0.487063 0.8081,0.974127 0.16162,0.324709 0.32324,1.623545 0.16161,1.136482 0.16161,3.734155 0,4.870635 -0.32323,8.767143 v 2.597673 q 0,3.896509 0.48486,4.870636 0.16161,0.487064 3.07074,0.487064 h 3.07075 q 0.32324,-0.324709 2.42428,-0.324709 5.65663,-0.324709 8.40415,-0.811773 2.58588,-0.324709 3.39398,-0.324709 h 0.64647 q 1.61619,0 1.61619,-3.896509 v -2.760027 q -0.16162,-9.091853 -0.64648,-12.176589 -0.32324,-1.948255 -0.32324,-2.435318 0,-1.298836 0.96972,-2.760027 0.9697,-1.298836 2.10103,-1.298836 1.45457,0 3.71722,1.136481 3.87885,1.623546 3.87885,4.870636 0,1.136482 -0.16163,1.948255 0,0.324709 -0.16162,0.974127 0,0.487064 0,0.649418 0,0.649418 0.16162,1.623544 0.16163,0.974128 0.16163,1.623546 0,1.136481 -0.16163,1.7859 -0.16162,0.649418 -0.16162,3.571799 0,5.195345 0.48486,8.604791 0,0.162354 0,2.110609 0,1.7859 0,4.87064 0.16162,2.92238 0.16162,5.682401 0.16161,11.20246 0.9697,14.44955 0.64648,2.43532 0.64648,4.05887 0,1.13648 -1.13132,3.73415 l -3.39399,0.32471 q -3.07074,0.16236 -4.36369,-0.64941 -2.5859,-1.94826 -2.5859,-5.35771 z"
         style="font-weight:bold;font-size:161.986px;line-height:1.25;font-family:Thadscript;-inkscape-font-specification:'Thadscript Bold';fill:#ececec;stroke:#e6e6e6;stroke-width:4"
         id="path3072" />
      <path
         d="m 816.74108,64.581653 q 0.48486,0 0.48486,-0.324709 0,-0.324709 2.58588,-0.324709 2.5859,0 2.5859,0.324709 0,0.324709 1.29295,0 0.48485,-0.162354 2.58589,-0.162354 3.5556,0 4.84855,0.324709 h 0.64648 q 0.48484,0 2.26265,0 1.7778,-0.162355 2.42427,-0.162355 h 0.48486 q 0.64647,0.324709 3.87883,0.324709 1.13133,0 2.90914,0.162355 1.77779,0 1.93941,0 0.96972,0 1.93942,-0.162355 1.13133,-0.162354 1.45457,-0.162354 1.13133,0 2.74751,1.46119 2.90913,2.922382 2.90913,4.870637 0,1.46119 -1.29295,2.760026 -1.29294,1.298836 -3.87884,1.298836 -0.96971,0 -3.87884,-0.649418 -5.81825,-1.461191 -9.53547,-1.461191 h -0.48486 -0.80809 q -0.80809,0 -1.93942,0.162354 -1.13132,0 -2.26266,0 -2.58589,0 -3.71721,0.162355 -1.13134,0 -2.42428,0.649418 -1.13133,0.649418 -1.29295,1.948255 0,0.162354 -0.16162,0.974127 0,0.649418 0,1.136481 0,10.065982 0.96971,11.040109 0.16162,0.162354 1.13133,0.162354 3.5556,0 5.65664,-0.974127 1.13133,-0.487063 1.77781,-0.487063 1.29294,0 3.71721,2.435318 1.61618,1.623549 1.61618,3.247089 0,1.7859 -0.9697,2.59767 -0.48486,0.48707 -1.13133,0.48707 -0.48485,0 -0.96971,0.16235 -0.96971,0.48707 -4.04046,0.48707 -7.75768,0.32471 -7.75768,0.97412 l 0.16162,0.97413 q 0,0.97412 0,2.597671 0,1.62354 0,3.08474 0.16162,6.33182 0.96971,6.98124 0.48485,0.32471 1.61618,0.32471 0.32324,0 3.55561,-0.32471 2.90912,-0.16235 5.65664,-0.97412 2.74751,-0.81178 4.68693,-0.97413 1.93942,-0.16235 3.5556,-0.64942 h 0.64647 q 1.93943,0 4.04046,1.78589 2.10104,1.62355 2.10104,3.73416 0,1.13648 -0.96971,2.43532 -0.80809,1.13648 -3.55561,1.29884 -0.64647,0 -1.13132,0 -2.74751,0 -7.11121,0.81177 -7.1112,1.29884 -11.79813,1.94825 -0.64647,0.16236 -2.74751,0.81178 -2.10104,0.64942 -3.23237,0.64942 -0.16162,0 -0.64647,0 -0.32324,-0.16236 -0.48486,-0.16236 -4.84854,-1.13648 -5.49502,-3.73416 -0.48485,-1.62354 -0.48485,-3.40943 0,-2.43532 0.64647,-3.73416 1.29295,-3.08474 1.29295,-18.346071 0,-2.11061 0,-4.54592 0,-2.435318 -0.16163,-4.383573 0,-2.110609 0,-4.058863 0,-2.110609 -0.16161,-3.5718 0,-1.623545 -0.16162,-2.760027 0,-1.298835 0,-1.948253 v -0.649418 l -0.32323,-3.896509 1.29294,-1.298837 q 1.61619,-1.298836 1.93942,-1.298836 z"
         style="font-weight:bold;font-size:161.986px;line-height:1.25;font-family:Thadscript;-inkscape-font-specification:'Thadscript Bold';fill:#ececec;stroke:#e6e6e6;stroke-width:4"
         id="path3074" />
      <path
         d="m 882.03474,61.821626 q 0,-0.974127 8.40415,-0.974127 3.07075,0 6.46473,1.7859 3.5556,1.623545 5.17179,3.5718 0.16162,0.324709 1.29295,1.46119 1.7778,2.110609 1.7778,4.383573 0,1.298835 -0.64648,1.948253 -0.48485,0.324709 -1.61618,0.649418 -0.9697,0.324709 -1.7778,0.487064 -0.80809,0 -0.96971,-0.324709 l -0.48486,-0.162355 q -0.48485,0 -1.29295,0 -0.64646,-0.162354 -0.9697,-0.324709 -1.45457,-0.649418 -2.42427,-2.110608 -0.64648,-1.46119 -2.74751,-1.7859 -2.26267,-0.487063 -2.5859,-0.162354 -0.48486,0.487064 -1.13133,0.487064 -1.61618,0 -4.04045,4.70828 -0.80809,1.948254 -1.45456,1.948254 -0.48486,0 -0.16163,3.5718 l 0.16163,3.409445 1.45456,1.461191 q 1.61618,1.623546 2.58588,1.623546 0.64648,0 0.96972,0.324709 0.16162,0.162354 1.93941,0.487063 11.15167,1.623546 13.2527,2.760025 7.75768,4.22122 7.75768,15.098981 0,3.8965 -0.48485,4.38357 -0.32324,0.3247 -0.32324,1.29883 0,0.81178 -2.42427,3.40944 -2.42428,2.43532 -3.87884,3.08475 -5.81826,2.76002 -9.37386,2.76002 -2.74751,0 -6.30311,-1.29884 -2.26266,-0.81177 -5.81826,-1.29884 -5.33341,-0.81177 -7.9193,-3.08473 -1.45457,-1.13648 -1.7778,-1.7859 -0.32324,-0.64942 -0.64647,-2.76003 -0.32324,-2.43531 0.32323,-3.57179 0.96972,-1.4612 1.77781,-1.4612 0.9697,0 3.39398,1.94826 2.58589,2.27296 5.49503,2.59767 4.36369,0.3247 5.81825,1.29884 0.32323,0.16235 1.13132,0.16235 0.96972,-0.16235 1.13133,0.16235 0.48486,0.64943 4.20208,-0.48706 2.42428,-0.81178 4.04046,-2.59767 1.61618,-1.94825 1.61618,-3.89651 0,-0.64942 -0.16162,-0.97412 -0.32324,-0.97414 -0.80809,-2.92239 -0.64647,-2.272961 -1.7778,-2.922381 l -3.5556,-0.64942 q 0,-0.3247 -1.29295,-0.3247 -1.29295,0 -1.61618,0.3247 -0.48486,0.48707 -1.45457,0 -0.9697,-0.3247 -4.04046,-0.64941 -4.68692,-0.16236 -7.59606,-2.43532 -4.36369,-3.24709 -4.36369,-4.05886 0,-0.32471 -0.80809,-1.136488 -1.13133,-1.136481 -1.29295,-3.409445 -0.32323,-3.24709 -0.32323,-4.870636 0,-8.280081 3.07075,-11.364816 0.64647,-0.649418 2.42428,-2.922382 3.39397,-4.545927 4.36369,-4.545927 0.32323,0 0.32323,-0.324709 z"
         style="font-weight:bold;font-size:161.986px;line-height:1.25;font-family:Thadscript;-inkscape-font-specification:'Thadscript Bold';fill:#ececec;stroke:#e6e6e6;stroke-width:4"
         id="path3076" />
    </g>
    <g
       aria-label="design - build - repair"
       transform="matrix(0.99773007,0,0,1.0022751,0,20)"
       id="text883"
       style="font-size:84px;line-height:1.25;font-family:Thadscript;-inkscape-font-specification:Thadscript;fill:#e6e6e6;stroke-width:0.264583">
      <path
         d="m 80.962236,181.55304 q 0.336,0 2.352,-0.84 2.1,-0.924 2.352,-0.924 0.252,0 0.42,-0.336 0.084,-0.168 0.756,-0.336 1.26,-0.336 4.284,-3.36 2.772,-2.772 2.772,-8.316 0,-1.848 -0.504,-3.108 -0.42,-1.008 -1.596,-2.1 -1.092,-1.092 -1.596,-1.092 h -0.084 q -0.504,0 -1.26,-0.252 -0.672,-0.252 -1.26,-0.336 -3.108,-0.672 -4.368,-0.672 h -0.924 q -1.008,0 -1.848,0.252 l -0.924,0.42 v 4.2 q 0,5.712 0.42,9.408 0.084,0.672 0.084,2.772 v 1.092 1.008 q 0,1.428 0.084,1.764 0.084,0.588 0.168,0.672 0.168,0.084 0.672,0.084 z m 8.064,1.764 q -1.008,0.672 -1.26,0.672 -0.252,0 -1.344,0.504 -1.008,0.42 -1.26,0.42 -0.336,0 -0.672,0.252 -0.84,0.588 -3.192,0.588 -1.512,0 -1.848,-0.336 -0.252,-0.252 -0.84,0 -0.252,0.168 -1.008,0.168 -1.428,-0.168 -2.688,-1.092 -0.588,-0.336 -0.588,-2.1 0,-1.092 0.336,-1.428 0.252,-0.504 0.252,-3.444 0,-13.272 -0.42,-19.152 -0.084,-1.848 0.42,-2.268 0.588,-0.588 1.512,-0.588 0.42,0 1.932,0.336 0.672,0.252 2.52,0 1.848,-0.252 3.192,-0.252 1.344,0 1.848,0.252 1.344,0.672 3.864,1.26 0.588,0.168 1.512,0.42 1.008,0.168 1.176,0.168 1.176,0.252 2.604,1.428 1.512,1.092 1.764,1.932 0.168,0.42 0.672,1.092 0.42,0.504 0.756,1.764 0.336,1.176 0.42,1.26 0.168,0.168 0.168,2.772 0,2.1 -0.084,2.52 -0.588,3.528 -1.512,5.376 -0.84,1.848 -2.688,3.612 -1.512,1.26 -1.764,1.428 l -1.008,0.756 q -0.84,1.008 -1.68,1.008 -0.084,0 -1.092,0.672 z"
         id="path3563" />
      <path
         d="m 110.36227,155.93304 q 0.252,0 0.252,-0.168 0,-0.168 1.344,-0.168 1.344,0 1.344,0.168 0,0.168 0.672,0 0.252,-0.084 1.344,-0.084 1.848,0 2.52,0.168 h 0.336 q 0.252,0 1.176,0 0.924,-0.084 1.26,-0.084 h 0.252 q 0.336,0.168 2.016,0.168 0.588,0 1.512,0.084 0.924,0 1.008,0 0.504,0 1.008,-0.084 0.588,-0.084 0.756,-0.084 0.588,0 1.428,0.756 1.512,1.512 1.512,2.52 0,0.756 -0.672,1.428 -0.672,0.672 -2.016,0.672 -0.504,0 -2.016,-0.336 -3.024,-0.756 -4.956,-0.756 h -0.252 -0.42 q -0.42,0 -1.008,0.084 -0.588,0 -1.176,0 -1.344,0 -1.932,0.084 -0.588,0 -1.26,0.336 -0.588,0.336 -0.672,1.008 0,0.084 -0.084,0.504 0,0.336 0,0.588 0,5.208 0.504,5.712 0.084,0.084 0.588,0.084 1.848,0 2.94,-0.504 0.588,-0.252 0.924,-0.252 0.672,0 1.932,1.26 0.84,0.84 0.84,1.68 0,0.924 -0.504,1.344 -0.252,0.252 -0.588,0.252 -0.252,0 -0.504,0.084 -0.504,0.252 -2.1,0.252 -4.032,0.168 -4.032,0.504 l 0.084,0.504 q 0,0.504 0,1.344 0,0.84 0,1.596 0.084,3.276 0.504,3.612 0.252,0.168 0.84,0.168 0.168,0 1.848,-0.168 1.512,-0.084 2.94,-0.504 1.428,-0.42 2.436,-0.504 1.008,-0.084 1.848,-0.336 h 0.336 q 1.008,0 2.1,0.924 1.092,0.84 1.092,1.932 0,0.588 -0.504,1.26 -0.42,0.588 -1.848,0.672 -0.336,0 -0.588,0 -1.428,0 -3.696,0.42 -3.696,0.672 -6.132,1.008 -0.336,0.084 -1.428,0.42 -1.092,0.336 -1.68,0.336 -0.084,0 -0.336,0 -0.168,-0.084 -0.252,-0.084 -2.52,-0.588 -2.856,-1.932 -0.252,-0.84 -0.252,-1.764 0,-1.26 0.336,-1.932 0.672,-1.596 0.672,-9.492 0,-1.092 0,-2.352 0,-1.26 -0.084,-2.268 0,-1.092 0,-2.1 0,-1.092 -0.084,-1.848 0,-0.84 -0.084,-1.428 0,-0.672 0,-1.008 v -0.336 l -0.168,-2.016 0.672,-0.672 q 0.84,-0.672 1.008,-0.672 z"
         id="path3565" />
      <path
         d="m 144.29821,154.50504 q 0,-0.504 4.368,-0.504 1.596,0 3.36,0.924 1.848,0.84 2.688,1.848 0.084,0.168 0.672,0.756 0.924,1.092 0.924,2.268 0,0.672 -0.336,1.008 -0.252,0.168 -0.84,0.336 -0.504,0.168 -0.924,0.252 -0.42,0 -0.504,-0.168 l -0.252,-0.084 q -0.252,0 -0.672,0 -0.336,-0.084 -0.504,-0.168 -0.756,-0.336 -1.26,-1.092 -0.336,-0.756 -1.428,-0.924 -1.176,-0.252 -1.344,-0.084 -0.252,0.252 -0.588,0.252 -0.84,0 -2.1,2.436 -0.42,1.008 -0.756,1.008 -0.252,0 -0.084,1.848 l 0.084,1.764 0.756,0.756 q 0.84,0.84 1.344,0.84 0.336,0 0.504,0.168 0.084,0.084 1.008,0.252 5.796,0.84 6.888,1.428 4.032,2.184 4.032,7.812 0,2.016 -0.252,2.268 -0.168,0.168 -0.168,0.672 0,0.42 -1.26,1.764 -1.26,1.26 -2.016,1.596 -3.024,1.428 -4.872,1.428 -1.428,0 -3.276,-0.672 -1.176,-0.42 -3.024,-0.672 -2.772,-0.42 -4.116,-1.596 -0.756,-0.588 -0.924,-0.924 -0.168,-0.336 -0.336,-1.428 -0.168,-1.26 0.168,-1.848 0.504,-0.756 0.924,-0.756 0.504,0 1.764,1.008 1.344,1.176 2.856,1.344 2.268,0.168 3.024,0.672 0.168,0.084 0.588,0.084 0.504,-0.084 0.588,0.084 0.252,0.336 2.184,-0.252 1.26,-0.42 2.1,-1.344 0.84,-1.008 0.84,-2.016 0,-0.336 -0.084,-0.504 -0.168,-0.504 -0.42,-1.512 -0.336,-1.176 -0.924,-1.512 l -1.848,-0.336 q 0,-0.168 -0.672,-0.168 -0.672,0 -0.84,0.168 -0.252,0.252 -0.756,0 -0.504,-0.168 -2.1,-0.336 -2.436,-0.084 -3.948,-1.26 -2.268,-1.68 -2.268,-2.1 0,-0.168 -0.42,-0.588 -0.588,-0.588 -0.672,-1.764 -0.168,-1.68 -0.168,-2.52 0,-4.284 1.596,-5.88 0.336,-0.336 1.26,-1.512 1.764,-2.352 2.268,-2.352 0.168,0 0.168,-0.168 z"
         id="path3567" />
      <path
         d="m 172.69017,154.50504 q 0.504,0 8.484,-0.588 0.672,-0.084 1.848,-0.084 1.596,0 3.864,0.336 0.84,0.084 1.596,-0.084 0.168,-0.084 0.504,-0.084 1.092,0 2.016,0.756 0.42,0.42 0.672,0.42 0.336,0 0.924,1.932 0.084,0.168 0.084,0.504 0,0.924 -1.008,1.596 -0.924,0.588 -2.016,0.588 -0.672,0 -1.092,-0.252 -1.344,-0.756 -3.78,-0.756 h -0.252 q -0.588,0.084 -0.756,0.252 -0.168,0.168 -0.336,1.008 -0.168,0.672 -0.168,2.604 0,1.932 0.168,2.94 0.168,1.008 0.252,3.78 0.168,2.772 0.252,3.36 0,0.42 0.168,2.184 0.168,1.68 0.252,3.276 0.084,1.512 0.084,2.1 0.084,0.336 2.52,0.336 1.26,0 1.764,-0.084 0.336,-0.084 0.924,-0.084 1.68,0 2.856,1.428 0.672,0.924 0.672,1.596 0,1.344 -1.764,1.932 -0.84,0.336 -4.872,0.42 -2.1,0.084 -4.62,0.084 -2.268,0 -2.94,-0.336 -0.672,-0.336 -1.092,-0.168 -0.252,0.084 -0.924,0 -0.672,-0.084 -0.84,0.084 -0.168,0.168 -1.008,0.168 -0.42,0 -1.26,0.336 -0.672,0.252 -1.764,0.252 -0.924,0 -1.092,-0.168 -0.252,-0.252 -0.756,-0.336 -0.84,-0.168 -1.428,-0.84 -0.504,-0.756 -0.504,-1.512 0,-0.42 0.084,-0.588 0.588,-1.344 1.26,-1.344 h 0.252 q 0.252,0 0.588,0 0.42,0 0.84,0 0.504,-0.084 1.176,-0.084 0.672,0 1.26,0 3.948,-0.084 4.2,-0.336 0.756,-0.756 0.756,-3.36 0,-0.168 -0.084,-0.42 0,-0.336 0,-0.504 v -0.756 q 0,-0.42 0,-0.756 0.084,-0.336 0.084,-0.42 0,-0.084 -0.168,-0.924 -0.252,-0.84 0,-1.092 0.168,-0.336 0.168,-1.764 0,-2.436 -0.336,-3.78 -0.252,-0.924 -0.252,-4.452 v -3.192 -0.588 q 0,-0.084 -0.336,-0.084 -1.596,0 -2.436,0.672 -1.092,0.756 -2.184,0.756 -0.084,0 -0.252,-0.084 h -0.168 q -0.672,-0.168 -2.1,-1.428 -1.344,-1.344 -1.344,-2.436 0,-0.588 0.336,-0.924 0.756,-1.008 2.688,-1.008 z"
         id="path3569" />
      <path
         d="m 213.51414,178.94904 q 0.252,0 0.504,0.504 0.252,0.504 0.42,0.504 0.252,0 0.84,0.42 0.672,0.42 0.84,0.504 0.336,0.084 1.596,0.84 1.26,0.756 1.932,0.924 0.504,0.168 1.176,0.168 1.092,0 2.436,-0.168 1.932,-0.168 2.52,-0.504 1.092,-0.672 1.68,-3.108 0.252,-1.176 0.252,-1.932 0,-1.092 -0.084,-1.932 -0.168,-2.016 -0.42,-2.436 -0.252,-0.504 -1.26,-0.504 h -0.672 q -0.924,0 -1.764,0.168 -0.756,0.168 -1.008,0.168 -0.672,0 -2.1,-0.672 -2.016,-1.008 -2.016,-1.764 0,-0.588 0.504,-1.176 0.672,-0.924 1.596,-0.924 0.336,0 0.84,0.168 0.588,0.252 1.428,0 0.504,-0.084 2.184,-0.084 0.672,0 1.596,-0.252 1.008,-0.252 1.596,-0.252 0.504,0 0.84,0.084 1.176,0.168 1.596,0.504 0.42,0.252 1.428,1.512 1.092,1.344 1.092,6.3 0,4.704 -1.092,7.14 -0.42,1.008 -1.26,1.848 -0.84,0.756 -1.512,0.84 -0.336,0 -2.688,0.504 -2.268,0.504 -4.368,0.504 -2.184,0 -3.444,-0.504 -1.092,-0.42 -1.68,-0.42 -0.42,0 -1.008,-0.42 -0.504,-0.336 -2.268,-1.176 -1.68,-0.924 -2.52,-1.764 -0.924,-0.924 -1.092,-0.924 -0.168,0 -0.588,-0.504 -0.42,-0.588 -0.504,-0.672 -0.42,-0.252 -0.42,-0.588 0,-0.168 -0.756,-1.092 -2.016,-2.352 -2.016,-5.46 0,-0.84 0.084,-1.344 0.168,-1.26 1.68,-4.536 2.1,-4.872 8.4,-10.5 0.42,-0.336 3.192,-1.764 0.336,-0.168 0.672,-0.168 0.336,0 0.504,-0.168 0.084,-0.084 1.68,-0.252 1.596,-0.252 1.848,-0.252 0.084,0 0.588,0.084 0.504,0.084 0.756,0.084 1.176,0 2.268,0.84 0.588,0.42 0.756,0.42 0.168,0 1.344,0.84 1.176,0.84 1.344,1.092 0.336,0.336 0.756,1.176 0.504,0.924 0.168,1.764 -0.672,1.344 -1.68,1.344 -0.84,0 -2.184,-0.924 -2.688,-1.848 -4.704,-1.848 -0.084,0 -0.336,0.084 -0.168,0 -0.252,0 -0.672,0.168 -2.1,0.924 -1.176,0.756 -1.428,0.756 -0.252,0 -1.848,1.596 -1.596,1.596 -1.848,2.184 -0.252,0.336 -0.756,1.008 -0.504,0.588 -0.756,1.008 -0.252,0.42 -0.756,1.092 -0.42,0.672 -0.672,1.176 -1.26,2.52 -1.428,3.444 -0.084,0.504 -0.084,1.428 0,1.26 0.42,2.268 0.42,0.84 0.42,1.092 0,0.252 0.672,1.008 0.756,0.672 0.924,0.672 z"
         id="path3571" />
      <path
         d="m 261.14216,154.25304 q 0.168,0 0.504,0 l 0.252,-0.084 q 1.848,0 2.688,2.604 0.084,0.168 0.084,0.756 0,0.924 -0.336,4.032 -0.252,3.108 -0.252,3.864 v 0.924 q 0,7.224 -0.42,8.652 -0.084,0.336 -0.084,2.184 v 1.26 1.512 q 0,2.688 -1.26,3.192 -1.008,0.336 -1.26,0.336 -0.588,0 -1.68,-0.672 -1.512,-0.924 -2.772,-3.192 -1.26,-2.352 -1.764,-3.024 -0.42,-0.42 -0.42,-0.672 0,-0.168 -0.336,-0.42 -0.252,-0.084 -0.924,-1.008 -0.588,-0.924 -0.672,-1.008 -0.084,-0.084 -1.176,-1.932 -0.168,-0.336 -1.428,-2.184 l -0.336,-0.504 q -0.42,-0.588 -0.756,-1.176 l -0.336,-0.504 q -0.168,0 -0.168,-0.336 0,-0.252 -0.42,-0.84 -0.336,-0.588 -0.504,-0.588 -0.168,0 -0.168,8.484 0,8.484 -0.42,8.988 -0.588,0.756 -1.68,0.756 -0.924,0 -1.932,-0.504 -0.924,-0.588 -1.344,-1.26 -0.252,-0.336 -0.252,-1.764 0,-0.588 0.168,-1.428 0.42,-1.68 0.42,-7.812 0,-2.772 -0.084,-6.132 -0.084,-3.444 -0.168,-5.796 -0.084,-2.352 -0.084,-2.436 v -0.252 q 0.084,-0.252 0.084,-0.42 0,-0.756 1.008,-1.176 h 0.336 q 2.1,0 2.856,0.588 l 0.756,0.504 q 0.42,0.084 1.092,1.092 0.756,1.008 1.008,1.848 0.252,0.756 1.176,2.604 1.008,1.848 1.428,2.352 0.252,0.252 0.924,1.512 0.756,1.176 0.756,1.344 0,0.336 1.848,2.772 0.084,0.084 0.336,0.504 0.336,0.336 0.756,0.924 0.504,0.588 0.84,1.008 l 1.512,1.848 q 0.504,-1.26 0.588,-12.852 0.084,-3.864 0.084,-4.368 0.084,-0.588 0.672,-1.26 0.672,-0.672 1.26,-0.84 z"
         id="path3573" />
      <path
         d="m 306.92217,163.57704 q 7.56,0 18.9,-0.504 1.428,0 2.1,-0.336 0.672,-0.336 1.176,-0.336 0.168,0 0.504,0 0.336,-0.084 0.42,-0.084 1.68,0 2.772,1.092 0.672,0.672 0.504,2.436 l -0.084,1.344 -0.924,0.42 q -0.84,0.336 -1.764,0.168 -1.092,-0.168 -1.176,-0.084 -0.504,0.252 -10.836,0.588 -1.092,0.084 -3.36,0.252 -2.268,0.168 -3.696,0.168 -3.78,0 -4.704,0.756 -0.336,0.336 -1.092,0 -0.672,-0.252 -0.84,-0.084 -0.168,0.168 -1.26,-1.092 -1.176,-1.26 -1.26,-2.1 -0.252,-1.848 0.756,-2.184 0.336,-0.168 0.336,-0.252 0,-0.168 3.528,-0.168 z"
         id="path3575" />
      <path
         d="m 374.45815,174.83304 q -0.42,-0.252 -1.008,-0.252 -0.672,0 -1.848,0.252 -1.008,0.168 -1.176,0.168 -0.588,0 -1.428,-0.252 v 3.864 l -0.084,3.78 q 1.008,0.504 1.512,0.504 0.336,0 1.008,-0.168 0.504,-0.252 1.764,-0.252 1.428,0 2.1,-0.336 0.504,-0.252 0.84,-0.252 0.336,0 0.336,-0.168 0,-0.084 0.756,-0.504 1.344,-0.756 1.764,-2.856 0.084,-0.756 -0.504,-1.344 -1.932,-1.848 -2.94,-1.848 -0.42,0 -1.092,-0.336 z m 2.1,-15.456 q -2.1,-0.84 -3.696,-0.84 h -0.084 q -0.168,0.168 -2.604,0.42 -1.176,0.168 -1.428,0.42 -0.252,0.252 -0.252,3.024 0,1.176 0.168,3.696 0.168,2.688 0.504,2.772 0.084,0.084 0.252,0.084 0.084,0 0.336,0 0.336,-0.084 0.588,-0.084 0.756,-0.084 1.848,-0.084 0.42,0 2.1,-0.504 2.1,-0.672 3.612,-2.688 0.588,-0.672 0.588,-2.604 0,-0.924 -0.168,-1.26 -0.756,-1.932 -1.764,-2.352 z m -9.828,-4.368 q 1.428,0 2.94,-0.42 1.596,-0.504 2.688,-0.504 h 0.168 q 0.924,0 3.444,1.008 3.612,1.764 4.788,2.688 0.504,0.42 0.672,0.588 0.168,0.168 0.168,0.336 0.084,0.084 0.168,0.42 0.168,0.252 0.42,0.588 1.26,1.932 1.26,4.536 0,1.26 -0.336,2.184 -0.588,1.512 -0.924,2.016 -0.336,0.504 -1.512,1.68 -1.596,1.596 -1.596,1.764 0,0.504 2.184,1.512 1.428,0.672 2.52,2.352 1.092,1.596 1.092,3.024 0,1.092 -1.68,3.276 -0.672,0.84 -0.672,1.092 0,0.168 -0.336,0.336 -0.084,0 -0.924,0.672 -0.84,1.008 -3.024,1.932 -0.672,0.504 -3.276,0.672 -1.512,0 -2.184,0.336 -0.504,0.168 -0.756,0.168 -0.336,0 -1.008,-0.084 -0.672,-0.168 -1.008,-0.168 -0.672,0 -1.428,-0.168 -0.756,-0.252 -1.512,-0.336 -2.1,-0.084 -3.108,-1.428 -0.336,-0.336 -0.336,-0.924 0,-0.168 0,-0.42 0.084,-0.336 0.084,-0.756 0.084,-0.504 0.084,-0.924 0.504,-6.048 0.504,-10.248 0,-2.604 -0.084,-3.864 -0.252,-5.208 -0.252,-5.964 0,-0.672 0.084,-0.756 0.168,-0.168 0,-1.176 -0.168,-1.008 -0.42,-1.344 -0.42,-0.588 -0.42,-2.1 0,-0.504 0.084,-0.672 0.252,-0.924 2.688,-0.924 z"
         id="path3577" />
      <path
         d="m 413.35019,155.17704 q 0.252,-0.084 0.924,-0.084 1.512,0 1.764,0.42 0.252,0.252 0.42,0.252 0.588,0 1.428,2.016 0.252,0.588 -0.252,2.268 -1.092,3.276 -1.092,8.064 0,0.924 -0.252,1.428 -0.168,0.504 -0.504,2.856 -0.336,2.352 -0.504,2.94 -0.252,1.26 0,2.016 0.42,1.26 0.42,3.948 0,1.26 -0.084,1.68 -0.168,0.924 -1.26,1.764 -1.092,0.756 -2.184,0.756 -0.588,0 -1.176,-0.84 l -0.756,-0.84 -1.176,0.672 q -2.016,1.26 -3.276,1.344 -0.42,0 -1.428,0.084 -1.008,0.084 -1.512,0.084 -0.756,0 -1.092,-0.084 -2.436,-0.672 -2.604,-1.26 0,-0.252 -1.092,-0.588 -2.94,-1.176 -3.612,-5.04 -0.084,-0.924 -0.42,-1.848 -0.336,-0.672 -0.336,-4.956 0,-1.26 0.084,-1.428 0.252,-0.504 0.252,-4.872 0,-5.124 0.084,-6.048 0.168,-3.528 1.68,-3.528 0.42,0 0.924,0.504 0.084,0.084 0.504,0.504 0.504,0.336 0.756,0.588 l 0.672,0.756 0.084,3.024 v 5.796 2.604 0.588 l -0.084,0.168 q 0,0.168 0,0.42 0,0.252 0,0.504 0,0.252 0,1.008 0.084,0.756 0.084,1.176 0.084,2.268 0.336,3.192 0.336,0.924 1.26,2.436 1.176,1.848 2.52,1.848 2.856,0 4.368,-2.352 0.756,-1.092 1.764,-3.444 1.008,-2.436 1.008,-3.696 0,-0.336 0.252,-1.092 0.336,-0.84 0.252,-1.26 -0.084,-0.252 0.084,-1.932 0.168,-1.512 0.168,-4.536 0,-0.756 -0.084,-2.352 0,-1.68 0,-2.52 0,-2.52 2.688,-3.108 z"
         id="path3579" />
      <path
         d="m 431.32621,154.50504 q 0.504,0 8.484,-0.588 0.672,-0.084 1.848,-0.084 1.596,0 3.864,0.336 0.84,0.084 1.596,-0.084 0.168,-0.084 0.504,-0.084 1.092,0 2.016,0.756 0.42,0.42 0.672,0.42 0.336,0 0.924,1.932 0.084,0.168 0.084,0.504 0,0.924 -1.008,1.596 -0.924,0.588 -2.016,0.588 -0.672,0 -1.092,-0.252 -1.344,-0.756 -3.78,-0.756 h -0.252 q -0.588,0.084 -0.756,0.252 -0.168,0.168 -0.336,1.008 -0.168,0.672 -0.168,2.604 0,1.932 0.168,2.94 0.168,1.008 0.252,3.78 0.168,2.772 0.252,3.36 0,0.42 0.168,2.184 0.168,1.68 0.252,3.276 0.084,1.512 0.084,2.1 0.084,0.336 2.52,0.336 1.26,0 1.764,-0.084 0.336,-0.084 0.924,-0.084 1.68,0 2.856,1.428 0.672,0.924 0.672,1.596 0,1.344 -1.764,1.932 -0.84,0.336 -4.872,0.42 -2.1,0.084 -4.62,0.084 -2.268,0 -2.94,-0.336 -0.672,-0.336 -1.092,-0.168 -0.252,0.084 -0.924,0 -0.672,-0.084 -0.84,0.084 -0.168,0.168 -1.008,0.168 -0.42,0 -1.26,0.336 -0.672,0.252 -1.764,0.252 -0.924,0 -1.092,-0.168 -0.252,-0.252 -0.756,-0.336 -0.84,-0.168 -1.428,-0.84 -0.504,-0.756 -0.504,-1.512 0,-0.42 0.084,-0.588 0.588,-1.344 1.26,-1.344 h 0.252 q 0.252,0 0.588,0 0.42,0 0.84,0 0.504,-0.084 1.176,-0.084 0.672,0 1.26,0 3.948,-0.084 4.2,-0.336 0.756,-0.756 0.756,-3.36 0,-0.168 -0.084,-0.42 0,-0.336 0,-0.504 v -0.756 q 0,-0.42 0,-0.756 0.084,-0.336 0.084,-0.42 0,-0.084 -0.168,-0.924 -0.252,-0.84 0,-1.092 0.168,-0.336 0.168,-1.764 0,-2.436 -0.336,-3.78 -0.252,-0.924 -0.252,-4.452 v -3.192 -0.588 q 0,-0.084 -0.336,-0.084 -1.596,0 -2.436,0.672 -1.092,0.756 -2.184,0.756 -0.084,0 -0.252,-0.084 h -0.168 q -0.672,-0.168 -2.1,-1.428 -1.344,-1.344 -1.344,-2.436 0,-0.588 0.336,-0.924 0.756,-1.008 2.688,-1.008 z"
         id="path3581" />
      <path
         d="m 464.75819,155.84904 q 0.588,-0.588 1.596,-0.588 1.344,0 2.604,1.008 0.924,0.588 0.924,1.932 0,0.084 -0.084,0.504 0,0.336 0,0.504 -0.168,1.176 -0.168,2.352 0,0.588 0.084,0.924 0.252,1.008 0.252,8.064 0.168,7.896 0.252,8.316 0.084,1.008 0.588,1.26 0.588,0.252 2.94,0.336 h 1.344 q 1.764,0 2.1,-0.084 1.932,-0.42 6.384,-0.42 h 3.192 l 1.092,0.924 q 1.092,0.924 1.092,1.596 0,1.848 -0.588,1.848 -0.168,0 -0.84,0.42 -0.756,0.42 -2.94,0.42 -2.604,0 -3.024,-0.084 -0.42,-0.084 -1.176,0 -0.672,0.084 -0.924,-0.168 -0.504,-0.168 -0.84,-0.168 -0.42,0 -1.26,0.168 -0.84,0.084 -1.176,0.084 -0.336,0 -1.26,0.168 -0.84,0.168 -1.008,-0.168 -0.504,-0.252 -1.68,-0.252 -1.596,0 -2.268,0.336 -0.588,0.336 -1.68,0.336 -0.672,0 -1.008,-0.084 -1.68,-0.336 -2.352,-1.764 -0.504,-1.092 -0.336,-2.436 0.168,-1.344 0.168,-2.1 0,-4.284 -0.084,-8.316 -0.084,-11.508 -0.504,-12.852 -0.336,-1.176 0.588,-2.016 z"
         id="path3583" />
      <path
         d="m 504.40611,181.55304 q 0.336,0 2.352,-0.84 2.1,-0.924 2.352,-0.924 0.252,0 0.42,-0.336 0.084,-0.168 0.756,-0.336 1.26,-0.336 4.284,-3.36 2.772,-2.772 2.772,-8.316 0,-1.848 -0.504,-3.108 -0.42,-1.008 -1.596,-2.1 -1.092,-1.092 -1.596,-1.092 h -0.084 q -0.504,0 -1.26,-0.252 -0.672,-0.252 -1.26,-0.336 -3.108,-0.672 -4.368,-0.672 h -0.924 q -1.008,0 -1.848,0.252 l -0.924,0.42 v 4.2 q 0,5.712 0.42,9.408 0.084,0.672 0.084,2.772 v 1.092 1.008 q 0,1.428 0.084,1.764 0.084,0.588 0.168,0.672 0.168,0.084 0.672,0.084 z m 8.064,1.764 q -1.008,0.672 -1.26,0.672 -0.252,0 -1.344,0.504 -1.008,0.42 -1.26,0.42 -0.336,0 -0.672,0.252 -0.84,0.588 -3.192,0.588 -1.512,0 -1.848,-0.336 -0.252,-0.252 -0.84,0 -0.252,0.168 -1.008,0.168 -1.428,-0.168 -2.688,-1.092 -0.588,-0.336 -0.588,-2.1 0,-1.092 0.336,-1.428 0.252,-0.504 0.252,-3.444 0,-13.272 -0.42,-19.152 -0.084,-1.848 0.42,-2.268 0.588,-0.588 1.512,-0.588 0.42,0 1.932,0.336 0.672,0.252 2.52,0 1.848,-0.252 3.192,-0.252 1.344,0 1.848,0.252 1.344,0.672 3.864,1.26 0.588,0.168 1.512,0.42 1.008,0.168 1.176,0.168 1.176,0.252 2.604,1.428 1.512,1.092 1.764,1.932 0.168,0.42 0.672,1.092 0.42,0.504 0.756,1.764 0.336,1.176 0.42,1.26 0.168,0.168 0.168,2.772 0,2.1 -0.084,2.52 -0.588,3.528 -1.512,5.376 -0.84,1.848 -2.688,3.612 -1.512,1.26 -1.764,1.428 l -1.008,0.756 q -0.84,1.008 -1.68,1.008 -0.084,0 -1.092,0.672 z"
         id="path3585" />
      <path
         d="m 557.24215,163.57704 q 7.56,0 18.9,-0.504 1.428,0 2.1,-0.336 0.672,-0.336 1.176,-0.336 0.168,0 0.504,0 0.336,-0.084 0.42,-0.084 1.68,0 2.772,1.092 0.672,0.672 0.504,2.436 l -0.084,1.344 -0.924,0.42 q -0.84,0.336 -1.764,0.168 -1.092,-0.168 -1.176,-0.084 -0.504,0.252 -10.836,0.588 -1.092,0.084 -3.36,0.252 -2.268,0.168 -3.696,0.168 -3.78,0 -4.704,0.756 -0.336,0.336 -1.092,0 -0.672,-0.252 -0.84,-0.084 -0.168,0.168 -1.26,-1.092 -1.176,-1.26 -1.26,-2.1 -0.252,-1.848 0.756,-2.184 0.336,-0.168 0.336,-0.252 0,-0.168 3.528,-0.168 z"
         id="path3587" />
      <path
         d="m 628.30616,159.20904 q -0.924,-0.42 -3.108,-0.42 -2.016,0.084 -2.856,0.336 -0.756,0.252 -1.68,1.26 -0.42,0.42 -0.672,0.42 -0.336,0 -0.336,1.26 0,1.092 0.252,3.864 l 0.168,1.344 1.092,0.168 h 0.42 q 0.252,0 0.756,0 0.588,-0.084 0.756,-0.084 0.588,0 0.84,0.252 0.168,0.168 0.336,0.168 0.336,0 1.092,-0.336 0.84,-0.42 1.092,-0.42 0.252,0 0.504,-0.252 0.168,-0.168 0.924,-0.168 1.68,0 2.772,-1.512 0.42,-0.504 0.42,-1.764 0,-1.848 -0.84,-2.352 -0.336,-0.168 -0.588,-0.672 -0.252,-0.588 -1.344,-1.092 z m -8.316,17.388 v 0.756 q 0,1.092 -0.42,2.94 -0.336,1.764 -0.336,2.772 0,1.344 -0.252,1.848 -0.168,0.42 -1.008,1.092 -0.672,0.588 -1.176,0.42 -0.588,-0.168 -0.672,-0.084 -0.168,0.168 -0.924,-0.252 -0.756,-0.42 -1.092,-0.84 -0.588,-0.588 -0.588,-1.764 0,-0.252 0.168,-1.596 0.252,-1.764 0.168,-2.016 -0.168,-0.336 0,-1.26 0.42,-2.268 0.672,-6.804 0.168,-4.368 0.168,-5.46 0,-4.116 -0.756,-7.392 -0.252,-1.176 -0.252,-1.596 0,-0.42 0.252,-1.176 0.336,-1.092 0.588,-1.26 0.252,-0.168 1.68,-0.168 h 0.336 q 1.008,0 1.764,-0.084 0.756,-0.168 1.596,-0.336 0.84,-0.168 1.428,-0.252 1.344,-0.168 2.268,-0.168 6.132,0 8.652,1.344 0.504,0.252 0.756,0.588 0.336,0.252 0.672,0.756 0.336,0.504 0.672,0.84 1.008,1.008 1.008,1.092 0,0.336 0.42,0.756 0.42,0.504 1.008,2.688 0.42,1.344 0.42,2.52 0,1.008 -0.756,2.52 -1.596,2.184 -3.024,2.772 -0.756,0.336 -0.756,1.932 0,1.512 0.588,2.688 0.336,0.588 0.336,1.092 0,0.252 0.504,0.924 0.084,0.084 0.336,0.672 0.252,0.504 0.42,1.008 0.252,0.42 0.42,0.42 0.168,0 0.504,0.504 0.504,1.008 1.428,2.1 0.756,0.756 0.756,2.268 0,0.924 -0.42,1.344 -0.504,0.504 -2.268,0.504 -1.848,0 -2.436,-0.588 -0.504,-0.504 -0.924,-1.512 -0.756,-1.764 -1.596,-2.772 -0.588,-0.756 -0.84,-1.428 -0.084,-0.252 -1.092,-2.436 -0.504,-1.092 -1.092,-2.856 -0.168,-0.588 -0.42,-1.008 -0.252,-0.42 -0.504,-0.504 -0.168,-0.168 -0.336,0 -0.168,0.168 -1.848,0.504 -0.756,0.168 -2.016,0.168 -1.344,0 -2.268,-0.168 v 1.68 q 0,0.504 0,1.344 0.084,0.84 0.084,0.924 z"
         id="path3589" />
      <path
         d="m 648.88605,155.93304 q 0.252,0 0.252,-0.168 0,-0.168 1.344,-0.168 1.344,0 1.344,0.168 0,0.168 0.672,0 0.252,-0.084 1.344,-0.084 1.848,0 2.52,0.168 h 0.336 q 0.252,0 1.176,0 0.924,-0.084 1.26,-0.084 h 0.252 q 0.336,0.168 2.016,0.168 0.588,0 1.512,0.084 0.924,0 1.008,0 0.504,0 1.008,-0.084 0.588,-0.084 0.756,-0.084 0.588,0 1.428,0.756 1.512,1.512 1.512,2.52 0,0.756 -0.672,1.428 -0.672,0.672 -2.016,0.672 -0.504,0 -2.016,-0.336 -3.024,-0.756 -4.956,-0.756 h -0.252 -0.42 q -0.42,0 -1.008,0.084 -0.588,0 -1.176,0 -1.344,0 -1.932,0.084 -0.588,0 -1.26,0.336 -0.588,0.336 -0.672,1.008 0,0.084 -0.084,0.504 0,0.336 0,0.588 0,5.208 0.504,5.712 0.084,0.084 0.588,0.084 1.848,0 2.94,-0.504 0.588,-0.252 0.924,-0.252 0.672,0 1.932,1.26 0.84,0.84 0.84,1.68 0,0.924 -0.504,1.344 -0.252,0.252 -0.588,0.252 -0.252,0 -0.504,0.084 -0.504,0.252 -2.1,0.252 -4.032,0.168 -4.032,0.504 l 0.084,0.504 q 0,0.504 0,1.344 0,0.84 0,1.596 0.084,3.276 0.504,3.612 0.252,0.168 0.84,0.168 0.168,0 1.848,-0.168 1.512,-0.084 2.94,-0.504 1.428,-0.42 2.436,-0.504 1.008,-0.084 1.848,-0.336 h 0.336 q 1.008,0 2.1,0.924 1.092,0.84 1.092,1.932 0,0.588 -0.504,1.26 -0.42,0.588 -1.848,0.672 -0.336,0 -0.588,0 -1.428,0 -3.696,0.42 -3.696,0.672 -6.132,1.008 -0.336,0.084 -1.428,0.42 -1.092,0.336 -1.68,0.336 -0.084,0 -0.336,0 -0.168,-0.084 -0.252,-0.084 -2.52,-0.588 -2.856,-1.932 -0.252,-0.84 -0.252,-1.764 0,-1.26 0.336,-1.932 0.672,-1.596 0.672,-9.492 0,-1.092 0,-2.352 0,-1.26 -0.084,-2.268 0,-1.092 0,-2.1 0,-1.092 -0.084,-1.848 0,-0.84 -0.084,-1.428 0,-0.672 0,-1.008 v -0.336 l -0.168,-2.016 0.672,-0.672 q 0.84,-0.672 1.008,-0.672 z"
         id="path3591" />
      <path
         d="m 689.626,159.62904 h -3.108 q -0.42,0 -0.84,0 -0.42,0 -0.756,0 -0.336,0 -0.588,0 h -0.252 q -0.336,0.084 -0.336,2.436 0,0.588 -0.084,2.268 0,1.68 0,2.352 v 2.184 l 0.84,0.084 q 0.504,0.084 1.596,0.084 2.184,0 4.284,-0.504 2.184,-0.504 2.772,-1.26 1.008,-1.344 1.008,-3.024 0,-0.924 -0.42,-1.596 -1.176,-1.848 -2.016,-2.436 -0.756,-0.588 -2.1,-0.588 z m 6.636,11.76 q -0.084,0 -0.336,0.42 -0.252,0.336 -0.504,0.336 -0.168,0 -0.924,0.336 -0.672,0.252 -1.008,0.168 -0.168,-0.084 -0.672,0.168 -0.168,0.168 -2.1,0.588 -1.932,0.336 -2.688,0.336 -0.168,0 -0.924,0 -0.756,-0.084 -1.176,-0.084 h -0.588 q -1.848,0 -2.184,0.756 -0.168,0.336 -0.168,2.016 0,2.268 0.168,3.528 0,0.336 0,0.756 0.084,0.42 0.084,0.672 0.084,0.252 0.084,0.42 0,0.672 -0.252,1.26 -0.336,0.924 -0.588,1.176 -0.252,0.168 -0.84,0.168 h -0.924 q -1.68,-0.084 -2.268,-0.588 -1.092,-0.84 -1.092,-3.78 0,-0.336 0,-1.26 0.084,-1.008 0.084,-1.68 0.084,-3.024 0.252,-5.376 0.252,-2.436 0.336,-4.368 0.084,-1.176 0.252,-3.276 0.252,-2.1 0.252,-3.192 0,-1.68 -0.336,-3.444 -0.336,-1.26 -0.168,-1.68 0.168,-0.504 1.176,-1.008 1.008,-0.588 2.016,-0.588 0.084,0 0.252,0.084 0.168,0 0.252,0 0.504,0.084 2.1,0.084 0.924,0 2.688,0.252 1.848,0.252 2.856,0.252 1.848,0 2.016,0.084 0.504,0.252 0.924,0.252 1.596,0.168 3.276,1.596 0.672,0.588 1.428,0.924 0.84,0.42 1.26,1.008 0.504,0.588 1.008,1.848 0.504,1.176 0.672,1.596 0.588,1.344 0.588,3.192 0,1.176 -0.336,2.016 -0.672,1.596 -1.26,1.596 -0.252,0 -0.42,0.42 -0.168,0.336 -1.008,1.176 -0.756,0.756 -0.924,0.756 l -0.168,0.084 z"
         id="path3593" />
      <path
         d="m 728.34992,166.76904 q -0.252,-1.596 -1.26,-3.864 -0.084,-0.084 -0.168,-0.084 -0.672,0 -2.688,4.116 -1.848,3.696 -1.848,4.2 l 0.084,0.168 q 0.168,0.168 1.26,0.168 0.672,0 1.26,0.084 0.588,0.084 0.84,0.084 0.084,0 1.428,-0.168 l 1.764,-0.252 -0.084,-0.924 q 0,-0.84 -0.252,-1.932 -0.252,-1.092 -0.336,-1.596 z m -5.292,-10.248 q 0.504,-0.84 0.84,-1.008 0.336,-0.168 1.26,0 0.252,0 0.84,0.084 0.588,0 0.756,0 0.588,0 0.672,0.336 0.084,0.336 0.84,0.756 0.756,0.42 0.84,0.588 0,0.084 0.168,0.588 0.168,0.42 0.336,0.672 0.924,1.764 1.344,3.024 0.084,0.168 0.672,1.932 0.588,1.764 1.176,3.78 0.252,0.924 0.42,1.596 0.168,0.672 0.336,1.26 0.168,0.588 0.252,0.84 0.168,0.588 0.168,1.008 0,0.084 0.336,1.344 0.336,1.26 0.336,1.428 0,1.932 2.184,6.3 0.924,1.848 0.924,2.772 0,0.84 -0.42,1.848 -0.336,1.008 -0.672,1.008 -0.252,0 -0.84,0.42 -0.588,0.504 -1.512,0.336 -1.092,-0.168 -1.344,-0.504 -0.252,-0.336 -0.252,-1.428 0,-1.176 -0.252,-2.184 -0.168,-1.008 -0.588,-2.268 -0.42,-1.344 -0.588,-1.848 -0.252,-0.924 -0.756,-2.688 l -0.336,-0.924 -1.512,-0.168 q -0.84,-0.084 -2.184,-0.084 -1.512,0 -2.688,-0.084 -0.336,0 -0.924,0 -0.588,-0.084 -0.756,-0.084 -1.68,0 -1.932,0.588 -0.168,0.756 -1.344,3.108 -1.176,2.268 -1.848,3.192 -0.168,0.168 -0.84,1.512 -0.672,1.344 -1.092,1.764 -0.252,0.252 -0.504,0.756 -0.252,0.42 -0.588,0.672 -0.252,0.252 -0.672,0.252 -0.336,0 -0.504,-0.084 -0.084,0 -0.336,0 -0.252,-0.084 -0.588,-0.168 -0.252,-0.084 -0.42,-0.084 -0.84,-0.084 -1.344,-0.756 -0.504,-0.672 -0.504,-1.512 0,-0.672 0.336,-1.26 0.336,-0.84 1.428,-3.108 1.176,-2.352 1.596,-3.444 0.084,-0.252 0.924,-2.016 0.252,-0.336 0.672,-1.26 0.504,-1.008 0.672,-1.344 l 1.092,-2.016 q 1.428,-2.268 1.932,-3.36 1.344,-2.772 2.436,-4.788 1.848,-3.108 1.848,-4.032 0,-0.42 0.504,-1.26 z"
         id="path3595" />
      <path
         d="m 751.19795,154.50504 q 0.504,0 8.484,-0.588 0.672,-0.084 1.848,-0.084 1.596,0 3.864,0.336 0.84,0.084 1.596,-0.084 0.168,-0.084 0.504,-0.084 1.092,0 2.016,0.756 0.42,0.42 0.672,0.42 0.336,0 0.924,1.932 0.084,0.168 0.084,0.504 0,0.924 -1.008,1.596 -0.924,0.588 -2.016,0.588 -0.672,0 -1.092,-0.252 -1.344,-0.756 -3.78,-0.756 h -0.252 q -0.588,0.084 -0.756,0.252 -0.168,0.168 -0.336,1.008 -0.168,0.672 -0.168,2.604 0,1.932 0.168,2.94 0.168,1.008 0.252,3.78 0.168,2.772 0.252,3.36 0,0.42 0.168,2.184 0.168,1.68 0.252,3.276 0.084,1.512 0.084,2.1 0.084,0.336 2.52,0.336 1.26,0 1.764,-0.084 0.336,-0.084 0.924,-0.084 1.68,0 2.856,1.428 0.672,0.924 0.672,1.596 0,1.344 -1.764,1.932 -0.84,0.336 -4.872,0.42 -2.1,0.084 -4.62,0.084 -2.268,0 -2.94,-0.336 -0.672,-0.336 -1.092,-0.168 -0.252,0.084 -0.924,0 -0.672,-0.084 -0.84,0.084 -0.168,0.168 -1.008,0.168 -0.42,0 -1.26,0.336 -0.672,0.252 -1.764,0.252 -0.924,0 -1.092,-0.168 -0.252,-0.252 -0.756,-0.336 -0.84,-0.168 -1.428,-0.84 -0.504,-0.756 -0.504,-1.512 0,-0.42 0.084,-0.588 0.588,-1.344 1.26,-1.344 h 0.252 q 0.252,0 0.588,0 0.42,0 0.84,0 0.504,-0.084 1.176,-0.084 0.672,0 1.26,0 3.948,-0.084 4.2,-0.336 0.756,-0.756 0.756,-3.36 0,-0.168 -0.084,-0.42 0,-0.336 0,-0.504 v -0.756 q 0,-0.42 0,-0.756 0.084,-0.336 0.084,-0.42 0,-0.084 -0.168,-0.924 -0.252,-0.84 0,-1.092 0.168,-0.336 0.168,-1.764 0,-2.436 -0.336,-3.78 -0.252,-0.924 -0.252,-4.452 v -3.192 -0.588 q 0,-0.084 -0.336,-0.084 -1.596,0 -2.436,0.672 -1.092,0.756 -2.184,0.756 -0.084,0 -0.252,-0.084 h -0.168 q -0.672,-0.168 -2.1,-1.428 -1.344,-1.344 -1.344,-2.436 0,-0.588 0.336,-0.924 0.756,-1.008 2.688,-1.008 z"
         id="path3597" />
      <path
         d="m 798.74189,159.20904 q -0.924,-0.42 -3.108,-0.42 -2.016,0.084 -2.856,0.336 -0.756,0.252 -1.68,1.26 -0.42,0.42 -0.672,0.42 -0.336,0 -0.336,1.26 0,1.092 0.252,3.864 l 0.168,1.344 1.092,0.168 h 0.42 q 0.252,0 0.756,0 0.588,-0.084 0.756,-0.084 0.588,0 0.84,0.252 0.168,0.168 0.336,0.168 0.336,0 1.092,-0.336 0.84,-0.42 1.092,-0.42 0.252,0 0.504,-0.252 0.168,-0.168 0.924,-0.168 1.68,0 2.772,-1.512 0.42,-0.504 0.42,-1.764 0,-1.848 -0.84,-2.352 -0.336,-0.168 -0.588,-0.672 -0.252,-0.588 -1.344,-1.092 z m -8.316,17.388 v 0.756 q 0,1.092 -0.42,2.94 -0.336,1.764 -0.336,2.772 0,1.344 -0.252,1.848 -0.168,0.42 -1.008,1.092 -0.672,0.588 -1.176,0.42 -0.588,-0.168 -0.672,-0.084 -0.168,0.168 -0.924,-0.252 -0.756,-0.42 -1.092,-0.84 -0.588,-0.588 -0.588,-1.764 0,-0.252 0.168,-1.596 0.252,-1.764 0.168,-2.016 -0.168,-0.336 0,-1.26 0.42,-2.268 0.672,-6.804 0.168,-4.368 0.168,-5.46 0,-4.116 -0.756,-7.392 -0.252,-1.176 -0.252,-1.596 0,-0.42 0.252,-1.176 0.336,-1.092 0.588,-1.26 0.252,-0.168 1.68,-0.168 h 0.336 q 1.008,0 1.764,-0.084 0.756,-0.168 1.596,-0.336 0.84,-0.168 1.428,-0.252 1.344,-0.168 2.268,-0.168 6.132,0 8.652,1.344 0.504,0.252 0.756,0.588 0.336,0.252 0.672,0.756 0.336,0.504 0.672,0.84 1.008,1.008 1.008,1.092 0,0.336 0.42,0.756 0.42,0.504 1.008,2.688 0.42,1.344 0.42,2.52 0,1.008 -0.756,2.52 -1.596,2.184 -3.024,2.772 -0.756,0.336 -0.756,1.932 0,1.512 0.588,2.688 0.336,0.588 0.336,1.092 0,0.252 0.504,0.924 0.084,0.084 0.336,0.672 0.252,0.504 0.42,1.008 0.252,0.42 0.42,0.42 0.168,0 0.504,0.504 0.504,1.008 1.428,2.1 0.756,0.756 0.756,2.268 0,0.924 -0.42,1.344 -0.504,0.504 -2.268,0.504 -1.848,0 -2.436,-0.588 -0.504,-0.504 -0.924,-1.512 -0.756,-1.764 -1.596,-2.772 -0.588,-0.756 -0.84,-1.428 -0.084,-0.252 -1.092,-2.436 -0.504,-1.092 -1.092,-2.856 -0.168,-0.588 -0.42,-1.008 -0.252,-0.42 -0.504,-0.504 -0.168,-0.168 -0.336,0 -0.168,0.168 -1.848,0.504 -0.756,0.168 -2.016,0.168 -1.344,0 -2.268,-0.168 v 1.68 q 0,0.504 0,1.344 0.084,0.84 0.084,0.924 z"
         id="path3599" />
    </g>
  </g>
</svg>
