<?xml version="1.0" encoding="UTF-8" standalone="no"?>
<!-- Created with Inkscape (http://www.inkscape.org/) -->

<svg
   width="760"
   height="360"
   viewBox="0 0 201.08335 95.249988"
   version="1.1"
   id="svg965"
   inkscape:version="1.2.2 (b0a8486541, 2022-12-01)"
   sodipodi:docname="wordmark.svg"
   xml:space="preserve"
   inkscape:export-filename="banner.png"
   inkscape:export-xdpi="96"
   inkscape:export-ydpi="96"
   xmlns:inkscape="http://www.inkscape.org/namespaces/inkscape"
   xmlns:sodipodi="http://sodipodi.sourceforge.net/DTD/sodipodi-0.dtd"
   xmlns="http://www.w3.org/2000/svg"
   xmlns:svg="http://www.w3.org/2000/svg"><sodipodi:namedview
     id="namedview967"
     pagecolor="#37642c"
     bordercolor="#666666"
     borderopacity="1.0"
     inkscape:pageshadow="2"
     inkscape:pageopacity="0"
     inkscape:pagecheckerboard="true"
     inkscape:document-units="mm"
     showgrid="false"
     fit-margin-top="0"
     fit-margin-left="0"
     fit-margin-right="0"
     fit-margin-bottom="0"
     inkscape:zoom="1.1313833"
     inkscape:cx="515.2984"
     inkscape:cy="195.77804"
     inkscape:window-width="1388"
     inkscape:window-height="1400"
     inkscape:window-x="10"
     inkscape:window-y="30"
     inkscape:window-maximized="1"
     inkscape:current-layer="layer1"
     inkscape:snap-global="false"
     inkscape:showpageshadow="2"
     inkscape:deskcolor="#d1d1d1" /><defs
     id="defs962"><inkscape:path-effect
       effect="fill_between_many"
       method="originald"
       linkedpaths="#path4007,0,1"
       id="path-effect7063"
       is_visible="true"
       lpeversion="0"
       join="true"
       close="true"
       autoreverse="true"
       applied="false" /><filter
       inkscape:collect="always"
       style="color-interpolation-filters:sRGB"
       id="filter7229"
       x="-0.046001983"
       y="-0.11108827"
       width="1.092004"
       height="1.2221765"><feGaussianBlur
         inkscape:collect="always"
         stdDeviation="0.81963214"
         id="feGaussianBlur7231" /></filter></defs><g
     inkscape:label="Layer 1"
     inkscape:groupmode="layer"
     id="layer1"
     transform="translate(-196.48734,-68.84423)"><path
       inkscape:original-d="M 0,0"
       inkscape:path-effect="#path-effect7063"
       d="m 83.787894,57.723542 0.561157,7.672205 -1.717121,1.01813 0.405416,8.315373 14.0279,0.570929 12.668774,-0.480029 2.81912,-0.725733 6.4261,-0.03004 0.11352,-2.421778 2.86687,-0.0695 3.34197,-0.09359 0.0919,-3.408411 -3.96759,-0.181554 -0.35572,-8.458614 -17.92462,-0.325113 -10.649016,-1.513332 z"
       id="path7065"
       style="fill:#040403;fill-opacity:1;stroke:none;stroke-width:1;stroke-miterlimit:4;stroke-dasharray:none;filter:url(#filter7229)"
       class="UnoptimicedTransforms"
       transform="matrix(4.3941198,-0.20596661,0.20596661,4.3941198,-174.0303,-157.67733)" /><path
       style="fill:#edede8;fill-opacity:1;stroke:none;stroke-width:0.274606px;stroke-linecap:butt;stroke-linejoin:miter;stroke-opacity:1"
       d="m 82.383253,55.655394 0.561157,7.672205 -1.717121,1.01813 0.405416,8.315373 14.0279,0.570929 12.668775,-0.480029 2.81912,-0.725733 6.4261,-0.03004 0.11352,-2.421778 2.86687,-0.0695 3.34197,-0.09359 0.0919,-3.408411 -3.96759,-0.181554 -0.35572,-8.458614 -17.92462,-0.325113 -10.649017,-1.513332 z"
       id="path4007"
       sodipodi:nodetypes="ccccccccccccccccc"
       class="UnoptimicedTransforms"
       transform="matrix(4.3941198,-0.20596661,0.20596661,4.3941198,-167.43217,-148.87895)" /><g
       aria-label="   Engineer,   Farmer,  Artisan, Etc."
       transform="matrix(0.99890329,-0.04682183,-0.10687533,1.0061075,1.4031495,6.5736999)"
       id="text712"
       style="font-size:13.1968px;line-height:0.8;font-family:Thadscript;-inkscape-font-specification:Thadscript;stroke-width:1.16389"><path
         d="m 356.49007,136.54255 q 0.79181,-0.066 1.70239,-0.066 0.88419,0 0.89738,-0.0132 h 0.0396 q 0.23755,0 0.44869,0.10557 0.10558,0.0396 0.18476,0.17156 l 0.0924,0.10558 -0.066,0.13196 q -0.11877,0.25074 -0.3959,0.27714 -0.0264,0 -0.066,0.0132 -0.0264,0 -0.0396,0 -0.0528,0 -0.15836,-0.0264 -0.0924,-0.0264 -0.18475,-0.0264 h -1.14812 q -1.02935,0 -1.09534,0.066 -0.0528,0.0264 -0.18475,0.0264 h -0.23755 q -0.44869,0 -1.34607,0.0792 -0.14516,0.0132 -0.32992,0.0132 -0.15836,0 -0.18475,-0.0264 -0.0396,-0.0396 -0.0924,-0.0396 -0.0528,0 -0.13197,-0.0528 -0.066,-0.0528 -0.066,-0.0792 0,-0.0132 -0.0792,-0.14517 -0.0792,-0.11877 -0.0924,-0.54106 -0.0132,-0.46189 -0.0132,-1.08214 0,-0.8314 0.10558,-1.51763 0.0264,-0.13197 0.0264,-1.08214 0,-1.17452 -0.0264,-1.72878 -0.0132,-0.4355 -0.0132,-0.87099 v -0.4355 -0.35631 q -0.0264,-0.0396 0.0132,-0.15836 0.0528,-0.11877 0.10557,-0.14517 0.0528,-0.0396 0.34312,-0.0264 h 0.15836 q 0.27713,0 0.36951,-0.0132 l 0.59385,-0.0396 q 1.41206,-0.0792 1.42526,-0.0924 0.0528,0 0.10557,0.0132 0.15836,0.0396 0.55427,0.0396 0.18475,0 0.19795,-0.0132 0.066,-0.0264 0.10558,-0.0132 0.27713,0.11877 0.97656,0.11877 0.43549,0.0132 0.44869,0.13197 0,0.0396 0.0396,0.10557 0.0396,0.066 0.0528,0.0924 0.0132,0.0792 -0.0528,0.19795 -0.066,0.11877 -0.14516,0.11877 -0.066,0 -0.10558,0.0396 -0.0264,0.0264 -0.50148,0.0264 -0.77861,-0.0132 -1.14812,-0.0528 -0.36951,-0.0396 -0.71263,-0.0396 -0.50147,0 -0.93697,0.0132 -0.62025,0.0132 -0.69943,0.0528 -0.17156,0.066 -0.27713,0.0792 -0.0528,0 -0.0528,0.46188 0,0.0924 -0.0132,0.27714 0,0.18475 0,0.23754 0,0.21115 0.0264,0.54107 0.0396,0.32992 0.0396,0.65984 0,0.58066 0.0264,0.84459 l 0.0132,0.23754 h 0.27713 q 0.14517,0 0.46189,-0.0132 0.31672,-0.0264 0.47508,-0.0264 0.25074,0 0.44869,0.0396 0.0924,0.0264 0.21115,0.18476 0.13197,0.14516 0.13197,0.27713 0,0.0924 -0.066,0.14517 -0.18476,0.18475 -0.4223,0.18475 -0.14516,0 -0.30353,-0.0528 -0.15836,-0.0528 -0.27713,-0.0528 -0.13197,0 -0.23754,0.0132 -0.71263,0.0528 -0.76542,0.11877 -0.0264,0.0264 -0.0528,0.18475 -0.0132,0.14517 -0.0264,0.34312 -0.0132,0.19795 -0.0132,0.21115 -0.0132,0.0924 -0.0132,0.22434 0,0.0132 0,0.11877 0,0.0924 0,0.26394 0.0132,0.15836 0.0132,0.30353 0,0.52787 0.0396,0.805 l 0.0264,0.18476 h 0.60705 q 0.11877,0 0.48828,-0.0264 0.36952,-0.0264 0.50148,-0.0264 z"
         id="path1885" /><path
         d="m 364.31578,132.14801 q 0.0264,0 0.0792,0 l 0.0396,-0.0132 q 0.29033,0 0.42229,0.4091 0.0132,0.0264 0.0132,0.11877 0,0.14516 -0.0528,0.63345 -0.0396,0.48828 -0.0396,0.60705 v 0.14516 q 0,1.13493 -0.066,1.35927 -0.0132,0.0528 -0.0132,0.34312 v 0.19795 0.23755 q 0,0.42229 -0.19795,0.50147 -0.15836,0.0528 -0.19795,0.0528 -0.0924,0 -0.26394,-0.10557 -0.23754,-0.14517 -0.43549,-0.50148 -0.19795,-0.36951 -0.27713,-0.47509 -0.066,-0.066 -0.066,-0.10557 0,-0.0264 -0.0528,-0.066 -0.0396,-0.0132 -0.14516,-0.15837 -0.0924,-0.14516 -0.10557,-0.15836 -0.0132,-0.0132 -0.18476,-0.30352 -0.0264,-0.0528 -0.22435,-0.34312 l -0.0528,-0.0792 q -0.066,-0.0924 -0.11877,-0.18476 l -0.0528,-0.0792 q -0.0264,0 -0.0264,-0.0528 0,-0.0396 -0.066,-0.13196 -0.0528,-0.0924 -0.0792,-0.0924 -0.0264,0 -0.0264,1.33288 0,1.33287 -0.066,1.41205 -0.0924,0.11877 -0.26393,0.11877 -0.14517,0 -0.30353,-0.0792 -0.14516,-0.0924 -0.21115,-0.19795 -0.0396,-0.0528 -0.0396,-0.27713 0,-0.0924 0.0264,-0.22435 0.066,-0.26393 0.066,-1.2273 0,-0.43549 -0.0132,-0.96337 -0.0132,-0.54106 -0.0264,-0.91057 -0.0132,-0.36951 -0.0132,-0.38271 v -0.0396 q 0.0132,-0.0396 0.0132,-0.066 0,-0.11877 0.15836,-0.18475 h 0.0528 q 0.32992,0 0.44869,0.0924 l 0.11877,0.0792 q 0.066,0.0132 0.17156,0.17156 0.11877,0.15836 0.15836,0.29033 0.0396,0.11877 0.18475,0.4091 0.15837,0.29033 0.22435,0.36951 0.0396,0.0396 0.14517,0.23754 0.11877,0.18475 0.11877,0.21115 0,0.0528 0.29033,0.43549 0.0132,0.0132 0.0528,0.0792 0.0528,0.0528 0.11877,0.14517 0.0792,0.0924 0.13197,0.15836 l 0.23754,0.29033 q 0.0792,-0.19795 0.0924,-2.01911 0.0132,-0.60705 0.0132,-0.68624 0.0132,-0.0924 0.10557,-0.19795 0.10558,-0.10557 0.19796,-0.13197 z"
         id="path1887" /><path
         d="m 368.73671,136.02787 q 0.0396,0 0.0792,0.0792 0.0396,0.0792 0.066,0.0792 0.0396,0 0.13197,0.066 0.10557,0.066 0.13197,0.0792 0.0528,0.0132 0.25074,0.13197 0.19795,0.11877 0.30352,0.14516 0.0792,0.0264 0.18476,0.0264 0.17156,0 0.3827,-0.0264 0.30353,-0.0264 0.39591,-0.0792 0.17156,-0.10557 0.26393,-0.48828 0.0396,-0.18475 0.0396,-0.30353 0,-0.17155 -0.0132,-0.30352 -0.0264,-0.31673 -0.066,-0.38271 -0.0396,-0.0792 -0.19795,-0.0792 h -0.10557 q -0.14517,0 -0.27714,0.0264 -0.11877,0.0264 -0.15836,0.0264 -0.10557,0 -0.32992,-0.10558 -0.31672,-0.15836 -0.31672,-0.27713 0,-0.0924 0.0792,-0.18476 0.10558,-0.14516 0.25074,-0.14516 0.0528,0 0.13197,0.0264 0.0924,0.0396 0.22434,0 0.0792,-0.0132 0.34312,-0.0132 0.10557,0 0.25074,-0.0396 0.15836,-0.0396 0.25074,-0.0396 0.0792,0 0.13197,0.0132 0.18475,0.0264 0.25074,0.0792 0.066,0.0396 0.22434,0.23755 0.17156,0.21114 0.17156,0.98976 0,0.73902 -0.17156,1.12172 -0.066,0.15837 -0.19795,0.29033 -0.13197,0.11877 -0.23754,0.13197 -0.0528,0 -0.4223,0.0792 -0.35631,0.0792 -0.68623,0.0792 -0.34312,0 -0.54107,-0.0792 -0.17156,-0.066 -0.26394,-0.066 -0.066,0 -0.15836,-0.066 -0.0792,-0.0528 -0.35631,-0.18475 -0.26394,-0.14517 -0.39591,-0.27713 -0.14516,-0.14517 -0.17156,-0.14517 -0.0264,0 -0.0924,-0.0792 -0.066,-0.0924 -0.0792,-0.10557 -0.066,-0.0396 -0.066,-0.0924 0,-0.0264 -0.11877,-0.17156 -0.31672,-0.36951 -0.31672,-0.85779 0,-0.13197 0.0132,-0.21115 0.0264,-0.19795 0.26394,-0.71263 0.32992,-0.76541 1.31968,-1.6496 0.066,-0.0528 0.50148,-0.27713 0.0528,-0.0264 0.10557,-0.0264 0.0528,0 0.0792,-0.0264 0.0132,-0.0132 0.26394,-0.0396 0.25074,-0.0396 0.29033,-0.0396 0.0132,0 0.0924,0.0132 0.0792,0.0132 0.11877,0.0132 0.18475,0 0.35631,0.13196 0.0924,0.066 0.11877,0.066 0.0264,0 0.21115,0.13197 0.18476,0.13196 0.21115,0.17155 0.0528,0.0528 0.11877,0.18476 0.0792,0.14516 0.0264,0.27713 -0.10557,0.21115 -0.26393,0.21115 -0.13197,0 -0.34312,-0.14516 -0.4223,-0.29033 -0.73902,-0.29033 -0.0132,0 -0.0528,0.0132 -0.0264,0 -0.0396,0 -0.10557,0.0264 -0.32992,0.14517 -0.18475,0.11877 -0.22434,0.11877 -0.0396,0 -0.29033,0.25074 -0.25074,0.25074 -0.29033,0.34311 -0.0396,0.0528 -0.11877,0.15837 -0.0792,0.0924 -0.11877,0.15836 -0.0396,0.066 -0.11877,0.17156 -0.066,0.10557 -0.10558,0.18475 -0.19795,0.39591 -0.22434,0.54107 -0.0132,0.0792 -0.0132,0.22435 0,0.19795 0.066,0.35631 0.066,0.13197 0.066,0.17156 0,0.0396 0.10557,0.15836 0.11877,0.10557 0.14517,0.10557 z"
         id="path1889" /><path
         d="m 373.87027,132.18761 q 0.0792,0 1.33287,-0.0924 0.10558,-0.0132 0.29033,-0.0132 0.25074,0 0.60706,0.0528 0.13196,0.0132 0.25073,-0.0132 0.0264,-0.0132 0.0792,-0.0132 0.17155,0 0.31672,0.11878 0.066,0.066 0.10557,0.066 0.0528,0 0.14517,0.30353 0.0132,0.0264 0.0132,0.0792 0,0.14516 -0.15836,0.25074 -0.14516,0.0924 -0.31672,0.0924 -0.10557,0 -0.17156,-0.0396 -0.21115,-0.11877 -0.59385,-0.11877 h -0.0396 q -0.0924,0.0132 -0.11877,0.0396 -0.0264,0.0264 -0.0528,0.15836 -0.0264,0.10558 -0.0264,0.4091 0,0.30353 0.0264,0.46189 0.0264,0.15836 0.0396,0.59386 0.0264,0.43549 0.0396,0.52787 0,0.066 0.0264,0.34312 0.0264,0.26393 0.0396,0.51467 0.0132,0.23755 0.0132,0.32992 0.0132,0.0528 0.3959,0.0528 0.19795,0 0.27713,-0.0132 0.0528,-0.0132 0.14517,-0.0132 0.26394,0 0.44869,0.22434 0.10558,0.14517 0.10558,0.25074 0,0.21115 -0.27714,0.30353 -0.13197,0.0528 -0.76541,0.066 -0.32992,0.0132 -0.72583,0.0132 -0.35631,0 -0.46188,-0.0528 -0.10558,-0.0528 -0.17156,-0.0264 -0.0396,0.0132 -0.14517,0 -0.10557,-0.0132 -0.13197,0.0132 -0.0264,0.0264 -0.15836,0.0264 -0.066,0 -0.19795,0.0528 -0.10557,0.0396 -0.27713,0.0396 -0.14517,0 -0.17156,-0.0264 -0.0396,-0.0396 -0.11877,-0.0528 -0.13197,-0.0264 -0.22435,-0.13196 -0.0792,-0.11877 -0.0792,-0.23755 0,-0.066 0.0132,-0.0924 0.0924,-0.21115 0.19795,-0.21115 h 0.0396 q 0.0396,0 0.0924,0 0.066,0 0.13197,0 0.0792,-0.0132 0.18475,-0.0132 0.10558,0 0.19795,0 0.62025,-0.0132 0.65984,-0.0528 0.11878,-0.11877 0.11878,-0.52787 0,-0.0264 -0.0132,-0.066 0,-0.0528 0,-0.0792 v -0.11877 q 0,-0.066 0,-0.11878 0.0132,-0.0528 0.0132,-0.066 0,-0.0132 -0.0264,-0.14516 -0.0396,-0.13197 0,-0.17156 0.0264,-0.0528 0.0264,-0.27714 0,-0.3827 -0.0528,-0.59385 -0.0396,-0.14517 -0.0396,-0.69943 v -0.50148 -0.0924 q 0,-0.0132 -0.0528,-0.0132 -0.25074,0 -0.38271,0.10557 -0.17155,0.11877 -0.34311,0.11877 -0.0132,0 -0.0396,-0.0132 h -0.0264 q -0.10557,-0.0264 -0.32992,-0.22434 -0.21115,-0.21115 -0.21115,-0.38271 0,-0.0924 0.0528,-0.14516 0.11877,-0.15836 0.4223,-0.15836 z"
         id="path1891" /><path
         d="m 382.09187,132.14801 q 0.0264,0 0.0792,0 l 0.0396,-0.0132 q 0.29033,0 0.4223,0.4091 0.0132,0.0264 0.0132,0.11877 0,0.14516 -0.0528,0.63345 -0.0396,0.48828 -0.0396,0.60705 v 0.14516 q 0,1.13493 -0.066,1.35927 -0.0132,0.0528 -0.0132,0.34312 v 0.19795 0.23755 q 0,0.42229 -0.19795,0.50147 -0.15836,0.0528 -0.19795,0.0528 -0.0924,0 -0.26394,-0.10557 -0.23754,-0.14517 -0.43549,-0.50148 -0.19795,-0.36951 -0.27713,-0.47509 -0.066,-0.066 -0.066,-0.10557 0,-0.0264 -0.0528,-0.066 -0.0396,-0.0132 -0.14517,-0.15837 -0.0924,-0.14516 -0.10557,-0.15836 -0.0132,-0.0132 -0.18476,-0.30352 -0.0264,-0.0528 -0.22434,-0.34312 l -0.0528,-0.0792 q -0.066,-0.0924 -0.11877,-0.18476 l -0.0528,-0.0792 q -0.0264,0 -0.0264,-0.0528 0,-0.0396 -0.066,-0.13196 -0.0528,-0.0924 -0.0792,-0.0924 -0.0264,0 -0.0264,1.33288 0,1.33287 -0.066,1.41205 -0.0924,0.11877 -0.26393,0.11877 -0.14517,0 -0.30353,-0.0792 -0.14516,-0.0924 -0.21115,-0.19795 -0.0396,-0.0528 -0.0396,-0.27713 0,-0.0924 0.0264,-0.22435 0.066,-0.26393 0.066,-1.2273 0,-0.43549 -0.0132,-0.96337 -0.0132,-0.54106 -0.0264,-0.91057 -0.0132,-0.36951 -0.0132,-0.38271 v -0.0396 q 0.0132,-0.0396 0.0132,-0.066 0,-0.11877 0.15836,-0.18475 h 0.0528 q 0.32992,0 0.44869,0.0924 l 0.11877,0.0792 q 0.066,0.0132 0.17156,0.17156 0.11877,0.15836 0.15836,0.29033 0.0396,0.11877 0.18476,0.4091 0.15836,0.29033 0.22434,0.36951 0.0396,0.0396 0.14517,0.23754 0.11877,0.18475 0.11877,0.21115 0,0.0528 0.29033,0.43549 0.0132,0.0132 0.0528,0.0792 0.0528,0.0528 0.11878,0.14517 0.0792,0.0924 0.13196,0.15836 l 0.23755,0.29033 q 0.0792,-0.19795 0.0924,-2.01911 0.0132,-0.60705 0.0132,-0.68624 0.0132,-0.0924 0.10557,-0.19795 0.10558,-0.10557 0.19796,-0.13197 z"
         id="path1893" /><path
         d="m 385.60222,132.41195 q 0.0396,0 0.0396,-0.0264 0,-0.0264 0.21115,-0.0264 0.21115,0 0.21115,0.0264 0,0.0264 0.10557,0 0.0396,-0.0132 0.21115,-0.0132 0.29033,0 0.3959,0.0264 h 0.0528 q 0.0396,0 0.18476,0 0.14516,-0.0132 0.19795,-0.0132 h 0.0396 q 0.0528,0.0264 0.31672,0.0264 0.0924,0 0.23754,0.0132 0.14517,0 0.15837,0 0.0792,0 0.15836,-0.0132 0.0924,-0.0132 0.11877,-0.0132 0.0924,0 0.22434,0.11878 0.23755,0.23754 0.23755,0.3959 0,0.11877 -0.10558,0.22434 -0.10557,0.10558 -0.31672,0.10558 -0.0792,0 -0.31672,-0.0528 -0.47509,-0.11877 -0.77862,-0.11877 h -0.0396 -0.066 q -0.066,0 -0.15836,0.0132 -0.0924,0 -0.18476,0 -0.21115,0 -0.30352,0.0132 -0.0924,0 -0.19795,0.0528 -0.0924,0.0528 -0.10558,0.15836 0,0.0132 -0.0132,0.0792 0,0.0528 0,0.0924 0,0.8182 0.0792,0.89738 0.0132,0.0132 0.0924,0.0132 0.29033,0 0.46189,-0.0792 0.0924,-0.0396 0.14517,-0.0396 0.10557,0 0.30352,0.19795 0.13197,0.13197 0.13197,0.26394 0,0.14516 -0.0792,0.21115 -0.0396,0.0396 -0.0924,0.0396 -0.0396,0 -0.0792,0.0132 -0.0792,0.0396 -0.32992,0.0396 -0.63345,0.0264 -0.63345,0.0792 l 0.0132,0.0792 q 0,0.0792 0,0.21114 0,0.13197 0,0.25074 0.0132,0.51468 0.0792,0.56747 0.0396,0.0264 0.13197,0.0264 0.0264,0 0.29033,-0.0264 0.23754,-0.0132 0.46189,-0.0792 0.22434,-0.066 0.3827,-0.0792 0.15837,-0.0132 0.29033,-0.0528 h 0.0528 q 0.15836,0 0.32992,0.14516 0.17156,0.13197 0.17156,0.30353 0,0.0924 -0.0792,0.19795 -0.066,0.0924 -0.29033,0.10557 -0.0528,0 -0.0924,0 -0.22434,0 -0.58066,0.066 -0.58066,0.10557 -0.96336,0.15836 -0.0528,0.0132 -0.22435,0.066 -0.17156,0.0528 -0.26394,0.0528 -0.0132,0 -0.0528,0 -0.0264,-0.0132 -0.0396,-0.0132 -0.39591,-0.0924 -0.44869,-0.30352 -0.0396,-0.13197 -0.0396,-0.27713 0,-0.19796 0.0528,-0.30353 0.10558,-0.25074 0.10558,-1.49124 0,-0.17156 0,-0.36951 0,-0.19795 -0.0132,-0.35631 0,-0.17156 0,-0.32992 0,-0.17156 -0.0132,-0.29033 0,-0.13197 -0.0132,-0.22435 0,-0.10557 0,-0.15836 v -0.0528 l -0.0264,-0.31672 0.10558,-0.10557 q 0.13197,-0.10558 0.15836,-0.10558 z"
         id="path1895" /><path
         d="m 390.43224,132.41195 q 0.0396,0 0.0396,-0.0264 0,-0.0264 0.21115,-0.0264 0.21114,0 0.21114,0.0264 0,0.0264 0.10558,0 0.0396,-0.0132 0.21115,-0.0132 0.29033,0 0.3959,0.0264 h 0.0528 q 0.0396,0 0.18475,0 0.14517,-0.0132 0.19796,-0.0132 h 0.0396 q 0.0528,0.0264 0.31672,0.0264 0.0924,0 0.23754,0.0132 0.14517,0 0.15836,0 0.0792,0 0.15836,-0.0132 0.0924,-0.0132 0.11878,-0.0132 0.0924,0 0.22434,0.11878 0.23754,0.23754 0.23754,0.3959 0,0.11877 -0.10557,0.22434 -0.10557,0.10558 -0.31672,0.10558 -0.0792,0 -0.31673,-0.0528 -0.47508,-0.11877 -0.77861,-0.11877 h -0.0396 -0.066 q -0.066,0 -0.15836,0.0132 -0.0924,0 -0.18476,0 -0.21115,0 -0.30353,0.0132 -0.0924,0 -0.19795,0.0528 -0.0924,0.0528 -0.10557,0.15836 0,0.0132 -0.0132,0.0792 0,0.0528 0,0.0924 0,0.8182 0.0792,0.89738 0.0132,0.0132 0.0924,0.0132 0.29033,0 0.46189,-0.0792 0.0924,-0.0396 0.14516,-0.0396 0.10558,0 0.30353,0.19795 0.13197,0.13197 0.13197,0.26394 0,0.14516 -0.0792,0.21115 -0.0396,0.0396 -0.0924,0.0396 -0.0396,0 -0.0792,0.0132 -0.0792,0.0396 -0.32992,0.0396 -0.63345,0.0264 -0.63345,0.0792 l 0.0132,0.0792 q 0,0.0792 0,0.21114 0,0.13197 0,0.25074 0.0132,0.51468 0.0792,0.56747 0.0396,0.0264 0.13197,0.0264 0.0264,0 0.29033,-0.0264 0.23754,-0.0132 0.46188,-0.0792 0.22435,-0.066 0.38271,-0.0792 0.15836,-0.0132 0.29033,-0.0528 h 0.0528 q 0.15836,0 0.32992,0.14516 0.17156,0.13197 0.17156,0.30353 0,0.0924 -0.0792,0.19795 -0.066,0.0924 -0.29033,0.10557 -0.0528,0 -0.0924,0 -0.22435,0 -0.58066,0.066 -0.58066,0.10557 -0.96337,0.15836 -0.0528,0.0132 -0.22434,0.066 -0.17156,0.0528 -0.26394,0.0528 -0.0132,0 -0.0528,0 -0.0264,-0.0132 -0.0396,-0.0132 -0.3959,-0.0924 -0.44869,-0.30352 -0.0396,-0.13197 -0.0396,-0.27713 0,-0.19796 0.0528,-0.30353 0.10557,-0.25074 0.10557,-1.49124 0,-0.17156 0,-0.36951 0,-0.19795 -0.0132,-0.35631 0,-0.17156 0,-0.32992 0,-0.17156 -0.0132,-0.29033 0,-0.13197 -0.0132,-0.22435 0,-0.10557 0,-0.15836 v -0.0528 l -0.0264,-0.31672 0.10557,-0.10557 q 0.13197,-0.10558 0.15837,-0.10558 z"
         id="path1897" /><path
         d="m 397.22858,132.92663 q -0.14516,-0.066 -0.48828,-0.066 -0.31672,0.0132 -0.44869,0.0528 -0.11877,0.0396 -0.26394,0.19795 -0.066,0.066 -0.10557,0.066 -0.0528,0 -0.0528,0.19795 0,0.17156 0.0396,0.60705 l 0.0264,0.21115 0.17156,0.0264 h 0.066 q 0.0396,0 0.11877,0 0.0924,-0.0132 0.11877,-0.0132 0.0924,0 0.13197,0.0396 0.0264,0.0264 0.0528,0.0264 0.0528,0 0.17156,-0.0528 0.13197,-0.066 0.17156,-0.066 0.0396,0 0.0792,-0.0396 0.0264,-0.0264 0.14517,-0.0264 0.26393,0 0.43549,-0.23754 0.066,-0.0792 0.066,-0.27713 0,-0.29033 -0.13196,-0.36951 -0.0528,-0.0264 -0.0924,-0.10558 -0.0396,-0.0924 -0.21115,-0.17155 z m -1.30648,2.73173 v 0.11877 q 0,0.17156 -0.066,0.46189 -0.0528,0.27714 -0.0528,0.4355 0,0.21115 -0.0396,0.29033 -0.0264,0.066 -0.15837,0.17156 -0.10557,0.0924 -0.18475,0.066 -0.0924,-0.0264 -0.10558,-0.0132 -0.0264,0.0264 -0.14516,-0.0396 -0.11877,-0.066 -0.17156,-0.13197 -0.0924,-0.0924 -0.0924,-0.27713 0,-0.0396 0.0264,-0.25074 0.0396,-0.27713 0.0264,-0.31672 -0.0264,-0.0528 0,-0.19795 0.066,-0.35632 0.10557,-1.06894 0.0264,-0.68624 0.0264,-0.8578 0,-0.64664 -0.11877,-1.16131 -0.0396,-0.18476 -0.0396,-0.25074 0,-0.066 0.0396,-0.18476 0.0528,-0.17156 0.0924,-0.19795 0.0396,-0.0264 0.26394,-0.0264 h 0.0528 q 0.15836,0 0.27713,-0.0132 0.11877,-0.0264 0.25074,-0.0528 0.13197,-0.0264 0.22435,-0.0396 0.21114,-0.0264 0.35631,-0.0264 0.96337,0 1.35927,0.21115 0.0792,0.0396 0.11877,0.0924 0.0528,0.0396 0.10558,0.11878 0.0528,0.0792 0.10557,0.13196 0.15836,0.15836 0.15836,0.17156 0,0.0528 0.066,0.11877 0.066,0.0792 0.15836,0.4223 0.066,0.21115 0.066,0.3959 0,0.15837 -0.11877,0.39591 -0.25074,0.34312 -0.47509,0.43549 -0.11877,0.0528 -0.11877,0.30353 0,0.23754 0.0924,0.4223 0.0528,0.0924 0.0528,0.17156 0,0.0396 0.0792,0.14516 0.0132,0.0132 0.0528,0.10557 0.0396,0.0792 0.066,0.15837 0.0396,0.066 0.066,0.066 0.0264,0 0.0792,0.0792 0.0792,0.15836 0.22434,0.32992 0.11877,0.11877 0.11877,0.35631 0,0.14517 -0.066,0.21115 -0.0792,0.0792 -0.35632,0.0792 -0.29033,0 -0.3827,-0.0924 -0.0792,-0.0792 -0.14517,-0.23755 -0.11877,-0.27713 -0.25074,-0.43549 -0.0924,-0.11877 -0.13196,-0.22435 -0.0132,-0.0396 -0.17156,-0.3827 -0.0792,-0.17156 -0.17156,-0.44869 -0.0264,-0.0924 -0.066,-0.15837 -0.0396,-0.066 -0.0792,-0.0792 -0.0264,-0.0264 -0.0528,0 -0.0264,0.0264 -0.29033,0.0792 -0.11877,0.0264 -0.31673,0.0264 -0.21115,0 -0.35631,-0.0264 v 0.26394 q 0,0.0792 0,0.21115 0.0132,0.13197 0.0132,0.14516 z"
         id="path1899" /><path
         d="m 400.50137,135.98828 q 0,-0.0528 0.10558,-0.11877 0.10557,-0.066 0.19795,-0.066 0.0528,0 0.0792,0.0396 0.0264,0.0264 0.10558,0.0264 0.0792,0 0.0792,0.0396 0,0.0264 0.0924,0.0528 0.22435,0.0528 0.27714,0.38271 0.0264,0.21115 0.0264,0.32992 0,0.48828 -0.15836,0.77861 -0.18476,0.4223 -0.32992,0.59385 -0.13197,0.15837 -0.34312,0.15837 -0.0132,0 -0.0528,0 -0.0396,-0.0132 -0.066,-0.0132 -0.35631,-0.066 -0.35631,-0.25074 0,-0.0792 0.0924,-0.15836 0.26393,-0.25074 0.30352,-0.38271 l 0.066,-0.19795 q 0.066,-0.14517 0.066,-0.26394 0,-0.0792 -0.10557,-0.13196 -0.14517,-0.066 -0.14517,-0.4223 v -0.10558 q 0.0264,-0.21115 0.0396,-0.22434 0.0264,-0.0264 0.0264,-0.066 z"
         id="path1901" /><path
         d="m 354.66627,149.10853 q 0.79181,-0.066 1.70239,-0.066 0.88419,0 0.89738,-0.0132 h 0.0396 q 0.23755,0 0.44869,0.10557 0.10558,0.0396 0.18476,0.17156 l 0.0924,0.10558 -0.066,0.13196 q -0.11877,0.25074 -0.3959,0.27714 -0.0264,0 -0.066,0.0132 -0.0264,0 -0.0396,0 -0.0528,0 -0.15836,-0.0264 -0.0924,-0.0264 -0.18475,-0.0264 h -1.14812 q -1.02935,0 -1.09534,0.066 -0.0528,0.0264 -0.18475,0.0264 h -0.23755 q -0.44869,0 -1.34607,0.0792 -0.14516,0.0132 -0.32992,0.0132 -0.15836,0 -0.18475,-0.0264 -0.0396,-0.0396 -0.0924,-0.0396 -0.0528,0 -0.13197,-0.0528 -0.066,-0.0528 -0.066,-0.0792 0,-0.0132 -0.0792,-0.14516 -0.0792,-0.11878 -0.0924,-0.54107 -0.0132,-0.46189 -0.0132,-1.08214 0,-0.8314 0.10558,-1.51763 0.0264,-0.13197 0.0264,-1.08214 0,-1.17452 -0.0264,-1.72878 -0.0132,-0.4355 -0.0132,-0.87099 v -0.43549 -0.35632 q -0.0264,-0.0396 0.0132,-0.15836 0.0528,-0.11877 0.10557,-0.14516 0.0528,-0.0396 0.34312,-0.0264 h 0.15836 q 0.27713,0 0.36951,-0.0132 l 0.59385,-0.0396 q 1.41206,-0.0792 1.42526,-0.0924 0.0528,0 0.10557,0.0132 0.15836,0.0396 0.55427,0.0396 0.18475,0 0.19795,-0.0132 0.066,-0.0264 0.10558,-0.0132 0.27713,0.11877 0.97656,0.11877 0.43549,0.0132 0.44869,0.13197 0,0.0396 0.0396,0.10557 0.0396,0.066 0.0528,0.0924 0.0132,0.0792 -0.0528,0.19795 -0.066,0.11877 -0.14516,0.11877 -0.066,0 -0.10558,0.0396 -0.0264,0.0264 -0.50148,0.0264 -0.77861,-0.0132 -1.14812,-0.0528 -0.36951,-0.0396 -0.71263,-0.0396 -0.50147,0 -0.93697,0.0132 -0.62025,0.0132 -0.69943,0.0528 -0.17156,0.066 -0.27713,0.0792 -0.0528,0 -0.0528,0.46188 0,0.0924 -0.0132,0.27714 0,0.18475 0,0.23754 0,0.21115 0.0264,0.54107 0.0396,0.32992 0.0396,0.65984 0,0.58066 0.0264,0.84459 l 0.0132,0.23755 h 0.27713 q 0.14517,0 0.46189,-0.0132 0.31672,-0.0264 0.47508,-0.0264 0.25074,0 0.44869,0.0396 0.0924,0.0264 0.21115,0.18475 0.13197,0.14517 0.13197,0.27713 0,0.0924 -0.066,0.14517 -0.18476,0.18475 -0.4223,0.18475 -0.14516,0 -0.30353,-0.0528 -0.15836,-0.0528 -0.27713,-0.0528 -0.13197,0 -0.23754,0.0132 -0.71263,0.0528 -0.76542,0.11877 -0.0264,0.0264 -0.0528,0.18475 -0.0132,0.14517 -0.0264,0.34312 -0.0132,0.19795 -0.0132,0.21115 -0.0132,0.0924 -0.0132,0.22434 0,0.0132 0,0.11877 0,0.0924 0,0.26394 0.0132,0.15836 0.0132,0.30353 0,0.52787 0.0396,0.805 l 0.0264,0.18476 h 0.60705 q 0.11877,0 0.48828,-0.0264 0.36952,-0.0264 0.50148,-0.0264 z"
         id="path1933" /><path
         d="m 361.09312,145.59818 q -0.18476,0.0396 -0.51468,0.0396 -0.52787,0.0396 -0.54107,0.0396 -0.14516,0 -0.17156,0.0132 -0.0132,0.0132 -0.066,-0.0264 -0.0396,-0.0396 -0.10558,-0.066 -0.23754,-0.10557 -0.23754,-0.36951 0,-0.0132 0,-0.0396 0.0132,-0.0396 0.0132,-0.0528 0.0264,-0.15836 0.066,-0.19795 0.14517,-0.0924 0.36951,-0.0528 0.13197,0.0264 0.59386,0.0264 0.47508,0 0.51467,-0.0396 0.10558,-0.10558 0.4487,-0.10558 0.0396,0 0.88418,0.0264 0.10558,0 0.35631,-0.0264 0.25074,-0.0396 0.36952,-0.0396 0.21114,0 0.29032,0.066 0.0792,0.0528 0.13197,0.0528 0.0396,0 0.13197,0.0924 0.10558,0.0792 0.14517,0.15836 0.0264,0.0792 0.0264,0.17156 0,0.26394 -0.13197,0.26394 -0.0528,0 -0.0792,0.0264 -0.0264,0.0264 -0.8314,0.0264 -0.805,0 -0.8314,0.0264 -0.0396,0.0396 -0.0396,0.98976 0,0.84459 -0.0528,1.42525 -0.0264,0.17156 -0.0264,0.36951 0,0.11877 0.0132,0.14517 0.0396,0.10557 0.0396,0.17156 0,0.066 -0.0396,0.21114 -0.0396,0.13197 -0.0396,0.21115 -0.0264,0.38271 -0.27713,0.52788 -0.0792,0.0396 -0.18476,0.0396 -0.0924,0 -0.22434,-0.0396 -0.14517,-0.0396 -0.18476,-0.0924 -0.0396,-0.0528 -0.0396,-0.19795 v -0.10558 q 0.0264,-0.56746 0.0924,-1.01615 0.0792,-0.46189 0.0924,-1.31968 0,-0.17156 0,-0.4223 0.0132,-0.25074 0.0132,-0.4091 0.0132,-0.17156 0.0132,-0.23754 z"
         id="path1935" /><path
         d="m 365.60642,148.805 q 0,-0.0132 -0.0924,-0.15836 -0.0924,-0.14516 -0.0924,-0.15836 0,-0.0264 -0.0396,-0.10557 -0.0396,-0.0792 -0.0924,-0.48829 -0.0396,-0.27713 -0.0396,-0.54106 0,-0.48829 0.13197,-0.79181 0.0396,-0.0792 0.0396,-0.15836 0,-0.0528 0.0396,-0.0924 0.0396,-0.0396 0.11877,-0.22435 0.14517,-0.36951 0.38271,-0.47508 0.0528,-0.0132 0.19795,-0.13197 0.0924,-0.0792 0.38271,-0.25074 0.30353,-0.18475 0.32992,-0.18475 0.0264,0 0.13197,-0.066 0.14516,-0.0792 0.48828,-0.14516 h 0.066 q 0.17156,0 0.4091,0.11877 0.25074,0.10557 0.34312,0.17156 0.0396,0.0396 0.14517,0.10557 0.10557,0.066 0.14516,0.14517 0.0528,0.0792 0.0528,0.25073 0,0.13197 -0.0264,0.18476 -0.0264,0.0396 -0.13196,0.066 h -0.0396 q -0.30353,0 -0.55427,-0.22434 -0.0924,-0.0924 -0.17156,-0.0924 -0.0132,0 -0.0924,0.0132 -0.0792,0.0132 -0.14516,0.0132 -0.11877,0 -0.36951,0.14517 -0.15836,0.0792 -0.38271,0.23754 -0.21115,0.15836 -0.22434,0.19795 -0.0264,0.0396 -0.066,0.066 -0.0396,0.0132 -0.18475,0.30352 -0.14517,0.29033 -0.14517,0.35632 0,0.0396 -0.0264,0.066 -0.10558,0.10558 -0.10558,0.65984 0,0.31672 0.066,0.4223 0.0264,0.0264 0.066,0.15836 0.0396,0.13197 0.066,0.15836 0.0528,0.0528 0.0528,0.0792 0,0.14517 0.26394,0.26394 0.38271,0.17156 0.55427,0.17156 0.0528,0 0.47508,-0.0528 0.18476,-0.0264 0.27713,-0.14516 0.10558,-0.10558 0.35632,-0.19796 l 0.15836,0.15837 q 0.14516,0.14516 0.14516,0.29032 0,0.11878 -0.0792,0.25074 -0.11877,0.22435 -0.25074,0.30353 -0.11877,0.066 -0.3827,0.066 -0.18476,0 -0.30353,-0.0132 -0.0792,0 -0.22435,-0.0132 -0.14516,-0.0132 -0.25074,-0.0132 -0.10557,-0.0132 -0.15836,-0.0132 -0.22434,0 -0.30352,-0.066 -0.0924,-0.066 -0.11877,-0.066 -0.0264,0 -0.11878,-0.0792 -0.0792,-0.0792 -0.11877,-0.0792 -0.066,0 -0.26393,-0.15836 -0.19796,-0.15837 -0.22435,-0.17156 -0.066,-0.0264 -0.066,-0.066 z"
         id="path1937" /><path
         d="m 370.35726,148.805 q 0.11877,-0.0792 0.15836,-0.0396 0.0132,0.0132 0.14517,0.0792 0.29033,0.11878 0.29033,0.29033 0,0.0924 -0.066,0.23755 -0.066,0.14516 -0.10557,0.14516 -0.066,0 -0.11877,0.0528 -0.066,0.0528 -0.17156,0.0528 -0.14516,0 -0.29033,-0.0792 -0.14516,-0.0924 -0.14516,-0.18475 0,-0.35631 0.30352,-0.55427 z"
         id="path1939" /></g><path
       d="m 235.91972,82.903105 q 0.69757,-0.03255 1.13791,0.412709 0.43813,0.39894 0.47085,1.096485 -0.0233,1.492496 -1.79042,1.575328 -0.23253,0.011 -0.98095,-0.04724 -0.56459,-0.113361 -1.02964,-0.09154 -0.0465,0.0022 -5.35235,0.157658 l -1.44381,0.02111 0.0937,1.999685 q 0.2507,5.347995 0.011,6.198152 -0.0378,0.188187 -0.0158,0.653239 0.007,0.13949 0.0348,0.744068 0.0726,0.555873 0.202,2.320852 0.12713,1.718479 0.26521,3.669479 0.18023,1.85581 0.22818,2.8789 0.0501,1.0696 0.15189,1.25126 0.0487,0.0443 0.0835,0.7884 0.0502,1.0696 -0.0277,1.39949 -0.12427,0.33208 -0.14024,0.98531 -0.056,0.79493 -0.37057,1.04271 -0.53843,0.4447 -1.46851,0.48829 -0.41856,0.0198 -0.8567,-0.37932 -0.43818,-0.39894 -0.6169,-1.22945 -0.12793,-0.73971 -0.13228,-0.83272 -0.009,-0.18599 0.10465,-0.75061 0.15766,-0.61328 0.0422,-3.07801 -0.11336,-2.41822 -0.16201,-2.46254 -0.1969,-0.22382 -0.42142,-5.01375 -0.16567,-3.534327 -0.0719,-4.517456 0.12497,-1.310833 0.007,-3.822071 -0.0698,-1.488132 -0.17151,-1.669791 -0.1504,-0.226018 -0.75715,-0.244141 -0.74843,-0.05815 -2.28307,0.01364 -1.44163,0.06757 -2.55338,0.212909 -0.46286,0.06827 -1.39295,0.111865 -1.76716,0.08283 -2.19878,-0.176573 -0.76804,-0.476665 -0.80946,-1.360251 -0.0281,-0.604555 0.32847,-0.947523 0.26596,-0.29209 1.05652,-0.329173 0.32552,-0.0154 0.46722,0.02463 0.23688,0.08213 1.35298,0.02991 0.23253,-0.011 1.53464,-0.07192 1.34645,-0.10971 2.50905,-0.164213 4.92728,-0.277529 6.73005,-0.595098 0.83272,-0.132276 1.90231,-0.18238 0.97659,-0.04579 1.16697,0.03871 0.19034,0.08433 1.0231,-0.04795 0.55369,-0.119167 0.73971,-0.127921 0.23252,-0.011 0.69974,0.01364 0.51373,0.02243 0.79275,0.0092 l 0.51155,-0.02419 q 0.50936,-0.07047 0.83925,0.007 0.32768,0.03123 0.56024,0.02023 z"
       id="path814"
       style="font-size:10.5833px;line-height:0.75;font-family:Thadscript;-inkscape-font-specification:Thadscript;fill:#000000;stroke:#000000;stroke-width:0.879789;stroke-dasharray:none;stroke-opacity:1" /><path
       d="m 253.31231,108.93318 q -0.0154,-0.32552 -0.11702,-0.50718 -0.10174,-0.18163 -0.11701,-0.50719 -0.011,-0.23253 -0.11481,-0.46068 -0.0596,-0.27687 -0.0303,-0.65106 0.17802,-1.17352 0.11265,-2.56865 -0.0242,-0.51154 -0.0748,-0.60237 -0.20781,-0.45633 -0.48902,-0.48975 -0.46941,-0.0712 -0.51809,-0.11552 -0.0487,-0.0443 -0.46722,-0.0246 -0.97659,0.0458 -2.86583,0.5072 -1.84491,0.41271 -2.06653,0.65614 -0.0887,0.0974 -0.0365,1.21348 0.0348,0.74406 0.0922,0.97441 0.22958,0.92137 0.32988,3.06057 0.0369,0.79057 -0.0538,0.84143 -0.17728,0.19474 -0.17292,0.28774 0.011,0.23252 -1.01656,0.18748 -0.74625,-0.0114 -0.9853,-0.14024 -0.23909,-0.12862 -0.4912,-0.53626 -0.45124,-0.67794 -0.70047,-5.00066 -0.12277,-1.62547 -0.19034,-3.06711 0.0246,-3.45003 -0.0712,-5.496225 -0.0502,-1.069594 -0.10751,-1.299936 -0.17873,-0.830539 -0.001,-1.025276 0.26377,-0.338586 1.05434,-0.375669 0.74407,-0.03475 1.08268,0.228877 0.14605,0.13298 0.33859,0.26376 0.23908,0.128626 0.24563,0.268116 0.0509,0.09084 0.11482,0.460684 0.0618,0.323322 0.0966,1.067421 0.0654,1.395126 0.0246,2.515589 l 0.0348,0.744069 q 0.0523,1.1161 0.20491,1.38859 0.053,0.13733 0.89012,0.0981 l 0.88358,-0.0413 q 0.0887,-0.0974 0.69321,-0.12572 1.62329,-0.16932 2.40732,-0.34589 0.73971,-0.12792 0.97223,-0.13879 l 0.18598,-0.009 q 0.46505,-0.022 0.41271,-1.137896 l -0.037,-0.790574 q -0.16857,-2.602063 -0.34949,-3.479103 -0.11917,-0.553695 -0.12573,-0.693203 -0.0176,-0.372063 0.24199,-0.803656 0.26161,-0.385128 0.58712,-0.400392 0.41856,-0.0198 1.08486,0.275374 1.13789,0.412709 1.18149,1.342812 0.0154,0.325522 -0.0202,0.560232 0.004,0.09304 -0.0334,0.281225 0.007,0.139534 0.009,0.185987 0.009,0.185988 0.0683,0.462866 0.0596,0.276826 0.0683,0.462861 0.0154,0.325522 -0.0224,0.513727 -0.0378,0.188187 0.001,1.025275 0.0698,1.488132 0.25505,2.458185 0.002,0.0465 0.0282,0.60455 0.0242,0.51156 0.0654,1.39513 0.0857,0.8349 0.12278,1.62547 0.19689,3.20663 0.47302,4.12582 0.21872,0.68884 0.24049,1.15389 0.0154,0.32552 -0.27537,1.08486 l -0.97223,0.13878 q -0.8814,0.0879 -1.26433,-0.12717 -0.77023,-0.52317 -0.816,-1.49976 z"
       id="path816"
       style="font-size:10.5833px;line-height:0.75;font-family:Thadscript;-inkscape-font-specification:Thadscript;fill:#000000;stroke:#000000;stroke-width:0.879789;stroke-dasharray:none;stroke-opacity:1" /><path
       d="m 271.48673,98.94642 q -0.18093,-0.877044 -0.79783,-2.1065 -0.0487,-0.0443 -0.0952,-0.04223 -0.37206,0.0176 -1.38133,2.348464 -0.92718,2.094146 -0.9141,2.373166 l 0.0508,0.0908 q 0.0974,0.0887 0.70193,0.0603 0.37206,-0.0176 0.69974,0.0136 0.32767,0.0312 0.46722,0.0246 0.0465,-0.002 0.78621,-0.13007 l 0.97006,-0.18529 -0.0705,-0.50937 q -0.022,-0.46504 -0.18963,-1.063061 -0.16787,-0.59801 -0.22743,-0.874858 z m -3.1957,-5.536199 q 0.25725,-0.478121 0.43888,-0.579847 0.18163,-0.101747 0.69757,-0.03255 0.13953,-0.0066 0.46722,0.02463 0.32552,-0.0154 0.41856,-0.0198 0.32552,-0.0154 0.38077,0.168567 0.0552,0.183832 0.48466,0.396741 0.42942,0.212909 0.4803,0.303703 0.002,0.0465 0.10826,0.321167 0.1039,0.228174 0.20345,0.363309 0.55732,0.952614 0.82254,1.63928 0.0508,0.09084 0.42216,1.052157 0.37132,0.961332 0.74915,2.062181 0.16351,0.505003 0.27397,0.872676 0.11046,0.367705 0.21871,0.688845 0.10822,0.32117 0.16145,0.45851 0.10821,0.32117 0.11921,0.55369 0.002,0.0465 0.22082,0.73534 0.21863,0.68885 0.22303,0.78186 0.0501,1.0696 1.3726,3.43115 0.55951,0.99912 0.58348,1.51067 0.022,0.46504 -0.18476,1.03399 -0.15968,0.56677 -0.34575,0.57549 -0.13945,0.007 -0.45415,0.25435 -0.31233,0.29429 -0.82832,0.22523 -0.60895,-0.0647 -0.75715,-0.24414 -0.14824,-0.17948 -0.1764,-0.78404 -0.0308,-0.65106 -0.19619,-1.20257 -0.11917,-0.55369 -0.38438,-1.24036 -0.26741,-0.73317 -0.37347,-1.00784 -0.16351,-0.50501 -0.48829,-1.46852 l -0.21001,-0.50283 -0.84143,-0.0538 q -0.46723,-0.0246 -1.21129,0.0101 -0.83708,0.0392 -1.49032,0.0233 -0.18599,0.009 -0.51155,0.0242 -0.32767,-0.0312 -0.42071,-0.0268 -0.93009,0.0435 -1.05434,0.37567 -0.0734,0.42292 -0.66342,1.75554 -0.5922,1.28613 -0.94026,1.81511 -0.0887,0.0974 -0.42581,0.85889 -0.33718,0.7615 -0.55878,1.00493 -0.13298,0.14604 -0.25941,0.43162 -0.12862,0.23908 -0.3081,0.38728 -0.13298,0.14605 -0.36551,0.15696 -0.18599,0.009 -0.28122,-0.0334 -0.0465,0.002 -0.18599,0.009 -0.14169,-0.04 -0.32988,-0.0778 -0.14169,-0.04 -0.23473,-0.0356 -0.46722,-0.0246 -0.76368,-0.38368 -0.29649,-0.35895 -0.31827,-0.82399 -0.0176,-0.37207 0.15331,-0.70629 0.16421,-0.47376 0.70992,-1.75772 0.59002,-1.33264 0.7942,-1.9481 0.04,-0.14169 0.45924,-1.14007 0.13078,-0.19255 0.33933,-0.71501 0.25285,-0.57113 0.33718,-0.76151 l 0.55224,-1.14444 q 0.73172,-1.292671 0.98241,-1.910305 0.67213,-1.569521 1.22438,-2.713959 0.94243,-1.768613 0.91846,-2.280158 -0.011,-0.232528 0.24634,-0.710645 z"
       id="path818"
       style="font-size:10.5833px;line-height:0.75;font-family:Thadscript;-inkscape-font-specification:Thadscript;fill:#000000;stroke:#000000;stroke-width:0.879789;stroke-dasharray:none;stroke-opacity:1" /><path
       d="m 285.63569,106.48595 q 0.18607,-0.009 1.28031,-0.52608 1.13867,-0.56604 1.27816,-0.57258 0.13944,-0.007 0.2239,-0.1969 0.044,-0.0952 0.40954,-0.20561 0.68884,-0.21871 2.28451,-1.97133 1.46274,-1.60658 1.31885,-4.675866 -0.0479,-1.023089 -0.35984,-1.707578 -0.25866,-0.547158 -0.93812,-1.121189 -0.63287,-0.576218 -0.9119,-0.56314 l -0.0466,0.0022 q -0.27889,0.0132 -0.70409,-0.106806 -0.37875,-0.122071 -0.7063,-0.153303 -1.73811,-0.291386 -2.43569,-0.258702 l -0.51151,0.02375 q -0.55809,0.02595 -1.0166,0.187483 l -0.50064,0.256503 0.10909,2.325211 q 0.14825,3.162287 0.47667,5.197577 0.0638,0.36987 0.11833,1.53246 l 0.0264,0.60456 0.0264,0.55805 q 0.0352,0.79057 0.0924,0.97441 0.062,0.32332 0.11041,0.36766 0.0955,0.0422 0.37435,0.029 z m 4.51019,0.76733 q -0.54063,0.39819 -0.68012,0.40475 -0.13989,0.007 -0.73097,0.31391 -0.54719,0.2587 -0.68668,0.26521 -0.18563,0.009 -0.36555,0.15696 -0.44984,0.34729 -1.75192,0.40835 -0.83712,0.0392 -1.03182,-0.13804 -0.14605,-0.13298 -0.46506,0.022 -0.13504,0.0995 -0.55369,0.11916 -0.79494,-0.0559 -1.51649,-0.5348 -0.33432,-0.17073 -0.38007,-1.14736 -0.0264,-0.60455 0.14912,-0.79929 0.12625,-0.28558 0.0502,-1.91321 -0.34444,-7.347679 -0.72952,-10.592081 -0.0946,-1.020916 0.17376,-1.266513 0.31012,-0.340786 0.82181,-0.364761 0.2327,-0.011 1.07831,0.135884 0.37875,0.12207 1.39513,-0.06541 1.01664,-0.187483 1.76067,-0.222322 0.74408,-0.03475 1.02966,0.09154 0.76151,0.337179 2.1719,0.597288 0.32992,0.07777 0.84798,0.19329 0.5624,0.06686 0.65544,0.06251 0.6576,0.109006 1.47866,0.722997 0.86545,0.565322 1.02676,1.023824 0.10426,0.228173 0.4003,0.587114 0.24547,0.268115 0.46458,0.956964 0.21643,0.642347 0.26525,0.686666 0.0977,0.08864 0.16496,1.530274 0.0546,1.162606 0.0176,1.397312 -0.23402,1.968444 -0.69758,3.015514 -0.41702,1.04489 -1.39443,2.06944 -0.80439,0.73679 -0.93952,0.83635 l -0.53843,0.44469 q -0.43902,0.57985 -0.9039,0.60165 -0.0466,0.002 -0.58717,0.40039 z"
       id="path820"
       style="font-size:10.5833px;line-height:0.75;font-family:Thadscript;-inkscape-font-specification:Thadscript;fill:#000000;stroke:#000000;stroke-width:0.879789;stroke-dasharray:none;stroke-opacity:1" /><path
       d="m 304.33045,105.60966 q 0.18608,-0.009 1.28032,-0.52608 1.13862,-0.56603 1.27815,-0.57257 0.13989,-0.007 0.22391,-0.1969 0.044,-0.0952 0.40954,-0.20561 0.68883,-0.21871 2.28455,-1.97134 1.46269,-1.60657 1.31885,-4.675859 -0.048,-1.023089 -0.35984,-1.707577 -0.25866,-0.547159 -0.93807,-1.12119 -0.63292,-0.576218 -0.91195,-0.56314 l -0.0466,0.0022 q -0.27889,0.0132 -0.70409,-0.106806 -0.37875,-0.122071 -0.7063,-0.153303 -1.73806,-0.291386 -2.43565,-0.258702 l -0.51155,0.02419 q -0.55805,0.02595 -1.01655,0.187483 l -0.50065,0.256503 0.1091,2.325211 q 0.14824,3.162291 0.47662,5.19759 0.0638,0.36986 0.11833,1.53245 l 0.0264,0.60456 0.0264,0.55805 q 0.0352,0.79058 0.0924,0.97441 0.062,0.32332 0.11041,0.36766 0.0955,0.0422 0.37435,0.029 z m 4.5102,0.76734 q -0.54059,0.39819 -0.68012,0.40474 -0.13989,0.007 -0.73102,0.31391 -0.54714,0.2587 -0.68668,0.26526 -0.18563,0.009 -0.36555,0.15695 -0.44975,0.3473 -1.75192,0.40836 -0.83708,0.0391 -1.03177,-0.13804 -0.14649,-0.13298 -0.46506,0.022 -0.13505,0.0995 -0.5537,0.11916 -0.79493,-0.0559 -1.51649,-0.5348 -0.33432,-0.17072 -0.38007,-1.14735 -0.0264,-0.60455 0.14869,-0.79928 0.12669,-0.28558 0.0506,-1.91323 -0.34443,-7.347674 -0.72943,-10.59208 -0.0946,-1.020911 0.17376,-1.266509 0.31013,-0.340786 0.82186,-0.36476 0.23226,-0.011 1.07831,0.135883 0.37875,0.122071 1.39512,-0.06541 1.01656,-0.187483 1.76059,-0.222323 0.74408,-0.03475 1.02966,0.09154 0.76151,0.337179 2.17189,0.597289 0.32993,0.07777 0.84799,0.19329 0.56245,0.06686 0.6554,0.06251 0.65764,0.109005 1.4787,0.723001 0.86541,0.565317 1.02672,1.023824 0.10425,0.228173 0.40074,0.587109 0.24546,0.268116 0.46409,0.956986 0.21643,0.642347 0.26526,0.686667 0.0977,0.08864 0.16496,1.530274 0.0545,1.162605 0.0176,1.397311 -0.23402,1.968448 -0.69758,3.015508 -0.41702,1.0449 -1.39442,2.06944 -0.80435,0.7368 -0.93953,0.83635 l -0.53839,0.4447 q -0.43901,0.57985 -0.90394,0.60164 -0.0466,0.002 -0.58712,0.4004 z"
       id="path822"
       style="font-size:10.5833px;line-height:0.75;font-family:Thadscript;-inkscape-font-specification:Thadscript;fill:#000000;stroke:#000000;stroke-width:0.879789;stroke-dasharray:none;stroke-opacity:1" /><path
       d="m 319.94213,90.662922 q 0.13989,-0.0066 0.13549,-0.09959 -0.004,-0.09304 0.73968,-0.127921 0.74404,-0.03475 0.74844,0.05815 0.004,0.09304 0.37215,-0.0176 0.13768,-0.05305 0.74188,-0.08138 1.02315,-0.04795 1.39948,0.02771 l 0.18607,-0.0088 q 0.13989,-0.0066 0.65109,-0.03035 0.50936,-0.07047 0.69539,-0.07918 l 0.13988,-0.0066 q 0.19048,0.08433 1.12046,0.04091 0.32552,-0.0154 0.83927,0.007 0.51156,-0.02419 0.55805,-0.02595 0.2789,-0.0132 0.5559,-0.07267 0.32332,-0.06176 0.41658,-0.06612 0.32552,-0.0154 0.81015,0.381476 0.87632,0.797841 0.90249,1.355891 0.0176,0.418516 -0.3352,0.80802 -0.35456,0.389483 -1.09864,0.424366 -0.27889,0.0132 -1.12485,-0.133683 -1.69377,-0.340083 -2.76337,-0.289935 l -0.13989,0.0066 -0.23226,0.011 q -0.23227,0.011 -0.5559,0.07263 -0.32552,0.0154 -0.65104,0.03035 -0.74408,0.03475 -1.06741,0.09664 -0.32552,0.0154 -0.68883,0.218716 -0.31672,0.201251 -0.34619,0.575496 0.002,0.0465 -0.0352,0.281224 0.009,0.185988 0.0132,0.325522 0.13505,2.883271 0.42714,3.149218 0.0488,0.0443 0.32772,0.03123 1.02306,-0.04795 1.61454,-0.355303 0.31893,-0.154754 0.50505,-0.163508 0.37215,-0.0176 1.10228,0.647432 0.48684,0.443242 0.50865,0.908285 0.022,0.511549 -0.24414,0.757151 -0.13328,0.146045 -0.31892,0.154755 -0.13989,0.0066 -0.27669,0.05956 -0.2723,0.1526 -1.15613,0.193994 -2.22781,0.197644 -2.2191,0.383632 l 0.0598,0.27682 q 0.0132,0.27903 0.0352,0.74407 0.022,0.46505 0.0396,0.88359 0.13153,1.81148 0.37259,1.98661 0.14385,0.0865 0.46937,0.0712 0.0933,-0.004 1.0188,-0.14099 0.83483,-0.0857 1.61454,-0.3553 0.77967,-0.26961 1.33556,-0.34224 0.55585,-0.0727 1.01436,-0.23394 l 0.18563,-0.009 q 0.55805,-0.0259 1.18657,0.45705 0.62641,0.43669 0.65474,1.04126 0.0132,0.32553 -0.24634,0.71065 -0.21731,0.33643 -1.00564,0.42001 -0.18564,0.009 -0.32552,0.0154 -0.79054,0.0369 -2.03526,0.32847 -2.02875,0.46796 -3.36863,0.71718 -0.18387,0.0552 -0.77971,0.26961 -0.59584,0.21432 -0.9214,0.22958 -0.0466,0.002 -0.18564,0.009 -0.0955,-0.0422 -0.14164,-0.04 -1.41039,-0.26011 -1.63126,-0.99548 -0.16145,-0.4585 -0.18564,-0.97005 -0.0308,-0.69756 0.13593,-1.07831 0.3308,-0.90102 0.12581,-5.272422 -0.0264,-0.60456 -0.0611,-1.302123 -0.0308,-0.697562 -0.10557,-1.253435 -0.0264,-0.604556 -0.0546,-1.162606 -0.0264,-0.604555 -0.0946,-1.020911 -0.022,-0.465043 -0.0836,-0.788388 -0.0176,-0.372062 -0.0264,-0.558054 l -0.009,-0.185987 -0.1456,-1.111732 0.35499,-0.389483 q 0.44759,-0.393837 0.54059,-0.398192 z"
       id="path824"
       style="font-size:10.5833px;line-height:0.75;font-family:Thadscript;-inkscape-font-specification:Thadscript;fill:#000000;stroke:#000000;stroke-width:0.879789;stroke-dasharray:none;stroke-opacity:1" /><path
       d="m 346.66246,88.990998 q 0.13769,-0.05305 0.50936,-0.07047 0.83707,-0.03915 0.98747,0.186779 0.14605,0.13298 0.23886,0.128625 0.32552,-0.0154 0.84288,1.079048 0.15485,0.318967 -0.0809,1.262167 -0.5196,1.842001 -0.39546,4.492752 0.022,0.511544 -0.10206,0.797097 -0.0801,0.28338 -0.20499,1.594226 -0.12493,1.310833 -0.20279,1.640728 -0.10689,0.70412 0.0523,1.1161 0.26526,0.68667 0.33476,2.17481 0.0308,0.69756 -0.003,0.93227 -0.0691,0.51591 -0.65179,1.00928 -0.58497,0.44688 -1.18952,0.47522 -0.32552,0.0154 -0.67286,-0.43453 l -0.44016,-0.44543 -0.63362,0.40255 q -1.08342,0.74987 -1.7788,0.82908 -0.23227,0.011 -0.78838,0.0835 -0.5559,0.0727 -0.83492,0.0857 -0.41834,0.0198 -0.60675,-0.018 -1.366,-0.30885 -1.47431,-0.62999 -0.004,-0.13949 -0.61981,-0.29719 -1.65818,-0.57477 -2.13049,-2.69652 -0.0704,-0.50937 -0.28022,-1.0122 -0.20323,-0.36335 -0.31452,-2.735045 -0.0308,-0.697563 0.009,-0.792756 0.12669,-0.285579 0.0132,-2.703798 -0.13284,-2.83676 -0.11041,-3.350491 0.002,-1.957543 0.83853,-1.996773 0.23226,-0.011 0.52461,0.255051 0.0488,0.0443 0.29209,0.26596 0.2877,0.172923 0.43374,0.305903 l 0.39195,0.401095 0.12493,1.671969 0.15044,3.208796 0.0677,1.441636 0.0132,0.325522 -0.044,0.09519 q 0.004,0.09304 0.009,0.232528 0.004,0.139534 0.0132,0.279025 0.004,0.13949 0.0264,0.55805 0.0664,0.41636 0.077,0.64888 0.10558,1.253428 0.26878,1.758448 0.20983,0.50283 0.76079,1.31593 0.699,0.99257 1.44303,0.9577 1.5812,-0.0741 2.35722,-1.41547 0.39063,-0.62419 0.88723,-1.95245 0.49483,-1.374786 0.46215,-2.072353 -0.009,-0.185987 0.11085,-0.611084 0.16408,-0.473757 0.1069,-0.704112 -0.0532,-0.137335 -0.004,-1.071786 0.0537,-0.841438 -0.0264,-2.515593 -0.0176,-0.41856 -0.10777,-1.299941 -0.044,-0.930086 -0.0655,-1.395129 -0.0655,-1.39513 1.40749,-1.790415 z"
       id="path826"
       style="font-size:10.5833px;line-height:0.75;font-family:Thadscript;-inkscape-font-specification:Thadscript;fill:#000000;stroke:#000000;stroke-width:0.879789;stroke-dasharray:none;stroke-opacity:1" /><path
       d="m 357.06196,88.130687 q -0.0132,-0.279025 2.40517,-0.392386 0.88357,-0.04135 1.88411,0.424367 1.04493,0.417064 1.53611,0.953343 0.051,0.09084 0.39195,0.401096 0.53988,0.580581 0.57036,1.231643 0.0176,0.372063 -0.15968,0.56676 -0.13548,0.09959 -0.45634,0.207806 -0.2745,0.106102 -0.505,0.163509 -0.23227,0.011 -0.28329,-0.07993 l -0.14209,-0.04003 q -0.13989,0.0066 -0.37215,0.0176 -0.18828,-0.03783 -0.28329,-0.07993 -0.42714,-0.166412 -0.72592,-0.571858 -0.20543,-0.40985 -0.81451,-0.474492 -0.65764,-0.109006 -0.74628,-0.01144 -0.13328,0.146045 -0.31892,0.154755 -0.46501,0.02199 -1.09938,1.403122 -0.20631,0.568946 -0.39195,0.577661 -0.13989,0.0066 10e-4,1.025275 l 0.0924,0.97441 0.43814,0.39894 q 0.48683,0.443247 0.76585,0.430173 0.18564,-0.0088 0.2833,0.07993 0.0488,0.0443 0.5646,0.113361 3.23058,0.314612 3.8504,0.611827 2.2889,1.104482 2.43494,4.220271 0.0524,1.1161 -0.0809,1.26216 -0.0889,0.0974 -0.0757,0.37642 0.009,0.23253 -0.65179,1.00929 -0.66486,0.73026 -1.07466,0.93589 -1.63711,0.86905 -2.66022,0.917 -0.79053,0.037 -1.83106,-0.28703 -0.662,-0.202 -1.69162,-0.29358 -1.54552,-0.16061 -2.32017,-0.77677 -0.43374,-0.30591 -0.53549,-0.48757 -0.10205,-0.18164 -0.22302,-0.78187 -0.12581,-0.69319 0.0453,-1.02745 0.25954,-0.43163 0.49194,-0.44253 0.27889,-0.0132 1.00274,0.51228 0.77461,0.61619 1.61604,0.66996 1.25999,0.0343 1.69157,0.29358 0.0955,0.0422 0.32772,0.0312 0.27669,-0.0596 0.32772,0.0312 0.14825,0.17948 1.20258,-0.19619 0.68668,-0.26526 1.12776,-0.79856 0.43902,-0.57986 0.41262,-1.1379 -0.009,-0.18599 -0.0598,-0.276828 -0.10602,-0.27467 -0.27186,-0.826183 -0.21643,-0.642351 -0.55079,-0.813101 l -1.03177,-0.138039 q -0.004,-0.09304 -0.37655,-0.07557 -0.37215,0.0176 -0.4607,0.114813 -0.13329,0.146045 -0.41878,0.0198 -0.28329,-0.07993 -1.17131,-0.131484 -1.35083,0.01672 -2.21843,-0.595116 -1.29923,-0.871229 -1.31009,-1.103748 -0.004,-0.09304 -0.24767,-0.314612 -0.34091,-0.310258 -0.41789,-0.959151 -0.13681,-0.925718 -0.15837,-1.390761 -0.11129,-2.371717 0.73098,-3.296714 0.17727,-0.194697 0.65834,-0.869773 0.91555,-1.347893 1.19458,-1.360976 0.0933,-0.0044 0.0889,-0.09739 z"
       id="path828"
       style="font-size:10.5833px;line-height:0.75;font-family:Thadscript;-inkscape-font-specification:Thadscript;fill:#000000;stroke:#000000;stroke-width:0.879789;stroke-dasharray:none;stroke-opacity:1" /><path
       d="m 226.23149,118.82475 q 0.45197,-0.30085 0.68449,-0.31171 1.02309,-0.048 1.74899,0.5239 0.43598,0.35244 0.513,1.0013 0.12792,0.7397 0.17587,1.7628 0.0523,1.1161 0.1497,1.20475 0.0487,0.0443 0.24194,2.17916 0.23979,2.13266 0.24199,2.17916 0.053,0.13734 0.10751,1.29994 0.0479,1.0231 0.029,2.6086 0.0413,0.88359 0.0101,1.2113 0.0132,0.27902 -0.0603,0.70192 -0.029,0.37422 -0.0409,1.12046 -0.0224,0.51373 -0.0763,1.35516 -0.0538,0.84145 -0.0277,1.39949 0.002,0.0465 -0.0136,0.69975 0.0303,0.65106 0.0502,1.0696 l 0.0347,0.74407 q 0.085,1.81366 0.43162,3.24222 0.11917,0.55369 0.12573,0.6932 0.0154,0.32552 -0.0981,0.89012 -0.0669,0.56241 -0.0473,0.98095 0.0828,1.76716 -1.12628,1.82384 -0.88358,0.0414 -1.46561,-0.44397 l -0.43818,-0.39894 -0.0414,-0.88358 q -0.0458,-0.97659 -0.0988,-1.11393 -0.053,-0.13733 -0.21431,-3.57865 -0.15696,-3.3483 -0.11482,-3.44349 0.12643,-0.28558 0.022,-2.51777 -0.0132,-0.27903 -2.75683,-0.1504 -3.44132,0.16131 -5.75564,0.50283 -1.10956,0.19184 -2.45818,0.25505 -0.41856,0.0198 -0.55806,0.026 -0.093,0.004 -0.32116,0.10826 -0.23038,0.0574 -0.27248,0.1526 0.002,0.0465 -0.0821,0.23688 -0.0378,0.18819 -0.0268,0.42072 0.009,0.18599 0.0282,0.60455 l 0.0154,0.32553 q 0.037,0.79057 7.1e-4,2.00404 -0.0387,1.16697 -0.008,1.81803 0.007,0.13949 0.022,0.46504 0.0596,0.27683 0.0683,0.46287 0.21946,2.69288 0.23253,2.97191 0.0654,1.39513 -0.14534,1.87107 -0.34154,0.6685 -1.36462,0.71645 -0.79057,0.037 -1.18004,-0.31756 l -0.48248,-0.35024 -0.15405,-1.29776 q -0.14534,-1.11174 -0.16496,-1.53028 -0.009,-0.18599 0.009,-0.79275 0.0647,-0.60892 0.045,-1.02746 0.0365,-1.21347 0.0277,-1.39949 -0.0981,-2.09269 0.064,-5.59577 0.0552,-2.79897 -0.10175,-6.14728 -0.0915,-1.95318 -0.26306,-3.62298 -0.14314,-1.06524 -0.37857,-3.10489 -0.0259,-0.55805 -0.10315,-1.20692 -0.077,-0.64889 -0.0835,-0.7884 -0.0259,-0.55805 1.04126,-0.65469 0.78621,-0.13008 0.93226,0.003 0.14605,0.13298 0.37858,0.12207 0.27902,-0.0132 0.48248,0.35025 0.3008,0.45196 0.38583,2.26563 0.0828,1.76716 0.20636,2.41386 0.0574,0.23038 0.29279,2.26999 0.23543,2.03965 0.34369,2.36083 0.0242,0.51154 -0.0691,0.5159 -0.13514,0.0995 -0.0567,1.7737 0.048,1.0231 0.14534,1.11174 0.0486,0.0443 0.65324,0.0158 1.58115,-0.0741 1.89796,-0.27537 0.50065,-0.25651 3.28655,-0.48029 1.43727,-0.1606 1.5281,-0.21145 0.50064,-0.25651 1.16478,-0.008 0.28338,0.0799 0.51591,0.0691 0.37207,-0.0176 1.15607,-0.19399 0.83054,-0.17873 1.10956,-0.19184 l 0.79058,-0.0369 -0.022,-0.46504 q 0.007,-0.83926 -0.069,-2.46691 -0.0981,-2.09269 -0.41051,-4.78122 -0.26376,-2.64421 -0.57984,-3.4217 -0.15915,-0.41201 -0.17222,-0.69103 -0.0281,-0.60455 0.51228,-1.00275 z"
       id="path830"
       style="font-size:10.5833px;line-height:0.75;font-family:Thadscript;-inkscape-font-specification:Thadscript;fill:#000000;stroke:#000000;stroke-width:0.879789;stroke-dasharray:none;stroke-opacity:1" /><path
       d="m 245.80178,128.67352 q 0.13734,-0.053 0.50937,-0.0705 0.83708,-0.0392 0.98749,0.18677 0.14605,0.13298 0.23908,0.12863 0.32553,-0.0154 0.84289,1.07904 0.15475,0.31897 -0.0807,1.26216 -0.51954,1.84201 -0.39529,4.49275 0.0242,0.51155 -0.10245,0.79711 -0.0799,0.28338 -0.2049,1.59423 -0.12497,1.31084 -0.20275,1.64073 -0.1068,0.7041 0.0523,1.1161 0.26521,0.68666 0.33497,2.1748 0.0326,0.69757 -0.003,0.93226 -0.0691,0.51592 -0.65178,1.00929 -0.58494,0.44688 -1.1895,0.47522 -0.32552,0.0154 -0.67286,-0.43453 l -0.44033,-0.44542 -0.63362,0.40255 q -1.08341,0.74988 -1.77879,0.82907 -0.23253,0.011 -0.7884,0.0835 -0.55587,0.0726 -0.83489,0.0857 -0.41856,0.0198 -0.60674,-0.018 -1.36607,-0.30885 -1.47433,-0.62999 -0.007,-0.13953 -0.61982,-0.29719 -1.65816,-0.57477 -2.13046,-2.69653 -0.0705,-0.50937 -0.28048,-1.01219 -0.20345,-0.36331 -0.31461,-2.73504 -0.0326,-0.69756 0.009,-0.79275 0.12643,-0.28558 0.0132,-2.70379 -0.13298,-2.83676 -0.11046,-3.35048 0.001,-1.95755 0.83854,-1.99678 0.23253,-0.011 0.52463,0.25505 0.0487,0.0443 0.29209,0.26596 0.28774,0.17292 0.43378,0.3059 l 0.39168,0.4011 0.12498,1.67197 0.1504,3.20879 0.0676,1.44164 0.0154,0.32552 -0.0422,0.0952 q 0.004,0.093 0.011,0.23253 0.007,0.13954 0.0132,0.27903 0.007,0.13953 0.026,0.55805 0.0661,0.41636 0.077,0.64888 0.10536,1.25344 0.26882,1.75845 0.20996,0.50282 0.76078,1.31592 0.69902,0.99258 1.44309,0.9577 1.58114,-0.0741 2.35718,-1.41547 0.39019,-0.62417 0.88722,-1.95245 0.49484,-1.37478 0.46214,-2.07235 -0.009,-0.18599 0.11116,-0.61109 0.16422,-0.47376 0.10681,-0.7041 -0.053,-0.13734 -0.004,-1.07178 0.0538,-0.84144 -0.0246,-2.51559 -0.0198,-0.41856 -0.10751,-1.29995 -0.0435,-0.93008 -0.0654,-1.39513 -0.0654,-1.39512 1.40749,-1.79041 z"
       id="path832"
       style="font-size:10.5833px;line-height:0.75;font-family:Thadscript;-inkscape-font-specification:Thadscript;fill:#000000;stroke:#000000;stroke-width:0.879789;stroke-dasharray:none;stroke-opacity:1" /><path
       d="m 258.27728,141.27838 q 0.13953,-0.007 0.29209,0.26596 0.1526,0.27247 0.24564,0.26811 0.13953,-0.007 0.47594,0.21076 0.38297,0.21511 0.47812,0.25725 0.18819,0.0378 0.90538,0.42362 0.71718,0.38583 1.09357,0.46141 0.28338,0.0799 0.65543,0.0625 0.60455,-0.0282 1.34426,-0.15625 1.06524,-0.14315 1.38205,-0.34444 0.58712,-0.40039 0.84943,-1.76426 0.10901,-0.65759 0.0894,-1.07614 -0.0282,-0.60455 -0.0967,-1.06741 -0.14534,-1.11174 -0.29574,-1.33773 -0.1526,-0.27247 -0.71064,-0.24634 l -0.37206,0.0176 q -0.51155,0.0242 -0.97223,0.13878 -0.41416,0.11266 -0.55369,0.11917 -0.37206,0.0176 -1.18005,-0.31756 -1.14225,-0.50574 -1.16187,-0.92427 -0.0154,-0.32552 0.24849,-0.66414 0.34809,-0.52899 0.8596,-0.55296 0.18599,-0.009 0.46941,0.0712 0.33207,0.12427 0.79057,-0.0369 0.27682,-0.0596 1.20693,-0.10316 0.37206,-0.0176 0.87704,-0.18093 0.55152,-0.16566 0.87705,-0.18093 0.27902,-0.0132 0.46722,0.0246 0.65542,0.0625 0.89666,0.23758 0.23908,0.12863 0.82981,0.80002 0.63943,0.71573 0.76804,3.45949 0.12207,2.60424 -0.41927,3.9812 -0.20639,0.56895 -0.6496,1.05579 -0.44543,0.44033 -0.81528,0.50428 -0.18599,0.009 -1.47506,0.34879 -1.24254,0.33788 -2.40515,0.39239 -1.2091,0.0566 -1.91975,-0.18964 -0.61545,-0.2042 -0.94099,-0.18894 -0.23252,0.011 -0.56895,-0.2064 -0.28774,-0.17292 -1.28613,-0.5922 -0.95406,-0.46795 -1.4409,-0.91119 -0.53553,-0.48757 -0.62853,-0.48321 -0.093,0.004 -0.33859,-0.26376 -0.24779,-0.31462 -0.29645,-0.35896 -0.23908,-0.12862 -0.24779,-0.31461 -0.004,-0.093 -0.44687,-0.58494 -1.17714,-1.2498 -1.25779,-2.97046 -0.022,-0.46504 0.0114,-0.74625 0.0603,-0.70192 0.81238,-2.55483 1.03617,-2.75174 4.37795,-6.03102 0.22382,-0.19689 1.72139,-1.05942 0.18163,-0.10174 0.36771,-0.11045 0.18598,-0.009 0.27467,-0.10611 0.0443,-0.0487 0.92354,-0.18312 0.87704,-0.18093 1.01656,-0.18749 0.0465,-0.002 0.32768,0.0312 0.28122,0.0334 0.42071,0.0268 0.65107,-0.0303 1.27742,0.4062 0.33643,0.21726 0.42943,0.21291 0.093,-0.004 0.76587,0.43017 0.67285,0.43453 0.7724,0.56968 0.19474,0.17727 0.44906,0.63144 0.303,0.49847 0.13879,0.97223 -0.33718,0.76151 -0.89521,0.78766 -0.46505,0.022 -1.2331,-0.45487 -1.53608,-0.95333 -2.65219,-0.90102 -0.0465,0.002 -0.18383,0.0552 -0.093,0.004 -0.13949,0.007 -0.36771,0.11046 -1.13863,0.56605 -0.63144,0.44905 -0.77095,0.45559 -0.13954,0.007 -0.98168,0.93153 -0.84216,0.925 -0.96642,1.25707 -0.13078,0.19254 -0.39238,0.57768 -0.26376,0.33858 -0.39239,0.57766 -0.12862,0.23908 -0.39019,0.62418 -0.2151,0.38297 -0.34153,0.6685 -0.63217,1.42783 -0.7012,1.94373 -0.0334,0.28122 -0.009,0.79275 0.0325,0.69756 0.29139,1.24472 0.25435,0.45414 0.26086,0.59365 0.007,0.13954 0.39819,0.54062 0.43598,0.35244 0.52898,0.34809 z"
       id="path834"
       style="font-size:10.5833px;line-height:0.75;font-family:Thadscript;-inkscape-font-specification:Thadscript;fill:#000000;stroke:#000000;stroke-width:0.879789;stroke-dasharray:none;stroke-opacity:1" /><path
       d="m 283.54729,142.47082 q -0.0176,-0.32552 -0.11701,-0.50719 -0.10162,-0.18163 -0.11702,-0.50718 -0.009,-0.23253 -0.11481,-0.46069 -0.0594,-0.27687 -0.0308,-0.65106 0.17816,-1.1735 0.11261,-2.56863 -0.022,-0.51155 -0.0748,-0.60238 -0.20763,-0.45632 -0.48903,-0.48974 -0.46941,-0.0712 -0.51806,-0.11552 -0.0488,-0.0443 -0.46726,-0.0246 -0.97657,0.0458 -2.86582,0.50719 -1.84488,0.41271 -2.06654,0.65615 -0.0889,0.0974 -0.0352,1.21347 0.0352,0.74406 0.0924,0.97441 0.22962,0.92137 0.32992,3.06056 0.0352,0.79058 -0.0537,0.84144 -0.17728,0.19474 -0.17288,0.28774 0.009,0.23252 -1.01655,0.18748 -0.74624,-0.0114 -0.98528,-0.14024 -0.23886,-0.12862 -0.49123,-0.53625 -0.45123,-0.67795 -0.70045,-5.00067 -0.12278,-1.62547 -0.19035,-3.0671 0.0246,-3.45004 -0.0712,-5.49623 -0.0501,-1.0696 -0.10751,-1.29993 -0.17872,-0.83055 -0.001,-1.02528 0.26376,-0.33859 1.05432,-0.37567 0.74408,-0.0347 1.08271,0.22888 0.14605,0.13298 0.33872,0.26376 0.23886,0.12862 0.24546,0.26811 0.051,0.0908 0.11482,0.46069 0.0616,0.32332 0.0968,1.06741 0.0656,1.39513 0.0264,2.5156 l 0.0352,0.74406 q 0.0524,1.11611 0.20499,1.3886 0.0532,0.13733 0.89012,0.0981 l 0.88358,-0.0413 q 0.0889,-0.0974 0.69318,-0.12572 1.6233,-0.16932 2.40732,-0.34589 0.73973,-0.12792 0.97226,-0.13879 l 0.18607,-0.009 q 0.46502,-0.022 0.41263,-1.13791 l -0.0352,-0.79057 q -0.16848,-2.60206 -0.34927,-3.4791 -0.11921,-0.5537 -0.12581,-0.69321 -0.0176,-0.37206 0.24194,-0.80365 0.26174,-0.38513 0.58708,-0.40039 0.41878,-0.0198 1.08487,0.27537 1.13792,0.41271 1.18151,1.34281 0.0132,0.32552 -0.022,0.56024 0.004,0.093 -0.0352,0.28122 0.004,0.13949 0.009,0.18599 0.009,0.18598 0.0682,0.46286 0.0594,0.27683 0.0682,0.46286 0.0132,0.32552 -0.022,0.51373 -0.0396,0.18819 10e-4,1.02527 0.0699,1.48814 0.25514,2.45819 0.002,0.0465 0.0264,0.60455 0.022,0.51155 0.0656,1.39513 0.0858,0.83491 0.12273,1.62548 0.19707,3.20661 0.47301,4.1258 0.21863,0.68885 0.24019,1.1539 0.0132,0.32552 -0.27538,1.08485 l -0.97221,0.13879 q -0.88141,0.0879 -1.26434,-0.12713 -0.77026,-0.52318 -0.81601,-1.49977 z"
       id="path836"
       style="font-size:10.5833px;line-height:0.75;font-family:Thadscript;-inkscape-font-specification:Thadscript;fill:#000000;stroke:#000000;stroke-width:0.879789;stroke-dasharray:none;stroke-opacity:1" /><path
       d="m 292.1397,126.92097 q 0.13989,-0.007 0.13549,-0.0996 -0.004,-0.093 0.73968,-0.12793 0.74413,-0.0348 0.74848,0.0582 0.004,0.093 0.37215,-0.0176 0.13769,-0.053 0.74193,-0.0814 1.02306,-0.048 1.39944,0.0277 l 0.18607,-0.009 q 0.13945,-0.007 0.65104,-0.0303 0.5094,-0.0705 0.69539,-0.0792 l 0.13989,-0.007 q 0.19003,0.0843 1.12045,0.0409 0.32552,-0.0154 0.83923,0.007 0.5116,-0.0242 0.5581,-0.0259 0.27889,-0.0132 0.55585,-0.0726 0.32332,-0.0618 0.41614,-0.0661 0.32552,-0.0154 0.81019,0.38147 0.87632,0.79785 0.90249,1.3559 0.0176,0.41851 -0.3352,0.80801 -0.35455,0.38948 -1.09868,0.42437 -0.27889,0.0132 -1.12481,-0.13369 -1.69381,-0.34008 -2.76337,-0.28993 l -0.13989,0.007 -0.2327,0.011 q -0.23227,0.011 -0.55585,0.0727 -0.32552,0.0154 -0.65109,0.0303 -0.74404,0.0348 -1.0674,0.0966 -0.32553,0.0154 -0.68884,0.21871 -0.31672,0.20126 -0.34619,0.5755 0.002,0.0465 -0.0352,0.28122 0.009,0.18599 0.0132,0.32552 0.13505,2.88327 0.42714,3.14921 0.0488,0.0443 0.32772,0.0312 1.02311,-0.0479 1.61459,-0.3553 0.31892,-0.15475 0.505,-0.16351 0.37215,-0.0176 1.10233,0.64743 0.48679,0.44325 0.50861,0.90829 0.022,0.51154 -0.24414,0.75714 -0.13329,0.14605 -0.31893,0.15476 -0.13988,0.007 -0.27669,0.0596 -0.2723,0.1526 -1.15604,0.19399 -2.22785,0.19765 -2.21914,0.38368 l 0.0598,0.27682 q 0.0132,0.27903 0.0352,0.74407 0.022,0.46504 0.0396,0.88358 0.13153,1.81148 0.37259,1.9866 0.14428,0.0865 0.46945,0.0712 0.0933,-0.004 1.01871,-0.14098 0.83492,-0.0857 1.61455,-0.35531 0.77971,-0.26961 1.33556,-0.34223 0.55589,-0.0726 1.01435,-0.23394 l 0.18608,-0.009 q 0.55805,-0.026 1.18661,0.45705 0.62632,0.43669 0.65465,1.04126 0.0132,0.32553 -0.24634,0.71065 -0.21731,0.33643 -1.00564,0.42001 -0.18608,0.009 -0.32552,0.0154 -0.79058,0.037 -2.03526,0.32843 -2.02879,0.46796 -3.36867,0.71718 -0.18387,0.0552 -0.77971,0.26961 -0.59579,0.21431 -0.92132,0.22958 -0.0466,0.002 -0.18563,0.009 -0.0955,-0.0422 -0.14209,-0.04 -1.41039,-0.26011 -1.63126,-0.99549 -0.16144,-0.4585 -0.18563,-0.97004 -0.0308,-0.69756 0.13592,-1.07832 0.3308,-0.90102 0.12581,-5.27243 -0.0264,-0.60455 -0.0611,-1.30211 -0.0308,-0.69757 -0.10558,-1.25343 -0.0264,-0.60456 -0.0545,-1.16261 -0.0264,-0.60456 -0.0946,-1.02091 -0.022,-0.46504 -0.0836,-0.78839 -0.0176,-0.37207 -0.0264,-0.55805 l -0.009,-0.18599 -0.14561,-1.11174 0.35456,-0.38948 q 0.44759,-0.39384 0.54063,-0.39819 z"
       id="path838"
       style="font-size:10.5833px;line-height:0.75;font-family:Thadscript;-inkscape-font-specification:Thadscript;fill:#000000;stroke:#000000;stroke-width:0.879789;stroke-dasharray:none;stroke-opacity:1" /><path
       d="m 310.89029,125.24976 q -0.0132,-0.27903 2.40521,-0.39239 0.88357,-0.0414 1.88411,0.42437 1.04488,0.4171 1.53607,0.95334 0.051,0.0908 0.39195,0.4011 0.53992,0.58057 0.57041,1.23163 0.0176,0.37206 -0.15968,0.56676 -0.13549,0.0996 -0.45635,0.20781 -0.2745,0.1061 -0.505,0.16351 -0.23226,0.011 -0.28329,-0.0799 l -0.14209,-0.04 q -0.13988,0.007 -0.37215,0.0176 -0.18783,-0.0378 -0.28329,-0.0799 -0.42714,-0.16641 -0.72591,-0.57187 -0.20543,-0.4098 -0.81456,-0.47448 -0.65759,-0.10901 -0.74623,-0.0114 -0.13329,0.14604 -0.31893,0.1548 -0.46505,0.022 -1.09943,1.40312 -0.20631,0.56895 -0.39194,0.57766 -0.13989,0.007 0.001,1.02528 l 0.0924,0.9744 0.43814,0.39894 q 0.48687,0.44324 0.7659,0.43018 0.18563,-0.009 0.28329,0.0799 0.0488,0.0443 0.5646,0.11336 3.23054,0.31462 3.8504,0.61183 2.28886,1.10448 2.4349,4.22027 0.0524,1.1161 -0.0809,1.26217 -0.0889,0.0974 -0.0757,0.37641 0.009,0.23253 -0.65179,1.00929 -0.66486,0.73026 -1.07471,0.9359 -1.63711,0.86904 -2.66017,0.917 -0.79058,0.0369 -1.83111,-0.28703 -0.66199,-0.202 -1.69161,-0.29359 -1.54553,-0.16061 -2.32014,-0.77677 -0.43373,-0.3059 -0.53552,-0.48757 -0.10206,-0.18163 -0.22303,-0.78186 -0.12581,-0.69319 0.0453,-1.02746 0.25954,-0.43162 0.49189,-0.44251 0.27889,-0.0132 1.00274,0.51227 0.77461,0.61618 1.61604,0.66996 1.25999,0.0343 1.69157,0.29358 0.0955,0.0422 0.32772,0.0312 0.27669,-0.0596 0.32772,0.0312 0.14825,0.17947 1.20254,-0.1962 0.68668,-0.26521 1.1278,-0.79856 0.43902,-0.57985 0.41262,-1.1379 -0.009,-0.18599 -0.0598,-0.27683 -0.10602,-0.27467 -0.27186,-0.82618 -0.21643,-0.64235 -0.55079,-0.8131 l -1.03182,-0.13804 q -0.004,-0.093 -0.37655,-0.0756 -0.37215,0.0176 -0.4607,0.11481 -0.13328,0.14605 -0.41878,0.0198 -0.28329,-0.0799 -1.1713,-0.13149 -1.35083,0.0167 -2.21843,-0.59511 -1.29919,-0.87123 -1.3101,-1.10376 -0.004,-0.093 -0.24766,-0.31461 -0.34092,-0.31026 -0.4179,-0.95914 -0.13681,-0.92572 -0.15836,-1.39077 -0.11129,-2.37171 0.73097,-3.29671 0.17728,-0.1947 0.65835,-0.86977 0.91555,-1.3479 1.19458,-1.36098 0.0932,-0.004 0.0888,-0.0974 z"
       id="path840"
       style="font-size:10.5833px;line-height:0.75;font-family:Thadscript;-inkscape-font-specification:Thadscript;fill:#000000;stroke:#000000;stroke-width:0.879789;stroke-dasharray:none;stroke-opacity:1" /><text
       xml:space="preserve"
       style="font-style:normal;font-variant:normal;font-weight:normal;font-stretch:normal;font-size:10.5833px;line-height:1.25;font-family:Thadscript;-inkscape-font-specification:Thadscript;stroke-width:0.264583"
       x="410.83032"
       y="99.395264"
       id="text1508"><tspan
         sodipodi:role="line"
         id="tspan1506"
         style="font-style:normal;font-variant:normal;font-weight:normal;font-stretch:normal;font-family:Thadscript;-inkscape-font-specification:Thadscript;stroke-width:0.264583"
         x="410.83032"
         y="99.395264" /></text></g></svg>
