<?xml version="1.0" encoding="UTF-8" standalone="no"?>
<!-- Created with Inkscape (http://www.inkscape.org/) -->

<svg
   width="150"
   height="60"
   viewBox="0 0 39.6875 15.874999"
   version="1.1"
   id="svg5"
   inkscape:version="1.2.2 (b0a8486541, 2022-12-01)"
   sodipodi:docname="x.svg"
   xmlns:inkscape="http://www.inkscape.org/namespaces/inkscape"
   xmlns:sodipodi="http://sodipodi.sourceforge.net/DTD/sodipodi-0.dtd"
   xmlns="http://www.w3.org/2000/svg"
   xmlns:svg="http://www.w3.org/2000/svg">
  <sodipodi:namedview
     id="namedview7"
     pagecolor="#000000"
     bordercolor="#666666"
     borderopacity="1.0"
     inkscape:showpageshadow="2"
     inkscape:pageopacity="0"
     inkscape:pagecheckerboard="0"
     inkscape:deskcolor="#d1d1d1"
     inkscape:document-units="px"
     showgrid="false"
     inkscape:zoom="3.3638608"
     inkscape:cx="88.88596"
     inkscape:cy="17.688009"
     inkscape:window-width="1900"
     inkscape:window-height="1040"
     inkscape:window-x="10"
     inkscape:window-y="30"
     inkscape:window-maximized="1"
     inkscape:current-layer="layer1" />
  <defs
     id="defs2" />
  <g
     inkscape:label="Layer 1"
     inkscape:groupmode="layer"
     id="layer1"
     transform="translate(204.32951,-60.703478)">
    <path
       id="path396"
       style="font-size:16.9333px;line-height:1.25;font-family:Thadscript;-inkscape-font-specification:Thadscript;fill:#e6e6e6;stroke-width:0.264583"
       d="m -198.09827,62.026456 c -0.0129,-1.94e-4 -0.026,2.81e-4 -0.039,0.0019 h -6.3e-4 c -0.0702,0.0016 -0.13979,0.01234 -0.20674,0.0334 -0.0691,0.01291 -0.1334,0.04245 -0.1979,0.06932 -0.0679,0.03188 -0.12724,0.07826 -0.18845,0.121017 -0.0556,0.04998 -0.11136,0.100488 -0.15695,0.160094 -0.0444,0.05516 -0.0755,0.11937 -0.0951,0.187195 -0.0175,0.06826 -0.0274,0.139389 -0.0214,0.209886 0.003,0.07003 0.008,0.140365 0.0283,0.207995 0.0198,0.07299 0.0351,0.147779 0.0668,0.21682 0.0441,0.06779 0.0829,0.138818 0.133,0.202323 0.0473,0.05752 0.1127,0.09516 0.16956,0.141815 0.0619,0.0523 0.12497,0.104747 0.17521,0.168918 0.0495,0.0605 0.1006,0.119358 0.14875,0.180893 0.13919,0.196619 0.28053,0.391857 0.41851,0.589321 0.14467,0.209092 0.29035,0.417539 0.43427,0.627137 0.15421,0.230913 0.30615,0.463374 0.45506,0.69773 0.10082,0.156291 0.19537,0.316636 0.30507,0.467043 0.24434,0.345184 0.48757,0.691044 0.72924,1.038087 0.11465,0.162664 0.23452,0.322292 0.35044,0.484062 0.053,0.07627 0.10575,0.152533 0.15884,0.228796 0.0503,0.06323 0.10113,0.125601 0.15252,0.187825 0.0404,0.0584 0.0663,0.125153 0.0978,0.188457 0.0421,0.0687 0.0876,0.135585 0.13363,0.201694 0.0547,0.08215 0.10904,0.164287 0.16388,0.246441 0.0386,0.06885 0.0752,0.138319 0.10965,0.209256 0.0173,0.07346 0.0121,0.149209 6.3e-4,0.223123 -0.0162,0.07039 -0.0427,0.138215 -0.0687,0.205475 -0.0316,0.06939 -0.065,0.137967 -0.10721,0.201691 -0.0428,0.06021 -0.093,0.114798 -0.14181,0.17018 -0.0487,0.06259 -0.0967,0.12558 -0.14497,0.188455 -0.0514,0.05507 -0.0965,0.116053 -0.15505,0.163876 -0.0627,0.05197 -0.12484,0.104821 -0.18215,0.162614 -0.0515,0.05585 -0.0996,0.115358 -0.15127,0.170808 -0.0537,0.04695 -0.10431,0.09699 -0.13867,0.160094 -0.0382,0.06002 -0.0831,0.114614 -0.13362,0.164506 -0.0527,0.05608 -0.11526,0.101746 -0.17081,0.155051 -0.0634,0.05695 -0.12692,0.113857 -0.19035,0.170808 -0.0904,0.09631 -0.17959,0.194248 -0.26723,0.293085 -0.1044,0.103648 -0.21532,0.200232 -0.32333,0.300017 -0.0558,0.05569 -0.12125,0.100087 -0.18028,0.151901 -0.0572,0.04797 -0.11295,0.09923 -0.15505,0.161352 -0.043,0.0563 -0.0496,0.129423 -0.0883,0.188458 -0.0451,0.06783 -0.1004,0.128752 -0.15001,0.193498 -0.10807,0.134301 -0.21212,0.271513 -0.31767,0.407798 -0.0443,0.06419 -0.10134,0.117979 -0.15504,0.173959 -0.0569,0.05777 -0.11722,0.111553 -0.17964,0.163246 -0.0628,0.05395 -0.1241,0.110003 -0.18467,0.166396 -0.0761,0.07138 -0.15115,0.143703 -0.22628,0.216189 -0.0544,0.06073 -0.10965,0.12059 -0.16009,0.184675 -0.0487,0.06014 -0.1005,0.118492 -0.13803,0.186565 -0.0285,0.06107 -0.046,0.128873 -0.0385,0.196649 0.005,0.0712 0.0219,0.141411 0.0416,0.209888 0.0209,0.07388 0.0476,0.145951 0.0738,0.218079 0.0307,0.06466 0.0531,0.140006 0.11599,0.181524 0.0677,0.03988 0.12627,0.09631 0.20106,0.123536 0.0705,0.02993 0.14612,0.04279 0.22122,0.05547 0.0775,0.01239 0.15547,0.02187 0.23321,0.03214 0.0766,0.0058 0.15388,-6.57e-4 0.22754,-0.02269 0.07,-0.01846 0.13007,-0.06274 0.18341,-0.110296 0.0611,-0.05175 0.1199,-0.10615 0.17964,-0.159463 0.10388,-0.09464 0.2019,-0.195595 0.30065,-0.295606 0.0878,-0.105064 0.17567,-0.209978 0.2603,-0.317666 0.0803,-0.100266 0.15955,-0.201382 0.23952,-0.301908 0.0509,-0.05399 0.0999,-0.111711 0.1645,-0.150009 0.0638,-0.036 0.10587,-0.09836 0.14623,-0.157572 0.0385,-0.06577 0.0773,-0.13102 0.121,-0.1935 0.0511,-0.07521 0.11854,-0.136717 0.18278,-0.200431 0.0555,-0.05132 0.10696,-0.107126 0.15379,-0.166396 0.15619,-0.197903 0.31332,-0.394752 0.46893,-0.593104 0.0655,-0.0904 0.13433,-0.178841 0.19728,-0.271022 0.0358,-0.0657 0.0722,-0.131948 0.1248,-0.185936 0.05,-0.05659 0.10039,-0.112919 0.15505,-0.165136 0.0804,-0.08111 0.16133,-0.161868 0.24455,-0.240141 0.11209,-0.107331 0.22176,-0.217396 0.3328,-0.325859 0.0605,-0.06232 0.11782,-0.127259 0.17394,-0.193499 0.11258,-0.131489 0.2247,-0.263583 0.33785,-0.39456 0.0303,-0.03683 0.079,-0.08317 0.12921,-0.05168 0.0639,0.03144 0.10818,0.0893 0.15693,0.139294 0.0496,0.05999 0.0959,0.122244 0.14056,0.185935 0.25806,0.359379 0.51701,0.718746 0.77462,1.078425 0.087,0.128246 0.17503,0.255201 0.2641,0.381954 0.0505,0.05959 0.10304,0.118359 0.15063,0.180264 0.0409,0.04836 0.0508,0.111455 0.0757,0.167657 0.0319,0.02966 0.0948,0.02074 0.10409,0.07374 0.0291,0.06487 0.0602,0.128586 0.0976,0.189086 0.1005,0.172763 0.20081,0.345966 0.30128,0.518728 0.11294,0.220719 0.22654,0.440877 0.33909,0.661803 0.0394,0.08107 0.0784,0.162224 0.11782,0.243292 0.0272,0.06659 0.0454,0.136288 0.0668,0.204845 0.0274,0.06571 0.0798,0.116967 0.13174,0.163875 0.054,0.04779 0.1155,0.08622 0.17458,0.127318 0.0632,0.04554 0.12846,0.08773 0.19666,0.125428 0.006,0.0038 0.0126,0.0072 0.0189,0.01074 l -0.007,0.01323 c 0.011,2.28e-4 0.0219,4.19e-4 0.0328,6.31e-4 0.0501,0.0254 0.10314,0.0451 0.1582,0.05609 0.0664,0.01703 0.13578,0.01453 0.2017,-0.0032 0.0759,-0.01789 0.15186,-0.03642 0.22879,-0.04916 0.008,-0.0015 0.0164,-0.0033 0.0245,-0.005 0.16663,-0.0086 0.33318,-0.01734 0.49982,-0.02585 0.12172,0.0021 0.24331,0.0066 0.36494,0.01195 0.0717,0.0038 0.14319,0.0055 0.21492,0.005 0.12136,-3.14e-4 0.24311,-0.0045 0.36431,-0.0095 0.0672,0.0022 0.1334,0.01171 0.20043,0.01512 0.10272,0.0025 0.20545,2.32e-4 0.30822,0 0.0387,6.2e-4 0.0775,0.003 0.11599,0.0063 0.0135,0.0051 0.0269,0.0098 0.041,0.01386 0.071,0.01905 0.14252,0.03955 0.21618,0.04412 0.058,0.0035 0.11673,0.0079 0.1746,0.0013 0.0318,0.0046 0.0641,0.0078 0.0965,0.0057 0.0628,-0.0021 0.12469,-0.01764 0.18279,-0.04223 0.054,-0.02138 0.10547,-0.05119 0.14874,-0.09139 0.0127,-0.01208 0.0253,-0.02434 0.0378,-0.03655 0.0584,-0.04139 0.11111,-0.09046 0.16449,-0.138033 0.0543,-0.05206 0.10209,-0.112577 0.13048,-0.182784 0.0284,-0.06475 0.056,-0.130813 0.0642,-0.201692 0.008,-0.07019 -0.008,-0.139947 -0.0169,-0.209257 -0.0124,-0.07058 -0.0223,-0.141776 -0.0453,-0.209885 -0.02,-0.06703 -0.0541,-0.128912 -0.0901,-0.188457 -0.0434,-0.06305 -0.0905,-0.124049 -0.15001,-0.172698 -0.0681,-0.06193 -0.13675,-0.124017 -0.20485,-0.185936 -0.0567,-0.06201 -0.11404,-0.123441 -0.16577,-0.189717 -0.084,-0.110053 -0.16647,-0.220988 -0.24645,-0.334054 -0.15152,-0.220588 -0.30454,-0.440537 -0.45506,-0.661803 -0.19764,-0.293985 -0.39625,-0.587259 -0.5912,-0.883035 -0.0942,-0.141895 -0.18888,-0.283551 -0.283,-0.425445 -0.37411,-0.51017 -0.74804,-1.020019 -1.12192,-1.530343 -0.12173,-0.169716 -0.24246,-0.340084 -0.36494,-0.509273 -0.0477,-0.05491 -0.0737,-0.124326 -0.10844,-0.187196 -0.037,-0.06593 -0.076,-0.130366 -0.11659,-0.19413 -0.0476,-0.0793 -0.10113,-0.154962 -0.15129,-0.232576 -0.0405,-0.06281 -0.0753,-0.12905 -0.10842,-0.196021 -0.0313,-0.06715 -0.0699,-0.132796 -0.082,-0.206734 -0.003,-0.07036 -0.002,-0.14367 0.0177,-0.211777 0.021,-0.07318 0.0434,-0.146143 0.0719,-0.21682 0.0228,-0.07383 0.0695,-0.135947 0.10648,-0.202952 0.0839,-0.114554 0.16604,-0.230108 0.25402,-0.341617 0.0487,-0.06163 0.0923,-0.127199 0.15,-0.180894 0.0603,-0.06402 0.12296,-0.12584 0.18657,-0.186565 0.0675,-0.06496 0.13437,-0.131014 0.19665,-0.201062 0.0632,-0.06836 0.12888,-0.134445 0.18909,-0.205475 0.0444,-0.05806 0.083,-0.122189 0.14119,-0.168287 0.084,-0.07623 0.16803,-0.152562 0.2521,-0.228794 0.0608,-0.04676 0.12431,-0.09082 0.17649,-0.147488 0.11989,-0.124668 0.23936,-0.249096 0.35926,-0.373762 0.15327,-0.136579 0.30687,-0.273109 0.46012,-0.409688 0.05,-0.05396 0.0826,-0.121163 0.11086,-0.188457 0.0377,-0.07165 0.0901,-0.134054 0.13931,-0.19791 0.12265,-0.146241 0.24541,-0.292323 0.37375,-0.43364 0.0554,-0.05325 0.11051,-0.106636 0.1727,-0.151899 0.16603,-0.130765 0.33291,-0.260335 0.49919,-0.39078 0.0801,-0.08259 0.15994,-0.16512 0.24014,-0.247702 0.0426,-0.05562 0.0905,-0.109638 0.11476,-0.176482 0.0134,-0.06866 0.007,-0.139407 -0.007,-0.207366 -0.0193,-0.07578 -0.0394,-0.151038 -0.0649,-0.225012 -0.0188,-0.06647 -0.0389,-0.133724 -0.0757,-0.192868 -0.0349,-0.05855 -0.0857,-0.104831 -0.14056,-0.144337 -0.0587,-0.04439 -0.12693,-0.07423 -0.19727,-0.09455 -0.0775,-0.02245 -0.15757,-0.03272 -0.23637,-0.04917 -0.075,-0.01597 -0.15225,-0.02111 -0.22879,-0.0208 -0.0723,-0.0024 -0.14222,0.01564 -0.20799,0.04475 -0.0623,0.03426 -0.12378,0.07106 -0.17711,0.118492 -0.0955,0.07811 -0.18964,0.157284 -0.28049,0.240771 -0.0723,0.06572 -0.14367,0.132939 -0.21555,0.199172 -0.1358,0.150078 -0.2714,0.299947 -0.40718,0.450026 -0.073,0.06058 -0.14824,0.118541 -0.22185,0.178373 -0.0605,0.0518 -0.10783,0.116528 -0.15316,0.181523 -0.044,0.06256 -0.0909,0.122564 -0.14308,0.178371 -0.0673,0.07403 -0.13486,0.14782 -0.19854,0.225013 -0.11746,0.138539 -0.23698,0.275423 -0.35422,0.414101 -0.0827,0.103182 -0.16505,0.206318 -0.24455,0.311992 -0.0746,0.09692 -0.14568,0.19682 -0.21872,0.294975 -0.053,0.05764 -0.10818,0.113151 -0.16513,0.167028 -0.10134,0.09343 -0.2043,0.185553 -0.30254,0.282369 -0.1344,0.128178 -0.26393,0.261318 -0.39582,0.392039 -0.0585,0.05509 -0.11246,0.114151 -0.1601,0.179003 -0.11478,0.144918 -0.22937,0.289981 -0.34414,0.4349 -0.0362,0.04062 -0.0765,0.08117 -0.12857,0.100224 -0.0671,-0.01769 -0.11014,-0.07554 -0.15946,-0.11976 -0.0521,-0.05724 -0.0966,-0.121249 -0.14182,-0.184044 -0.15274,-0.209831 -0.30648,-0.418944 -0.45886,-0.629029 -0.14156,-0.20471 -0.28205,-0.410218 -0.42417,-0.614532 -0.0888,-0.120383 -0.17788,-0.24077 -0.26661,-0.361156 -0.0175,-0.03652 -0.038,-0.0727 -0.0404,-0.114076 -0.0157,-0.03842 -0.077,-0.0239 -0.0884,-0.06682 -0.16757,-0.297762 -0.33458,-0.595459 -0.50233,-0.893119 -0.10441,-0.20189 -0.20972,-0.403383 -0.31453,-0.605078 -0.0331,-0.07075 -0.0626,-0.143038 -0.0883,-0.21682 -0.0199,-0.06836 -0.0462,-0.135635 -0.0876,-0.194128 -0.0459,-0.05441 -0.10356,-0.09609 -0.15756,-0.141816 -0.0667,-0.04764 -0.13375,-0.09544 -0.20044,-0.143076 -0.068,-0.03725 -0.13511,-0.07652 -0.20736,-0.105254 -0.0657,-0.02834 -0.138,-0.04657 -0.20989,-0.04034 l -0.006,6.29e-4 c -0.003,5.89e-4 -0.006,0.0014 -0.01,0.0019 -0.008,-0.001 -0.0177,-0.0023 -0.0265,-0.0032 -0.0641,-0.0023 -0.12898,-1.55e-4 -0.19161,0.01639 -0.0759,0.01566 -0.15168,0.03157 -0.22753,0.04728 -0.0703,0.0077 -0.14059,0.01573 -0.21115,0.01765 -0.11623,0.0019 -0.23236,0.0025 -0.34854,0 -0.22445,-0.0081 -0.44942,-0.01476 -0.67379,-0.02396 -0.28515,-0.01329 -0.57028,-0.02588 -0.85529,-0.0416 -0.0546,-0.01074 -0.11099,-0.01195 -0.16641,-0.01639 -0.013,-0.0013 -0.0255,-0.0023 -0.0384,-0.0025 z m 1.21518,1.328018 c 0.10575,0.0064 0.21117,0.01004 0.31704,0.01323 0.0668,0.007 0.13319,0.0214 0.19981,0.02962 0.10218,0.0098 0.20505,0.01494 0.30758,0.02206 0.0834,0.0073 0.16566,0.02375 0.24833,0.03719 0.0389,0.0058 0.0766,0.01503 0.11476,0.02458 0.0199,0.03726 0.0389,0.07534 0.053,0.115347 0.0247,0.06734 0.0658,0.126324 0.10208,0.187826 0.0837,0.135765 0.16965,0.270292 0.25463,0.405275 0.0978,0.158223 0.19457,0.316996 0.29119,0.475869 0.12308,0.183428 0.24628,0.366813 0.36936,0.550241 l 1.37465,1.800737 c 0.18378,0.259064 0.36656,0.519111 0.55088,0.777777 0.28132,0.371797 0.56212,0.743887 0.8427,1.116243 0.0889,0.1604 0.17768,0.320509 0.2666,0.48091 0.056,0.08132 0.11429,0.161623 0.16892,0.243922 0.14986,0.232433 0.29501,0.467734 0.44372,0.700882 0.0433,0.06873 0.0936,0.132079 0.14434,0.195389 0.0489,0.06462 0.10271,0.124985 0.15821,0.184045 0.049,0.05127 0.0845,0.113211 0.11781,0.17522 0.11612,0.193733 0.23225,0.387794 0.35107,0.579866 0.0943,0.154474 0.19008,0.307702 0.28364,0.462632 0.15881,0.223927 0.31768,0.447961 0.4765,0.671888 0.076,0.123641 0.1491,0.24884 0.22185,0.374393 0.0422,0.07433 0.0872,0.146928 0.13363,0.218709 0.0781,0.121676 0.15956,0.241172 0.24202,0.359896 0.0333,0.05578 0.0619,0.114199 0.0927,0.171439 -0.10819,0.004 -0.21637,0.008 -0.32461,0.01134 -0.25844,0.0064 -0.51678,0.01346 -0.77525,0.01828 -0.0214,-0.03858 -0.0444,-0.07608 -0.0725,-0.110297 -0.0505,-0.0643 -0.0677,-0.146065 -0.0971,-0.220601 -0.0328,-0.07249 -0.0822,-0.13564 -0.12228,-0.204213 -0.0433,-0.06725 -0.0856,-0.135477 -0.13236,-0.200432 -0.0484,-0.06677 -0.099,-0.132724 -0.13489,-0.207365 -0.0333,-0.06777 -0.0707,-0.133052 -0.11342,-0.19539 -0.11867,-0.183464 -0.2352,-0.367842 -0.3555,-0.550243 -0.10696,-0.155208 -0.21495,-0.310393 -0.32523,-0.463262 -0.13518,-0.181827 -0.27021,-0.363443 -0.40716,-0.543939 -0.23708,-0.2944 -0.47387,-0.588636 -0.71097,-0.883035 -0.0727,-0.09755 -0.14689,-0.194549 -0.21555,-0.294977 -0.0429,-0.06612 -0.0931,-0.126203 -0.14498,-0.185305 -0.0651,-0.0759 -0.12447,-0.15736 -0.17773,-0.24203 -0.0458,-0.06751 -0.0863,-0.13853 -0.13551,-0.203584 -0.1765,-0.220731 -0.35417,-0.440614 -0.53008,-0.661803 -0.0853,-0.112552 -0.16768,-0.227288 -0.24959,-0.342247 -0.0571,-0.0959 -0.1077,-0.195615 -0.16199,-0.293085 -0.0369,-0.0739 -0.0699,-0.149509 -0.11538,-0.21871 -0.0407,-0.06565 -0.0816,-0.131381 -0.12669,-0.194129 -0.0768,-0.112296 -0.15688,-0.222418 -0.23637,-0.332793 -0.0507,-0.09448 -0.10028,-0.189482 -0.14811,-0.28552 -0.0525,-0.08352 -0.10734,-0.165618 -0.16577,-0.245184 -0.0458,-0.06229 -0.0892,-0.126771 -0.13803,-0.186566 -0.0473,-0.05774 -0.11307,-0.09813 -0.15443,-0.161352 -0.0528,-0.06806 -0.0859,-0.147895 -0.12541,-0.223754 -0.0437,-0.08443 -0.0877,-0.169308 -0.13993,-0.248964 -0.0822,-0.131943 -0.16829,-0.261342 -0.25526,-0.390149 -0.0626,-0.102676 -0.11868,-0.208544 -0.17649,-0.313883 -0.123,-0.177239 -0.24532,-0.355286 -0.3744,-0.528184 -0.0436,-0.05981 -0.0848,-0.121505 -0.12353,-0.184674 -0.0382,-0.06481 -0.0836,-0.125179 -0.11659,-0.192869 -0.0479,-0.08664 -0.0938,-0.173769 -0.14624,-0.257788 -0.0397,-0.07206 -0.0899,-0.137862 -0.13741,-0.204845 -0.0628,-0.08828 -0.12282,-0.178655 -0.18341,-0.268502 -0.0369,-0.04968 -0.0588,-0.106796 -0.0768,-0.165137 z m 25.93262,6.568244 c -0.019,9.07e-4 -0.0345,0.0033 -0.0453,0.007 -0.0677,0.0096 -0.20757,0.227314 -0.4204,0.652978 -0.0774,0.174136 -0.16479,0.324263 -0.26158,0.450027 -0.12571,0.164458 -0.24146,0.30012 -0.34791,0.406536 l -0.18909,0.188458 c -0.16453,-0.135439 -0.28028,-0.271097 -0.34792,-0.406537 -0.01,-0.0096 -0.0338,-0.0386 -0.0725,-0.08697 -0.0387,-0.05804 -0.0725,-0.111089 -0.10145,-0.159463 -0.0292,-0.04837 -0.0435,-0.08213 -0.0435,-0.101482 0,-0.0096 -0.0192,-0.03379 -0.0579,-0.07248 -0.0289,-0.02902 -0.0532,-0.08751 -0.0724,-0.174591 -0.0192,-0.08708 -0.0681,-0.16905 -0.1456,-0.246443 -0.0579,-0.05806 -0.087,-0.10145 -0.087,-0.13047 0,-0.0096 -0.0291,-0.02897 -0.087,-0.05798 -0.058,-0.02902 -0.12074,-0.05794 -0.18845,-0.08697 l -0.11599,-0.04412 c -0.15479,-0.06772 -0.32421,-0.101482 -0.50803,-0.101482 h -0.0291 c -0.0292,0 -0.0732,0.03858 -0.13108,0.115968 -0.0483,0.06772 -0.0774,0.329395 -0.087,0.784081 -0.01,0.270876 -0.0289,0.517453 -0.0579,0.739959 -0.0292,0.212832 -0.0435,0.512457 -0.0435,0.899423 -0.0387,0.870681 -0.0579,1.364465 -0.0579,1.480549 0,0.07739 -0.0144,0.178665 -0.0435,0.30443 -0.0193,0.135447 -0.0291,0.222251 -0.0291,0.260939 0,0.164466 0.0531,0.276014 0.15947,0.334054 0.10647,0.06772 0.22761,0.101481 0.36305,0.101481 0.0968,0 0.1836,-0.02411 0.26094,-0.07248 0.0388,-0.03869 0.0772,-0.05798 0.11599,-0.05798 0.0773,0 0.11599,-0.527543 0.11599,-1.582026 v -0.478389 c 0,-0.793285 0.0242,-1.204457 0.0725,-1.233477 0.0193,-0.01936 0.0242,-0.04828 0.0145,-0.08697 -0.01,-0.02904 -0.0145,-0.05377 -0.0145,-0.07311 0.01,-0.0096 0.02,-0.0145 0.0296,-0.0145 0.029,0.01936 0.0628,0.06338 0.10145,0.1311 0.10636,0.193484 0.29449,0.425593 0.56536,0.696469 0.0579,0.07739 0.087,0.120798 0.087,0.130471 0,0.02903 0.0291,0.07242 0.087,0.130469 0.0582,0.05805 0.12148,0.10145 0.18909,0.13047 0.14507,0.04839 0.27045,0.07311 0.37691,0.07311 0.26119,0 0.41133,-0.111552 0.45002,-0.334052 0.0291,-0.08707 0.11587,-0.222728 0.26094,-0.406537 0.15473,-0.193484 0.24697,-0.289934 0.27608,-0.289934 0.0291,0 0.0435,0.0868 0.0435,0.260941 0.01,0.08707 0.0145,0.387322 0.0145,0.900053 0,0.841653 -0.01,1.378208 -0.0291,1.610388 -0.01,0.08709 -0.005,0.160048 0.0145,0.21808 0.0292,0.05806 0.0435,0.106283 0.0435,0.144966 0,0.174136 0.16461,0.260941 0.49352,0.260941 0.22258,0 0.36306,-0.04341 0.42104,-0.130471 0.0291,-0.0387 0.0434,-0.09175 0.0434,-0.159462 0,-0.106418 -0.0192,-0.34817 -0.0579,-0.725464 -0.0193,-0.290223 -0.0393,-0.779186 -0.0586,-1.466052 -0.0196,-1.218954 -0.0628,-1.871879 -0.13047,-1.958939 -0.01,-0.01934 -0.0289,-0.07239 -0.0579,-0.159462 -0.0191,-0.09674 -0.0434,-0.169069 -0.0725,-0.217451 -0.0289,-0.05805 -0.0628,-0.08761 -0.10145,-0.08761 -0.029,0 -0.0578,-0.02895 -0.087,-0.08697 -0.029,-0.05803 -0.0578,-0.08697 -0.087,-0.08697 -0.0387,-0.0096 -0.10611,-0.01932 -0.20295,-0.02899 -0.0544,-0.0061 -0.0974,-0.0085 -0.12921,-0.007 z m -6.60354,0.05042 c -0.0967,0 -0.16488,0.0193 -0.20358,0.05799 -0.0193,0.02903 -0.0965,0.06343 -0.23194,0.102115 -0.1257,0.02902 -0.19801,0.05796 -0.21746,0.08697 -0.029,0.02903 -0.0531,0.0435 -0.0725,0.0435 -0.0775,0 -0.29503,0.164594 -0.65297,0.493516 -0.21279,0.193484 -0.36291,0.415948 -0.45003,0.667477 -0.0192,0.09674 -0.0434,0.169069 -0.0724,0.217449 -0.0677,0.145112 -0.10145,0.469479 -0.10145,0.972537 0,0.280548 0.01,0.473447 0.0291,0.579866 0.0484,0.367618 0.19849,0.687164 0.45003,0.958038 0.0871,0.09675 0.21791,0.213114 0.39205,0.348551 0.18375,0.125767 0.31878,0.198106 0.40589,0.21745 0.21283,0.06773 0.44976,0.111126 0.71097,0.13047 0.058,0 0.19372,0.02411 0.40654,0.07248 0.14508,0.03869 0.27592,0.05798 0.39203,0.05798 0.12573,0 0.24631,-0.02894 0.36242,-0.08697 0.1354,-0.0774 0.24694,-0.130443 0.33406,-0.159464 0.0774,-0.02903 0.15931,-0.08691 0.24644,-0.17396 0.0968,-0.08706 0.1456,-0.155202 0.1456,-0.203582 0,-0.02902 0.01,-0.0435 0.0291,-0.0435 0.0193,0 0.0291,-0.01447 0.0291,-0.0435 0,-0.01935 0.0433,-0.09169 0.13047,-0.21745 0.12571,-0.164462 0.24209,-0.420682 0.34855,-0.768953 0.0387,-0.116089 0.0579,-0.285507 0.0579,-0.508013 0,-0.299898 -0.0338,-0.551299 -0.10145,-0.754457 -0.0193,-0.0774 -0.0291,-0.145542 -0.0291,-0.203583 0,-0.09675 -0.0778,-0.280625 -0.23256,-0.551503 l -0.0291,-0.0435 c -0.0193,-0.0387 -0.0338,-0.06763 -0.0435,-0.08697 -0.0291,-0.06772 -0.15986,-0.207572 -0.39204,-0.420404 -0.23225,-0.222496 -0.38656,-0.358156 -0.46389,-0.406536 -0.0291,-0.01933 -0.1261,-0.05309 -0.29057,-0.101482 -0.16438,-0.05806 -0.26082,-0.102073 -0.28993,-0.131099 -0.0288,-0.02903 -0.053,-0.0435 -0.0725,-0.0435 -0.0387,0 -0.0579,-0.0096 -0.0579,-0.029 -0.01,-0.0096 -0.0387,-0.0096 -0.087,0 h -0.14559 -0.0725 -6.4e-4 c 0,-0.01934 -0.0531,-0.02899 -0.15946,-0.02899 z m -3.88636,0.0145 c -0.25149,0.04837 -0.43055,0.102052 -0.537,0.160093 -0.0774,0.04839 -0.12554,0.07248 -0.14498,0.07248 -0.0193,0 -0.14054,0.06751 -0.36303,0.202954 -0.21291,0.125777 -0.35339,0.217404 -0.42104,0.275436 -0.10635,0.08708 -0.17874,0.135929 -0.21746,0.145597 -0.17409,0.07739 -0.31457,0.251632 -0.42102,0.522509 -0.058,0.135441 -0.10134,0.217424 -0.13049,0.246443 -0.0292,0.02903 -0.0435,0.06279 -0.0435,0.101482 0,0.05805 -0.015,0.115919 -0.0442,0.173959 -0.0968,0.222506 -0.14495,0.513116 -0.14495,0.871059 0,0.193484 0.0144,0.391838 0.0435,0.594994 0.0387,0.299913 0.0725,0.478974 0.10144,0.537006 0.0292,0.05803 0.0442,0.09661 0.0442,0.115968 0,0.0096 0.0338,0.06755 0.10145,0.173959 0.0677,0.106431 0.10145,0.164293 0.10145,0.173961 0,0.02904 0.0242,0.05315 0.0725,0.07248 0.0193,0.0096 0.10134,0.073 0.24645,0.189087 0.14518,0.11609 0.24226,0.17396 0.29057,0.17396 0.0292,0 0.0724,0.02895 0.13047,0.08697 0.0677,0.05803 0.11099,0.08697 0.13047,0.08697 0.0195,0 0.0634,0.0241 0.13109,0.07248 0.058,0.04839 0.16897,0.07311 0.33342,0.07311 0.0388,0 0.0966,0.0049 0.17396,0.0145 0.0774,0 0.16961,0.0049 0.27607,0.0145 0.10647,0.0096 0.18847,0.0145 0.24645,0.0145 0.0871,0.0096 0.19861,0.0145 0.33404,0.0145 0.19342,0 0.33392,-0.02474 0.42104,-0.07311 0.0967,-0.05805 0.18832,-0.168964 0.27544,-0.333423 0.0579,-0.09674 0.087,-0.188995 0.087,-0.276068 0,-0.106417 -0.0531,-0.212509 -0.15946,-0.318927 l -0.17458,-0.173959 c -0.18379,0.06772 -0.31401,0.140057 -0.39141,0.217451 -0.0677,0.08708 -0.16962,0.140117 -0.30507,0.159462 -0.30957,0.03869 -0.4838,0.05798 -0.52252,0.05798 -0.12575,0 -0.32892,-0.06269 -0.60948,-0.188455 -0.19347,-0.08708 -0.28993,-0.183515 -0.28993,-0.289933 0,-0.01934 -0.0192,-0.04892 -0.0579,-0.08761 -0.0191,-0.01934 -0.0434,-0.07722 -0.0725,-0.17396 -0.029,-0.09675 -0.0531,-0.154616 -0.0725,-0.17396 -0.0483,-0.07739 -0.0725,-0.232344 -0.0725,-0.464523 0,-0.406316 0.0387,-0.648069 0.11599,-0.725463 0.0194,-0.01936 0.0291,-0.04345 0.0291,-0.07248 0,-0.04837 0.0537,-0.179208 0.1601,-0.39204 0.10635,-0.212838 0.17384,-0.323755 0.20295,-0.333422 0.029,-0.01936 0.053,-0.04345 0.0725,-0.07248 0.01,-0.02903 0.0917,-0.101999 0.24645,-0.21808 0.16443,-0.116089 0.30491,-0.2029 0.42104,-0.260939 0.18376,-0.106418 0.31941,-0.159464 0.40653,-0.159464 0.0484,0 0.10145,-0.0049 0.15946,-0.01449 0.0579,-0.0096 0.0918,-0.0145 0.10145,-0.0145 0.0581,0 0.12087,0.03376 0.18846,0.101482 0.18381,0.164462 0.38697,0.246443 0.6095,0.246443 h 0.0434 c 0.0774,-0.01936 0.12617,-0.04345 0.1456,-0.07248 0.0193,-0.0387 0.0291,-0.10621 0.0291,-0.202953 0,-0.125776 -0.0192,-0.218034 -0.058,-0.276066 -0.0291,-0.05803 -0.0826,-0.111077 -0.16009,-0.159463 -0.0775,-0.04836 -0.13044,-0.08694 -0.15947,-0.115968 -0.0677,-0.04837 -0.19373,-0.111699 -0.37754,-0.189086 -0.17412,-0.08707 -0.32363,-0.130469 -0.4494,-0.130469 z m 4.55447,0.987033 c 0.12584,0 0.22773,0.03376 0.30505,0.101481 0.058,0.04838 0.14483,0.14482 0.26094,0.289933 0.11612,0.145117 0.17397,0.22773 0.17397,0.247074 0,0.01936 0.0242,0.08687 0.0725,0.202953 0.0579,0.125763 0.0918,0.338584 0.10145,0.638482 0,0.319251 -0.0338,0.55618 -0.10145,0.710968 -0.058,0.14511 -0.14967,0.314528 -0.27545,0.508013 -0.12582,0.193472 -0.2229,0.314665 -0.29055,0.363046 -0.10637,0.08708 -0.30476,0.130469 -0.595,0.130469 h -0.11599 c -0.058,-0.0096 -0.10623,-0.0145 -0.14495,-0.0145 -0.3386,-0.01935 -0.59484,-0.101333 -0.76896,-0.246441 -0.2999,-0.232181 -0.45002,-0.604772 -0.45002,-1.117503 0,-0.319247 0.0627,-0.619503 0.18845,-0.900054 0.0967,-0.212833 0.25168,-0.411182 0.46452,-0.594992 0.22249,-0.193482 0.40155,-0.289934 0.53701,-0.289934 h 0.0434 c 0.0484,0.01934 0.13583,0.01934 0.26157,0 0.19349,-0.01934 0.30441,-0.02899 0.33343,-0.02899 z m -8.19691,3.322883 c -0.0322,5.99e-4 -0.0765,0.0199 -0.13362,0.05799 -0.22252,0.145112 -0.33343,0.348287 -0.33343,0.60949 0,0.06772 0.0531,0.135867 0.15947,0.203583 0.10635,0.05804 0.21247,0.08697 0.31892,0.08697 0.0775,0 0.14079,-0.0193 0.18909,-0.05799 0.0388,-0.03869 0.0822,-0.05798 0.13047,-0.05798 0.0291,0 0.0677,-0.05367 0.11599,-0.160094 0.0483,-0.106418 0.0725,-0.193223 0.0725,-0.260939 0,-0.125771 -0.10611,-0.232496 -0.31892,-0.319557 -0.0968,-0.04837 -0.15041,-0.07731 -0.1601,-0.08697 -0.01,-0.01004 -0.0236,-0.0148 -0.0404,-0.0145 z" />
  </g>
</svg>
